<svg xmlns="http://www.w3.org/2000/svg" viewBox="0 0 449.72 403.94"><defs><style>.cls-1{fill:#2b4c5c;}.cls-2{fill:#3d3d3c;}</style></defs><title>Valores</title><g id="Camada_2" data-name="Camada 2"><g id="Camada_1-2" data-name="Camada 1"><path class="cls-1" d="M233.25,266.41a45.23,45.23,0,0,1-6.79-.69c-1.09-.47-1.12-1.68-.07-3,.44-.55,2.2-3.08,3.94-5.61,2.11-3.12,3.41-4.64,3.95-4.71.71-.09,1.22.68,3.73,5.91a44,44,0,0,0,3.29,6.21c.22.08.34.53.34,1,0,.82-1,1.43-2.08,1.29-.2-.05-3.06-.22-6.31-.38Z"/><path class="cls-2" d="M315.8,336.37C249.86,324.12,195.61,314,195.22,314c-.57-.14,1.6-3.57,11-17.4,6.43-9.46,11.93-17.38,12.21-17.58s21.67.82,53.74,2.59c29.28,1.63,54,2.95,55,2.92,1.92,0,3-.69,3-2,0-.4-20-57.49-44.41-126.81S241.3,29.36,241.3,29c0-.75,7.57-28.23,8-29,.17-.32,183.58,316,190.66,328.87l1.18,2.16-2.57,13.7c-1.4,7.51-2.61,13.73-2.69,13.81s-54.12-9.91-120.06-22.17"/><path class="cls-1" d="M0,374.87c0-.2,189.37-329,190.48-330.69.3-.46,5.05-2.32,13.67-5.4l13.19-4.73.45,1c1.1,2.49,81.4,229.9,81.28,230.17s-9.55-.41-21.11-1.23l-21-1.55-24.74-48.85c-13.6-26.88-25-49.14-25.34-49.53a2.39,2.39,0,0,0-1.61-.65c-1,0-11,11.54-87.72,101.2-47.65,55.7-87,101.63-87.49,102.13-.64.68-3.7,1.59-15.44,4.59C6.57,373.44,0,375,0,374.87"/><path class="cls-1" d="M56.58,394.87c-5.83-5-10.66-9.17-10.71-9.28s35.46-41.83,78.94-92.67,79.36-92.76,79.69-93.17c.61-.74,1.08.11,9.72,18.13,5,10.4,9.05,19.16,9,19.49s-13.56,21.1-29.9,46.21c-30.42,46.67-30.7,47.14-29.23,48.36.29.24,59.91,11.54,132.46,25.09l131.89,24.7,10.64,10.86,10.67,10.83-93.58.25c-51.48.14-137.53.24-191.26.24l-97.68,0Z"/></g></g></svg>