<svg xmlns="http://www.w3.org/2000/svg" viewBox="0 0 57.09 56.87"><defs><style>.cls-1{fill:#3d3d3c;}.cls-2{fill:#2b4c5c;}.cls-3{fill:#d8d9dd;}</style></defs><title>Icone - Instagram </title><g id="Camada_2" data-name="Camada 2"><g id="Camada_1-2" data-name="Camada 1"><path class="cls-1" d="M54.3,29.84a18.84,18.84,0,0,1-.24,3.86,25.2,25.2,0,0,1-1.46,5.53,33.26,33.26,0,0,1-1.54,3.39,26.21,26.21,0,0,1-2.67,4,18.43,18.43,0,0,1-1.87,2.17,33.47,33.47,0,0,1-3.05,2.63,27.71,27.71,0,0,1-2.64,1.78,31.7,31.7,0,0,1-4.38,2,38,38,0,0,1-3.88,1.11,15.16,15.16,0,0,1-2.62.36,28.19,28.19,0,0,1-3.9.11,25.45,25.45,0,0,1-4.69-.55,28.67,28.67,0,0,1-4.71-1.5,27.69,27.69,0,0,1-4.43-2.43A36,36,0,0,1,8.7,49.63a25.44,25.44,0,0,1-1.83-1.91,23.29,23.29,0,0,1-2.09-2.66,29,29,0,0,1-1.73-3,23.36,23.36,0,0,1-1.69-4,30.14,30.14,0,0,1-1.07-4.9A28.8,28.8,0,0,1,0,28.09c0-1,.25-1.95.37-2.93a15,15,0,0,1,.47-2.58,29.73,29.73,0,0,1,1.92-5.14,35.46,35.46,0,0,1,2-3.49c.48-.73,1-1.41,1.6-2.1a15,15,0,0,1,1.44-1.64c.41-.38.82-.77,1.24-1.14a27.39,27.39,0,0,1,3.25-2.52c.44-.29.89-.57,1.35-.83a27.41,27.41,0,0,1,4.65-2.11,29.05,29.05,0,0,1,4.87-1.18,26.43,26.43,0,0,1,4.86-.28,29,29,0,0,1,4.44.49,29.14,29.14,0,0,1,5.13,1.53A27.67,27.67,0,0,1,41.22,6a24.82,24.82,0,0,1,4.53,3.42,27,27,0,0,1,3,3.26,31.34,31.34,0,0,1,1.9,2.75,26.42,26.42,0,0,1,2.1,4.43,39.68,39.68,0,0,1,1.24,4.42c.15.66.15,1.34.25,2A31.24,31.24,0,0,1,54.3,29.84Z"/><path class="cls-2" d="M57.06,27.71a19.55,19.55,0,0,1-.23,3.87,26.1,26.1,0,0,1-1.47,5.53,32.15,32.15,0,0,1-1.54,3.38,25.68,25.68,0,0,1-2.66,4,19.51,19.51,0,0,1-1.88,2.17,32,32,0,0,1-3.05,2.63,26,26,0,0,1-2.64,1.78,31.75,31.75,0,0,1-4.38,2c-1.27.47-2.58.77-3.88,1.11a16.23,16.23,0,0,1-2.61.36,30,30,0,0,1-3.91.1,26.33,26.33,0,0,1-4.69-.54,28.71,28.71,0,0,1-4.71-1.51A28.44,28.44,0,0,1,15,50.24a37.56,37.56,0,0,1-3.52-2.73c-.67-.58-1.22-1.28-1.83-1.91a24.2,24.2,0,0,1-2.09-2.66,27.31,27.31,0,0,1-1.72-3,23.3,23.3,0,0,1-1.7-4A30,30,0,0,1,3.05,31,28.74,28.74,0,0,1,2.78,26C2.82,25,3,24,3.15,23a15,15,0,0,1,.47-2.58,29.73,29.73,0,0,1,1.92-5.14,34.34,34.34,0,0,1,2-3.49c.49-.74,1-1.42,1.6-2.1A15.15,15.15,0,0,1,10.6,8.08l1.23-1.14a28.14,28.14,0,0,1,3.25-2.51,14.52,14.52,0,0,1,1.36-.83,26.22,26.22,0,0,1,4.64-2.11A27.77,27.77,0,0,1,30.81,0a28.88,28.88,0,0,1,4.44.5,28.32,28.32,0,0,1,5.13,1.53A26.48,26.48,0,0,1,44,3.88a24.77,24.77,0,0,1,4.53,3.41,27.05,27.05,0,0,1,3,3.27,32.14,32.14,0,0,1,1.91,2.75,27.08,27.08,0,0,1,2.09,4.42,38.35,38.35,0,0,1,1.24,4.43c.15.65.15,1.34.25,2A28.9,28.9,0,0,1,57.06,27.71Z"/><path class="cls-3" d="M44.52,27.69c0,2.23,0,4.46,0,6.69a7.71,7.71,0,0,1-.47,2.84,8.17,8.17,0,0,1-3.08,4,8.56,8.56,0,0,1-4.71,1.39H23.09A8.06,8.06,0,0,1,15.48,37,11.12,11.12,0,0,1,15,33.65c0-4.14-.06-8.28,0-12.42a8.29,8.29,0,0,1,3.13-6.65,7.82,7.82,0,0,1,4.53-1.72c4.37-.23,8.73,0,13.09-.1A8.92,8.92,0,0,1,40.63,14a8.16,8.16,0,0,1,3.11,3.45,8.89,8.89,0,0,1,.78,4C44.51,23.51,44.52,25.6,44.52,27.69Z"/><path class="cls-2" d="M29.86,15.62c2.24,0,4.5-.13,6.74,0a5,5,0,0,1,4.75,3.58,10.51,10.51,0,0,1,.4,3.38c0,3.83,0,7.65,0,11.47a5.46,5.46,0,0,1-1.89,4.3,5.26,5.26,0,0,1-2.64,1.15,16.52,16.52,0,0,1-2.63.09H23.7a6.27,6.27,0,0,1-2.77-.52,5,5,0,0,1-2.88-3.65,14.46,14.46,0,0,1-.2-3.08c0-3.71,0-7.43,0-11.15a6,6,0,0,1,.82-3.2A5,5,0,0,1,22,15.82a8.57,8.57,0,0,1,2-.2Z"/><path class="cls-3" d="M37.4,27.63a7.58,7.58,0,0,1-7.73,7.65,7.7,7.7,0,1,1,7.73-7.65Z"/><path class="cls-3" d="M37.59,17.75a2.1,2.1,0,0,1,1.93,1.89,2.13,2.13,0,0,1-1.9,1.93,2.07,2.07,0,0,1-1.92-1.84A2,2,0,0,1,37.59,17.75Z"/><path class="cls-2" d="M29.76,32.41a4.63,4.63,0,0,1-4.83-4.86,4.58,4.58,0,0,1,4.78-4.77,4.82,4.82,0,0,1,.05,9.63Z"/></g></g></svg>