<svg xmlns="http://www.w3.org/2000/svg" viewBox="0 0 54.16 54"><defs><style>.cls-1{fill:#3d3d3c;}.cls-2{fill:#2b4c5c;}.cls-3{fill:#d8d9dd;}</style></defs><title>Icone - Localização</title><g id="Camada_2" data-name="Camada 2"><g id="Camada_1-2" data-name="Camada 1"><circle class="cls-1" cx="26.09" cy="27.91" r="26.09"/><path class="cls-2" d="M28.24,0a25.94,25.94,0,1,1-26,27A25.84,25.84,0,0,1,28.24,0Zm-.19,9.85a10.69,10.69,0,0,0-3.61.47A8.64,8.64,0,0,0,20.11,13a11.73,11.73,0,0,0-1.9,12.63,39,39,0,0,0,3.37,6.63c2.05,3.21,4.22,6.35,6.33,9.51.27.42.44.2.63-.07.76-1.07,1.54-2.12,2.28-3.2a68.54,68.54,0,0,0,7.37-12.92,11.62,11.62,0,0,0,1-4.23,13.54,13.54,0,0,0-.69-4.51,9.67,9.67,0,0,0-3.85-5.2A11,11,0,0,0,28.05,9.85Z"/><path class="cls-3" d="M28.05,9.85a11,11,0,0,1,6.62,1.75,9.67,9.67,0,0,1,3.85,5.2,13.54,13.54,0,0,1,.69,4.51,11.62,11.62,0,0,1-1,4.23,68.54,68.54,0,0,1-7.37,12.92c-.74,1.08-1.52,2.13-2.28,3.2-.19.27-.36.49-.63.07-2.11-3.16-4.28-6.3-6.33-9.51a39,39,0,0,1-3.37-6.63A11.73,11.73,0,0,1,20.11,13a8.64,8.64,0,0,1,4.33-2.64A10.69,10.69,0,0,1,28.05,9.85Zm.13,15.28a5.76,5.76,0,0,0,.14-11.52,5.76,5.76,0,1,0-.14,11.52Z"/><path class="cls-2" d="M28.18,25.13A5.76,5.76,0,1,1,34,19.39,5.77,5.77,0,0,1,28.18,25.13Z"/></g></g></svg>