<svg xmlns="http://www.w3.org/2000/svg" viewBox="0 0 57.37 56.57"><defs><style>.cls-1{fill:#3d3d3c;}.cls-2{fill:#2b4c5c;}.cls-3{fill:#d8d9dd;}</style></defs><title>Icone - Contato</title><g id="Camada_2" data-name="Camada 2"><g id="Camada_1-2" data-name="Camada 1"><circle class="cls-1" cx="26.67" cy="29.9" r="26.67"/><path class="cls-2" d="M57.37,27.33A27.4,27.4,0,1,1,29.71,0,27.37,27.37,0,0,1,57.37,27.33ZM23.57,7c-.9.45-1.72.83-2.5,1.26a22,22,0,0,0-2.71,1.58c-2,1.49-2.58,3.63-2.61,6a21.47,21.47,0,0,0,1.56,8c1,2.72,2.17,5.42,3.43,8.06A49.94,49.94,0,0,0,28,43.47a13.7,13.7,0,0,0,5,3.93,5.52,5.52,0,0,0,3.87.3,38.84,38.84,0,0,0,3.59-1.5c.75-.33,1.47-.73,2.23-1.11L36.93,33.6c-.9.46-1.69.89-2.51,1.26-.61.28-1.16.77-1.94.56a5.71,5.71,0,0,1-2.87-2.14,23.1,23.1,0,0,1-3.8-6.8A11.58,11.58,0,0,1,25,22.29,2.26,2.26,0,0,1,26.41,20c.88-.37,1.7-.87,2.57-1.27.36-.16.37-.31.21-.62q-1.11-2.16-2.2-4.33c-.76-1.52-1.51-3.05-2.28-4.58C24.35,8.44,24,7.72,23.57,7Z"/><path class="cls-3" d="M23.57,7c.39.75.78,1.47,1.14,2.2.77,1.53,1.52,3.06,2.28,4.58s1.46,2.89,2.2,4.33c.16.31.15.46-.21.62-.87.4-1.69.9-2.57,1.27A2.26,2.26,0,0,0,25,22.29a11.58,11.58,0,0,0,.83,4.19,23.1,23.1,0,0,0,3.8,6.8,5.71,5.71,0,0,0,2.87,2.14c.78.21,1.33-.28,1.94-.56.82-.37,1.61-.8,2.51-1.26l5.84,11.49c-.76.38-1.48.78-2.23,1.11A38.84,38.84,0,0,1,37,47.7a5.52,5.52,0,0,1-3.87-.3,13.7,13.7,0,0,1-5-3.93,49.94,49.94,0,0,1-7.29-11.59c-1.26-2.64-2.39-5.34-3.43-8.06a21.47,21.47,0,0,1-1.56-8c0-2.37.62-4.51,2.61-6a22,22,0,0,1,2.71-1.58C21.85,7.8,22.67,7.42,23.57,7Z"/></g></g></svg>