<svg xmlns="http://www.w3.org/2000/svg" viewBox="0 0 258.94 68.18"><defs><style>.cls-1{fill:#013c75;}.cls-2{fill:#003d76;}.cls-3{fill:#033c74;}.cls-4{fill:#033a72;}.cls-5{fill:#f9de7b;}.cls-6{fill:#2a5278;}.cls-7{fill:#35597e;}.cls-8{fill:#335a7f;}.cls-9{fill:#2f5579;}.cls-10{fill:#305578;}.cls-11{fill:#3e6285;}.cls-12{fill:#35597c;}.cls-13{fill:#3f6186;}.cls-14{fill:#44688b;}.cls-15{fill:#1c4067;}.cls-16{fill:#274f76;}.cls-17{fill:#24486c;}.cls-18{fill:#96a1b2;}.cls-19{fill:#4c6f93;}.cls-20{fill:#013d75;}.cls-21{fill:#fdc10f;}.cls-22{fill:#395c81;}.cls-23{fill:#31567c;}.cls-24{fill:#c5dcec;}.cls-25{fill:#d0e7f6;}</style></defs><title>Cliente Seta</title><g id="Camada_2" data-name="Camada 2"><g id="Camada_1-2" data-name="Camada 1"><path class="cls-1" d="M23.3,51.9c-5.95-.06-11.66-.49-16.83-2.66C3.32,47.92,1.29,46,.25,43.58c-.54-1.27-.36-2.1,2-1.93,1.33.09,2.68,0,4,0,2.74-.06,5.55-.34,6.57,2.22A3.15,3.15,0,0,0,14.51,45a28.85,28.85,0,0,0,17.54.46,2.68,2.68,0,0,0,2.27-2.59c-.06-1.06-1.16-1.65-2.37-2.1-4.51-1.64-9.49-2.09-14.37-2.74A61.72,61.72,0,0,1,7,36.08C3.2,34.85,1.11,32.82.84,29.82c-.28-3.21,1.49-5.61,5.41-7.22,5.46-2.26,11.53-2.44,17.6-2.36,4.82.06,9.61.47,13.85,2.34,3.07,1.35,5.27,3.14,5.92,5.75.25,1-.1,1.41-1.59,1.39-2.59,0-5.17,0-7.76,0a1.81,1.81,0,0,1-1.93-1c-.84-1.59-2.62-2.51-4.91-2.91a28.34,28.34,0,0,0-12.33.24c-1.71.46-2.93,1.28-3,2.62s1.37,1.93,2.9,2.41c3.79,1.22,7.92,1.41,11.91,2a106.22,106.22,0,0,1,10.63,1.82c4.57,1.18,8,3,8.16,6.81C45.9,45.81,43,48.33,38,50A48,48,0,0,1,23.3,51.9Z"/><path class="cls-2" d="M200,36.46c0-4.15,0-8.3,0-12.45,0-1.12.38-1.8,1.95-2.34q11.6-4,23-8.29c2.1-.79,2.2-.23,2.2,1q0,12.27,0,24.53c0,1-.61,1.47-1.7,1.92Q213.73,45.61,202,50.44c-1.57.66-2,.43-2-.78C200.07,45.26,200.05,40.86,200,36.46Z"/><path class="cls-3" d="M54.39,35.89c0-4.4,0-8.81,0-13.21,0-1.21.46-1.65,2.26-1.64q17.13.08,34.26,0c1.71,0,2.39.33,2.34,1.6-.15,4.39.61,3.51-4.83,3.55q-10.31.09-20.62,0c-1.76,0-2.52.22-2.54,1.63,0,4.76-.12,4.76,6.66,4.76,5.53,0,11.07.05,16.6,0,1.85,0,2.53.37,2.48,1.71-.14,4.33.57,3.5-4.88,3.54-6,0-12,.1-17.93,0-2.46-.06-3.13.53-2.91,2.15a16.92,16.92,0,0,1,0,4c-.14,1.37.67,1.69,2.49,1.67,7.94-.06,15.89,0,23.83-.06,2.29,0,3.15.37,3.06,2.09-.22,4.08.47,3.47-5.09,3.49-10.89,0-21.77,0-32.66,0-2,0-2.57-.45-2.54-1.83C54.46,44.83,54.39,40.36,54.39,35.89Z"/><path class="cls-4" d="M123.35,21.07c6.24,0,12.49.06,18.72,0,2.07,0,2.55.45,2.53,1.83,0,3.57,0,3.57-5.1,3.56-2.77,0-5.53.08-8.29,0-1.9-.06-2.44.42-2.43,1.73.08,6.92,0,13.84.09,20.75,0,1.67-.49,2.46-3.09,2.24a38.9,38.9,0,0,0-5.61,0c-1.91.11-2.44-.4-2.42-1.7.07-6.92-.07-13.84.09-20.75,0-1.86-.78-2.38-3.31-2.28-3.56.14-7.13,0-10.7.05-1.39,0-1.84-.33-2-1.28-.47-4.1-.51-4.09,5.16-4.09Z"/><path class="cls-5" d="M237.64,43.86c-4.48-.8-5.91-2-5.91-5.15,0-8.75-.06-17.5.05-26.25,0-1.76-.78-2.25-3.22-2.23-8.93.1-17.86-.11-26.77.12A21.16,21.16,0,0,1,192.17,8c-5.11-2.3-10.49-4.24-15.63-6.49-.5-.22-1.36-.28-1.24-.84s1-.6,1.7-.63h78.44c3.43,0,3.76.3,3.38,2.78a13.07,13.07,0,0,0-.12,2.07q0,23,.08,46.08c0,.82.07,2.17-1.93,1.34-6.48-2.71-13.2-5.17-19.21-8.41,1.22-.69,2.16-.06,3.15.33,4.6,1.8,9,3.9,13.56,5.69,2.55,1,2.86.91,2.87-1.09q0-22.66,0-45.32c0-2-.24-2.12-3.1-2.13-9.7,0-19.41,0-29.11-.07-5.42-.05-10.85-.12-16.26-.19-6.66-.09-13.33.25-20,.24-2.9,0-5.8-.68-8.86.08C185.71,4,191.6,6.29,197.44,8.68a12.36,12.36,0,0,0,4.68.59h25.43c5,0,6.08.69,6.1,4.32,0,8.31.1,16.62-.05,24.93,0,1.75.41,3,2.75,3.88C237.09,42.66,237.94,43.05,237.64,43.86Z"/><path class="cls-6" d="M79.9,62.94c0,1.47,0,2.65,0,3.83,0,.49,0,1.13-1,1.1-.82,0-.77-.6-.77-1,0-1.76,0-3.52,0-5.28,0-.43-.09-.93.63-1.14a1.76,1.76,0,0,1,1.82.51c1,1,2,2.08,3,3.1.43.42.61,1.3,1.54,1.06s.31-1,.35-1.54c.07-.81,0-1.63,0-2.45,0-.33.22-.63.74-.67.69,0,.93.29.93.7,0,1.94,0,3.89,0,5.84a.85.85,0,0,1-.69.93A1.49,1.49,0,0,1,85,67.38c-1-1-2-1.94-2.92-2.92A4.25,4.25,0,0,0,79.9,62.94Z"/><path class="cls-7" d="M27.61,65.19c0-1.3,0-2.6,0-3.9,0-.38,0-.81.74-.85.85,0,1,.38,1,.86,0,1.82,0,3.64,0,5.46,0,.45,0,.94-.72,1.12a1.81,1.81,0,0,1-1.79-.59c-1.48-1.48-2.91-3-4.6-4.72-.58,1.6-.2,3-.35,4.28-.05.43,0,1-.8,1s-.86-.54-.86-1c0-1.76,0-3.52,0-5.28,0-.5-.1-1,.85-1.2a1.74,1.74,0,0,1,1.73.64c1.38,1.45,2.79,2.88,4.19,4.31Z"/><path class="cls-8" d="M2,64c0-3.71,0-3.71,5.19-3.7.63,0,1.25,0,1.87,0,.46,0,.94.12.92.52s-.45.55-.91.56c-1.25,0-2.5.05-3.74,0-1,0-1.46.34-1.47,1s.53,1,1.52,1,2,0,2.94,0c.56,0,1.17.07,1.19.55s-.6.55-1.14.56c-1,0-2,0-3,0-1.15,0-1.58.33-1.59,1.12s.51,1.12,1.62,1.1,2.5,0,3.75,0c.47,0,.88.2.87.57S9.69,68,9.2,68c-2,0-4.1,0-6.15,0-.91,0-1-.59-1-1.12C2,65.88,2,64.94,2,64Z"/><path class="cls-9" d="M97.77,64c0-.88,0-1.76,0-2.64,0-.44-.06-1,.84-1s.94.55.84,1c-.45,1.91,1.19,1.94,3.19,2,1.71,0,2.5-.35,2.31-1.62-.07-.5-.36-1.31.84-1.33,1.38,0,1,.86,1,1.43,0,1.64,0,3.27,0,4.91,0,.49.07,1.13-1,1.11s-1-.66-.91-1.14c.14-1.39.08-2.38-2.7-2.28-2.19.08-3.11.44-2.82,2,.1.51.24,1.36-.83,1.35s-.78-.84-.81-1.36C97.74,65.67,97.77,64.85,97.77,64Z"/><path class="cls-10" d="M201.1,68.12a4.47,4.47,0,0,1-3.77-1.55c-.32-.39-.59-.86.12-1.15a1,1,0,0,1,1.27.41,2.34,2.34,0,0,0,1.23,1,4.76,4.76,0,0,0,3.33-.14c.48-.2.82-.56.57-1a3.28,3.28,0,0,0-2.37-1.06c-.35-.06-.71-.08-1-.17-1.52-.38-3.23-.72-3.14-2.17.06-1,1-1.76,2.44-2,1.91-.34,3.75-.3,5.09.94.38.35.78.8.16,1.17s-1.14,0-1.47-.37a2.42,2.42,0,0,0-1.95-.84c-1,0-2.09,0-2.35.86s.78,1,1.65,1.19c.51.11,1,.25,1.53.34,1.82.32,3.64.76,3.29,2.4S203.49,68.12,201.1,68.12Z"/><path class="cls-11" d="M59.93,64c0-3.76,0-3.76,5.43-3.74.53,0,1.07,0,1.6,0s.94.07,1,.48-.52.6-1,.64a16.21,16.21,0,0,0-1.86.06c-1.15.24-3.28-.75-3.25,1,0,1.56,2,.73,3.12.93a8.4,8.4,0,0,0,1.33,0c.56,0,1.15.14,1.11.61s-.63.54-1.19.55c-.89,0-1.79,0-2.68,0-1.18,0-1.85.2-1.81,1.16s.7,1,1.73,1c1.25,0,2.5,0,3.74,0,.6,0,1,.2,1,.69s-.42.53-.92.54c-2,0-3.92,0-5.88,0-1,0-1.38-.48-1.38-1.13C59.92,65.91,59.93,65,59.93,64Z"/><path class="cls-12" d="M47.55,64.67c-.6,0-1.31.24-1.6-.32-.18-.36.2-.61.72-.58,1,0,2.47-.44,2.83.48a8.47,8.47,0,0,1,.12,3.18c0,.15-.41.41-.42.41-1.94-.93-3.59.65-5.52.28-2.33-.44-3.8-1.34-4.18-3-.53-2.29.62-4.12,3.07-4.72,2.23-.54,4.41-.51,6.1.92.39.33,1,.71.38,1.14s-1.11.12-1.53-.26a4.25,4.25,0,0,0-5-.48,2.76,2.76,0,0,0-.78,4.16c1.19,1.25,2.86,1.34,4.71.79.33-.1.66-.18,1-.27,1,0,1.12-.43,1.14-1S48.32,64.64,47.55,64.67Z"/><path class="cls-13" d="M230.18,65.74c-.92.65-.54,2.55-2.25,2-1.36-.41.25-1.73.66-2.61.58-1.25,1.38-2.45,2-3.7a1.62,1.62,0,0,1,1.55-1.11,1.57,1.57,0,0,1,1.67,1c1,1.75,2,3.5,2.88,5.26.21.42.86,1-.18,1.27a1.15,1.15,0,0,1-1.51-1C234.2,64.86,232.07,65.53,230.18,65.74Z"/><path class="cls-14" d="M168.4,61.86c.4-.68.57-1.56,2-1.52s1.35.94,1.7,1.51c1,1.6,1.81,3.26,2.71,4.9.23.41.62.9-.1,1.16s-1.2-.21-1.59-.67c-1.5-1.78-2.9-2-5.55-.77-.46-1.2.26-2.16,1.24-3.07.53,0,.8.5,1.4.39,0-.71-1,.05-1.21-.42C168.43,62.93,168.72,62.34,168.4,61.86Z"/><path class="cls-15" d="M155.76,64.26c0,.95,0,1.89,0,2.83,0,.4-.2.79-.89.74a.68.68,0,0,1-.69-.71c0-2,0-3.9,0-5.85,0-.41.12-.8.8-.81s.84.38.85.78c0,1,0,2,0,3Z"/><path class="cls-16" d="M168.4,61.86c1,.37.63,1,.75,1.61h0l-1.62,3a5.32,5.32,0,0,1-.26.73,1.1,1.1,0,0,1-1.35.67c-.86-.23-.39-.72-.18-1.11Q167.06,64.3,168.4,61.86Z"/><path class="cls-17" d="M47.55,64.67c.43-.4,1.09-.66,1.42-.11a2,2,0,0,1,0,2.32c-.27.33-1.06-.12-1.42-.49C47.56,65.81,48.48,65.25,47.55,64.67Z"/><path class="cls-18" d="M217.92,67.27c-.06.53-.46.8-1.18.77s-1.05-.37-1-.86.44-.65,1-.66S217.89,66.77,217.92,67.27Z"/><path class="cls-19" d="M230.18,65.74c3.11-.85,4.32-.55,4.8,1.17C234,65.22,231.83,66,230.18,65.74Z"/><path class="cls-20" d="M193.61,49.5q-8.81-13.59-17.47-27.22c-.61-1-1.49-1.27-2.92-1.23-2.76.06-5.54.11-8.29,0-2-.1-2.82.49-3.56,1.69-3.12,5.05-6.39,10.06-9.58,15.1-2.5,4-5,7.91-7.42,11.87-.32.51-1.18,1.32.44,1.36,3.28.09,6.76.41,9.81-.21,2-.4,2-2.75,3-4.21a1.73,1.73,0,0,0,.21-.34c.46-1,1.33-1.43,2.95-1.4,4.9.08,9.82.18,14.7,0,3-.13,4.41.6,5.45,2.56,2,3.73,2.15,3.68,7.69,3.67,1.16,0,2.32-.05,3.47,0C194,51.2,194.47,50.82,193.61,49.5Zm-19-9.7H163.42c-1.24,0-1.58-.45-1.14-1.22q3.15-5.44,6.31-10.9l.68,0q3.21,5.55,6.43,11.08C176.15,39.55,175.66,39.8,174.63,39.8Z"/><path class="cls-21" d="M237.64,43.86c-.2-.21-.35-.53-.62-.59-4-.94-4.42-3-4.33-5.7.29-8.11.11-16.24.1-24.36,0-3.25-.24-3.41-4.78-3.41-7.68,0-15.36-.11-23,0a25.63,25.63,0,0,1-11.79-2.2c-5-2.37-10.46-4.36-16.3-6.74A42.57,42.57,0,0,1,183,.5c7,.58,14,.07,21.06.1,4.4,0,8.86,0,13.29,0,5-.08,10.15.28,15.21.12,7.66-.24,15.31.24,23,0,2,0,2.59.41,2.58,1.82q-.09,23.79,0,47.58c0,1.75-.73,1.77-2.53,1-5.3-2.29-10.64-4.53-15.94-6.82a3.42,3.42,0,0,0-2-.39Z"/><path class="cls-22" d="M143.71,66.67c.11-1.3-.85-2.52,0-4,.67-1.15-.58-2.14-2.49-2.39-5.07-.65-5.79-.22-5.78,3.43v.37a21.28,21.28,0,0,0,0,2.26c.06.56-.43,1.48.93,1.45,1.1,0,.73-.86.78-1.38.15-1.64,1.17-2.15,3.34-1.67,1.52.33,1.21,1.24,1.37,2a1.16,1.16,0,0,0,1.42,1.09C144.42,67.76,143.68,67.11,143.71,66.67Zm-1.82-4.14c-.11,1.17-1.51,1.23-2.87,1.19-1.27.13-1.9-.17-1.92-1.22,0-1.3,1.14-1.19,2.33-1.16S142,61.39,141.89,62.53Z"/><path class="cls-23" d="M119.63,61.25c-1,1.81-2,3.61-2.95,5.43-.2.37-.79.86,0,1.16a1,1,0,0,0,1.48-.71c.23-1.28,1.37-1.38,2.83-1.4s2.62.15,2.93,1.36a1.25,1.25,0,0,0,1.29.81c.6,0,.63-.34.64-.86a61.43,61.43,0,0,0-3.67-6.22C121.45,59.89,120.2,60.2,119.63,61.25Zm2.45,3.25a1.74,1.74,0,0,1-1.92,0c-.85-.9.27-1.57,1-2.32C121.57,63,122.88,63.63,122.08,64.5Z"/><path class="cls-24" d="M232.14,61.84c.67,1.13,1.9,1.87.72,2.89a1.43,1.43,0,0,1-1.65.07C230.27,63.77,231.6,63,232.14,61.84Z"/><path class="cls-25" d="M169.15,63.47c.64-.19.26-1.22,1.26-.93.7.2.85.92.91,1.48s-.53.55-1.09.57c-1.25,0-1.19-.52-1.08-1.12Z"/></g></g></svg>