<svg xmlns="http://www.w3.org/2000/svg" viewBox="0 0 272.15 55.68"><defs><style>.cls-1{fill:#619596;}.cls-2{fill:#192634;}.cls-3{fill:#1a2734;}.cls-4{fill:#619697;}.cls-5{fill:#629697;}.cls-6{fill:#737372;}.cls-7{fill:#717170;}.cls-8{fill:#727271;}.cls-9{fill:#747473;}.cls-10{fill:#777776;}.cls-11{fill:#787877;}.cls-12{fill:#7b7b7a;}.cls-13{fill:#767675;}.cls-14{fill:#6f6f6e;}.cls-15{fill:#fefefe;}.cls-16{fill:#fbfbfc;}.cls-17{fill:#fdfdfd;}.cls-18{fill:#fdfefe;}.cls-19{fill:#fcfcfc;}.cls-20{fill:#f7f7f7;}.cls-21{fill:#f5f5f5;}.cls-22{fill:#e7e7e6;}</style></defs><title>Cliente Cortez</title><g id="Camada_2" data-name="Camada 2"><g id="Camada_1-2" data-name="Camada 1"><path class="cls-1" d="M46.79,20.75A37,37,0,0,1,46.8,35a5.91,5.91,0,0,1-.56,3.09c-1.33,3.49-2.68,7-5.36,9.42-.51,0-.81.49-1.14.83-7.09,7.23-15.18,9.22-24,5.58S1.66,42.66.29,32C-1.95,14.55,9.11,1.46,21.29.14,28.09-.6,34,1.7,39.25,6.73c.5.48.89,1.29,1.72,1.18.16,1.17-.55,1.86-1.11,2.6a31,31,0,0,0-4,7.74c-.62,1.64-.43,2,1.18,2,2.59,0,5.19,0,7.78,0C45.5,20.26,46.23,20.12,46.79,20.75Z"/><path class="cls-2" d="M46.79,20.75c-3.56,0-7.13,0-10.69.06-1.2,0-1.51-.29-1.06-1.69A34.56,34.56,0,0,1,40.6,8.57,4.68,4.68,0,0,0,41,7.91C53.93-6.41,75.2-.44,80.74,19c.44,1.54.26,1.91-1.15,1.86-3.11-.12-6.23-.07-9.35,0a1.94,1.94,0,0,1-2-1.14C62.72,10.57,51.86,11.11,46.79,20.75Z"/><path class="cls-2" d="M40.88,47.49c.27-1.32,1.28-2,1.92-3a39.83,39.83,0,0,0,4-9.48c4.4,8.2,12.72,9.15,18.18,4.77a10.81,10.81,0,0,0,3.24-3.84,2.29,2.29,0,0,1,2.52-1.49c3.44.07,6.89,0,10.54,0-2.6,10-7.86,16.9-16.33,19.83C55.91,57.41,47.78,55.15,40.88,47.49Z"/><path class="cls-2" d="M210.75,21.46c0,6-4.06,10.63-9.43,10.63s-9.5-4.64-9.51-10.61,4.28-10.71,9.48-10.72S210.74,15.46,210.75,21.46Z"/><path class="cls-2" d="M218.31,23.86c0,2.53,0,4.45,0,6.36,0,1-.13,1.4-1.11,1.43-3.46.12-3.46.17-3.46-3.92,0-4.91.05-9.81,0-14.71,0-1.45.37-1.83,1.56-1.76,2.06.14,4.14,0,6.21.16,3.24.27,4.92,1.92,5.4,5s-.6,5.4-3.73,7.12l4.69,8c-1.82,0-3.35,0-4.87,0-.75,0-1-.58-1.26-1.14Z"/><path class="cls-3" d="M264.26,15.75c-2.13,0-3.91-.14-5.67,0-1.59.16-1.51-.92-1.42-2.1s-.55-2.48,1.31-2.43c4.43.12,8.87,0,13.67,0L263.34,27c2.43,0,4.49.05,6.55,0,1,0,1.49.42,1.22,1.5s1.05,3.1-1.21,3.11H255.37C258.34,26.31,261.18,21.23,264.26,15.75Z"/><path class="cls-2" d="M243.25,21.33c0-2.82.05-5.65,0-8.47,0-1.2.22-1.64,1.32-1.6q4.16.13,8.3,0c1.09,0,1.46.41,1.33,1.62a6.65,6.65,0,0,0,0,1.41c.12,1.18-.2,1.71-1.32,1.61s-2.54.06-3.8-.05-1,.9-1,1.71-.18,1.81,1.06,1.63a17.77,17.77,0,0,1,2.42,0c2.2,0,2.93,1.28,2.3,3.84-.17.67-.53.59-.91.6-1.1,0-2.19.06-3.29,0s-1.67,0-1.64,1.62.42,1.83,1.58,1.71,2.2.07,3.28-.05,1.34.43,1.35,1.61c0,3.13.05,3.13-2.61,3.13-2.37,0-4.73-.05-7.09,0-1,0-1.29-.3-1.26-1.46C243.29,27.24,243.25,24.28,243.25,21.33Z"/><path class="cls-4" d="M164.31,32.09c-5.18,0-9.33-4.76-9.33-10.64s4.27-10.71,9.51-10.7S174,15.51,174,21.46,169.8,32.12,164.31,32.09Z"/><path class="cls-2" d="M189.91,25v3c0,3.19,0,3.19-2.74,3.85a8.56,8.56,0,0,1-9.66-4.86A12.93,12.93,0,0,1,178.75,14a8.46,8.46,0,0,1,10.38-2.31,1.22,1.22,0,0,1,.79,1.31c0,1.6,0,3.19,0,5.1-1.57-1.46-3-2.64-5-2.2a4.32,4.32,0,0,0-2.63,1.77,7.12,7.12,0,0,0,.1,7.81C184.21,27.75,186.42,27.66,189.91,25Z"/><path class="cls-4" d="M103.91,21.13h.87c2.88,0,3.09.3,2.61,3.69-.54,3.91-2.41,6.35-5.78,7-3.82.79-7.48.25-10-3.71a12.21,12.21,0,0,1-.72-12c2.55-5.7,10.06-7.26,14.06-3,.39.43,1.33.93.42,1.68-.61.51-1,1.88-2.26.72a5.67,5.67,0,0,0-8.48.46,9.24,9.24,0,0,0-.6,10.06,6.3,6.3,0,0,0,8.27,2.28,5.85,5.85,0,0,0,1-.81,3.29,3.29,0,0,0,1.14-3.17c-.27-.89-1.44-.18-2.19-.38s-2,.68-2-1.27c0-1.21.27-1.75,1.36-1.62A21.11,21.11,0,0,0,103.91,21.13Z"/><path class="cls-4" d="M116.77,22.59c1.9,2.92,3.77,5.77,5.79,8.85-2,.41-3.49.34-4.62-1.81a34.77,34.77,0,0,0-4.7-6.62c0,2.3,0,4.6,0,6.9,0,1.27-.28,1.76-1.46,1.77s-1.46-.55-1.45-1.79c0-5.65.05-11.3,0-16.94,0-1.41.37-1.92,1.59-1.82a38.06,38.06,0,0,1,4.65.28c2.36.47,3.75,2.08,4,4.75.28,3-.72,4.92-3.07,6C117.3,22.25,117.11,22.39,116.77,22.59Z"/><path class="cls-2" d="M232.11,23.9c0-2.08-.05-4.16,0-6.24,0-1.1-.2-1.68-1.23-1.51a1.51,1.51,0,0,1-.52,0c-.7-.13-1.82.47-2-.39a13.55,13.55,0,0,1-.08-4c0-.62.62-.47,1-.47,3.57,0,7.14,0,10.7,0,.87,0,1.13.41,1.06,1.32a4.27,4.27,0,0,0,0,1c.33,2.14-.46,2.92-2.23,2.55-1.39-.29-1.86.27-1.81,2,.13,3.82,0,7.65.07,11.48,0,1.48-.19,2.09-1.65,2-3.28-.13-3.28,0-3.28-3.94Z"/><path class="cls-4" d="M138.69,19c0,2,.05,4,0,6.05-.11,3.78-1.7,6-4.85,6.81a9.94,9.94,0,0,1-4.47.1c-3.19-.61-5.06-3.07-5.18-7-.12-4.16,0-8.33-.05-12.5,0-1.31.57-1.36,1.4-1.35s1.6-.06,1.58,1.39c0,3.83,0,7.67.07,11.5.09,3.44,1.49,5,4.28,5s4.23-1.6,4.34-5c.11-3.63,0-7.26,0-10.89,0-1.15-.07-2,1.37-2s1.57.75,1.52,2.07c-.06,1.94,0,3.9,0,5.84Z"/><path class="cls-5" d="M142.58,21.45c0-2.82,0-5.64,0-8.45,0-1.34.25-2,1.53-1.88a37.51,37.51,0,0,1,5.5.33c2.47.54,3.73,2.47,3.65,5.65-.07,2.94-1.5,4.93-3.86,5.26a11.82,11.82,0,0,1-2.59.08c-1.09-.1-1.39.46-1.35,1.64.06,2,0,4,0,6,.05,1.31-.48,1.54-1.46,1.54s-1.48-.27-1.45-1.56C142.62,27.22,142.58,24.33,142.58,21.45Z"/><path class="cls-6" d="M115.86,36.19l2.38,6.38c.82-2.2,1.48-4,2.27-6.1.8,2.66.94,5.17,1.45,7.57.05.28,0,.52-.35.53s-.51-.23-.58-.59a14.13,14.13,0,0,0-.9-3.93l-1.88,4.85-2-5.06a20.31,20.31,0,0,0-.82,4.06c-.1.45-.25.78-.68.63s-.24-.53-.18-.84C115,41.35,115.38,39,115.86,36.19Z"/><path class="cls-6" d="M238.23,36.47a4.18,4.18,0,0,1,1.17.3c.54.27,1.47.61,1.12,1.43-.46,1-.91-.15-1.32-.4a2.24,2.24,0,0,0-3.37.81,3.73,3.73,0,0,0,.33,4.4,2.15,2.15,0,0,0,3.29.14,1.53,1.53,0,0,0,.64-1.35c-.09-.69-.64-.33-1-.41s-.76,0-.71-.58a.54.54,0,0,1,.66-.48c.7.1,1.75-.48,2,.43A3.13,3.13,0,0,1,240,44.07a3.36,3.36,0,0,1-4.36-.13,4.57,4.57,0,0,1-1.08-4.73A3.33,3.33,0,0,1,238.23,36.47Z"/><path class="cls-7" d="M173.49,40.63a3.94,3.94,0,0,1-3.67,4.19,4,4,0,0,1-3.65-4.24,3.85,3.85,0,0,1,3.7-4.11C172,36.48,173.51,38.25,173.49,40.63Z"/><path class="cls-8" d="M107.93,40.65c0,2.34-1.66,4.21-3.66,4.17a4.07,4.07,0,0,1-3.66-4.25,3.92,3.92,0,0,1,3.73-4.1C106.45,36.48,108,38.23,107.93,40.65Z"/><path class="cls-9" d="M155.36,36.58c1.76,0,3.1.32,3.73,2.08a4.85,4.85,0,0,1-.49,4.72c-1.12,1.53-2.7,1.22-4.18,1.21-.7,0-.58-.68-.59-1.18,0-1.54.06-3.09,0-4.63S153.92,36,155.36,36.58Z"/><path class="cls-10" d="M199.73,36.2l4.83,6c.43-2-.11-3.82.65-5.54a50.51,50.51,0,0,1,.33,8.28l-4.93-6.1c0,1.81,0,3.22,0,4.63,0,.41.16,1.08-.47,1-.45,0-.4-.57-.4-1C199.72,41.31,199.73,39.05,199.73,36.2Z"/><path class="cls-11" d="M228,44.65c-1.81-.23-2-2.45-3.4-3.54,0,1,0,1.8,0,2.62,0,.39,0,.88-.48.83-.35,0-.43-.39-.43-.74,0-2.08,0-4.17,0-6.25,0-.64.25-1,.83-1,1,.06,2.14-.38,2.82.93.45.88.62,2.13-.11,2.58-1.81,1.11-.62,1.92,0,2.88C227.46,43.44,228,43.77,228,44.65Z"/><path class="cls-12" d="M216.66,40.11a1.11,1.11,0,0,1-1.26.53c-.91,0-1.65-.12-1.63,1.49s.68,1.4,1.53,1.42c.45,0,1.26-.33,1.2.6s-.83.44-1.28.45c-2.34.1-2.34.07-2.34-2.61V39.37c0-2.95,0-3,2.59-2.78.38,0,1.08-.32,1,.57,0,.63-.63.4-1,.45a4.93,4.93,0,0,1-.86,0c-.75,0-.81.48-.82,1.16s.18,1,.79,1S215.94,39.53,216.66,40.11Z"/><path class="cls-7" d="M140.66,36.3l4.9,6.14V36.71l.49,0v7.81l-4.64-5.73v5.76l-.64,0C140.56,42,140.73,39.45,140.66,36.3Z"/><path class="cls-12" d="M192.58,40.32a1.42,1.42,0,0,1-1.35.32c-.86-.06-1.38.08-1.39,1.36s.42,1.64,1.42,1.55c.48,0,1.27-.23,1.28.55s-.81.5-1.25.5c-2.9,0-2.33.31-2.38-2.74,0-.8,0-1.61,0-2.42,0-3,.45-3.4,3-2.87.28.06.63,0,.63.49s-.35.42-.62.55c-.7.32-2.12-.81-2,1.15s1.42.64,2.13,1C192.24,39.85,192.49,39.81,192.58,40.32Z"/><path class="cls-13" d="M258.68,36.16c1,2.65,1.83,4.85,2.64,7.07.15.42.65,1,0,1.3-.47.22-.69-.38-.78-.83-.29-1.45-1.16-1.52-2.23-1.54s-1.17.86-1.47,1.61c-.18.45-.35,1-.83.78-.64-.27-.16-.79,0-1.15C256.81,41.13,257.67,38.86,258.68,36.16Z"/><path class="cls-6" d="M131,36.21c1.14,3,2.11,5.6,3.08,8.16-.86.59-1.1-.13-1.28-.76-.28-1-.7-1.5-1.72-1.47a1.67,1.67,0,0,0-1.89,1.48c-.12.48-.32,1.21-.91.92s-.07-.9.06-1.28C129.15,41.05,130,38.86,131,36.21Z"/><path class="cls-9" d="M269.83,44.83c-.53-.17-1.09-.21-1.43-.73s-.81-.81-.3-1.34.63.18.89.5c.71.86,1.47.83,2-.14s0-1.62-.71-2.1c-.35-.23-.75-.34-1.1-.56a2.18,2.18,0,0,1-.93-3c.61-1.28,1.71-1.19,2.75-.76.35.15.78.49.52,1.06s-.55.23-.84,0c-.59-.53-1.19-.64-1.59.22s.24,1.31.79,1.67c.35.23.74.36,1.1.58a2.45,2.45,0,0,1,1,2.88C271.74,44.44,270.8,44.69,269.83,44.83Z"/><path class="cls-9" d="M91.73,44.85a4.6,4.6,0,0,1-1.17-.59c-.37-.33-1-.84-.52-1.44s.69.24,1,.54A1.09,1.09,0,0,0,93,43.19a1.39,1.39,0,0,0-.48-2c-.48-.36-1.07-.52-1.54-.88a2.13,2.13,0,0,1-.52-3.09c.74-1.07,1.81-1,2.81-.33a.64.64,0,0,1,.3.82c-.22.5-.51.36-.82.06-.66-.62-1.35-.65-1.69.31s.39,1.28,1,1.61c.31.19.64.32.94.5A2.43,2.43,0,0,1,94,43C93.76,44.4,92.83,44.66,91.73,44.85Z"/><path class="cls-14" d="M248.16,40.57c0-1.07,0-2.14,0-3.21,0-.35.1-.7.45-.7s.46.35.46.7q0,3.3,0,6.6c0,.39-.17.63-.52.58s-.37-.29-.37-.57c0-1.14,0-2.27,0-3.4Z"/><path class="cls-15" d="M34.25,20.79c-3.21,0-6.27,0-9.32,0-.95,0-1.31.28-1.29,1.46.06,3.62.06,7.26,0,10.88,0,1.21.38,1.45,1.31,1.43,3.16-.05,6.32,0,9.52,0C33,39.59,27.11,43.1,21.75,42.16c-5.8-1-10.4-7.25-10.51-14.24-.1-6.77,4.47-13.29,10.12-14.41S32.69,15.61,34.25,20.79Z"/><path class="cls-15" d="M196.78,21.55c0-3.44,1.84-5.92,4.45-6s4.59,2.49,4.61,5.83-1.82,5.87-4.49,5.89S196.8,25.06,196.78,21.55Z"/><path class="cls-16" d="M218.21,18.15c.51-.84-.8-2.66,1.23-2.56,1.76.09,2.65.91,2.68,2.6s-.86,2.52-2.63,2.61C217.33,20.92,218.77,19,218.21,18.15Z"/><path class="cls-15" d="M170.86,21.44c0,4.15-2.76,7.44-6.28,7.48s-6.49-3.28-6.49-7.47,2.94-7.56,6.49-7.53S170.85,17.3,170.86,21.44Z"/><path class="cls-17" d="M113.28,17.09c.47-1-.83-3,1.4-2.84,1.95.11,2.83.91,2.84,2.86s-.92,2.81-3.07,2.79S113.84,18,113.28,17.09Z"/><path class="cls-18" d="M145.56,16.93c.1-1.32-.5-2.9,1.54-2.7s3.05.88,3.05,2.81-.81,2.47-3.13,2.62S145.89,17.87,145.56,16.93Z"/><path class="cls-19" d="M172.58,40.57a2.76,2.76,0,1,1-5.47.16,3.21,3.21,0,0,1,2.67-3.33A3.09,3.09,0,0,1,172.58,40.57Z"/><path class="cls-19" d="M104.2,43.79a3.11,3.11,0,0,1-2.61-3.36,3.05,3.05,0,0,1,2.73-3,3.22,3.22,0,0,1-.12,6.39Z"/><path class="cls-19" d="M154.64,40.39c.48-.77-1-2.79,1.19-2.77,1.75,0,2.58.94,2.6,2.87s-.85,3.07-2.63,3C154.64,43.53,154.64,43.53,154.64,40.39Z"/><path class="cls-20" d="M225.32,37.47c.68.16,1.4.29,1.32,1.4s-.86,1.16-1.5,1.17c-1,0-.51-.95-.58-1.49S224.49,37.27,225.32,37.47Z"/><path class="cls-21" d="M259.45,41.13a1.71,1.71,0,0,1-1.51,0c-.18-.45.08-.79.2-1.14s.31-.71.48-1.11A3.5,3.5,0,0,1,259.45,41.13Z"/><path class="cls-22" d="M130.17,41.35a5.37,5.37,0,0,1,.78-2.41,2.46,2.46,0,0,1,.82,2.11C131.55,41.71,130.77,41.22,130.17,41.35Z"/></g></g></svg>