<svg id="Camada_1" data-name="Camada 1" xmlns="http://www.w3.org/2000/svg" viewBox="0 0 1750.68 496.05"><defs><style>.cls-1{fill:#fff;}</style></defs><title>1 triangulo + artep branco</title><path class="cls-1" d="M312.82,298.49a45.16,45.16,0,0,1-6.75-.68c-1.09-.47-1.11-1.67-.07-3,.44-.55,2.19-3.07,3.92-5.59,2.1-3.11,3.39-4.61,3.93-4.68.7-.09,1.21.68,3.71,5.88a44.67,44.67,0,0,0,3.27,6.17c.22.09.34.53.34,1,0,.82-1,1.42-2.07,1.28-.2,0-3.05-.22-6.28-.37ZM395,368.1c-65.6-12.19-119.58-22.26-120-22.31-.57-.14,1.59-3.55,10.93-17.3,6.4-9.42,11.87-17.3,12.15-17.5s21.56.82,53.46,2.58c29.14,1.62,53.75,2.93,54.74,2.91,1.92,0,3-.69,3-2,0-.4-19.88-57.2-44.19-126.16S320.83,62.65,320.83,62.26c0-.74,7.54-28.09,7.94-28.82.17-.32,182.65,314.39,189.7,327.2l1.16,2.14-2.55,13.63c-1.39,7.48-2.59,13.67-2.67,13.75S460.56,380.3,395,368.1M80.76,406.4c0-.19,188.41-327.34,189.51-329,.3-.47,5-2.31,13.6-5.38L297,67.32l.44,1c1.1,2.48,81,228.73,80.87,229s-9.51-.41-21-1.23l-20.89-1.54L311.81,246c-13.53-26.74-24.87-48.89-25.21-49.27A2.39,2.39,0,0,0,285,196c-1,0-10.91,11.49-87.27,100.69-47.41,55.42-86.57,101.12-87,101.61-.64.68-3.69,1.59-15.37,4.58-8,2.06-14.55,3.62-14.55,3.48m56.29,19.9c-5.8-5-10.61-9.12-10.65-9.23s35.28-41.61,78.54-92.2,78.95-92.29,79.28-92.7c.61-.73,1.07.11,9.67,18.05,5,10.34,9,19,8.92,19.38s-13.49,21-29.75,46C242.8,362,242.52,362.48,244,363.69c.29.24,59.61,11.49,131.79,25L507,413.23,517.58,424l10.61,10.77-93.1.24c-51.22.14-136.83.25-190.29.25l-97.19,0Z"/><path class="cls-1" d="M1528.86,364.93v-5.44h15.6v10.86h-15.6Zm0,40.21V378.22h15.6V432h-15.6Zm-106.92,0V378.22h15.21v7.07l1.89-1.73a19.27,19.27,0,0,1,14-5.78h3.21V389.6l-1-.34a43.65,43.65,0,0,0-6.22-.53c-5.1-.16-5.27-.16-7.59,1-4.39,2.26-4.15.88-4.32,23V432H1422ZM1175.1,394.43V356.9h15.3v13.45c0,7.43,0,13.48.17,13.48s1.45-.78,3-1.72a26.91,26.91,0,0,1,14.15-4.25c5.52-.25,7.68.27,10.1,2.44,3,2.75,2.93,1.71,2.93,28V432h-15.2l-.17-43.47-1.29-1.12c-1.21-1-1.56-1.13-4.56-1a14.8,14.8,0,0,0-6.21,1.56l-2.93,1.38V432h-15.3Zm-124.65,10.71V378.22h15.17V381a12.36,12.36,0,0,0,.18,2.86,31.48,31.48,0,0,0,3.11-1.72,26.65,26.65,0,0,1,14.06-4.25c5.6-.25,7.77.27,10.08,2.44,3.12,2.75,2.94,1.71,2.94,28V432h-15.17V410.31l-.09-21.65-1-1c-2-1.91-8.45-1.39-12.59,1l-1.39.87V432h-15.17Zm-365.91,0V378.22h15.2V381a7.71,7.71,0,0,0,.25,2.86s1.46-.78,3-1.72a26.75,26.75,0,0,1,14.16-4.25c5.52-.25,7.69.27,10,2.44,3.12,2.75,3,1.71,3,28V432H715l-.1-21.73-.07-21.65-.93-1c-2-1.91-8.55-1.39-12.61,1l-1.46.87V432h-15.2Zm964.4,17.94a17.81,17.81,0,0,0,2.61-1.81l1.1-1.13V405.47l-1,.35a46.85,46.85,0,0,0-10.77,5.7c-2.33,2.05-3.11,3.72-3,6.39,0,3.88,2.43,5.84,6.92,5.84a10.41,10.41,0,0,0,4.13-.67m-14.82,9.4c-9.24-1.9-14-10.63-10.09-18.46a18.18,18.18,0,0,1,7.06-7.93c3.28-1.89,10.19-4.51,16.3-6.22l5.26-1.46v-3.72c0-6.83-2-9-8-8.63-2.67.08-3.35.35-4.31,1.22-1.54,1.45-2,2.32-2.33,4.74l-.33,2-7.61.09-7.68.08.43-2.42a16,16,0,0,1,1.37-4.48,19,19,0,0,1,7.19-7c7-3.56,20.87-3.56,27.84,0a19.74,19.74,0,0,1,7.34,7.15l1.13,2.15.26,17.6c.27,13.8.43,18.31,1,20.8a18.27,18.27,0,0,0,.94,3.54c.1.26-3,.42-7.32.42H1655l-1-4.14-1-4.07-1.21,1.66c-2,2.76-5.34,5.44-7.75,6.21a23.52,23.52,0,0,1-9.92.78Zm-310.26-9.4a11.47,11.47,0,0,0,2.59-1.81l1.21-1.13V405.47l-1,.35c-2.69.78-9.32,4.32-10.8,5.7-2.32,2.05-3.09,3.72-3.09,6.39.09,3.88,2.41,5.84,6.9,5.84a9.88,9.88,0,0,0,4.14-.67m-14.83,9.4c-9.23-1.9-14-10.63-10.11-18.46a18.51,18.51,0,0,1,7.17-7.93c3.26-1.89,10.18-4.51,16.2-6.22l5.37-1.46v-3.72c0-6.83-2-9-8-8.63-2.67.08-3.35.35-4.39,1.22A6.8,6.8,0,0,0,1313,392l-.33,2-7.59.09-7.68.08.35-2.42a14.92,14.92,0,0,1,1.46-4.48,19,19,0,0,1,7.16-7c7-3.56,20.88-3.56,27.86,0a19.05,19.05,0,0,1,7.27,7.15l1.11,2.15.35,17.6c.25,13.8.42,18.31.94,20.8.42,1.72.87,3.36,1,3.54s-3,.42-7.34.42h-7.6l-.94-4.14-1-4.07-1.13,1.66a18.42,18.42,0,0,1-7.85,6.21,23.43,23.43,0,0,1-9.9.78ZM958.56,396.05c-.61-7.23-2.85-9.91-8.12-9.56a8.93,8.93,0,0,0-3.62,1c-1.9,1.21-3,4.31-3.19,8.6l-.17,3.82H958.9Zm-12.7,36.43c-10.17-1.63-15.52-7.24-17.06-18.11a115.17,115.17,0,0,1,.08-20.19c.77-4.42,2.93-8.89,5.17-11.13,3.89-3.71,8.9-5.27,17.25-5.27s12.6,1.29,16.5,5.18c3.71,3.63,5.43,8.53,5.94,17.16l.35,5H943.46l.09,6.38c.18,7.42,1,9.83,3.54,11.37,2.08,1.32,6.64,1.23,8.62-.08,1.74-1.1,2.94-4.13,2.94-7.33l.07-2.05h7.6c8.64,0,7.95-.45,7.16,4.3-1.2,7.51-5.62,12.17-13.28,14.16a54.39,54.39,0,0,1-14.42.68ZM592.65,396.05c-.5-7.23-2.75-9.91-8-9.56a9.62,9.62,0,0,0-3.71,1c-1.81,1.21-2.95,4.31-3.2,8.6l-.15,3.82H593ZM580,432.48c-10.19-1.63-15.53-7.24-17.07-18.11-.63-4.33-.54-16.32.15-20.19.79-4.42,2.85-8.89,5.19-11.13,3.79-3.71,8.88-5.27,17.25-5.27,8.19-.1,12.5,1.29,16.48,5.18,3.71,3.63,5.34,8.53,5.88,17.16l.33,5H577.58l.15,6.38c.08,7.42.86,9.83,3.45,11.37,2.07,1.32,6.64,1.23,8.63-.08,1.71-1.1,2.94-4.13,3-7.33v-2.05h7.59c8.61,0,7.93-.45,7.15,4.3-1.2,7.51-5.6,12.17-13.21,14.16a54.27,54.27,0,0,1-14.39.68Zm252.78-24.42a7.88,7.88,0,0,0,5.11-4.58c1-2.13,1-2.76.85-7-.27-7.94-2.67-11.06-8.81-11.31-4.3-.19-6.48.94-8.28,4.48-1,2-1.28,3.12-1.46,6.32-.35,8.34,2.67,12.41,9.32,12.58a9.47,9.47,0,0,0,3.27-.52m10,31.4c3.79-1.11,4.91-3.44,2.6-5.69-1.8-1.65-5.43-2.5-13.38-3.27-9.57-.88-10.36-.88-12.08.53-1.46,1.09-3.71,4.9-3.71,6.3,0,1.09,1.39,2,3.71,2.48,2.75.6,20.71.36,22.86-.35m-22.6,8.37c-9.14-1-13.21-2.08-15.43-4.13-1.9-1.57-2.26-3.2-1.39-6.14s3.7-5.94,7.85-7.84l2.93-1.48-1.48-.33c-3.08-.6-6-2.75-5.93-4.31,0-1.81,1.72-4.66,4.48-7.42l2.86-2.85-1.91-2.17c-7.08-7.83-7.15-20.45-.35-27.33,4.57-4.49,10.18-6.22,18.91-6,6.62.27,9.39,1.05,13,4l2.25,1.9,1.71-1.73a15.37,15.37,0,0,1,9.42-4.15l2.94-.18v8.64l-4.23.17a20.81,20.81,0,0,0-5.18.69l-.87.54,1.13,2.75c1,2.33,1.11,3.27,1.11,7.25,0,5.69-1,8.53-4.13,12a19.81,19.81,0,0,1-10.44,6c-3.1.77-4.48.85-9.67.68l-6-.25-1.13,1.29c-1.27,1.56-1.27,2.24-.07,3.38s4,1.71,14.4,2.41c9.73.68,13.63,1.39,17.86,2.93,10.08,3.71,9.06,15.35-1.73,19.42-5,1.9-8.29,2.31-19.06,2.4-5.8.1-11.14.1-12,0Z"/><path class="cls-1" d="M1251,108.15V55.65l-215.68-.06,0,21.87V99.34l-1.53-2a130.35,130.35,0,0,0-14.31-14.53c-16.95-14.1-37-22.67-61.24-26.24-4.5-.68-11.19-.79-66.33-.89l-61.34-.18V177.44l0,121.84L735.84,55.38l-32.17-.08-32.15,0L619.21,189.37c-28.79,73.75-52.43,134.46-52.6,134.86-.27.73,1.43.76,32.06.76H631l6.51-16.68,6.55-16.7,118.56-.16,6.45,16.81L775.57,325H892V247.91h25l34,38.78v-.13l34,38.79h38.41c36.34,0,38.35,0,37.8-.76-.78-1-70.72-80.9-72.74-83.08l-1.59-1.75,3.46-1.43A146.83,146.83,0,0,0,1011,227c24.37-16.72,39.32-40.95,41.85-67.84a86.78,86.78,0,0,0-9.63-47.27l-2.06-3.78h81v217.2h61V108.15H1251ZM664.65,238.86l.71-1.88c8.94-23.23,38-97.22,38.14-97.22s8.9,22.3,19.48,49.55l19.23,49.55Zm325.94-77.11c-4.37,15.74-18.44,28-37.1,32.37v0c-4,.89-5,.94-32.79,1.08L892,195.4V108.23l28.08.21c23.37.16,28.65.29,31.36.85,10.39,2.2,18,5.71,25.41,11.86a42.72,42.72,0,0,1,14.63,25,45.14,45.14,0,0,1-.86,15.62"/><path class="cls-1" d="M1661.55,115.21c-9.33-19.63-25.29-35.39-46.86-46.34-12.07-6.15-24.37-10-39.9-12.36-4.52-.71-21.24-.78-271.11-.85,77.81.07,102.89.09,142.17.14V325.1c6.45,0,12.17,0,16.83.09l46.07.25V247.78l31.65-.16c34.39-.17,34.74-.18,46.5-2.89,22.15-5.07,42.41-16.24,57.15-31.42,26.48-27.31,33.22-65.07,17.5-98.1m-53.9,45.46a49.29,49.29,0,0,1-7.28,14.91c-7.83,10.15-19.84,17-33.65,19.1l0,0c-3.6.59-9.13.67-31.17.67h-26.8V108.26l27.88.15c24.4.16,28.4.28,31.65.94,19.92,4,34.46,16.34,39.2,33.3,1.23,4.44,1.31,13.41.14,18"/><rect class="cls-1" x="1300.22" y="163.73" width="95.28" height="0.02"/><polygon class="cls-1" points="1260.94 324.92 1260.94 271.9 1395.51 271.9 1260.94 271.9 1260.94 324.92 1338.77 324.92 1344.92 324.92 1338.77 324.92 1260.94 324.92"/><path class="cls-1" d="M1359.06,324.93h0"/><path class="cls-1" d="M1303.68,55.66h-1l-51.67,0h0v52.5h144.55v55.61h-95.29v53h95.29V271.9H1260.94v53h110c27.4,0,54.6.1,74.91.2V55.8c-39.29,0-64.36-.07-142.17-.14"/></svg>