<svg xmlns="http://www.w3.org/2000/svg" viewBox="0 0 267.38 240.16"><defs><style>.cls-1{fill:#18695a;}</style></defs><title>Ativo 29</title><g id="Camada_2" data-name="Camada 2"><g id="Camada_1-2" data-name="Camada 1"><path class="cls-1" d="M138.68,158.39a25.3,25.3,0,0,1-4-.41c-.65-.28-.66-1,0-1.78.26-.33,1.31-1.84,2.34-3.34,1.26-1.86,2-2.76,2.35-2.8s.73.4,2.22,3.51a27.32,27.32,0,0,0,2,3.69c.14.05.2.32.2.61,0,.49-.58.85-1.23.77-.12,0-1.82-.13-3.75-.23ZM187.76,200c-39.21-7.29-71.46-13.3-71.69-13.33s1-2.12,6.53-10.34c3.83-5.63,7.1-10.34,7.26-10.46s12.88.49,31.95,1.54c17.41,1,32.12,1.75,32.71,1.74,1.15,0,1.77-.41,1.77-1.16,0-.24-11.88-34.18-26.4-75.4s-26.43-75.12-26.43-75.35c0-.45,4.51-16.79,4.75-17.23.1-.19,109.15,187.88,113.36,195.53l.7,1.28L260.74,205c-.83,4.47-1.55,8.16-1.6,8.21S227,207.28,187.76,200M0,222.88c0-.12,112.59-195.62,113.25-196.61.18-.28,3-1.38,8.13-3.21l7.84-2.82.27.62c.65,1.48,48.39,136.68,48.32,136.84s-5.68-.24-12.55-.73l-12.48-.92L138.07,127C130,111,123.21,97.79,123,97.56a1.45,1.45,0,0,0-1-.39c-.58,0-6.52,6.86-52.15,60.17-28.34,33.12-51.74,60.43-52,60.72s-2.2.95-9.18,2.73C3.91,222,0,223,0,222.88m33.64,11.89c-3.46-3-6.34-5.45-6.37-5.52s21.09-24.87,46.94-55.1,47.18-55.14,47.38-55.39c.36-.44.64.06,5.78,10.78,3,6.18,5.37,11.39,5.33,11.59s-8.07,12.54-17.78,27.47c-18.08,27.75-18.25,28-17.38,28.76.18.13,35.62,6.86,78.75,14.91L254.71,227l6.33,6.46,6.34,6.43-55.64.15c-30.61.08-81.76.15-113.71.15H40Z"/></g></g></svg>