<svg xmlns="http://www.w3.org/2000/svg" viewBox="0 0 1138 39.82"><defs><style>.cls-1{fill:#fff;}</style></defs><title>COTAS 01 - MOBILE</title><g id="Camada_2" data-name="Camada 2"><g id="Camada_1-2" data-name="Camada 1"><line class="cls-1" y1="20.71" x2="1138" y2="20.71"/><path class="cls-1" d="M1136.67,18.28c1.68,0,1.08-.38,1.33-.46C1135.19,17.92,1136.74,18.39,1136.67,18.28Z"/><polygon class="cls-1" points="1108.94 19.23 1109.43 19.06 1105.34 19.48 1108.94 19.23"/><path class="cls-1" d="M1083,19.22c2.45.72,9.4-.11,14,.14l.76.16,2.09-.57C1094.25,19,1087,19.42,1083,19.22Z"/><path class="cls-1" d="M1069.17,17.68c.86.28-3,.24,3.23.09l-.59-.07C1071.25,17.7,1070.48,17.7,1069.17,17.68Z"/><path class="cls-1" d="M1071.81,17.7c2.74,0-1.78-.24,0,0Z"/><path class="cls-1" d="M1059.2,17.86l3.6-.25c-.75-.17-4-.2-2.77-.32C1056.34,17.42,1057.1,17.59,1059.2,17.86Z"/><path class="cls-1" d="M1055.79,18.38l1.86-.11A4.7,4.7,0,0,0,1055.79,18.38Z"/><path class="cls-1" d="M1061.61,18.05l-4,.22a2.06,2.06,0,0,0,1.82-.08C1059.15,18.4,1059.93,18.2,1061.61,18.05Z"/><path class="cls-1" d="M1063.85,18.16c2,.15,4.62.25,1,.5C1071.74,18.56,1070.73,18.06,1063.85,18.16Z"/><path class="cls-1" d="M1081.68,20l2.7.21,2.33-.24C1085.54,20.05,1081.51,19.74,1081.68,20Z"/><path class="cls-1" d="M1036.79,17.49c-.23.15,1.21.4,1.48.59l2.65-.17A23,23,0,0,1,1036.79,17.49Z"/><path class="cls-1" d="M1038.27,18.08l-4,.27C1037.84,18.38,1038.49,18.25,1038.27,18.08Z"/><polygon class="cls-1" points="1055.15 19.17 1061.68 18.62 1053.89 19.18 1055.15 19.17"/><polygon class="cls-1" points="1021.6 17.47 1023.86 17.11 1019.84 17.65 1021.6 17.47"/><path class="cls-1" d="M1011.53,17.53c1.67-.29-2.29-.49-.52-.67-2.74.05-5.08.3-7.18.52A57.22,57.22,0,0,1,1011.53,17.53Z"/><path class="cls-1" d="M1000.3,17.71c1.11-.07,2.27-.19,3.53-.33C1002.64,17.45,1001.48,17.55,1000.3,17.71Z"/><path class="cls-1" d="M1027.52,18.27a10.6,10.6,0,0,0-3.13-.43l1.56.42Z"/><path class="cls-1" d="M1026,18.28l-.06,0-3.38,0Z"/><path class="cls-1" d="M1027.91,18.27h-.39A.53.53,0,0,0,1027.91,18.27Z"/><path class="cls-1" d="M1044.72,18.78c-2.33.24-7.2.5-2.49.86C1043.91,19.35,1041.21,19.14,1044.72,18.78Z"/><path class="cls-1" d="M1029.85,18.81l4.23.09c-.09-.11-.85-.27.31-.39Z"/><polygon class="cls-1" points="1027.79 18.94 1029.85 18.81 1028.29 18.77 1027.79 18.94"/><path class="cls-1" d="M1007.53,18.11c-1.82.19-3.82.2-6.07.23,2.41.09,4.91.13,7.28.13C1009.08,18.34,1010.12,18.1,1007.53,18.11Z"/><path class="cls-1" d="M1016.51,18.23l-.41,0C1016.35,18.29,1016.55,18.3,1016.51,18.23Z"/><path class="cls-1" d="M979.27,18.34l.35.08.09-.08Z"/><path class="cls-1" d="M1009.15,18.55a21.22,21.22,0,0,0,3.94-.15c-1.36,0-2.8.07-4.35.07C1008.59,18.53,1008.57,18.57,1009.15,18.55Z"/><path class="cls-1" d="M994.11,17.91c.94.09,2,.17,3.14.24A15.88,15.88,0,0,0,994.11,17.91Z"/><path class="cls-1" d="M1015.49,18.14l.27,0C1015.17,18,1015.24,18.07,1015.49,18.14Z"/><path class="cls-1" d="M1015.49,18.14c-.93.06-1.67.16-2.4.26,1.1,0,2.13-.08,3-.15C1015.88,18.22,1015.65,18.18,1015.49,18.14Z"/><path class="cls-1" d="M972.54,21.08c.32-.39,5.1-.76,9.22-.33,4-.3,1.4-1.6-2.14-2.33-.12.17-.12.33-4.3.56,1.46.22,9.26.51,5.74.87-5.53.2-4.53-.14-7.22-.35,2.29.49-7,.72-5.82,1.44l4.84-.25C973,20.8,971.2,21,972.54,21.08Z"/><path class="cls-1" d="M987.57,18.46l1.72-.05c-2-.07-3.36-.23-5.94-.54-2.86.19-3.45.34-3.64.47l8.45.06Z"/><path class="cls-1" d="M997,18.41c-1.34.43-5.46.61-2.94,1.08,5,0,3.53-.36,6.55-.55-8.14.11,2.33-.24-3.54-.48,1.59-.08,3-.1,4.39-.12-1.47-.05-2.88-.11-4.21-.19l.19,0h0c.35.05.46.08.07.05h-.17a1.09,1.09,0,0,1-.37.16c-2.35-.08-.37-.11.37-.16,0,0,.09,0,.1-.06h0l-8.15.24C991,18.47,993.17,18.46,997,18.41Z"/><path class="cls-1" d="M1037.89,20.57c-.26,0-.25-.07-.26-.1C1037.1,20.52,1036.9,20.56,1037.89,20.57Z"/><path class="cls-1" d="M1034.53,20.31a14.91,14.91,0,0,1,3-.19c1.67.13,0,.21.08.35,1.16-.12,4.06-.31.42-.52l-.58.06a41.24,41.24,0,0,1-6.92-.75A16.86,16.86,0,0,0,1034.53,20.31Z"/><path class="cls-1" d="M1015.53,19.47l-6.78.21,3.45.37-.17-.22C1015.89,19.92,1015.05,19.64,1015.53,19.47Z"/><polygon class="cls-1" points="978.49 18.13 979.39 17.67 975.47 18.31 978.49 18.13"/><polygon class="cls-1" points="969.67 18.18 970 17.78 967.67 18.02 969.67 18.18"/><path class="cls-1" d="M472.17,23.09l-2,.11C471.12,23.17,471.73,23.13,472.17,23.09Z"/><path class="cls-1" d="M486.6,23.12l.36-.2C486.29,23,486,23.11,486.6,23.12Z"/><path class="cls-1" d="M753.15,18.22c-2.9-.37-6.15-.94-5.8-.49l.9.43A44.35,44.35,0,0,1,753.15,18.22Z"/><path class="cls-1" d="M604.86,20.81l.85.14,2-.42Z"/><path class="cls-1" d="M602.82,22.61,599,22.33C599.85,22.43,601.08,22.52,602.82,22.61Z"/><path class="cls-1" d="M393.35,23.55,391,24C394.66,24,393.06,23.77,393.35,23.55Z"/><path class="cls-1" d="M879.38,18.34c-2.51-.17-4.5-.24-6.25-.26C876.15,18.33,878.58,18.7,879.38,18.34Z"/><path class="cls-1" d="M477.85,18.49c-1.22.07-1.74.16-1.7.26C477.4,18.68,478.11,18.59,477.85,18.49Z"/><path class="cls-1" d="M865.89,18.08l1.33.1c1.83-.07,3.67-.13,5.91-.1A35.73,35.73,0,0,0,865.89,18.08Z"/><path class="cls-1" d="M107.49,23.19l-.64-.05C106.78,23.2,107.07,23.2,107.49,23.19Z"/><path class="cls-1" d="M24.21,18.81c.82,0,2.16,0,3.42,0C27,18.75,26,18.75,24.21,18.81Z"/><path class="cls-1" d="M934.2,18c1.87,0,.3,0,0,0Z"/><path class="cls-1" d="M943.29,19.71c-.39,0-.69.11-.74.21A1.68,1.68,0,0,1,943.29,19.71Z"/><path class="cls-1" d="M847.27,20.78h-.17C847.66,20.86,847.56,20.85,847.27,20.78Z"/><path class="cls-1" d="M937,18.19c-.7-.06-1.51-.1-2.39-.13Z"/><path class="cls-1" d="M936.64,18l1.63,0C938.51,18,938.3,17.91,936.64,18Z"/><path class="cls-1" d="M931.6,18c1.07,0,2.06,0,3,0-.36,0-.52-.06-.42-.07Z"/><path class="cls-1" d="M260.66,22l-.4,0C258.37,22.17,259.2,22.14,260.66,22Z"/><path class="cls-1" d="M704.49,22.73l.21,0-.28,0Z"/><path class="cls-1" d="M697.77,23.05a24.14,24.14,0,0,1,6.65-.36l-2.22-1.25Z"/><path class="cls-1" d="M437.62,23.21l4.71.39c-5.69.65-9.81.42-5.38,1,.67-1.36,18.33-.14,19-1.49l3.11.28c-.9,0-1,.07-1.92.06,6.05.65,4.49-1,12.28-.79,2.72.1,4.61.3,2.76.46l6.05-.34c1.76,0,1.33.27-.42.24l9.23-.11-.07,0c1.31-.21,4.3-.54,5.75-.68,2.35.19-1.17.14-.57.31l5.11-.33c2.08.36-2.16.7-5.68.65,4.77,1.35,4.23-.35,14.53.45l-4.82.17c3.11.77,6.87.49,12.33,1-1.3-.25-10.92-1.21-5.38-1.55a41.43,41.43,0,0,0,6.62-.12c0,.48,2.94.36,6.6.34l-.25.64c3.95-.19,3.64-.51,6-.8,4.41.06,5.32.56,6.36,1,7.05.11-4.87-.79,3.47-.91a162.47,162.47,0,0,0,17-.4c4.1.22-.72.39.75.57l3.64-.51c.89,0,.6.17.46.25,3.06-.2.25-.64,5.07-.81,1.3-.71,9.9,1,15.86.23,1.47.18-.71.39-.26.64,8.19-.53,7-.38,13.74-1.09l5.73.42c-4.21-.48,1.17-1,5.87-1.52-1.49-.23-2.76-.43-3.62-.53l7.51-.34c.91.1.16.32-1.08.59l1.38-.15c2.69.23,1.3.6-.63,1L605.71,21c-1.85.38-3.59.82-3.2,1.19.49-.07,1.43-.14,2.46-.17-.48.1-.79.2-.57.26a11.46,11.46,0,0,0,2.27-.24l1.71.72.41-.29,9.83.45c7-.72,13.15-1.78,24.32-2.07-2.77.52-.6.85-.75,1.47-3.05-.65-8.65.28-14.43.15,3,.07,2.35.36,1.59.47l10.31-.6c-.23.51,2.2.38,4.89.59-2-1,7.69-.67,11.89-1,.26.33-.74.67-5.87.59,5.65.76,7.31-1.17,12.85-.53a8.88,8.88,0,0,0-2.42.13c2.92-.3,10.07-.07,8.39.23h-1.25c8.3.12,25.28,0,26.52-.84.08.11-1.09,1-1.59,1.2l14.81-2.86c-1.3.73,3.71,2.47-3.18,2.88a69.29,69.29,0,0,0,8.59,0c-1.35-.11-3.36-1.06-1.52-1.13,5.06.82,3.52.44,9.75,1.13-2-.16.23-1.3,3.42-1.26-.5.17.27,1.13-.9,1.25l8-1.13c-2,.2-.35.95,1.43,1.27-.83-.22,6.87,0,9-.09L739,22.46c9,.17,8.87-1.58,17.78-1.52-1.08.23-2.66,1.43,1.87,1.57a78.27,78.27,0,0,1,17.07-3.21l1.51.33,6.05-.38c-3.77.87-14.34,2.69-20.1,3.4,3.35.26.93.39,6,.36,1.78.31-2.74.47-4.22.48l11.71.2c-.52-.67,9-.67,8.52-1.23l-12.73.7c-.51-.67,7.36-1.91,15.66-1.79,2.11.26-1.58,1.19-1.41,1.42a65.67,65.67,0,0,1,8.64-.28l-3.52.36c4.62.25,7.54-.89,13.1-.25,1.91,0,5.72.87,6.05.47-3.12-.77-3.74-3.14-1.65-3.72.67.05,10.06.73,12.25,1.11,3.16.6-4.74,1.44-2.05,1.95a10.2,10.2,0,0,1,2.58-.48c2,.16-.83.57,3.54.49.73-.69,8.9,0,2.07-.58,4.28-.19,4.55.14,9.57.11-1.6-.44,4.51-1.5,8.8-1.69-.25.17.71.4,1.18.5,8.77.06,13.47.37,21.65.38.75.16,4.7.36,3,.65a34.89,34.89,0,0,1,4.78-.36c4.88.59-5.62.09-1.9.8.31-.4,6.52-.55,10.11-.8-1.1-.61-8.3-.12-11.9.13,0-.84,6.25-1.73,14.8-2.12,6.79-.21,2.94.55,4.12.43,12.76.15,10.87-1.47,21.47-.87,4.2.54.19,1.07,1.12,1.46-5.53.21-8.5-.34-12.25-.32l4.62.26a55.49,55.49,0,0,1-7.47.16c3.53.48,21.56.09,31.41.53,1.74-.18,4.76-.36,3.33-.58l-3.11.08c-2.86-.44,5.86-.6,1.92-.81a118,118,0,0,1,14.74-.53l1.11.61a23.13,23.13,0,0,0-5.5-.18c2.45-.27,9,.83,11.71,0l-4.13-.43a126.47,126.47,0,0,1,14.6-.76c-2.38-.61-1.2.07-4.91-.64,3.21.88-13.33,0-8.18.89-3.8-.83-6.57-.35-11.54-1.05.15.2,1.76.38-2.62.28a8.31,8.31,0,0,1-1,.18H937l.25,0c-.19,0-.21,0,.09,0a12.88,12.88,0,0,1,2.23.31c-2.18.46-9.14.45-11.49.69-2.6-.1,1.09-.23-.33-.45l-3.52.36c-.34-.45-6.89-.75-.78-1l-5.5,0a84.17,84.17,0,0,0-10.45-.16c-2.6-.1-6.56.49-4.3.14l-8.64.28-.08-.11c-8.52-.06-17.53.74-27.27-.07-2.87.11-5.84.25-10.64.13l-.93-.39c-3.68.13-11.06-.39-12.64,0-4-1-17.88-.22-24.35-.41l-.25.51c-4.46,0-8.73.11-14.26.32l.34.44c-4.78.37-12.27-.31-19.82-.27a16.35,16.35,0,0,1,3.78,0c-9-1-19,.73-27.19,0a29.91,29.91,0,0,1-5,0l.51,0H756l-2.83-.24c.85.11,1.67.2,2.38.24-1.57,0-3.95.07-6.29.18l-1-.48h-.54c-2.3-.17-1.85.23-.62.59-1.18.08-2.26.18-3.09.29-1.87-.77-6.13.27-8.67-.56-1.58.4-11.75.3-13,1.15-.08-.11-.77-.16.49-.17a55.46,55.46,0,0,0-7.54.05l-1.11-.61-5.69.82c-3.45-.37-4.88-.59-1.45-1.06-8.29.72-6.72.27-13.77,1l.34-.4c-2.51,0-6.54.55-8.06.22-5.63-.75-27.87-.1-42.33-.8,2.81,1.16-6.72-.52-7.29.38-.85-.28-2.86-.43-.52-.67-7.38.27-11.09-.44-16.18.32-.85-.27,1.58-.4.83-.57a14.48,14.48,0,0,1-3.12.08c-.75-.16,1.09-.23,2.25-.35-7.53,0-8.3.89-8.84,1.69a26,26,0,0,0-8.49.2c-1.33-.26-3.55-.53,1.14-.63-2.64,0-16.1-.38-16.37.26a26.59,26.59,0,0,0-4.38,0c-5.91,0-6.43-.1-12.23,0l1.61.11c-2.3.77-4.83.17-9.51.26l.13-.08c-10.73-.56-4.63.27-15.22-.37l.58.48c-1,1-9.38-.61-15.53-.21l2.22.27c-3.36.36-9.38-1.4-12.75-1.53-.74-.09,1.16-.14,2.18-.21-8.82-.61-1.14.63-7.72.77-1.21-.33,1.57-.86-2.86-.92-2.2-.27-12.84,1.1-18.87.45,1.33.26,2.65.52-.41.72-4.68.09-12.65-1-16.88-.17-.59-.07-.82-.14-.84-.2-3.58.21-11.63.35-13.79.8-3.31-1.66-22.25.8-22.17-.72l-11,.08.28-.16a63.43,63.43,0,0,0-12,.63c-1.63-.1-.44-.24-.31-.32-10.28-.31-11.3-.25-19.92.52l-.9-.5c-2.33.29-14.86-.78-24.94-.2a2.71,2.71,0,0,1,1.11-.22c-11.35.58-27.16-1.38-31.32.43l-7.49.44c9.69.14-1.44.79,2.55,1.09-3.81.1-9.85-.55-5.17-.64l.73.09c1.72-.94-12-.33-11.77-1-19.06,0-37.64-.48-55.49-.52l2.06.73-6.23,0c-1.63-.17-2.19-.57,2.25-.54a25.85,25.85,0,0,0-7.58.5c-8.7-.29,3.4-.85.73-.87l-3.62.06.82.08a46.67,46.67,0,0,1-8.54.58c-3.38-.14-1.73-.45-3.06-.48a7.84,7.84,0,0,0-2,0l-7.85-.06,3.14.58c-3.48.28-7.38,0-3.76.62-5.31-1-29.26-.36-32.52-.67-4.88.42-9.68.41-15.64.36,1.48.12,2.37.77-2.77.69,1.88-1.34-9.4-.58-13.55-1.55,3.71.64-14.61.16-8.79,1.07-4.28-.11-.26-.5-3.51-.82-10.2.52-22.48-.33-35.09-.16-.19.18,1.92.45-.79.71l-6.65-.88c-2.49.08-2.3,1-6.85.4.65.15,1.61.37-.07.43-24.7-.86-50.47.7-75.56-.91,3.4.34,1.14.38-1.46.39,1.69.08,0,.43.3.67l-10.51-.66c-1.91.66-11.26,0-12.35.68l3.32-.12C4,20.1,14.58,21,13.94,22c5-.85,13.05,1.26,21.18,0,1.79.2-1.53.31-.57.53a39.73,39.73,0,0,1,9.15-.31l-.52.1c13-.1,18.5.31,33.05.58l-1.07-.48c3.12.07,3.78.22,5.24.33,3.59-.71-8.78,0-5.51-.83,4.15,1,22,0,24.85,1.11,4.81,0-1.41-.55,3.4-.54l1.27.3,1.22-.39c3.15.07,4.74.44,4.86.69-.77,0-2.18.07-3,.09,4.09.35,11.53-.12,12.94,0L115.8,23c13.13-.27,29.15.11,41.83-.49l-1-.22c9.68-.42,7.76.24,18.39.05l-.39.06a71,71,0,0,1,7.88-.31c-2.68.26,5,.5,1.53.79,10.5-.44,5.19-.34,12.13-1.17l1.6.37a40.27,40.27,0,0,1,7.87-.61c-4.36.32,3.39.56-1.49,1,11.14.81,16.54-.82,21.65.37,5.12-1-9.64-.57-6.77-.79-2.4-.33,4.22-.77,7.72-.66s6.05,1.31,15,1.29c-.89,0-.95.07-1.84.07,3.35.26,6.57-.36,10.68.07,2.3-.62,5.33,0,6-.76l-8.22.19c4.66-.21,9-1.14,16.7-.69a44.63,44.63,0,0,1-4.45.49c2.24.23,4.32-.16,6.64.08-.66.8-10,.18-15,.78,2.41.34,9.44-.57,6.93.28,3.6-1.09,8.82.14,14.89-.69l-.4.47c1-.07,2.94-.29,4.71-.28l-3.2.61c4.91-.52,9.47.46,14.17.18-9.85,0-2.21-.58-6.38-.92,12.16-.64,7,1.24,20.61,1-1.85.07-6.92-.28-4-.5,2.59.09,6,.28,7.61.53,9-.1-1.39-.49,2.45-.78,3.07.57,4.43-.24,8.38-.42l0,.48c10.28.31,2.72-1,12-.63l-3.91.67,4.82-.18-1,.55a86.31,86.31,0,0,1,12-.15c-1.2-.34.67-.87,5.22-.89,3.11.29-1.74.46,4.72.39a14.19,14.19,0,0,1-5.86.24c-.29.16-1.44.3-1.74.46,3.35.33,8.41.07,10.74.07-.9,0-2-.05-2.52-.12l9.35-.66c1.47.18.3.32-.85.47,1.89-.06,3.2-.28,6-.32-.72.39-.55.8-4.49,1l8.91-.43c.6.17,4.57.46,3.42.61,4.94.23,12.12-.76,18.67-.46a16.37,16.37,0,0,1,2.41-.2c6.16.09,11.61.57,18.91,0L419,24c5.72-.16-5.6-.88,3.91-1.15,6.74-.22,2.52.6,4.88.8a75.69,75.69,0,0,1,15.36-.51C441.14,23.27,439.53,23.16,437.62,23.21Zm70.48-.31c-1.37.1-4.09.42-5.09.13C504.57,22.48,505.77,22.74,508.1,22.9Zm107.14-1.16a19.37,19.37,0,0,1-4.36-.1A41.49,41.49,0,0,1,615.24,21.74Zm298.47-3.36-.15,0C910.51,18.22,911.59,18.29,913.71,18.38Zm6.32.21c.64-.07.59-.13.33-.2a20.72,20.72,0,0,1-3.48.1A10.68,10.68,0,0,0,920,18.59Zm-679.34.19,1.23.13C239.14,19.05,239.92,18.92,240.69,18.78Z"/><path class="cls-1" d="M603.09,22.4a1,1,0,0,1-.58-.26C602,22.22,602,22.31,603.09,22.4Z"/><path class="cls-1" d="M393.78,23.47h-.21a.59.59,0,0,0-.22.09Z"/><path class="cls-1" d="M822,22.68a19.76,19.76,0,0,1-2.51-.25C819.46,22.55,820.05,22.65,822,22.68Z"/><path class="cls-1" d="M953.55,17.77l-4,.13a28.09,28.09,0,0,1,3.65.16C953.06,17.94,952.29,17.78,953.55,17.77Z"/><path class="cls-1" d="M988.73,20.76c.59-.06,1.25,0,1.84-.07l-.17-.22C987.88,20.48,986.12,20.66,988.73,20.76Z"/><path class="cls-1" d="M957.31,19.38c.32.4,2.86.26,5.7.19h-.5C963.34,19,960.32,19.19,957.31,19.38Z"/><path class="cls-1" d="M963.67,19.55c.87,0,1.76,0,2.62,0C966.62,19.32,965.23,19.5,963.67,19.55Z"/><path class="cls-1" d="M928.06,18.32c1.34.11.84-.52,1.6-.35C931.17,17.45,920.69,18.59,928.06,18.32Z"/><polygon class="cls-1" points="959.61 20.71 958.59 20.21 957 20.61 959.61 20.71"/><path class="cls-1" d="M937.19,20.34l4.54.14c-.07-.08.51-.13,1.21-.17A57.32,57.32,0,0,0,937.19,20.34Z"/><path class="cls-1" d="M942.94,20.31c1.46,0,2.84,0,3.65-.08C945.81,20.23,944.11,20.25,942.94,20.31Z"/><polygon class="cls-1" points="953.4 20.86 952.06 20.76 948.86 20.72 953.4 20.86"/><path class="cls-1" d="M888.44,20.25l-5,.14c-.51.17.84.28,2.68.21C887.36,20.48,889.2,20.41,888.44,20.25Z"/><path class="cls-1" d="M903.41,21.62a10.06,10.06,0,0,1-2.19-.38l-.15.62Z"/><path class="cls-1" d="M889,21.77c-.49.17-7.18.49-.91.45C888.56,22.05,893.52,21.91,889,21.77Z"/><polygon class="cls-1" points="814.39 20.98 815.65 20.97 815.47 19.95 814.39 20.98"/><path class="cls-1" d="M748.65,23.42c5.86.24,1.39-.63,6.69-.33,1.38-.24-4.33-.25-2.92-.45C748.88,22.89,747,22.75,748.65,23.42Z"/><path class="cls-1" d="M752.42,22.64c.57,0,1.17-.09,1.81-.16C753.2,22.54,752.72,22.59,752.42,22.64Z"/><polygon class="cls-1" points="10.39 18.27 6.62 18.05 9.06 18.4 10.39 18.27"/><path class="cls-1" d="M3.15,19l-.88-.65L0,19A18,18,0,0,1,3.15,19Z"/><path class="cls-1" d="M518.58,24.21l.28-.16a15.19,15.19,0,0,0-3.23-.2Z"/><polygon class="cls-1" points="467.42 23.73 468.3 23.74 466.65 23.15 467.42 23.73"/><path class="cls-1" d="M424.49,24.47c1.75,0,3.81-.1,5.57-.08C426.24,24.5,424,23.74,424.49,24.47Z"/><line class="cls-1" x1="22.84" y1="39.38" x2="60.18" y2="2.05"/><path class="cls-1" d="M58.41.37c.08,0-.23-.31-.28-.37C58.1.16,58.49.44,58.41.37Z"/><polygon class="cls-1" points="58.17 1.95 58.07 1.81 58.23 2.24 58.17 1.95"/><path class="cls-1" d="M57.32,2.8c.58.42.22-.39.55-.37l.14.09-.33-.47C57.56,2.3,57.59,2.81,57.32,2.8Z"/><path class="cls-1" d="M55.77,2.16c.23.17.07.26.17-.05l-.07,0A.31.31,0,0,1,55.77,2.16Z"/><path class="cls-1" d="M55.87,2.08c.07-.1-.22-.1,0,0Z"/><path class="cls-1" d="M55.57,2.61l-.06-.29c-.14-.1-.27,0-.32-.14C55.17,2.4,55.31,2.49,55.57,2.61Z"/><path class="cls-1" d="M55.82,3.09V3C55.75,2.92,55.72,2.92,55.82,3.09Z"/><path class="cls-1" d="M55.78,2.67l0,.28c.1.07.27.23,0-.11C56,3,55.84,2.83,55.78,2.67Z"/><path class="cls-1" d="M55.93,2.67c.18,0,.34,0,.39.32C56.48,2.7,56.09,2.37,55.93,2.67Z"/><path class="cls-1" d="M57.79,3.36l.24.06-.09-.25C58,3.3,57.63,3.21,57.79,3.36Z"/><path class="cls-1" d="M54.57,3.08c.1.12.33.25.47.38l0-.21A.72.72,0,0,1,54.57,3.08Z"/><path class="cls-1" d="M55,3.46l.06.31C55.24,3.68,55.17,3.57,55,3.46Z"/><polygon class="cls-1" points="56.36 3.67 56.19 3.07 56.33 3.72 56.36 3.67"/><polygon class="cls-1" points="54.06 3.57 53.88 3.25 54.13 3.75 54.06 3.57"/><path class="cls-1" d="M53.77,3.94c-.15-.26-.42-.27-.49-.46a1.14,1.14,0,0,0,.14.61C53.4,3.93,53.5,3.87,53.77,3.94Z"/><path class="cls-1" d="M53.53,4.44a1.91,1.91,0,0,0-.11-.35A1.12,1.12,0,0,0,53.53,4.44Z"/><path class="cls-1" d="M54.82,3.94a.88.88,0,0,0-.41-.2l.36.25S54.8,4,54.82,3.94Z"/><path class="cls-1" d="M54.78,4h0l-.13.09Z"/><path class="cls-1" d="M54.84,3.93h0S54.87,4,54.84,3.93Z"/><path class="cls-1" d="M55.75,3.74c.09.24.11.59.52.69C56.12,4.17,55.89,4.11,55.75,3.74Z"/><path class="cls-1" d="M55.28,4.24l.21-.07c-.09-.07-.23-.16-.27-.29Z"/><polygon class="cls-1" points="55.31 4.41 55.28 4.24 55.2 4.27 55.31 4.41"/><path class="cls-1" d="M54.05,4.48a.37.37,0,0,1,0,.37.56.56,0,0,0,.33-.15C54.26,4.59,54.13,4.39,54.05,4.48Z"/><path class="cls-1" d="M54.43,4.27s0,0,0,0S54.48,4.32,54.43,4.27Z"/><path class="cls-1" d="M53.29,5.57l.06,0-.05-.06Z"/><path class="cls-1" d="M54.42,4.74c.11,0,.08-.11,0-.24a.41.41,0,0,1-.09.2S54.41,4.78,54.42,4.74Z"/><path class="cls-1" d="M53.47,4.78a1.54,1.54,0,0,0,.27.07C53.61,4.78,53.4,4.69,53.47,4.78Z"/><path class="cls-1" d="M54.33,4.24v0C54.24,4.17,54.28,4.2,54.33,4.24Z"/><path class="cls-1" d="M54.33,4.24a1.12,1.12,0,0,0,.11.26.67.67,0,0,0,0-.2Z"/><path class="cls-1" d="M55,7.73c-.27-.29-.38-.7.06-.54a5.37,5.37,0,0,0-1.72-1.57.73.73,0,0,1,.26.54c.2.1.66,0,.8.42,0,.33-.24,0-.48,0,.42.28.28.74.83,1.21l0-.34C54.82,7.52,54.89,7.71,55,7.73Z"/><path class="cls-1" d="M53.64,5.38l0-.09a1.29,1.29,0,0,1-.57-.18.9.9,0,0,0,.21.45l.32-.24Z"/><path class="cls-1" d="M53.92,5c.26.35.25.61.66.86.15-.19-.13-.37-.17-.6-.19.34-.09-.25-.46-.23A.41.41,0,0,1,54,4.85a1.31,1.31,0,0,1-.28,0h0s.08,0,0,0h0l.11.13c-.14,0-.1-.07-.11-.13l0,0h0l-.11.43C53.76,5.28,53.83,5.2,53.92,5Z"/><path class="cls-1" d="M56.79,5.23a.19.19,0,0,1-.08-.07C56.73,5.22,56.75,5.25,56.79,5.23Z"/><path class="cls-1" d="M56.49,5.15c0-.06-.13-.2,0-.23s.14.15.25.24c-.05-.11-.09-.35-.36-.38l0,.06a1.69,1.69,0,0,1-.76-.3A5.68,5.68,0,0,0,56.49,5.15Z"/><path class="cls-1" d="M55.27,5.18l-.07.37.38.15-.17-.15C55.6,5.49,55.38,5.32,55.27,5.18Z"/><polygon class="cls-1" points="53.11 5.45 52.82 5.1 53.14 5.68 53.11 5.45"/><polygon class="cls-1" points="52.86 5.78 52.59 5.49 52.68 5.73 52.86 5.78"/><path class="cls-1" d="M40,25.57v.15A.35.35,0,0,0,40,25.57Z"/><path class="cls-1" d="M40.5,25.12,40.37,25C40.43,25.07,40.48,25.13,40.5,25.12Z"/><path class="cls-1" d="M45.79,12.91c-.36-.16-.87-.46-.55-.16l.34.28C45.59,12.91,45.68,12.89,45.79,12.91Z"/><path class="cls-1" d="M42.75,19.61l.12.06c-.08-.12-.15-.24-.23-.35A2.49,2.49,0,0,1,42.75,19.61Z"/><path class="cls-1" d="M44,21l-.33-.08A1.14,1.14,0,0,0,44,21Z"/><path class="cls-1" d="M37.75,28.48l.23.39C38.1,28.75,37.89,28.65,37.75,28.48Z"/><path class="cls-1" d="M50,8.85a.57.57,0,0,0-.39,0C49.89,9,50.24,9.13,50,8.85Z"/><path class="cls-1" d="M36.94,22.13a.38.38,0,0,0,.13.24A.36.36,0,0,0,36.94,22.13Z"/><path class="cls-1" d="M49.38,9.11l.12,0a.32.32,0,0,1,.12-.27C49.42,8.81,49.25,8.82,49.38,9.11Z"/><path class="cls-1" d="M28.11,37.61l-.05,0S28.11,37.63,28.11,37.61Z"/><path class="cls-1" d="M22.29,37.25s.05-.1.08-.14S22.3,37.14,22.29,37.25Z"/><path class="cls-1" d="M51.56,6.81c0-.09,0,0,0,0Z"/><path class="cls-1" d="M53.07,7.72a.54.54,0,0,0,.13.17A1,1,0,0,1,53.07,7.72Z"/><path class="cls-1" d="M50.68,11.63Z"/><path class="cls-1" d="M51.79,6.85a.5.5,0,0,0-.17,0A.43.43,0,0,0,51.79,6.85Z"/><path class="cls-1" d="M51.64,6.72l.08,0C51.68,6.64,51.64,6.61,51.64,6.72Z"/><path class="cls-1" d="M51.49,6.91a.21.21,0,0,1,.13-.07l-.06,0Z"/><path class="cls-1" d="M32.32,31.76h0C32.34,31.94,32.35,31.89,32.32,31.76Z"/><path class="cls-1" d="M47.38,17.69v0h0Z"/><path class="cls-1" d="M47.38,18.14c-.28-.47-.18-.48,0-.47l-1-.81Z"/><path class="cls-1" d="M39,26.79l.43.12c.27.64,0,.62.51.87-.94-1,.5-.7-.43-1.68l.3.1s0,.08,0,.1c.65.26-.55-.85-.16-1a.42.42,0,0,1,.42.24l0-.43c.08,0,.23.14.15.18l.23-.38,0,0c-.1-.2-.24-.53-.29-.67.22.06.06.14.2.24l-.06-.4c.32.18.42.56.27.64,1.11.8-.11-.38.79-.16l0,.28c.64.44.57.12,1.09.28-.22-.13-1.22-.5-1.27-.92.12,0,.22,0,.13-.3.34.34.35.16.45,0l.45.46c0-.26-.25-.48-.37-.76.19-.1.57.22.89.48.31-.16-.72-.4-.53-.76.37,0,.32-.34.28-.84.29,0,.25.3.43.38l-.24-.48s.14.1.19.16c0-.24-.45-.46-.41-.74-.46-.54,1,.41.68-.36.18.08.26.3.45.46a3.69,3.69,0,0,0-.32-1.22l.48.11c-.48-.2-.7-.78-.88-1.26l-.49-.26v-.49a1.26,1.26,0,0,1,.38.46l-.06-.16c.26.08.47.39.66.7-.12-.05-.24-.12-.37-.19a5.12,5.12,0,0,0,.74.95.38.38,0,0,1,0-.2,1,1,0,0,0,.17.21s0-.09-.09-.25l.56.45L44,20.62h.64c-.28-.74-.83-1.69-.67-2.26a6.32,6.32,0,0,0,1,1.07c-.56-.37-.09.48-.37.57.15,0,.33.18.38.28l-.08-.76c.35.37.34.2.58.26-.78-.64-.22-.73-.3-1.08.24.23.45.5.23.61.72.35-.59-1.07,0-.8,0,.05-.09,0,0,.17-.11-.3.29-.37.44-.11l0,.05a.93.93,0,0,0,.28-1.47c.08.08.69.76.79.9l-1.54-2.51c.48.56,1.87,1.62,1.94,2.14.14,0,.3,0,.26-.3a3,3,0,0,1-.85-.75,5,5,0,0,0,1.12.48c-.18,0-.91-.93-.78-1,.1.14.81.79.85.92L47.44,16a3.14,3.14,0,0,0,.94.85c-.18-.13.24-.21.23-.36l-.29-.07c.41-.17-.83-1.41-.49-1.66.13.2.92,1.1,1.17,1a12.42,12.42,0,0,1-1.71-2.83l.28.18-.07-.46a32.44,32.44,0,0,1,1.75,3.06c.29.07.3.24.45.06a.38.38,0,0,1,.2.48l.53-.24c-.5-.46-.19-.77-.6-1.16l.08.92c-.49-.46-1.11-1.6-.75-1.78a7.16,7.16,0,0,1,1,1c-.12-.2,0-.57.09-.48l.14.37c.33,0-.38-.88.25-.61.1,0,.8.43.53.13a20.05,20.05,0,0,1-2.68-2.57,5.82,5.82,0,0,1,1.19.38c.53.33.86,1.17,1.31,1.45a1.63,1.63,0,0,1-.26-.43c.18.05.38.43.46.23-.45-.51.34-.25-.34-.47,0-.28.25,0,.4-.24a3.08,3.08,0,0,1-.91-1.49,2,2,0,0,0,.39.32c.33-.24.71-.18,1-.44.14.09.41.1.56.36,0-.12-.17-.32-.1-.41.58.25-.12.24.5.62-.27-.29-.17-.6-.23-.89-.47-.4-.35.19-.3.48a3.28,3.28,0,0,1-1-2c.08-.37.48.29.44.16.52-.31-.69-1.39.09-1.31.52.24.76.75,1.07,1,0,.33-.52,0-.63.18l.33,0c.07.18,0,.4-.13.35.46.23.77-.64,1.41-.65-.07-.18-.1-.41-.3-.52l0,.16c-.4-.21-.23-.62-.51-.63-.07-.35-.26-.85.11-.87l.47.4c-.13-.12-.39-.13-.31,0-.11-.27.88.3.4-.36L53,7.19c-.08-.36-.37-1-.06-1-.51-.35,0,.09-.62-.29.73.52-.46.42.36.9-.7-.46-.46,0-1.12-.36.15.14.33.21.12.29l.09.15h0s0,0,0,0a1,1,0,0,1,.29.15c.26.4,0,.62.11.86-.15,0-.13-.2-.33-.3l.14.37c-.33-.31-.75-.3-.74-.69l-.19.17c-.29-.08-.51,0-.46.22-.16,0,.13.57,0,.25l-.09.48-.08-.08c-.32.24,0,1.1-.94.85,0,.17,0,.37-.26.44l-.31-.25c0,.22-.64.09-.4.43-.87-.61-.75.42-1.09.5l.35.37c-.17.13-.21.37-.24.69l.32.31c.11.42-.62.18-.84.46-.1-.14,0-.17.11-.14-1-.42-.1,1.14-.89.89,0,.18,0,.19-.17.16s0,0,0,0l0,0-.26-.08A.73.73,0,0,0,46,13a.63.63,0,0,0-.08.33l-.37-.3s0,0,0,0c-.2-.05.1.23.4.44a1.39,1.39,0,0,0,.1.31c-.61-.49,0,.39-.68-.12.23.34-.17.6.39,1.25-.08-.08-.14-.1-.11-.14-.15,0-.3,0-.21.28l-.47-.4.4.77a1.22,1.22,0,0,1-.8-.7c.24.78,0,.41.25,1.15l-.27-.29c-.07.09.17.6-.11.42-.72-.35-1,.84-2,.82.92.73-.59-.15,0,.51-.22-.17-.4-.21-.49-.46,0,.43-.67.06-.3.76-.23-.17-.24-.34-.38-.43,0,.06.1.25,0,.16s-.12-.2-.17-.32c-.21.28.36.9.91,1.48-.4-.14-.42,0-.14.42-.23-.14-.5-.26-.41-.48-.11.06-.8.26-.35.72-.14-.09-.16.09-.13.16-.22.17-.28.14-.42.38l.12,0c.47.62,0,.28-.12.5l-.05-.06c-.75,0,0,.34-.76.24l.35.32c.7.76-.73-.12-.66.36l.27.12c.14.36-1.3-.69-1.5-.67s-.07-.14-.08-.22c-.72-.14.41.48.3.8-.28-.2-.56-.66-.75-.56-.27-.12.35,1.2-.3.94.23.14.45.28.49.52s-1.11-.28-.67.44a.52.52,0,0,1-.17-.12c0,.27-.13.63.11,1-1.28-1.06-.16,1.3-1.24.22l-.3.41-.1-.11c-.3.15-.13.5.05.84-.12,0-.19-.16-.24-.23-.55.12-.54.2-.29,1l-.38-.32c.13.28-1-.06-1,.68a.7.7,0,0,1-.13-.19c0,.78-1.86-.08-.72,1.33l.07.56c.42-.22.51.6.85.68,0,.2-.71-.06-.62-.28l.09,0c-.61-.72-.63.16-1.08-.3-.59.66-1.57.9-2.18,1.46l.58.45-.23.17c-.18-.07-.48-.33-.31-.46-.37-.21,0,.49.11.61-.5.07-.49-.72-.59-.64l-.08.16.08,0c.12.31.33.54.13.69s-.37-.26-.44-.24-.06,0-.08.05l-.3.22.51.3c.09.32-.26.22.32.57-.89-.54-1.22.7-1.55.59a.57.57,0,0,1-.25.77c.13,0,.62.46.4.58-.89-1-.72-.11-1.54-.65.57.33-.37.59.46,1-.21.06-.36-.35-.69-.46,0,.7-1,.5-1.27,1,.12.13.38.26.48.53l-.84-.4c0,.14.64.79.06.51.13.08.31.21.3.3-1.42.21-1.16,2.15-3.12,1.84.35.13.3.23.22.32.12,0,.31.31.49.47l-.81-.13c.4.53-.34.4.07.89l0-.19c.38.67,1.37,1,2,1.67-.44-.77,1.32.46.73-.67.19.08.16.27.35.39-.22-.35-.2-.5.08-.52l.06.09c.35-.49.82-.39,1.49-.68l-.37-.3c.14-.05.27,0,.4.07-.39-.63-.31.26-.77-.41.82.54.74-.72,1.6,0,.17-.16-.43-.34-.27-.5l.25.17-.23-.31c.15-.06.47.15.65.33,0,0,0,.12,0,.16.38.11.3-.46.42-.43l-.28,0c.24-.62,1-.87,1-1.72l-.19-.12c0-.61.43-.08.64-.57l0,.05c-.09-.23-.08-.4,0-.48.1.28.53.2.62.52,0-.66-.08-.42-.44-1.23l.32.21c-.16-.32-.28-.45-.17-.69.08.37.51.29.64.74.94.21,0-1.12,1-.45-.55-.89-.71-.08-.78-.33-.31-.16-.4-.68-.21-.73s1.12.73,1.4.43c0,0,0,.08,0,.11.3.07,0-.47.4-.3-.36-.52.2-.15-.33-.74l-.14.4c0-.3-.51-1.09.06-1a1.69,1.69,0,0,1,.2.49c.24.09,0-.25.28-.16.53.59-.21.45,0,1,.32.16-.09-.71.43,0-.65-.89.39-.19,0-1l.32.35c0-.09-.11-.31,0-.36l.33.54c-.21-.53.64,0,.59-.34-.31.33-.48-.34-.86-.44,0-.85,1.11.64,1.4,0,0,.11-.43,0-.49-.23a1.11,1.11,0,0,1,.62.13c.23-.37-.39-.3-.47-.63.51.3,0-.32,0-.58l.34.34c.55-.12-.62-.8-.06-.84l.35.61,0-.29.35.43c-.11-.46,0-.44.29-.5-.28-.2-.6-.64-.46-.81.31.11.27.39.43.13.17.26.38.58,0,.35.1.13.16.27.26.39.35.12.33-.23.41-.31a.2.2,0,0,1-.17,0l-.16-.78a.62.62,0,0,1,.3.36c0-.1-.09-.3,0-.42.25.3.54.58.54.84V29c.14.1.48.18.54.32.33,0-.14-.94.29-.94a.32.32,0,0,1-.06-.22c.26-.14.78,0,.64-.6l.63.36c.08-.3-.81-.44-.68-.94s.5.34.72.4c-.14-.36-.46-1.06.15-.86C39.11,26.71,39,26.69,39,26.79Zm2.09-2.53c0,.12.16.43-.07.26C40.64,24.08,40.87,24.22,41.05,24.26Zm2.7-4.34c.08.15,0,.15-.22.07C43.55,19.92,43.61,19.89,43.75,19.92ZM51.17,7.76v0C51,7.74,51,7.76,51.17,7.76Zm.35-.06a.29.29,0,0,0-.13-.16c.07.1,0,.16,0,.19C51.45,7.8,51.54,7.83,51.52,7.7ZM29.37,30.12l.13.05C29.5,30.36,29.44,30.25,29.37,30.12Z"/><path class="cls-1" d="M43.82,20.79l-.21-.17A.33.33,0,0,0,43.82,20.79Z"/><path class="cls-1" d="M37.7,28.41h0l.06.07Z"/><path class="cls-1" d="M51.2,13.8a.51.51,0,0,1-.26-.09C51,13.8,51.11,13.85,51.2,13.8Z"/><path class="cls-1" d="M52,6l0,.22c0-.08.14,0,.23,0C52.15,6.15,52,6.06,52,6Z"/><path class="cls-1" d="M55.31,7c0-.06,0,0,0-.1l-.16-.16A.16.16,0,0,0,55.31,7Z"/><path class="cls-1" d="M53.3,7c.3.27.28.09.32,0h0C53.23,6.56,53.27,6.8,53.3,7Z"/><path class="cls-1" d="M53.63,6.94a.18.18,0,0,1,.08-.09C53.56,6.68,53.65,6.85,53.63,6.94Z"/><path class="cls-1" d="M51.6,7.24c.11,0-.34-.39-.2-.3C51.08,6.53,51.55,7.68,51.6,7.24Z"/><polygon class="cls-1" points="54.32 7.9 53.93 7.58 54.17 7.91 54.32 7.9"/><path class="cls-1" d="M53.32,8.37l.25,0a.22.22,0,0,1-.08-.16C53.39,8.24,53.22,8.27,53.32,8.37Z"/><path class="cls-1" d="M53.49,8.16A.14.14,0,0,0,53.55,8,.34.34,0,0,0,53.49,8.16Z"/><polygon class="cls-1" points="54.22 8.21 54.1 8.18 53.97 8.26 54.22 8.21"/><path class="cls-1" d="M51.66,9.9l-.06.27c.1.14.22.17.23.06S51.8,10,51.66,9.9Z"/><path class="cls-1" d="M53.12,10.38a1.18,1.18,0,0,1-.34-.19l.43.44Z"/><path class="cls-1" d="M52.75,11c.1.14.11.58.29.35C52.93,11.17,53,10.91,52.75,11Z"/><polygon class="cls-1" points="49.74 12.85 49.78 12.8 49.05 12.09 49.74 12.85"/><path class="cls-1" d="M49.31,16.73c.37,0-.4-.49,0-.45-.12-.21-.32,0-.42-.23C49,16.35,48.78,16.31,49.31,16.73Z"/><path class="cls-1" d="M48.88,16.05a.71.71,0,0,0-.05-.16A.43.43,0,0,0,48.88,16.05Z"/><polygon class="cls-1" points="21.45 37.31 21.17 37.29 21.49 37.45 21.45 37.31"/><path class="cls-1" d="M21.74,38.08l-.49-.43.34.49S21.62,38,21.74,38.08Z"/><path class="cls-1" d="M42.32,24.84l-.1-.12c-.14-.1-.17-.08-.25,0Z"/><polygon class="cls-1" points="40.3 26.18 40.34 26.16 39.87 25.8 40.3 26.18"/><path class="cls-1" d="M39.42,28.11c.08,0,0-.2.13-.24C39.5,28.07,38.89,27.61,39.42,28.11Z"/><line class="cls-1" x1="344.46" y1="39.38" x2="381.8" y2="2.05"/><path class="cls-1" d="M380,.37c.08,0-.23-.31-.28-.37C379.73.16,380.11.44,380,.37Z"/><polygon class="cls-1" points="379.8 1.95 379.69 1.81 379.85 2.24 379.8 1.95"/><path class="cls-1" d="M378.94,2.8c.58.42.22-.39.56-.37l.14.09-.34-.47C379.18,2.3,379.21,2.81,378.94,2.8Z"/><path class="cls-1" d="M377.39,2.16c.23.17.07.26.17-.05l-.07,0A.22.22,0,0,1,377.39,2.16Z"/><path class="cls-1" d="M377.49,2.08c.08-.1-.22-.1,0,0Z"/><path class="cls-1" d="M377.19,2.61l-.06-.29c-.14-.1-.27,0-.31-.14C376.79,2.4,376.93,2.49,377.19,2.61Z"/><path class="cls-1" d="M377.45,3.09l0-.14C377.37,2.92,377.34,2.92,377.45,3.09Z"/><path class="cls-1" d="M377.41,2.67l0,.28c.1.07.27.23,0-.11C377.57,3,377.46,2.83,377.41,2.67Z"/><path class="cls-1" d="M377.56,2.67c.17,0,.33,0,.38.32C378.1,2.7,377.71,2.37,377.56,2.67Z"/><path class="cls-1" d="M379.42,3.36l.23.06-.09-.25C379.61,3.3,379.25,3.21,379.42,3.36Z"/><path class="cls-1" d="M376.19,3.08a5.37,5.37,0,0,0,.48.38l0-.21A.72.72,0,0,1,376.19,3.08Z"/><path class="cls-1" d="M376.67,3.46l.05.31C376.86,3.68,376.79,3.57,376.67,3.46Z"/><polygon class="cls-1" points="377.99 3.67 377.81 3.07 377.95 3.72 377.99 3.67"/><polygon class="cls-1" points="375.68 3.57 375.51 3.25 375.75 3.75 375.68 3.57"/><path class="cls-1" d="M375.39,3.94c-.15-.26-.42-.27-.49-.46a1.14,1.14,0,0,0,.14.61C375,3.93,375.12,3.87,375.39,3.94Z"/><path class="cls-1" d="M375.15,4.44a1.91,1.91,0,0,0-.11-.35A1.12,1.12,0,0,0,375.15,4.44Z"/><path class="cls-1" d="M376.44,3.94a.88.88,0,0,0-.41-.2l.36.25Z"/><path class="cls-1" d="M376.4,4h0l-.13.09Z"/><path class="cls-1" d="M376.46,3.93h0S376.49,4,376.46,3.93Z"/><path class="cls-1" d="M377.37,3.74c.09.24.11.59.53.69C377.74,4.17,377.51,4.11,377.37,3.74Z"/><path class="cls-1" d="M376.9,4.24l.21-.07c-.09-.07-.23-.16-.27-.29Z"/><polygon class="cls-1" points="376.93 4.41 376.9 4.24 376.82 4.27 376.93 4.41"/><path class="cls-1" d="M375.67,4.48a.35.35,0,0,1,0,.37A.56.56,0,0,0,376,4.7C375.89,4.59,375.75,4.39,375.67,4.48Z"/><path class="cls-1" d="M376.05,4.27s0,0,0,0S376.11,4.32,376.05,4.27Z"/><path class="cls-1" d="M374.91,5.57l.07,0-.05-.06Z"/><path class="cls-1" d="M376,4.74c.12,0,.08-.11,0-.24a.41.41,0,0,1-.09.2S376,4.78,376,4.74Z"/><path class="cls-1" d="M375.09,4.78a1.8,1.8,0,0,0,.27.07C375.24,4.78,375,4.69,375.09,4.78Z"/><path class="cls-1" d="M376,4.24v0C375.86,4.17,375.9,4.2,376,4.24Z"/><path class="cls-1" d="M376,4.24a1.83,1.83,0,0,0,.11.26.67.67,0,0,0,0-.2Z"/><path class="cls-1" d="M376.63,7.73c-.27-.29-.37-.7.06-.54-.07-.34-1.08-1.17-1.71-1.57a.81.81,0,0,1,.26.54c.2.1.66,0,.79.42,0,.33-.24,0-.48,0,.42.28.28.74.83,1.21l0-.34C376.44,7.52,376.51,7.71,376.63,7.73Z"/><path class="cls-1" d="M375.27,5.38l0-.09c-.12,0-.27,0-.58-.18a.82.82,0,0,0,.22.45l.31-.24Z"/><path class="cls-1" d="M375.54,5c.26.35.25.61.67.86.14-.19-.14-.37-.18-.6-.19.34-.09-.25-.45-.23a.41.41,0,0,1,.06-.22,1.31,1.31,0,0,1-.28,0h0c.05,0,.08,0,0,0s0,0,0,0l.11.13c-.14,0-.09-.07-.11-.13l0,0h0l-.1.43C375.39,5.28,375.45,5.2,375.54,5Z"/><path class="cls-1" d="M378.41,5.23a.19.19,0,0,1-.08-.07C378.35,5.22,378.37,5.25,378.41,5.23Z"/><path class="cls-1" d="M378.11,5.15c0-.06-.12-.2,0-.23s.15.15.25.24c0-.11-.09-.35-.35-.38l0,.06a1.6,1.6,0,0,1-.75-.3A5.15,5.15,0,0,0,378.11,5.15Z"/><path class="cls-1" d="M376.9,5.18l-.08.37.38.15L377,5.55C377.23,5.49,377,5.32,376.9,5.18Z"/><polygon class="cls-1" points="374.73 5.45 374.44 5.1 374.77 5.68 374.73 5.45"/><polygon class="cls-1" points="374.48 5.78 374.21 5.49 374.31 5.73 374.48 5.78"/><path class="cls-1" d="M361.63,25.57v.15A.35.35,0,0,0,361.63,25.57Z"/><path class="cls-1" d="M362.12,25.12,362,25C362.05,25.07,362.1,25.13,362.12,25.12Z"/><path class="cls-1" d="M367.41,12.91c-.36-.16-.87-.46-.54-.16l.33.28C367.21,12.91,367.3,12.89,367.41,12.91Z"/><path class="cls-1" d="M364.37,19.61l.13.06c-.09-.12-.16-.24-.23-.35C364.3,19.41,364.34,19.51,364.37,19.61Z"/><path class="cls-1" d="M365.58,21l-.33-.08A1.14,1.14,0,0,0,365.58,21Z"/><path class="cls-1" d="M359.37,28.48l.23.39C359.72,28.75,359.51,28.65,359.37,28.48Z"/><path class="cls-1" d="M371.63,8.85a.57.57,0,0,0-.39,0C371.52,9,371.86,9.13,371.63,8.85Z"/><path class="cls-1" d="M358.56,22.13a.44.44,0,0,0,.13.24A.36.36,0,0,0,358.56,22.13Z"/><path class="cls-1" d="M371,9.11l.11,0a.32.32,0,0,1,.12-.27C371,8.81,370.87,8.82,371,9.11Z"/><path class="cls-1" d="M349.74,37.61l-.06,0S349.73,37.63,349.74,37.61Z"/><path class="cls-1" d="M343.91,37.25s0-.1.09-.14S343.92,37.14,343.91,37.25Z"/><path class="cls-1" d="M373.18,6.81c0-.09,0,0,0,0Z"/><path class="cls-1" d="M374.7,7.72a.49.49,0,0,0,.12.17A.53.53,0,0,1,374.7,7.72Z"/><path class="cls-1" d="M372.3,11.63Z"/><path class="cls-1" d="M373.42,6.85a.51.51,0,0,0-.17,0A.41.41,0,0,0,373.42,6.85Z"/><path class="cls-1" d="M373.26,6.72l.08,0C373.3,6.64,373.26,6.61,373.26,6.72Z"/><path class="cls-1" d="M373.11,6.91a.21.21,0,0,1,.14-.07l-.07,0Z"/><path class="cls-1" d="M353.94,31.76h0C354,31.94,354,31.89,353.94,31.76Z"/><path class="cls-1" d="M369,17.69v0h0Z"/><path class="cls-1" d="M369,18.14c-.29-.47-.19-.48,0-.47l-1-.81Z"/><path class="cls-1" d="M360.58,26.79l.43.12c.27.64,0,.62.51.87-.94-1,.51-.7-.43-1.68l.3.1s0,.08,0,.1c.65.26-.55-.85-.16-1a.41.41,0,0,1,.42.24l0-.43c.08,0,.23.14.15.18l.23-.38,0,0a5.91,5.91,0,0,1-.3-.67c.22.06.07.14.2.24l-.06-.4c.32.18.42.56.27.64,1.11.8-.1-.38.79-.16l0,.28c.64.44.57.12,1.09.28-.22-.13-1.22-.5-1.27-.92.12,0,.22,0,.13-.3.34.34.35.16.45,0l.45.46c0-.26-.24-.48-.37-.76.19-.1.57.22.9.48.3-.16-.72-.4-.54-.76.37,0,.32-.34.28-.84.29,0,.25.3.43.38l-.24-.48s.14.1.19.16c0-.24-.44-.46-.41-.74-.46-.54,1.05.41.68-.36.18.08.26.3.45.46a3.69,3.69,0,0,0-.32-1.22l.48.11c-.47-.2-.7-.78-.88-1.26a5.19,5.19,0,0,0-.49-.26v-.49a1.37,1.37,0,0,1,.39.46c0-.06,0-.11-.07-.16.26.08.47.39.66.7a3.13,3.13,0,0,1-.36-.19,4.69,4.69,0,0,0,.73.95.38.38,0,0,1,0-.2,1,1,0,0,0,.17.21c.06,0,0-.09-.09-.25l.56.45-.19-.21h.64c-.28-.74-.82-1.69-.67-2.26a6.32,6.32,0,0,0,1,1.07c-.56-.37-.09.48-.37.57.15,0,.34.18.38.28l-.08-.76c.35.37.34.2.58.26-.78-.64-.22-.73-.3-1.08.24.23.45.5.23.61.72.35-.59-1.07,0-.8,0,.05-.09,0,0,.17-.11-.3.29-.37.44-.11l0,.05a.93.93,0,0,0,.28-1.47c.08.08.69.76.79.9l-1.53-2.51c.47.56,1.86,1.62,1.93,2.14.14,0,.3,0,.26-.3a3,3,0,0,1-.85-.75,5.16,5.16,0,0,0,1.12.48c-.17,0-.91-.93-.78-1,.1.14.81.79.85.92L369.06,16a3.07,3.07,0,0,0,.95.85c-.19-.13.24-.21.23-.36l-.3-.07c.42-.17-.83-1.41-.49-1.66.13.2.92,1.1,1.17,1a12.42,12.42,0,0,1-1.71-2.83l.28.18-.07-.46a30.37,30.37,0,0,1,1.75,3.06c.29.07.3.24.45.06a.38.38,0,0,1,.2.48l.53-.24c-.49-.46-.18-.77-.6-1.16l.08.92c-.49-.46-1.11-1.6-.75-1.78.26.12.79.89,1,1-.13-.2-.06-.57.08-.48l.14.37c.33,0-.38-.88.26-.61.09,0,.8.43.52.13a20.05,20.05,0,0,1-2.68-2.57,5.82,5.82,0,0,1,1.19.38c.53.33.86,1.17,1.31,1.45a1.33,1.33,0,0,1-.25-.43c.17.05.37.43.46.23-.46-.51.33-.25-.34-.47,0-.28.24,0,.39-.24a3.16,3.16,0,0,1-.91-1.49,2.4,2.4,0,0,0,.39.32c.33-.24.71-.18,1-.44.14.09.41.1.56.36,0-.12-.17-.32-.1-.41.58.25-.12.24.5.62-.27-.29-.17-.6-.23-.89-.46-.4-.35.19-.29.48a3.25,3.25,0,0,1-1-2c.08-.37.49.29.44.16.52-.31-.68-1.39.09-1.31.52.24.77.75,1.07,1,0,.33-.52,0-.63.18l.33,0c.07.18.05.4-.13.35.46.23.77-.64,1.41-.65-.07-.18-.1-.41-.3-.52l-.05.16c-.4-.21-.23-.62-.5-.63-.08-.35-.27-.85.1-.87l.47.4c-.13-.12-.39-.13-.31,0-.11-.27.89.3.41-.36l-.44-.16c-.08-.36-.37-1-.06-1-.51-.35,0,.09-.62-.29.73.52-.46.42.37.9-.71-.46-.47,0-1.13-.36.15.14.34.21.12.29a1.3,1.3,0,0,1,.1.15h0s0,0,0,0a.89.89,0,0,1,.29.15c.26.4,0,.62.11.86-.15,0-.13-.2-.33-.3l.14.37c-.33-.31-.75-.3-.74-.69l-.19.17c-.29-.08-.5,0-.46.22-.15,0,.14.57,0,.25l-.09.48-.08-.08c-.32.24-.05,1.1-.94.85,0,.17,0,.37-.26.44l-.31-.25c0,.22-.63.09-.4.43-.87-.61-.75.42-1.09.5l.35.37c-.17.13-.2.37-.24.69l.33.31c.1.42-.63.18-.85.46-.1-.14,0-.17.11-.14-1-.42-.1,1.14-.89.89.05.18,0,.19-.17.16s0,0,0,0l0,0-.26-.08a.69.69,0,0,0,.25.09.49.49,0,0,0-.08.33l-.38-.3s0,0,0,0c-.2-.05.1.23.4.44a1.05,1.05,0,0,0,.11.31c-.62-.49,0,.39-.69-.12.23.34-.17.6.39,1.25-.08-.08-.14-.1-.1-.14-.16,0-.31,0-.22.28l-.47-.4.4.77a1.22,1.22,0,0,1-.8-.7c.24.78,0,.41.25,1.15l-.27-.29c-.07.09.17.6-.11.42-.72-.35-1,.84-2,.82.92.73-.59-.15,0,.51-.22-.17-.4-.21-.49-.46-.05.43-.67.06-.3.76-.22-.17-.23-.34-.37-.43,0,.06.09.25-.05.16s-.13-.2-.18-.32c-.21.28.36.9.91,1.48-.39-.14-.42,0-.14.42-.23-.14-.49-.26-.41-.48-.11.06-.79.26-.35.72-.14-.09-.16.09-.13.16-.22.17-.27.14-.42.38l.12,0c.47.62,0,.28-.12.5l-.05-.06c-.75,0,0,.34-.76.24l.36.32c.69.76-.74-.12-.66.36l.26.12c.14.36-1.3-.69-1.5-.67s-.06-.14-.08-.22c-.72-.14.41.48.3.8-.28-.2-.56-.66-.75-.56-.27-.12.36,1.2-.3.94.23.14.45.28.49.52s-1.11-.28-.67.44a.52.52,0,0,1-.17-.12c0,.27-.13.63.11,1-1.28-1.06-.16,1.3-1.23.22l-.31.41-.1-.11c-.3.15-.12.5,0,.84-.12,0-.18-.16-.24-.23-.55.12-.54.2-.28,1l-.38-.32c.12.28-1-.06-1,.68a.52.52,0,0,1-.12-.19c0,.78-1.87-.08-.73,1.33l.07.56c.42-.22.51.6.85.68-.05.2-.71-.06-.62-.28l.09,0c-.61-.72-.63.16-1.08-.3-.59.66-1.57.9-2.18,1.46l.58.45-.23.17c-.17-.07-.48-.33-.31-.46-.37-.21,0,.49.11.61-.5.07-.49-.72-.59-.64l-.08.16.09,0c.11.31.33.54.13.69S351,30,350.89,30s-.07,0-.09.05l-.3.22.51.3c.09.32-.26.22.32.57-.89-.54-1.21.7-1.54.59a.58.58,0,0,1-.26.77c.13,0,.62.46.4.58-.89-1-.72-.11-1.54-.65.57.33-.37.59.47,1-.22.06-.37-.35-.7-.46,0,.7-1,.5-1.26,1,.11.13.37.26.47.53l-.84-.4c0,.14.64.79.06.51.13.08.32.21.3.3-1.42.21-1.16,2.15-3.12,1.84.35.13.3.23.23.32.11,0,.3.31.48.47l-.81-.13c.4.53-.34.4.07.89l0-.19c.38.67,1.38,1,2,1.67-.43-.77,1.32.46.73-.67.19.08.17.27.35.39-.22-.35-.2-.5.08-.52l.06.09c.35-.49.82-.39,1.49-.68l-.37-.3c.15-.05.27,0,.4.07-.39-.63-.31.26-.76-.41.81.54.73-.72,1.6,0,.16-.16-.44-.34-.28-.5l.25.17-.23-.31c.15-.06.47.15.65.33,0,0,0,.12,0,.16.38.11.29-.46.42-.43l-.29,0c.24-.62,1-.87,1-1.72l-.19-.12c0-.61.43-.08.64-.57l0,.05c-.09-.23-.08-.4,0-.48.09.28.52.2.61.52,0-.66-.07-.42-.43-1.23l.31.21c-.16-.32-.28-.45-.17-.69.08.37.51.29.65.74.94.21,0-1.12,1-.45-.56-.89-.72-.08-.78-.33-.32-.16-.41-.68-.22-.73s1.13.73,1.41.43c0,0,0,.08,0,.11.3.07,0-.47.4-.3-.36-.52.21-.15-.33-.74l-.14.4c0-.3-.51-1.09.06-1a1.69,1.69,0,0,1,.2.49c.24.09,0-.25.28-.16.54.59-.21.45.06,1,.31.16-.1-.71.42,0-.65-.89.39-.19,0-1L355,32c0-.09-.11-.31,0-.36l.34.54c-.22-.53.63,0,.58-.34-.31.33-.47-.34-.86-.44,0-.85,1.11.64,1.4,0,0,.11-.43,0-.49-.23a1.11,1.11,0,0,1,.62.13c.23-.37-.39-.3-.47-.63.51.3,0-.32,0-.58l.34.34c.56-.12-.62-.8-.05-.84l.34.61,0-.29.35.43c-.11-.46,0-.44.29-.5-.28-.2-.59-.64-.46-.81.31.11.27.39.43.13.17.26.39.58,0,.35.1.13.17.27.27.39.34.12.32-.23.4-.31a.18.18,0,0,1-.16,0l-.17-.78a.58.58,0,0,1,.3.36c0-.1-.08-.3,0-.42.25.3.54.58.54.84V29c.14.1.48.18.54.32.33,0-.14-.94.29-.94a.32.32,0,0,1-.06-.22c.26-.14.78,0,.64-.6l.63.36c.08-.3-.81-.44-.68-.94s.51.34.72.4c-.14-.36-.46-1.06.15-.86C360.74,26.71,360.61,26.69,360.58,26.79Zm2.1-2.53c0,.12.15.43-.08.26C362.26,24.08,362.49,24.22,362.68,24.26Zm2.69-4.34c.08.15,0,.15-.21.07C365.17,19.92,365.23,19.89,365.37,19.92Zm7.42-12.16v0C372.57,7.74,372.66,7.76,372.79,7.76Zm.35-.06a.29.29,0,0,0-.13-.16c.07.1,0,.16,0,.19C373.07,7.8,373.16,7.83,373.14,7.7ZM351,30.12l.13.05C351.12,30.36,351.06,30.25,351,30.12Z"/><path class="cls-1" d="M365.44,20.79l-.21-.17A.33.33,0,0,0,365.44,20.79Z"/><path class="cls-1" d="M359.33,28.41h0l.06.07Z"/><path class="cls-1" d="M372.82,13.8a.51.51,0,0,1-.26-.09C372.64,13.8,372.73,13.85,372.82,13.8Z"/><path class="cls-1" d="M373.66,6l0,.22c.05-.08.15,0,.23,0C373.77,6.15,373.63,6.06,373.66,6Z"/><path class="cls-1" d="M376.93,7c0-.06,0,0,0-.1l-.16-.16A.17.17,0,0,0,376.93,7Z"/><path class="cls-1" d="M374.92,7c.3.27.28.09.32,0h0C374.85,6.56,374.89,6.8,374.92,7Z"/><path class="cls-1" d="M375.26,6.94a.12.12,0,0,1,.08-.09C375.19,6.68,375.27,6.85,375.26,6.94Z"/><path class="cls-1" d="M373.22,7.24c.12,0-.34-.39-.2-.3C372.7,6.53,373.17,7.68,373.22,7.24Z"/><polygon class="cls-1" points="375.94 7.9 375.55 7.58 375.79 7.91 375.94 7.9"/><path class="cls-1" d="M375,8.37l.24,0a.27.27,0,0,1-.08-.16C375,8.24,374.84,8.27,375,8.37Z"/><path class="cls-1" d="M375.11,8.16a.13.13,0,0,0,.06-.18A.34.34,0,0,0,375.11,8.16Z"/><polygon class="cls-1" points="375.85 8.21 375.73 8.18 375.6 8.26 375.85 8.21"/><path class="cls-1" d="M373.28,9.9l-.06.27c.1.14.22.17.23.06S373.42,10,373.28,9.9Z"/><path class="cls-1" d="M374.74,10.38a1.18,1.18,0,0,1-.34-.19l.43.44Z"/><path class="cls-1" d="M374.37,11c.1.14.11.58.29.35C374.56,11.17,374.62,10.91,374.37,11Z"/><polygon class="cls-1" points="371.37 12.85 371.4 12.8 370.68 12.09 371.37 12.85"/><path class="cls-1" d="M370.93,16.73c.37,0-.4-.49,0-.45-.12-.21-.32,0-.42-.23C370.57,16.35,370.4,16.31,370.93,16.73Z"/><path class="cls-1" d="M370.5,16.05a.71.71,0,0,0-.05-.16A.76.76,0,0,0,370.5,16.05Z"/><polygon class="cls-1" points="343.07 37.31 342.79 37.29 343.12 37.45 343.07 37.31"/><path class="cls-1" d="M343.36,38.08l-.48-.43.34.49S343.24,38,343.36,38.08Z"/><path class="cls-1" d="M363.94,24.84l-.1-.12c-.13-.1-.17-.08-.25,0Z"/><polygon class="cls-1" points="361.92 26.18 361.96 26.16 361.49 25.8 361.92 26.18"/><path class="cls-1" d="M361,28.11c.08,0,0-.2.13-.24C361.12,28.07,360.51,27.61,361,28.11Z"/><line class="cls-1" x1="386.46" y1="39.38" x2="423.8" y2="2.05"/><path class="cls-1" d="M422,.37c.08,0-.23-.31-.28-.37C421.73.16,422.11.44,422,.37Z"/><polygon class="cls-1" points="421.8 1.95 421.69 1.81 421.85 2.24 421.8 1.95"/><path class="cls-1" d="M420.94,2.8c.58.42.22-.39.56-.37l.14.09-.34-.47C421.18,2.3,421.21,2.81,420.94,2.8Z"/><path class="cls-1" d="M419.39,2.16c.23.17.07.26.17-.05l-.07,0A.22.22,0,0,1,419.39,2.16Z"/><path class="cls-1" d="M419.49,2.08c.08-.1-.22-.1,0,0Z"/><path class="cls-1" d="M419.19,2.61l-.06-.29c-.14-.1-.27,0-.31-.14C418.79,2.4,418.93,2.49,419.19,2.61Z"/><path class="cls-1" d="M419.45,3.09l0-.14C419.37,2.92,419.34,2.92,419.45,3.09Z"/><path class="cls-1" d="M419.41,2.67l0,.28c.1.07.27.23,0-.11C419.57,3,419.46,2.83,419.41,2.67Z"/><path class="cls-1" d="M419.56,2.67c.17,0,.33,0,.38.32C420.1,2.7,419.71,2.37,419.56,2.67Z"/><path class="cls-1" d="M421.42,3.36l.23.06-.09-.25C421.61,3.3,421.25,3.21,421.42,3.36Z"/><path class="cls-1" d="M418.19,3.08a5.37,5.37,0,0,0,.48.38l0-.21A.72.72,0,0,1,418.19,3.08Z"/><path class="cls-1" d="M418.67,3.46l.05.31C418.86,3.68,418.79,3.57,418.67,3.46Z"/><polygon class="cls-1" points="419.99 3.67 419.81 3.07 419.95 3.72 419.99 3.67"/><polygon class="cls-1" points="417.68 3.57 417.51 3.25 417.75 3.75 417.68 3.57"/><path class="cls-1" d="M417.39,3.94c-.15-.26-.42-.27-.49-.46a1.14,1.14,0,0,0,.14.61C417,3.93,417.12,3.87,417.39,3.94Z"/><path class="cls-1" d="M417.15,4.44a1.91,1.91,0,0,0-.11-.35A1.12,1.12,0,0,0,417.15,4.44Z"/><path class="cls-1" d="M418.44,3.94a.88.88,0,0,0-.41-.2l.36.25Z"/><path class="cls-1" d="M418.4,4h0l-.13.09Z"/><path class="cls-1" d="M418.46,3.93h0S418.49,4,418.46,3.93Z"/><path class="cls-1" d="M419.37,3.74c.09.24.11.59.53.69C419.74,4.17,419.51,4.11,419.37,3.74Z"/><path class="cls-1" d="M418.9,4.24l.21-.07c-.09-.07-.23-.16-.27-.29Z"/><polygon class="cls-1" points="418.93 4.41 418.9 4.24 418.82 4.27 418.93 4.41"/><path class="cls-1" d="M417.67,4.48a.35.35,0,0,1,0,.37A.56.56,0,0,0,418,4.7C417.89,4.59,417.75,4.39,417.67,4.48Z"/><path class="cls-1" d="M418.05,4.27s0,0,0,0S418.11,4.32,418.05,4.27Z"/><path class="cls-1" d="M416.91,5.57l.07,0-.05-.06Z"/><path class="cls-1" d="M418,4.74c.12,0,.08-.11,0-.24a.41.41,0,0,1-.09.2S418,4.78,418,4.74Z"/><path class="cls-1" d="M417.09,4.78a1.8,1.8,0,0,0,.27.07C417.24,4.78,417,4.69,417.09,4.78Z"/><path class="cls-1" d="M418,4.24v0C417.86,4.17,417.9,4.2,418,4.24Z"/><path class="cls-1" d="M418,4.24a1.83,1.83,0,0,0,.11.26.67.67,0,0,0,0-.2Z"/><path class="cls-1" d="M418.63,7.73c-.27-.29-.37-.7.06-.54-.07-.34-1.08-1.17-1.71-1.57a.81.81,0,0,1,.26.54c.2.1.66,0,.79.42,0,.33-.24,0-.48,0,.42.28.28.74.83,1.21l0-.34C418.44,7.52,418.51,7.71,418.63,7.73Z"/><path class="cls-1" d="M417.27,5.38l0-.09c-.12,0-.27,0-.58-.18a.82.82,0,0,0,.22.45l.31-.24Z"/><path class="cls-1" d="M417.54,5c.26.35.25.61.67.86.14-.19-.14-.37-.18-.6-.19.34-.09-.25-.45-.23a.41.41,0,0,1,.06-.22,1.31,1.31,0,0,1-.28,0h0c.05,0,.08,0,0,0s0,0,0,0l.11.13c-.14,0-.09-.07-.11-.13l0,0h0l-.1.43C417.39,5.28,417.45,5.2,417.54,5Z"/><path class="cls-1" d="M420.41,5.23a.19.19,0,0,1-.08-.07C420.35,5.22,420.37,5.25,420.41,5.23Z"/><path class="cls-1" d="M420.11,5.15c0-.06-.12-.2,0-.23s.15.15.25.24c0-.11-.09-.35-.35-.38l0,.06a1.6,1.6,0,0,1-.75-.3A5.15,5.15,0,0,0,420.11,5.15Z"/><path class="cls-1" d="M418.9,5.18l-.08.37.38.15L419,5.55C419.23,5.49,419,5.32,418.9,5.18Z"/><polygon class="cls-1" points="416.73 5.45 416.44 5.1 416.77 5.68 416.73 5.45"/><polygon class="cls-1" points="416.48 5.78 416.21 5.49 416.31 5.73 416.48 5.78"/><path class="cls-1" d="M403.63,25.57v.15A.35.35,0,0,0,403.63,25.57Z"/><path class="cls-1" d="M404.12,25.12,404,25C404.05,25.07,404.1,25.13,404.12,25.12Z"/><path class="cls-1" d="M409.41,12.91c-.36-.16-.87-.46-.54-.16l.33.28C409.21,12.91,409.3,12.89,409.41,12.91Z"/><path class="cls-1" d="M406.37,19.61l.13.06c-.09-.12-.16-.24-.23-.35C406.3,19.41,406.34,19.51,406.37,19.61Z"/><path class="cls-1" d="M407.58,21l-.33-.08A1.14,1.14,0,0,0,407.58,21Z"/><path class="cls-1" d="M401.37,28.48l.23.39C401.72,28.75,401.51,28.65,401.37,28.48Z"/><path class="cls-1" d="M413.63,8.85a.57.57,0,0,0-.39,0C413.52,9,413.86,9.13,413.63,8.85Z"/><path class="cls-1" d="M400.56,22.13a.44.44,0,0,0,.13.24A.36.36,0,0,0,400.56,22.13Z"/><path class="cls-1" d="M413,9.11l.11,0a.32.32,0,0,1,.12-.27C413,8.81,412.87,8.82,413,9.11Z"/><path class="cls-1" d="M391.74,37.61l-.06,0S391.73,37.63,391.74,37.61Z"/><path class="cls-1" d="M385.91,37.25s0-.1.09-.14S385.92,37.14,385.91,37.25Z"/><path class="cls-1" d="M415.18,6.81c0-.09,0,0,0,0Z"/><path class="cls-1" d="M416.7,7.72a.49.49,0,0,0,.12.17A.53.53,0,0,1,416.7,7.72Z"/><path class="cls-1" d="M414.3,11.63Z"/><path class="cls-1" d="M415.42,6.85a.51.51,0,0,0-.17,0A.41.41,0,0,0,415.42,6.85Z"/><path class="cls-1" d="M415.26,6.72l.08,0C415.3,6.64,415.26,6.61,415.26,6.72Z"/><path class="cls-1" d="M415.11,6.91a.21.21,0,0,1,.14-.07l-.07,0Z"/><path class="cls-1" d="M395.94,31.76h0C396,31.94,396,31.89,395.94,31.76Z"/><path class="cls-1" d="M411,17.69v0h0Z"/><path class="cls-1" d="M411,18.14c-.29-.47-.19-.48,0-.47l-1-.81Z"/><path class="cls-1" d="M402.58,26.79l.43.12c.27.64,0,.62.51.87-.94-1,.51-.7-.43-1.68l.3.1s0,.08,0,.1c.65.26-.55-.85-.16-1a.41.41,0,0,1,.42.24l0-.43c.08,0,.23.14.15.18l.23-.38,0,0a5.91,5.91,0,0,1-.3-.67c.22.06.07.14.2.24l-.06-.4c.32.18.42.56.27.64,1.11.8-.1-.38.79-.16l0,.28c.64.44.57.12,1.09.28-.22-.13-1.22-.5-1.27-.92.12,0,.22,0,.13-.3.34.34.35.16.45,0l.45.46c0-.26-.24-.48-.37-.76.19-.1.57.22.9.48.3-.16-.72-.4-.54-.76.37,0,.32-.34.28-.84.29,0,.25.3.43.38l-.24-.48s.14.1.19.16c0-.24-.44-.46-.41-.74-.46-.54,1.05.41.68-.36.18.08.26.3.45.46a3.69,3.69,0,0,0-.32-1.22l.48.11c-.47-.2-.7-.78-.88-1.26a5.19,5.19,0,0,0-.49-.26v-.49a1.37,1.37,0,0,1,.39.46c0-.06,0-.11-.07-.16.26.08.47.39.66.7a3.13,3.13,0,0,1-.36-.19,4.69,4.69,0,0,0,.73.95.38.38,0,0,1,0-.2,1,1,0,0,0,.17.21c.06,0,0-.09-.09-.25l.56.45-.19-.21h.64c-.28-.74-.82-1.69-.67-2.26a6.32,6.32,0,0,0,1,1.07c-.56-.37-.09.48-.37.57.15,0,.34.18.38.28l-.08-.76c.35.37.34.2.58.26-.78-.64-.22-.73-.3-1.08.24.23.45.5.23.61.72.35-.59-1.07,0-.8,0,.05-.09,0,0,.17-.11-.3.29-.37.44-.11l0,.05a.93.93,0,0,0,.28-1.47c.08.08.69.76.79.9l-1.53-2.51c.47.56,1.86,1.62,1.93,2.14.14,0,.3,0,.26-.3a3,3,0,0,1-.85-.75,5.16,5.16,0,0,0,1.12.48c-.17,0-.91-.93-.78-1,.1.14.81.79.85.92L411.06,16a3.07,3.07,0,0,0,.95.85c-.19-.13.24-.21.23-.36l-.3-.07c.42-.17-.83-1.41-.49-1.66.13.2.92,1.1,1.17,1a12.42,12.42,0,0,1-1.71-2.83l.28.18-.07-.46a30.37,30.37,0,0,1,1.75,3.06c.29.07.3.24.45.06a.38.38,0,0,1,.2.48l.53-.24c-.49-.46-.18-.77-.6-1.16l.08.92c-.49-.46-1.11-1.6-.75-1.78.26.12.79.89,1,1-.13-.2-.06-.57.08-.48l.14.37c.33,0-.38-.88.26-.61.09,0,.8.43.52.13a20.05,20.05,0,0,1-2.68-2.57,5.82,5.82,0,0,1,1.19.38c.53.33.86,1.17,1.31,1.45a1.33,1.33,0,0,1-.25-.43c.17.05.37.43.46.23-.46-.51.33-.25-.34-.47,0-.28.24,0,.39-.24a3.16,3.16,0,0,1-.91-1.49,2.4,2.4,0,0,0,.39.32c.33-.24.71-.18,1-.44.14.09.41.1.56.36,0-.12-.17-.32-.1-.41.58.25-.12.24.5.62-.27-.29-.17-.6-.23-.89-.46-.4-.35.19-.29.48a3.25,3.25,0,0,1-1-2c.08-.37.49.29.44.16.52-.31-.68-1.39.09-1.31.52.24.77.75,1.07,1,0,.33-.52,0-.63.18l.33,0c.07.18.05.4-.13.35.46.23.77-.64,1.41-.65-.07-.18-.1-.41-.3-.52l-.05.16c-.4-.21-.23-.62-.5-.63-.08-.35-.27-.85.1-.87l.47.4c-.13-.12-.39-.13-.31,0-.11-.27.89.3.41-.36l-.44-.16c-.08-.36-.37-1-.06-1-.51-.35,0,.09-.62-.29.73.52-.46.42.37.9-.71-.46-.47,0-1.13-.36.15.14.34.21.12.29a1.3,1.3,0,0,1,.1.15h0s0,0,0,0a.89.89,0,0,1,.29.15c.26.4,0,.62.11.86-.15,0-.13-.2-.33-.3l.14.37c-.33-.31-.75-.3-.74-.69l-.19.17c-.29-.08-.5,0-.46.22-.15,0,.14.57,0,.25l-.09.48-.08-.08c-.32.24-.05,1.1-.94.85,0,.17,0,.37-.26.44l-.31-.25c0,.22-.63.09-.4.43-.87-.61-.75.42-1.09.5l.35.37c-.17.13-.2.37-.24.69l.33.31c.1.42-.63.18-.85.46-.1-.14,0-.17.11-.14-1-.42-.1,1.14-.89.89.05.18,0,.19-.17.16s0,0,0,0l0,0-.26-.08a.69.69,0,0,0,.25.09.49.49,0,0,0-.08.33l-.38-.3s0,0,0,0c-.2-.05.1.23.4.44a1.05,1.05,0,0,0,.11.31c-.62-.49,0,.39-.69-.12.23.34-.17.6.39,1.25-.08-.08-.14-.1-.1-.14-.16,0-.31,0-.22.28l-.47-.4.4.77a1.22,1.22,0,0,1-.8-.7c.24.78,0,.41.25,1.15l-.27-.29c-.07.09.17.6-.11.42-.72-.35-1,.84-2,.82.92.73-.59-.15,0,.51-.22-.17-.4-.21-.49-.46-.05.43-.67.06-.3.76-.22-.17-.23-.34-.37-.43,0,.06.09.25-.05.16s-.13-.2-.18-.32c-.21.28.36.9.91,1.48-.39-.14-.42,0-.14.42-.23-.14-.49-.26-.41-.48-.11.06-.79.26-.35.72-.14-.09-.16.09-.13.16-.22.17-.27.14-.42.38l.12,0c.47.62,0,.28-.12.5l-.05-.06c-.75,0,0,.34-.76.24l.36.32c.69.76-.74-.12-.66.36l.26.12c.14.36-1.3-.69-1.5-.67s-.06-.14-.08-.22c-.72-.14.41.48.3.8-.28-.2-.56-.66-.75-.56-.27-.12.36,1.2-.3.94.23.14.45.28.49.52s-1.11-.28-.67.44a.52.52,0,0,1-.17-.12c0,.27-.13.63.11,1-1.28-1.06-.16,1.3-1.23.22l-.31.41-.1-.11c-.3.15-.12.5,0,.84-.12,0-.18-.16-.24-.23-.55.12-.54.2-.28,1l-.38-.32c.12.28-1-.06-1,.68a.52.52,0,0,1-.12-.19c0,.78-1.87-.08-.73,1.33l.07.56c.42-.22.51.6.85.68-.05.2-.71-.06-.62-.28l.09,0c-.61-.72-.63.16-1.08-.3-.59.66-1.57.9-2.18,1.46l.58.45-.23.17c-.17-.07-.48-.33-.31-.46-.37-.21,0,.49.11.61-.5.07-.49-.72-.59-.64l-.08.16.09,0c.11.31.33.54.13.69S393,30,392.89,30s-.07,0-.09.05l-.3.22.51.3c.09.32-.26.22.32.57-.89-.54-1.21.7-1.54.59a.58.58,0,0,1-.26.77c.13,0,.62.46.4.58-.89-1-.72-.11-1.54-.65.57.33-.37.59.47,1-.22.06-.37-.35-.7-.46,0,.7-1,.5-1.26,1,.11.13.37.26.47.53l-.84-.4c0,.14.64.79.06.51.13.08.32.21.3.3-1.42.21-1.16,2.15-3.12,1.84.35.13.3.23.23.32.11,0,.3.31.48.47l-.81-.13c.4.53-.34.4.07.89l0-.19c.38.67,1.38,1,2,1.67-.43-.77,1.32.46.73-.67.19.08.17.27.35.39-.22-.35-.2-.5.08-.52l.06.09c.35-.49.82-.39,1.49-.68l-.37-.3c.15-.05.27,0,.4.07-.39-.63-.31.26-.76-.41.81.54.73-.72,1.6,0,.16-.16-.44-.34-.28-.5l.25.17-.23-.31c.15-.06.47.15.65.33,0,0,0,.12,0,.16.38.11.29-.46.42-.43l-.29,0c.24-.62,1-.87,1-1.72l-.19-.12c0-.61.43-.08.64-.57l0,.05c-.09-.23-.08-.4,0-.48.09.28.52.2.61.52,0-.66-.07-.42-.43-1.23l.31.21c-.16-.32-.28-.45-.17-.69.08.37.51.29.65.74.94.21,0-1.12,1-.45-.56-.89-.72-.08-.78-.33-.32-.16-.41-.68-.22-.73s1.13.73,1.41.43c0,0,0,.08,0,.11.3.07,0-.47.4-.3-.36-.52.21-.15-.33-.74l-.14.4c0-.3-.51-1.09.06-1a1.69,1.69,0,0,1,.2.49c.24.09,0-.25.28-.16.54.59-.21.45.06,1,.31.16-.1-.71.42,0-.65-.89.39-.19,0-1L397,32c0-.09-.11-.31,0-.36l.34.54c-.22-.53.63,0,.58-.34-.31.33-.47-.34-.86-.44,0-.85,1.11.64,1.4,0,0,.11-.43,0-.49-.23a1.11,1.11,0,0,1,.62.13c.23-.37-.39-.3-.47-.63.51.3,0-.32,0-.58l.34.34c.56-.12-.62-.8-.05-.84l.34.61,0-.29.35.43c-.11-.46,0-.44.29-.5-.28-.2-.59-.64-.46-.81.31.11.27.39.43.13.17.26.39.58,0,.35.1.13.17.27.27.39.34.12.32-.23.4-.31a.18.18,0,0,1-.16,0l-.17-.78a.58.58,0,0,1,.3.36c0-.1-.08-.3,0-.42.25.3.54.58.54.84V29c.14.1.48.18.54.32.33,0-.14-.94.29-.94a.32.32,0,0,1-.06-.22c.26-.14.78,0,.64-.6l.63.36c.08-.3-.81-.44-.68-.94s.51.34.72.4c-.14-.36-.46-1.06.15-.86C402.74,26.71,402.61,26.69,402.58,26.79Zm2.1-2.53c0,.12.15.43-.08.26C404.26,24.08,404.49,24.22,404.68,24.26Zm2.69-4.34c.08.15,0,.15-.21.07C407.17,19.92,407.23,19.89,407.37,19.92Zm7.42-12.16v0C414.57,7.74,414.66,7.76,414.79,7.76Zm.35-.06a.29.29,0,0,0-.13-.16c.07.1,0,.16,0,.19C415.07,7.8,415.16,7.83,415.14,7.7ZM393,30.12l.13.05C393.12,30.36,393.06,30.25,393,30.12Z"/><path class="cls-1" d="M407.44,20.79l-.21-.17A.33.33,0,0,0,407.44,20.79Z"/><path class="cls-1" d="M401.33,28.41h0l.06.07Z"/><path class="cls-1" d="M414.82,13.8a.51.51,0,0,1-.26-.09C414.64,13.8,414.73,13.85,414.82,13.8Z"/><path class="cls-1" d="M415.66,6l0,.22c.05-.08.15,0,.23,0C415.77,6.15,415.63,6.06,415.66,6Z"/><path class="cls-1" d="M418.93,7c0-.06,0,0,0-.1l-.16-.16A.17.17,0,0,0,418.93,7Z"/><path class="cls-1" d="M416.92,7c.3.27.28.09.32,0h0C416.85,6.56,416.89,6.8,416.92,7Z"/><path class="cls-1" d="M417.26,6.94a.12.12,0,0,1,.08-.09C417.19,6.68,417.27,6.85,417.26,6.94Z"/><path class="cls-1" d="M415.22,7.24c.12,0-.34-.39-.2-.3C414.7,6.53,415.17,7.68,415.22,7.24Z"/><polygon class="cls-1" points="417.94 7.9 417.55 7.58 417.79 7.91 417.94 7.9"/><path class="cls-1" d="M417,8.37l.24,0a.27.27,0,0,1-.08-.16C417,8.24,416.84,8.27,417,8.37Z"/><path class="cls-1" d="M417.11,8.16a.13.13,0,0,0,.06-.18A.34.34,0,0,0,417.11,8.16Z"/><polygon class="cls-1" points="417.85 8.21 417.73 8.18 417.6 8.26 417.85 8.21"/><path class="cls-1" d="M415.28,9.9l-.06.27c.1.14.22.17.23.06S415.42,10,415.28,9.9Z"/><path class="cls-1" d="M416.74,10.38a1.18,1.18,0,0,1-.34-.19l.43.44Z"/><path class="cls-1" d="M416.37,11c.1.14.11.58.29.35C416.56,11.17,416.62,10.91,416.37,11Z"/><polygon class="cls-1" points="413.37 12.85 413.4 12.8 412.68 12.09 413.37 12.85"/><path class="cls-1" d="M412.93,16.73c.37,0-.4-.49,0-.45-.12-.21-.32,0-.42-.23C412.57,16.35,412.4,16.31,412.93,16.73Z"/><path class="cls-1" d="M412.5,16.05a.71.71,0,0,0-.05-.16A.76.76,0,0,0,412.5,16.05Z"/><polygon class="cls-1" points="385.07 37.31 384.79 37.29 385.12 37.45 385.07 37.31"/><path class="cls-1" d="M385.36,38.08l-.48-.43.34.49S385.24,38,385.36,38.08Z"/><path class="cls-1" d="M405.94,24.84l-.1-.12c-.13-.1-.17-.08-.25,0Z"/><polygon class="cls-1" points="403.92 26.18 403.96 26.16 403.49 25.8 403.92 26.18"/><path class="cls-1" d="M403,28.11c.08,0,0-.2.13-.24C403.12,28.07,402.51,27.61,403,28.11Z"/><line class="cls-1" x1="715.46" y1="39.38" x2="752.8" y2="2.05"/><path class="cls-1" d="M751,.37c.08,0-.23-.31-.28-.37C750.73.16,751.11.44,751,.37Z"/><polygon class="cls-1" points="750.79 1.95 750.69 1.81 750.85 2.24 750.79 1.95"/><path class="cls-1" d="M749.94,2.8c.58.42.23-.39.56-.37l.14.09-.34-.47C750.18,2.3,750.21,2.81,749.94,2.8Z"/><path class="cls-1" d="M748.39,2.16c.23.17.07.26.17-.05l-.07,0A.22.22,0,0,1,748.39,2.16Z"/><path class="cls-1" d="M748.49,2.08c.08-.1-.22-.1,0,0Z"/><path class="cls-1" d="M748.19,2.61l-.06-.29c-.14-.1-.27,0-.31-.14C747.79,2.4,747.93,2.49,748.19,2.61Z"/><path class="cls-1" d="M748.45,3.09l0-.14C748.37,2.92,748.34,2.92,748.45,3.09Z"/><path class="cls-1" d="M748.41,2.67l0,.28c.1.07.27.23,0-.11C748.58,3,748.46,2.83,748.41,2.67Z"/><path class="cls-1" d="M748.56,2.67c.17,0,.33,0,.38.32C749.1,2.7,748.71,2.37,748.56,2.67Z"/><path class="cls-1" d="M750.42,3.36l.23.06-.09-.25C750.61,3.3,750.25,3.21,750.42,3.36Z"/><path class="cls-1" d="M747.19,3.08a5.37,5.37,0,0,0,.48.38l0-.21A.72.72,0,0,1,747.19,3.08Z"/><path class="cls-1" d="M747.67,3.46l.05.31C747.86,3.68,747.79,3.57,747.67,3.46Z"/><polygon class="cls-1" points="748.99 3.67 748.81 3.07 748.95 3.72 748.99 3.67"/><polygon class="cls-1" points="746.68 3.57 746.51 3.25 746.75 3.75 746.68 3.57"/><path class="cls-1" d="M746.39,3.94c-.15-.26-.42-.27-.49-.46a1.14,1.14,0,0,0,.14.61C746,3.93,746.12,3.87,746.39,3.94Z"/><path class="cls-1" d="M746.15,4.44a1.91,1.91,0,0,0-.11-.35A1.12,1.12,0,0,0,746.15,4.44Z"/><path class="cls-1" d="M747.44,3.94a.88.88,0,0,0-.41-.2l.36.25Z"/><path class="cls-1" d="M747.4,4h0l-.13.09Z"/><path class="cls-1" d="M747.46,3.93h0S747.49,4,747.46,3.93Z"/><path class="cls-1" d="M748.37,3.74c.09.24.11.59.53.69C748.74,4.17,748.51,4.11,748.37,3.74Z"/><path class="cls-1" d="M747.9,4.24l.21-.07c-.09-.07-.23-.16-.27-.29Z"/><polygon class="cls-1" points="747.93 4.41 747.9 4.24 747.82 4.27 747.93 4.41"/><path class="cls-1" d="M746.67,4.48a.35.35,0,0,1,0,.37A.56.56,0,0,0,747,4.7C746.89,4.59,746.75,4.39,746.67,4.48Z"/><path class="cls-1" d="M747.05,4.27s0,0,0,0S747.11,4.32,747.05,4.27Z"/><path class="cls-1" d="M745.91,5.57l.07,0-.05-.06Z"/><path class="cls-1" d="M747,4.74c.12,0,.08-.11,0-.24a.41.41,0,0,1-.09.2S747,4.78,747,4.74Z"/><path class="cls-1" d="M746.09,4.78a1.8,1.8,0,0,0,.27.07C746.24,4.78,746,4.69,746.09,4.78Z"/><path class="cls-1" d="M747,4.24v0C746.86,4.17,746.9,4.2,747,4.24Z"/><path class="cls-1" d="M747,4.24a1.83,1.83,0,0,0,.11.26.67.67,0,0,0,0-.2Z"/><path class="cls-1" d="M747.63,7.73c-.27-.29-.37-.7.06-.54-.07-.34-1.08-1.17-1.71-1.57a.81.81,0,0,1,.26.54c.2.1.66,0,.79.42,0,.33-.24,0-.48,0,.42.28.28.74.83,1.21l0-.34C747.44,7.52,747.51,7.71,747.63,7.73Z"/><path class="cls-1" d="M746.27,5.38l0-.09c-.12,0-.27,0-.58-.18a.82.82,0,0,0,.22.45l.31-.24Z"/><path class="cls-1" d="M746.54,5c.26.35.25.61.67.86.14-.19-.14-.37-.18-.6-.19.34-.09-.25-.45-.23a.41.41,0,0,1,.06-.22,1.31,1.31,0,0,1-.28,0h0c.05,0,.08,0,0,0s0,0,0,0l.11.13c-.14,0-.09-.07-.11-.13l0,0h0l-.1.43C746.39,5.28,746.45,5.2,746.54,5Z"/><path class="cls-1" d="M749.41,5.23a.19.19,0,0,1-.08-.07C749.35,5.22,749.37,5.25,749.41,5.23Z"/><path class="cls-1" d="M749.11,5.15c0-.06-.12-.2,0-.23s.15.15.25.24c0-.11-.09-.35-.35-.38l0,.06a1.6,1.6,0,0,1-.75-.3A5.15,5.15,0,0,0,749.11,5.15Z"/><path class="cls-1" d="M747.9,5.18l-.08.37.38.15L748,5.55C748.23,5.49,748,5.32,747.9,5.18Z"/><polygon class="cls-1" points="745.73 5.45 745.44 5.1 745.77 5.68 745.73 5.45"/><polygon class="cls-1" points="745.48 5.78 745.21 5.49 745.3 5.73 745.48 5.78"/><path class="cls-1" d="M732.63,25.57v.15A.35.35,0,0,0,732.63,25.57Z"/><path class="cls-1" d="M733.12,25.12,733,25C733.05,25.07,733.1,25.13,733.12,25.12Z"/><path class="cls-1" d="M738.41,12.91c-.36-.16-.87-.46-.54-.16l.33.28C738.21,12.91,738.3,12.89,738.41,12.91Z"/><path class="cls-1" d="M735.37,19.61l.13.06c-.09-.12-.16-.24-.23-.35C735.3,19.41,735.34,19.51,735.37,19.61Z"/><path class="cls-1" d="M736.58,21l-.33-.08A1.14,1.14,0,0,0,736.58,21Z"/><path class="cls-1" d="M730.37,28.48l.23.39C730.72,28.75,730.51,28.65,730.37,28.48Z"/><path class="cls-1" d="M742.63,8.85a.57.57,0,0,0-.39,0C742.52,9,742.86,9.13,742.63,8.85Z"/><path class="cls-1" d="M729.56,22.13a.44.44,0,0,0,.13.24A.36.36,0,0,0,729.56,22.13Z"/><path class="cls-1" d="M742,9.11l.12,0a.32.32,0,0,1,.12-.27C742,8.81,741.87,8.82,742,9.11Z"/><path class="cls-1" d="M720.73,37.61l-.05,0S720.73,37.63,720.73,37.61Z"/><path class="cls-1" d="M714.91,37.25s.05-.1.09-.14S714.92,37.14,714.91,37.25Z"/><path class="cls-1" d="M744.18,6.81c0-.09,0,0,0,0Z"/><path class="cls-1" d="M745.7,7.72a.49.49,0,0,0,.12.17A.53.53,0,0,1,745.7,7.72Z"/><path class="cls-1" d="M743.3,11.63Z"/><path class="cls-1" d="M744.42,6.85a.51.51,0,0,0-.17,0A.41.41,0,0,0,744.42,6.85Z"/><path class="cls-1" d="M744.26,6.72l.08,0C744.3,6.64,744.26,6.61,744.26,6.72Z"/><path class="cls-1" d="M744.11,6.91a.21.21,0,0,1,.14-.07l-.07,0Z"/><path class="cls-1" d="M724.94,31.76h0C725,31.94,725,31.89,724.94,31.76Z"/><path class="cls-1" d="M740,17.69v0h0Z"/><path class="cls-1" d="M740,18.14c-.29-.47-.19-.48,0-.47l-1-.81Z"/><path class="cls-1" d="M731.58,26.79l.43.12c.27.64,0,.62.51.87-.94-1,.51-.7-.43-1.68l.3.1s0,.08,0,.1c.65.26-.55-.85-.16-1a.41.41,0,0,1,.42.24l0-.43c.08,0,.23.14.15.18l.23-.38,0,0a5.91,5.91,0,0,1-.3-.67c.22.06.07.14.2.24l-.06-.4c.32.18.42.56.27.64,1.11.8-.1-.38.79-.16l0,.28c.64.44.57.12,1.09.28-.22-.13-1.22-.5-1.27-.92.12,0,.22,0,.13-.3.34.34.35.16.45,0l.45.46c0-.26-.24-.48-.37-.76.19-.1.57.22.9.48.3-.16-.72-.4-.54-.76.37,0,.32-.34.28-.84.29,0,.25.3.43.38l-.24-.48s.14.1.19.16c0-.24-.44-.46-.41-.74-.46-.54,1,.41.68-.36.18.08.26.3.45.46a3.69,3.69,0,0,0-.32-1.22l.48.11c-.47-.2-.7-.78-.88-1.26a5.19,5.19,0,0,0-.49-.26v-.49a1.37,1.37,0,0,1,.39.46c0-.06,0-.11-.07-.16.26.08.47.39.66.7a3.13,3.13,0,0,1-.36-.19,4.69,4.69,0,0,0,.73.95.38.38,0,0,1,0-.2,1,1,0,0,0,.17.21c.06,0,0-.09-.09-.25l.56.45-.19-.21h.64c-.28-.74-.82-1.69-.67-2.26a6.32,6.32,0,0,0,1,1.07c-.56-.37-.09.48-.37.57.15,0,.34.18.38.28l-.08-.76c.35.37.34.2.58.26-.78-.64-.22-.73-.3-1.08.24.23.45.5.23.61.72.35-.59-1.07,0-.8,0,.05-.09,0,0,.17-.11-.3.29-.37.44-.11l0,.05a.93.93,0,0,0,.28-1.47c.08.08.69.76.79.9l-1.53-2.51c.47.56,1.86,1.62,1.93,2.14.14,0,.3,0,.26-.3a3,3,0,0,1-.85-.75,5.16,5.16,0,0,0,1.12.48c-.17,0-.91-.93-.78-1,.1.14.81.79.85.92L740.06,16a3.07,3.07,0,0,0,1,.85c-.19-.13.24-.21.23-.36l-.3-.07c.42-.17-.83-1.41-.49-1.66.13.2.92,1.1,1.17,1a12.42,12.42,0,0,1-1.71-2.83l.28.18-.07-.46a30.37,30.37,0,0,1,1.75,3.06c.29.07.3.24.45.06a.38.38,0,0,1,.2.48l.53-.24c-.5-.46-.18-.77-.6-1.16l.08.92c-.49-.46-1.11-1.6-.75-1.78.26.12.79.89,1,1-.13-.2-.06-.57.08-.48l.14.37c.33,0-.38-.88.26-.61.09,0,.8.43.52.13a20.05,20.05,0,0,1-2.68-2.57,5.82,5.82,0,0,1,1.19.38c.53.33.86,1.17,1.31,1.45a1.33,1.33,0,0,1-.25-.43c.17.05.37.43.46.23-.46-.51.33-.25-.34-.47,0-.28.24,0,.39-.24a3.16,3.16,0,0,1-.91-1.49,2.4,2.4,0,0,0,.39.32c.33-.24.71-.18,1-.44.14.09.41.1.56.36,0-.12-.17-.32-.1-.41.58.25-.12.24.5.62-.27-.29-.17-.6-.23-.89-.46-.4-.35.19-.29.48a3.25,3.25,0,0,1-1-2c.08-.37.49.29.44.16.52-.31-.68-1.39.09-1.31.52.24.77.75,1.07,1,0,.33-.52,0-.63.18l.33,0c.07.18,0,.4-.13.35.46.23.77-.64,1.41-.65-.07-.18-.1-.41-.3-.52l-.05.16c-.4-.21-.23-.62-.5-.63-.08-.35-.27-.85.1-.87l.47.4c-.13-.12-.39-.13-.31,0-.11-.27.89.3.41-.36l-.44-.16c-.08-.36-.37-1-.06-1-.51-.35,0,.09-.62-.29.73.52-.46.42.37.9-.71-.46-.47,0-1.13-.36.15.14.34.21.12.29a1.3,1.3,0,0,1,.1.15h0s0,0,0,0a.89.89,0,0,1,.29.15c.26.4,0,.62.11.86-.15,0-.13-.2-.33-.3l.14.37c-.33-.31-.75-.3-.74-.69l-.19.17c-.29-.08-.5,0-.46.22-.15,0,.14.57,0,.25l-.08.48-.09-.08c-.32.24,0,1.1-.94.85,0,.17,0,.37-.26.44l-.31-.25c0,.22-.63.09-.4.43-.87-.61-.75.42-1.09.5l.35.37c-.17.13-.2.37-.24.69l.33.31c.1.42-.63.18-.85.46-.1-.14,0-.17.11-.14-1-.42-.1,1.14-.89.89,0,.18,0,.19-.17.16s0,0,0,0l0,0-.26-.08a.69.69,0,0,0,.25.09.49.49,0,0,0-.08.33l-.38-.3s0,0,0,0c-.2-.05.1.23.4.44a1.05,1.05,0,0,0,.11.31c-.62-.49,0,.39-.69-.12.23.34-.17.6.39,1.25-.08-.08-.14-.1-.1-.14-.16,0-.31,0-.22.28l-.47-.4.4.77a1.22,1.22,0,0,1-.8-.7c.24.78,0,.41.25,1.15l-.27-.29c-.07.09.17.6-.11.42-.72-.35-1,.84-2,.82.92.73-.59-.15,0,.51-.22-.17-.4-.21-.49-.46,0,.43-.67.06-.3.76-.22-.17-.23-.34-.37-.43,0,.06.09.25,0,.16s-.13-.2-.18-.32c-.21.28.36.9.91,1.48-.39-.14-.42,0-.14.42-.23-.14-.49-.26-.41-.48-.11.06-.79.26-.35.72-.14-.09-.16.09-.13.16-.22.17-.27.14-.42.38l.12,0c.47.62,0,.28-.12.5l-.05-.06c-.75,0,0,.34-.76.24l.36.32c.69.76-.74-.12-.66.36l.26.12c.14.36-1.3-.69-1.5-.67s-.06-.14-.08-.22c-.72-.14.41.48.3.8-.28-.2-.56-.66-.75-.56-.27-.12.36,1.2-.3.94.23.14.45.28.49.52s-1.11-.28-.67.44a.52.52,0,0,1-.17-.12c0,.27-.13.63.11,1-1.28-1.06-.16,1.3-1.23.22l-.31.41-.1-.11c-.3.15-.12.5.05.84-.12,0-.18-.16-.24-.23-.55.12-.54.2-.28,1l-.38-.32c.12.28-1-.06-1,.68a.52.52,0,0,1-.12-.19c0,.78-1.87-.08-.73,1.33l.07.56c.42-.22.51.6.85.68,0,.2-.71-.06-.62-.28l.09,0c-.61-.72-.63.16-1.08-.3-.59.66-1.57.9-2.18,1.46l.58.45-.23.17c-.17-.07-.48-.33-.31-.46-.37-.21,0,.49.11.61-.5.07-.49-.72-.59-.64l-.08.16.09,0c.11.31.33.54.13.69S722,30,721.89,30s-.07,0-.09.05l-.3.22.51.3c.09.32-.26.22.32.57-.89-.54-1.21.7-1.54.59a.58.58,0,0,1-.26.77c.13,0,.62.46.4.58-.89-1-.72-.11-1.54-.65.57.33-.37.59.47,1-.22.06-.37-.35-.7-.46,0,.7-1,.5-1.26,1,.11.13.37.26.47.53l-.84-.4c0,.14.64.79.06.51.13.08.32.21.3.3-1.42.21-1.16,2.15-3.12,1.84.35.13.3.23.23.32.11,0,.3.31.48.47l-.81-.13c.4.53-.34.4.07.89l0-.19c.38.67,1.38,1,2,1.67-.43-.77,1.32.46.73-.67.19.08.17.27.35.39-.22-.35-.2-.5.08-.52l.06.09c.35-.49.82-.39,1.49-.68l-.37-.3c.15-.05.27,0,.4.07-.39-.63-.31.26-.76-.41.81.54.73-.72,1.6,0,.16-.16-.44-.34-.28-.5l.26.17-.24-.31c.15-.06.47.15.65.33,0,0,0,.12,0,.16.39.11.3-.46.43-.43l-.29,0c.24-.62,1-.87,1-1.72l-.19-.12c0-.61.43-.08.64-.57l0,.05c-.09-.23-.08-.4,0-.48.09.28.52.2.61.52,0-.66-.07-.42-.43-1.23l.31.21c-.16-.32-.28-.45-.17-.69.08.37.51.29.65.74.94.21,0-1.12,1-.45-.56-.89-.72-.08-.78-.33-.32-.16-.41-.68-.22-.73s1.13.73,1.41.43c0,0,0,.08,0,.11.3.07,0-.47.4-.3-.36-.52.21-.15-.33-.74l-.14.4c0-.3-.51-1.09.06-1a1.69,1.69,0,0,1,.2.49c.24.09,0-.25.28-.16.54.59-.21.45.06,1,.31.16-.1-.71.42,0-.65-.89.39-.19,0-1L726,32c0-.09-.11-.31,0-.36l.33.54c-.2-.53.64,0,.59-.34-.31.33-.47-.34-.86-.44,0-.85,1.11.64,1.4,0,0,.11-.43,0-.49-.23a1.11,1.11,0,0,1,.62.13c.23-.37-.39-.3-.47-.63.51.3,0-.32,0-.58l.34.34c.56-.12-.62-.8,0-.84l.34.61,0-.29.35.43c-.11-.46,0-.44.29-.5-.28-.2-.59-.64-.46-.81.31.11.27.39.43.13.17.26.39.58,0,.35.1.13.17.27.27.39.34.12.33-.23.4-.31a.18.18,0,0,1-.16,0l-.17-.78a.58.58,0,0,1,.3.36c0-.1-.08-.3,0-.42.25.3.54.58.54.84V29c.14.1.48.18.54.32.33,0-.14-.94.29-.94a.32.32,0,0,1-.06-.22c.26-.14.78,0,.64-.6l.63.36c.08-.3-.81-.44-.68-.94s.51.34.72.4c-.14-.36-.46-1.06.15-.86C731.74,26.71,731.61,26.69,731.58,26.79Zm2.1-2.53c0,.12.15.43-.08.26C733.26,24.08,733.49,24.22,733.68,24.26Zm2.69-4.34c.08.15,0,.15-.21.07C736.17,19.92,736.23,19.89,736.37,19.92Zm7.42-12.16v0C743.57,7.74,743.66,7.76,743.79,7.76Zm.35-.06a.29.29,0,0,0-.13-.16c.07.1,0,.16,0,.19C744.07,7.8,744.16,7.83,744.14,7.7ZM722,30.12l.13.05C722.12,30.36,722.06,30.25,722,30.12Z"/><path class="cls-1" d="M736.44,20.79l-.21-.17A.33.33,0,0,0,736.44,20.79Z"/><path class="cls-1" d="M730.33,28.41h0l.06.07Z"/><path class="cls-1" d="M743.82,13.8a.51.51,0,0,1-.26-.09C743.64,13.8,743.73,13.85,743.82,13.8Z"/><path class="cls-1" d="M744.66,6l0,.22c0-.08.15,0,.23,0C744.77,6.15,744.63,6.06,744.66,6Z"/><path class="cls-1" d="M747.93,7c0-.06,0,0,0-.1l-.16-.16A.17.17,0,0,0,747.93,7Z"/><path class="cls-1" d="M745.92,7c.3.27.28.09.32,0h0C745.85,6.56,745.89,6.8,745.92,7Z"/><path class="cls-1" d="M746.26,6.94a.12.12,0,0,1,.08-.09C746.19,6.68,746.27,6.85,746.26,6.94Z"/><path class="cls-1" d="M744.22,7.24c.12,0-.34-.39-.2-.3C743.7,6.53,744.17,7.68,744.22,7.24Z"/><polygon class="cls-1" points="746.94 7.9 746.55 7.58 746.79 7.91 746.94 7.9"/><path class="cls-1" d="M746,8.37l.24,0a.27.27,0,0,1-.08-.16C746,8.24,745.84,8.27,746,8.37Z"/><path class="cls-1" d="M746.11,8.16a.14.14,0,0,0,.06-.18A.34.34,0,0,0,746.11,8.16Z"/><polygon class="cls-1" points="746.85 8.21 746.73 8.18 746.6 8.26 746.85 8.21"/><path class="cls-1" d="M744.28,9.9l-.06.27c.1.14.22.17.23.06S744.42,10,744.28,9.9Z"/><path class="cls-1" d="M745.74,10.38a1.18,1.18,0,0,1-.34-.19l.43.44Z"/><path class="cls-1" d="M745.37,11c.1.14.11.58.29.35C745.56,11.17,745.62,10.91,745.37,11Z"/><polygon class="cls-1" points="742.37 12.85 742.4 12.8 741.68 12.09 742.37 12.85"/><path class="cls-1" d="M741.93,16.73c.37,0-.4-.49,0-.45-.12-.21-.32,0-.42-.23C741.57,16.35,741.4,16.31,741.93,16.73Z"/><path class="cls-1" d="M741.5,16.05a.71.71,0,0,0,0-.16A.76.76,0,0,0,741.5,16.05Z"/><polygon class="cls-1" points="714.07 37.31 713.79 37.29 714.12 37.45 714.07 37.31"/><path class="cls-1" d="M714.36,38.08l-.48-.43.34.49S714.24,38,714.36,38.08Z"/><path class="cls-1" d="M734.94,24.84l-.1-.12c-.13-.1-.17-.08-.25,0Z"/><polygon class="cls-1" points="732.92 26.18 732.96 26.16 732.49 25.8 732.92 26.18"/><path class="cls-1" d="M732,28.11c.08,0,.05-.2.13-.24C732.12,28.07,731.51,27.61,732,28.11Z"/><line class="cls-1" x1="752.46" y1="39.38" x2="789.8" y2="2.05"/><path class="cls-1" d="M788,.37c.08,0-.23-.31-.28-.37C787.73.16,788.11.44,788,.37Z"/><polygon class="cls-1" points="787.79 1.95 787.69 1.81 787.85 2.24 787.79 1.95"/><path class="cls-1" d="M786.94,2.8c.58.42.23-.39.56-.37l.14.09-.34-.47C787.18,2.3,787.21,2.81,786.94,2.8Z"/><path class="cls-1" d="M785.39,2.16c.23.17.07.26.17-.05l-.07,0A.22.22,0,0,1,785.39,2.16Z"/><path class="cls-1" d="M785.49,2.08c.08-.1-.22-.1,0,0Z"/><path class="cls-1" d="M785.19,2.61l-.06-.29c-.14-.1-.27,0-.31-.14C784.79,2.4,784.93,2.49,785.19,2.61Z"/><path class="cls-1" d="M785.45,3.09l0-.14C785.37,2.92,785.34,2.92,785.45,3.09Z"/><path class="cls-1" d="M785.41,2.67l0,.28c.1.07.27.23,0-.11C785.58,3,785.46,2.83,785.41,2.67Z"/><path class="cls-1" d="M785.56,2.67c.17,0,.33,0,.38.32C786.1,2.7,785.71,2.37,785.56,2.67Z"/><path class="cls-1" d="M787.42,3.36l.23.06-.09-.25C787.61,3.3,787.25,3.21,787.42,3.36Z"/><path class="cls-1" d="M784.19,3.08a5.37,5.37,0,0,0,.48.38l0-.21A.72.72,0,0,1,784.19,3.08Z"/><path class="cls-1" d="M784.67,3.46l.05.31C784.86,3.68,784.79,3.57,784.67,3.46Z"/><polygon class="cls-1" points="785.99 3.67 785.81 3.07 785.95 3.72 785.99 3.67"/><polygon class="cls-1" points="783.68 3.57 783.51 3.25 783.75 3.75 783.68 3.57"/><path class="cls-1" d="M783.39,3.94c-.15-.26-.42-.27-.49-.46a1.14,1.14,0,0,0,.14.61C783,3.93,783.12,3.87,783.39,3.94Z"/><path class="cls-1" d="M783.15,4.44a1.91,1.91,0,0,0-.11-.35A1.12,1.12,0,0,0,783.15,4.44Z"/><path class="cls-1" d="M784.44,3.94a.88.88,0,0,0-.41-.2l.36.25Z"/><path class="cls-1" d="M784.4,4h0l-.13.09Z"/><path class="cls-1" d="M784.46,3.93h0S784.49,4,784.46,3.93Z"/><path class="cls-1" d="M785.37,3.74c.09.24.11.59.53.69C785.74,4.17,785.51,4.11,785.37,3.74Z"/><path class="cls-1" d="M784.9,4.24l.21-.07c-.09-.07-.23-.16-.27-.29Z"/><polygon class="cls-1" points="784.93 4.41 784.9 4.24 784.82 4.27 784.93 4.41"/><path class="cls-1" d="M783.67,4.48a.35.35,0,0,1,0,.37A.56.56,0,0,0,784,4.7C783.89,4.59,783.75,4.39,783.67,4.48Z"/><path class="cls-1" d="M784.05,4.27s0,0,0,0S784.11,4.32,784.05,4.27Z"/><path class="cls-1" d="M782.91,5.57l.07,0-.05-.06Z"/><path class="cls-1" d="M784,4.74c.12,0,.08-.11,0-.24a.41.41,0,0,1-.09.2S784,4.78,784,4.74Z"/><path class="cls-1" d="M783.09,4.78a1.8,1.8,0,0,0,.27.07C783.24,4.78,783,4.69,783.09,4.78Z"/><path class="cls-1" d="M784,4.24v0C783.86,4.17,783.9,4.2,784,4.24Z"/><path class="cls-1" d="M784,4.24a1.83,1.83,0,0,0,.11.26.67.67,0,0,0,0-.2Z"/><path class="cls-1" d="M784.63,7.73c-.27-.29-.37-.7.06-.54-.07-.34-1.08-1.17-1.71-1.57a.81.81,0,0,1,.26.54c.2.1.66,0,.79.42,0,.33-.24,0-.48,0,.42.28.28.74.83,1.21l0-.34C784.44,7.52,784.51,7.71,784.63,7.73Z"/><path class="cls-1" d="M783.27,5.38l0-.09c-.12,0-.27,0-.58-.18a.82.82,0,0,0,.22.45l.31-.24Z"/><path class="cls-1" d="M783.54,5c.26.35.25.61.67.86.14-.19-.14-.37-.18-.6-.19.34-.09-.25-.45-.23a.41.41,0,0,1,.06-.22,1.31,1.31,0,0,1-.28,0h0c.05,0,.08,0,0,0s0,0,0,0l.11.13c-.14,0-.09-.07-.11-.13l0,0h0l-.1.43C783.39,5.28,783.45,5.2,783.54,5Z"/><path class="cls-1" d="M786.41,5.23a.19.19,0,0,1-.08-.07C786.35,5.22,786.37,5.25,786.41,5.23Z"/><path class="cls-1" d="M786.11,5.15c0-.06-.12-.2,0-.23s.15.15.25.24c0-.11-.09-.35-.35-.38l0,.06a1.6,1.6,0,0,1-.75-.3A5.15,5.15,0,0,0,786.11,5.15Z"/><path class="cls-1" d="M784.9,5.18l-.08.37.38.15L785,5.55C785.23,5.49,785,5.32,784.9,5.18Z"/><polygon class="cls-1" points="782.73 5.45 782.44 5.1 782.77 5.68 782.73 5.45"/><polygon class="cls-1" points="782.48 5.78 782.21 5.49 782.3 5.73 782.48 5.78"/><path class="cls-1" d="M769.63,25.57v.15A.35.35,0,0,0,769.63,25.57Z"/><path class="cls-1" d="M770.12,25.12,770,25C770.05,25.07,770.1,25.13,770.12,25.12Z"/><path class="cls-1" d="M775.41,12.91c-.36-.16-.87-.46-.54-.16l.33.28C775.21,12.91,775.3,12.89,775.41,12.91Z"/><path class="cls-1" d="M772.37,19.61l.13.06c-.09-.12-.16-.24-.23-.35C772.3,19.41,772.34,19.51,772.37,19.61Z"/><path class="cls-1" d="M773.58,21l-.33-.08A1.14,1.14,0,0,0,773.58,21Z"/><path class="cls-1" d="M767.37,28.48l.23.39C767.72,28.75,767.51,28.65,767.37,28.48Z"/><path class="cls-1" d="M779.63,8.85a.57.57,0,0,0-.39,0C779.52,9,779.86,9.13,779.63,8.85Z"/><path class="cls-1" d="M766.56,22.13a.44.44,0,0,0,.13.24A.36.36,0,0,0,766.56,22.13Z"/><path class="cls-1" d="M779,9.11l.12,0a.32.32,0,0,1,.12-.27C779,8.81,778.87,8.82,779,9.11Z"/><path class="cls-1" d="M757.73,37.61l-.05,0S757.73,37.63,757.73,37.61Z"/><path class="cls-1" d="M751.91,37.25s.05-.1.09-.14S751.92,37.14,751.91,37.25Z"/><path class="cls-1" d="M781.18,6.81c0-.09,0,0,0,0Z"/><path class="cls-1" d="M782.7,7.72a.49.49,0,0,0,.12.17A.53.53,0,0,1,782.7,7.72Z"/><path class="cls-1" d="M780.3,11.63Z"/><path class="cls-1" d="M781.42,6.85a.51.51,0,0,0-.17,0A.41.41,0,0,0,781.42,6.85Z"/><path class="cls-1" d="M781.26,6.72l.08,0C781.3,6.64,781.26,6.61,781.26,6.72Z"/><path class="cls-1" d="M781.11,6.91a.21.21,0,0,1,.14-.07l-.07,0Z"/><path class="cls-1" d="M761.94,31.76h0C762,31.94,762,31.89,761.94,31.76Z"/><path class="cls-1" d="M777,17.69v0h0Z"/><path class="cls-1" d="M777,18.14c-.29-.47-.19-.48,0-.47l-1-.81Z"/><path class="cls-1" d="M768.58,26.79l.43.12c.27.64,0,.62.51.87-.94-1,.51-.7-.43-1.68l.3.1s0,.08,0,.1c.65.26-.55-.85-.16-1a.41.41,0,0,1,.42.24l0-.43c.08,0,.23.14.15.18l.23-.38,0,0a5.91,5.91,0,0,1-.3-.67c.22.06.07.14.2.24l-.06-.4c.32.18.42.56.27.64,1.11.8-.1-.38.79-.16l0,.28c.64.44.57.12,1.09.28-.22-.13-1.22-.5-1.27-.92.12,0,.22,0,.13-.3.34.34.35.16.45,0l.45.46c0-.26-.24-.48-.37-.76.19-.1.57.22.9.48.3-.16-.72-.4-.54-.76.37,0,.32-.34.28-.84.29,0,.25.3.43.38l-.24-.48s.14.1.19.16c0-.24-.44-.46-.41-.74-.46-.54,1,.41.68-.36.18.08.26.3.45.46a3.69,3.69,0,0,0-.32-1.22l.48.11c-.47-.2-.7-.78-.88-1.26a5.19,5.19,0,0,0-.49-.26v-.49a1.37,1.37,0,0,1,.39.46c0-.06,0-.11-.07-.16.26.08.47.39.66.7a3.13,3.13,0,0,1-.36-.19,4.69,4.69,0,0,0,.73.95.38.38,0,0,1,0-.2,1,1,0,0,0,.17.21c.06,0,0-.09-.09-.25l.56.45-.19-.21h.64c-.28-.74-.82-1.69-.67-2.26a6.32,6.32,0,0,0,1,1.07c-.56-.37-.09.48-.37.57.15,0,.34.18.38.28l-.08-.76c.35.37.34.2.58.26-.78-.64-.22-.73-.3-1.08.24.23.45.5.23.61.72.35-.59-1.07,0-.8,0,.05-.09,0,0,.17-.11-.3.29-.37.44-.11l0,.05a.93.93,0,0,0,.28-1.47c.08.08.69.76.79.9l-1.53-2.51c.47.56,1.86,1.62,1.93,2.14.14,0,.3,0,.26-.3a3,3,0,0,1-.85-.75,5.16,5.16,0,0,0,1.12.48c-.17,0-.91-.93-.78-1,.1.14.81.79.85.92L777.06,16a3.07,3.07,0,0,0,1,.85c-.19-.13.24-.21.23-.36l-.3-.07c.42-.17-.83-1.41-.49-1.66.13.2.92,1.1,1.17,1a12.42,12.42,0,0,1-1.71-2.83l.28.18-.07-.46a30.37,30.37,0,0,1,1.75,3.06c.29.07.3.24.45.06a.38.38,0,0,1,.2.48l.53-.24c-.5-.46-.18-.77-.6-1.16l.08.92c-.49-.46-1.11-1.6-.75-1.78.26.12.79.89,1,1-.13-.2-.06-.57.08-.48l.14.37c.33,0-.38-.88.26-.61.09,0,.8.43.52.13a20.05,20.05,0,0,1-2.68-2.57,5.82,5.82,0,0,1,1.19.38c.53.33.86,1.17,1.31,1.45a1.33,1.33,0,0,1-.25-.43c.17.05.37.43.46.23-.46-.51.33-.25-.34-.47,0-.28.24,0,.39-.24a3.16,3.16,0,0,1-.91-1.49,2.4,2.4,0,0,0,.39.32c.33-.24.71-.18,1-.44.14.09.41.1.56.36,0-.12-.17-.32-.1-.41.58.25-.12.24.5.62-.27-.29-.17-.6-.23-.89-.46-.4-.35.19-.29.48a3.25,3.25,0,0,1-1-2c.08-.37.49.29.44.16.52-.31-.68-1.39.09-1.31.52.24.77.75,1.07,1,0,.33-.52,0-.63.18l.33,0c.07.18,0,.4-.13.35.46.23.77-.64,1.41-.65-.07-.18-.1-.41-.3-.52l-.05.16c-.4-.21-.23-.62-.5-.63-.08-.35-.27-.85.1-.87l.47.4c-.13-.12-.39-.13-.31,0-.11-.27.89.3.41-.36l-.44-.16c-.08-.36-.37-1-.06-1-.51-.35,0,.09-.62-.29.73.52-.46.42.37.9-.71-.46-.47,0-1.13-.36.15.14.34.21.12.29a1.3,1.3,0,0,1,.1.15h0s0,0,0,0a.89.89,0,0,1,.29.15c.26.4,0,.62.11.86-.15,0-.13-.2-.33-.3l.14.37c-.33-.31-.75-.3-.74-.69l-.19.17c-.29-.08-.5,0-.46.22-.15,0,.14.57,0,.25l-.08.48-.09-.08c-.32.24,0,1.1-.94.85,0,.17,0,.37-.26.44l-.31-.25c0,.22-.63.09-.4.43-.87-.61-.75.42-1.09.5l.35.37c-.17.13-.2.37-.24.69l.33.31c.1.42-.63.18-.85.46-.1-.14,0-.17.11-.14-1-.42-.1,1.14-.89.89,0,.18,0,.19-.17.16s0,0,0,0l0,0-.26-.08a.69.69,0,0,0,.25.09.49.49,0,0,0-.08.33l-.38-.3s0,0,0,0c-.2-.05.1.23.4.44a1.05,1.05,0,0,0,.11.31c-.62-.49,0,.39-.69-.12.23.34-.17.6.39,1.25-.08-.08-.14-.1-.1-.14-.16,0-.31,0-.22.28l-.47-.4.4.77a1.22,1.22,0,0,1-.8-.7c.24.78,0,.41.25,1.15l-.27-.29c-.07.09.17.6-.11.42-.72-.35-1,.84-2,.82.92.73-.59-.15,0,.51-.22-.17-.4-.21-.49-.46,0,.43-.67.06-.3.76-.22-.17-.23-.34-.37-.43,0,.06.09.25,0,.16s-.13-.2-.18-.32c-.21.28.36.9.91,1.48-.39-.14-.42,0-.14.42-.23-.14-.49-.26-.41-.48-.11.06-.79.26-.35.72-.14-.09-.16.09-.13.16-.22.17-.27.14-.42.38l.12,0c.47.62,0,.28-.12.5l-.05-.06c-.75,0,0,.34-.76.24l.36.32c.69.76-.74-.12-.66.36l.26.12c.14.36-1.3-.69-1.5-.67s-.06-.14-.08-.22c-.72-.14.41.48.3.8-.28-.2-.56-.66-.75-.56-.27-.12.36,1.2-.3.94.23.14.45.28.49.52s-1.11-.28-.67.44a.52.52,0,0,1-.17-.12c0,.27-.13.63.11,1-1.28-1.06-.16,1.3-1.23.22l-.31.41-.1-.11c-.3.15-.12.5.05.84-.12,0-.18-.16-.24-.23-.55.12-.54.2-.28,1l-.38-.32c.12.28-1-.06-1,.68a.52.52,0,0,1-.12-.19c0,.78-1.87-.08-.73,1.33l.07.56c.42-.22.51.6.85.68,0,.2-.71-.06-.62-.28l.09,0c-.61-.72-.63.16-1.08-.3-.59.66-1.57.9-2.18,1.46l.58.45-.23.17c-.17-.07-.48-.33-.31-.46-.37-.21,0,.49.11.61-.5.07-.49-.72-.59-.64l-.08.16.09,0c.11.31.33.54.13.69S759,30,758.89,30s-.07,0-.09.05l-.3.22.51.3c.09.32-.26.22.32.57-.89-.54-1.21.7-1.54.59a.58.58,0,0,1-.26.77c.13,0,.62.46.4.58-.89-1-.72-.11-1.54-.65.57.33-.37.59.47,1-.22.06-.37-.35-.7-.46,0,.7-1,.5-1.26,1,.11.13.37.26.47.53l-.84-.4c0,.14.64.79.06.51.13.08.32.21.3.3-1.42.21-1.16,2.15-3.12,1.84.35.13.3.23.23.32.11,0,.3.31.48.47l-.81-.13c.4.53-.34.4.07.89l0-.19c.38.67,1.38,1,2,1.67-.43-.77,1.32.46.73-.67.19.08.17.27.35.39-.22-.35-.2-.5.08-.52l.06.09c.35-.49.82-.39,1.49-.68l-.37-.3c.15-.05.27,0,.4.07-.39-.63-.31.26-.76-.41.81.54.73-.72,1.6,0,.16-.16-.44-.34-.28-.5l.26.17-.24-.31c.15-.06.47.15.65.33,0,0,0,.12,0,.16.39.11.3-.46.43-.43l-.29,0c.24-.62,1-.87,1-1.72l-.19-.12c0-.61.43-.08.64-.57l0,.05c-.09-.23-.08-.4,0-.48.09.28.52.2.61.52,0-.66-.07-.42-.43-1.23l.31.21c-.16-.32-.28-.45-.17-.69.08.37.51.29.65.74.94.21,0-1.12,1-.45-.56-.89-.72-.08-.78-.33-.32-.16-.41-.68-.22-.73s1.13.73,1.41.43c0,0,0,.08,0,.11.3.07,0-.47.4-.3-.36-.52.21-.15-.33-.74l-.14.4c0-.3-.51-1.09.06-1a1.69,1.69,0,0,1,.2.49c.24.09,0-.25.28-.16.54.59-.21.45.06,1,.31.16-.1-.71.42,0-.65-.89.39-.19,0-1L763,32c0-.09-.11-.31,0-.36l.33.54c-.2-.53.64,0,.59-.34-.31.33-.47-.34-.86-.44,0-.85,1.11.64,1.4,0,0,.11-.43,0-.49-.23a1.11,1.11,0,0,1,.62.13c.23-.37-.39-.3-.47-.63.51.3,0-.32,0-.58l.34.34c.56-.12-.62-.8,0-.84l.34.61,0-.29.35.43c-.11-.46,0-.44.29-.5-.28-.2-.59-.64-.46-.81.31.11.27.39.43.13.17.26.39.58,0,.35.1.13.17.27.27.39.34.12.33-.23.4-.31a.18.18,0,0,1-.16,0l-.17-.78a.58.58,0,0,1,.3.36c0-.1-.08-.3,0-.42.25.3.54.58.54.84V29c.14.1.48.18.54.32.33,0-.14-.94.29-.94a.32.32,0,0,1-.06-.22c.26-.14.78,0,.64-.6l.63.36c.08-.3-.81-.44-.68-.94s.51.34.72.4c-.14-.36-.46-1.06.15-.86C768.74,26.71,768.61,26.69,768.58,26.79Zm2.1-2.53c0,.12.15.43-.08.26C770.26,24.08,770.49,24.22,770.68,24.26Zm2.69-4.34c.08.15,0,.15-.21.07C773.17,19.92,773.23,19.89,773.37,19.92Zm7.42-12.16v0C780.57,7.74,780.66,7.76,780.79,7.76Zm.35-.06a.29.29,0,0,0-.13-.16c.07.1,0,.16,0,.19C781.07,7.8,781.16,7.83,781.14,7.7ZM759,30.12l.13.05C759.12,30.36,759.06,30.25,759,30.12Z"/><path class="cls-1" d="M773.44,20.79l-.21-.17A.33.33,0,0,0,773.44,20.79Z"/><path class="cls-1" d="M767.33,28.41h0l.06.07Z"/><path class="cls-1" d="M780.82,13.8a.51.51,0,0,1-.26-.09C780.64,13.8,780.73,13.85,780.82,13.8Z"/><path class="cls-1" d="M781.66,6l0,.22c0-.08.15,0,.23,0C781.77,6.15,781.63,6.06,781.66,6Z"/><path class="cls-1" d="M784.93,7c0-.06,0,0,0-.1l-.16-.16A.17.17,0,0,0,784.93,7Z"/><path class="cls-1" d="M782.92,7c.3.27.28.09.32,0h0C782.85,6.56,782.89,6.8,782.92,7Z"/><path class="cls-1" d="M783.26,6.94a.12.12,0,0,1,.08-.09C783.19,6.68,783.27,6.85,783.26,6.94Z"/><path class="cls-1" d="M781.22,7.24c.12,0-.34-.39-.2-.3C780.7,6.53,781.17,7.68,781.22,7.24Z"/><polygon class="cls-1" points="783.94 7.9 783.55 7.58 783.79 7.91 783.94 7.9"/><path class="cls-1" d="M783,8.37l.24,0a.27.27,0,0,1-.08-.16C783,8.24,782.84,8.27,783,8.37Z"/><path class="cls-1" d="M783.11,8.16a.14.14,0,0,0,.06-.18A.34.34,0,0,0,783.11,8.16Z"/><polygon class="cls-1" points="783.85 8.21 783.73 8.18 783.6 8.26 783.85 8.21"/><path class="cls-1" d="M781.28,9.9l-.06.27c.1.14.22.17.23.06S781.42,10,781.28,9.9Z"/><path class="cls-1" d="M782.74,10.38a1.18,1.18,0,0,1-.34-.19l.43.44Z"/><path class="cls-1" d="M782.37,11c.1.14.11.58.29.35C782.56,11.17,782.62,10.91,782.37,11Z"/><polygon class="cls-1" points="779.37 12.85 779.4 12.8 778.68 12.09 779.37 12.85"/><path class="cls-1" d="M778.93,16.73c.37,0-.4-.49,0-.45-.12-.21-.32,0-.42-.23C778.57,16.35,778.4,16.31,778.93,16.73Z"/><path class="cls-1" d="M778.5,16.05a.71.71,0,0,0,0-.16A.76.76,0,0,0,778.5,16.05Z"/><polygon class="cls-1" points="751.07 37.31 750.79 37.29 751.12 37.45 751.07 37.31"/><path class="cls-1" d="M751.36,38.08l-.48-.43.34.49S751.24,38,751.36,38.08Z"/><path class="cls-1" d="M771.94,24.84l-.1-.12c-.13-.1-.17-.08-.25,0Z"/><polygon class="cls-1" points="769.92 26.18 769.96 26.16 769.49 25.8 769.92 26.18"/><path class="cls-1" d="M769,28.11c.08,0,.05-.2.13-.24C769.12,28.07,768.51,27.61,769,28.11Z"/><line class="cls-1" x1="1081.46" y1="39.38" x2="1118.8" y2="2.05"/><path class="cls-1" d="M1117,.37c.08,0-.23-.31-.28-.37C1116.73.16,1117.11.44,1117,.37Z"/><polygon class="cls-1" points="1116.79 1.95 1116.69 1.81 1116.85 2.24 1116.79 1.95"/><path class="cls-1" d="M1115.94,2.8c.58.42.23-.39.56-.37l.14.09-.34-.47C1116.18,2.3,1116.21,2.81,1115.94,2.8Z"/><path class="cls-1" d="M1114.39,2.16c.23.17.07.26.17-.05l-.07,0A.22.22,0,0,1,1114.39,2.16Z"/><path class="cls-1" d="M1114.49,2.08c.08-.1-.22-.1,0,0Z"/><path class="cls-1" d="M1114.19,2.61l-.06-.29c-.14-.1-.27,0-.31-.14C1113.79,2.4,1113.93,2.49,1114.19,2.61Z"/><path class="cls-1" d="M1114.45,3.09l0-.14C1114.37,2.92,1114.34,2.92,1114.45,3.09Z"/><path class="cls-1" d="M1114.41,2.67l0,.28c.1.07.27.23,0-.11C1114.58,3,1114.46,2.83,1114.41,2.67Z"/><path class="cls-1" d="M1114.56,2.67c.17,0,.33,0,.38.32C1115.1,2.7,1114.71,2.37,1114.56,2.67Z"/><path class="cls-1" d="M1116.42,3.36l.23.06-.09-.25C1116.61,3.3,1116.25,3.21,1116.42,3.36Z"/><path class="cls-1" d="M1113.19,3.08a5.37,5.37,0,0,0,.48.38l0-.21A.72.72,0,0,1,1113.19,3.08Z"/><path class="cls-1" d="M1113.67,3.46l0,.31C1113.86,3.68,1113.79,3.57,1113.67,3.46Z"/><polygon class="cls-1" points="1114.98 3.67 1114.81 3.07 1114.95 3.72 1114.98 3.67"/><polygon class="cls-1" points="1112.68 3.57 1112.51 3.25 1112.75 3.75 1112.68 3.57"/><path class="cls-1" d="M1112.39,3.94c-.15-.26-.42-.27-.49-.46a1.14,1.14,0,0,0,.14.61C1112,3.93,1112.12,3.87,1112.39,3.94Z"/><path class="cls-1" d="M1112.15,4.44a1.91,1.91,0,0,0-.11-.35A1.12,1.12,0,0,0,1112.15,4.44Z"/><path class="cls-1" d="M1113.44,3.94a.88.88,0,0,0-.41-.2l.36.25Z"/><path class="cls-1" d="M1113.4,4h0l-.13.09Z"/><path class="cls-1" d="M1113.46,3.93h0S1113.49,4,1113.46,3.93Z"/><path class="cls-1" d="M1114.37,3.74c.09.24.11.59.53.69C1114.74,4.17,1114.51,4.11,1114.37,3.74Z"/><path class="cls-1" d="M1113.9,4.24l.21-.07c-.09-.07-.23-.16-.27-.29Z"/><polygon class="cls-1" points="1113.93 4.41 1113.9 4.24 1113.82 4.27 1113.93 4.41"/><path class="cls-1" d="M1112.67,4.48a.35.35,0,0,1,0,.37.56.56,0,0,0,.33-.15C1112.89,4.59,1112.75,4.39,1112.67,4.48Z"/><path class="cls-1" d="M1113.05,4.27s0,0,0,0S1113.11,4.32,1113.05,4.27Z"/><path class="cls-1" d="M1111.91,5.57l.07,0,0-.06Z"/><path class="cls-1" d="M1113,4.74c.12,0,.08-.11,0-.24a.41.41,0,0,1-.09.2S1113,4.78,1113,4.74Z"/><path class="cls-1" d="M1112.09,4.78a1.8,1.8,0,0,0,.27.07C1112.24,4.78,1112,4.69,1112.09,4.78Z"/><path class="cls-1" d="M1113,4.24v0C1112.86,4.17,1112.9,4.2,1113,4.24Z"/><path class="cls-1" d="M1113,4.24a1.83,1.83,0,0,0,.11.26.67.67,0,0,0,0-.2Z"/><path class="cls-1" d="M1113.63,7.73c-.27-.29-.37-.7.06-.54-.07-.34-1.08-1.17-1.71-1.57a.81.81,0,0,1,.26.54c.2.1.66,0,.79.42,0,.33-.24,0-.48,0,.42.28.28.74.83,1.21l0-.34C1113.44,7.52,1113.51,7.71,1113.63,7.73Z"/><path class="cls-1" d="M1112.27,5.38l0-.09c-.12,0-.27,0-.58-.18a.82.82,0,0,0,.22.45l.31-.24Z"/><path class="cls-1" d="M1112.54,5c.26.35.25.61.67.86.14-.19-.14-.37-.18-.6-.19.34-.09-.25-.45-.23a.41.41,0,0,1,.06-.22,1.31,1.31,0,0,1-.28,0h0s.08,0,0,0,0,0,0,0l.11.13c-.14,0-.09-.07-.11-.13l0,0h0l-.1.43C1112.39,5.28,1112.45,5.2,1112.54,5Z"/><path class="cls-1" d="M1115.41,5.23a.19.19,0,0,1-.08-.07C1115.35,5.22,1115.37,5.25,1115.41,5.23Z"/><path class="cls-1" d="M1115.11,5.15c0-.06-.12-.2,0-.23s.15.15.25.24c0-.11-.09-.35-.35-.38l0,.06a1.6,1.6,0,0,1-.75-.3A5.15,5.15,0,0,0,1115.11,5.15Z"/><path class="cls-1" d="M1113.9,5.18l-.08.37.38.15-.16-.15C1114.23,5.49,1114,5.32,1113.9,5.18Z"/><polygon class="cls-1" points="1111.73 5.45 1111.44 5.1 1111.77 5.68 1111.73 5.45"/><polygon class="cls-1" points="1111.48 5.78 1111.21 5.49 1111.31 5.73 1111.48 5.78"/><path class="cls-1" d="M1098.63,25.57v.15A.35.35,0,0,0,1098.63,25.57Z"/><path class="cls-1" d="M1099.12,25.12,1099,25C1099.05,25.07,1099.1,25.13,1099.12,25.12Z"/><path class="cls-1" d="M1104.41,12.91c-.36-.16-.87-.46-.54-.16l.33.28C1104.21,12.91,1104.3,12.89,1104.41,12.91Z"/><path class="cls-1" d="M1101.37,19.61l.13.06c-.09-.12-.16-.24-.23-.35C1101.3,19.41,1101.34,19.51,1101.37,19.61Z"/><path class="cls-1" d="M1102.58,21l-.33-.08A1.14,1.14,0,0,0,1102.58,21Z"/><path class="cls-1" d="M1096.37,28.48l.23.39C1096.72,28.75,1096.51,28.65,1096.37,28.48Z"/><path class="cls-1" d="M1108.63,8.85a.57.57,0,0,0-.39,0C1108.52,9,1108.86,9.13,1108.63,8.85Z"/><path class="cls-1" d="M1095.56,22.13a.44.44,0,0,0,.13.24A.36.36,0,0,0,1095.56,22.13Z"/><path class="cls-1" d="M1108,9.11l.12,0a.32.32,0,0,1,.12-.27C1108,8.81,1107.87,8.82,1108,9.11Z"/><path class="cls-1" d="M1086.73,37.61l0,0S1086.73,37.63,1086.73,37.61Z"/><path class="cls-1" d="M1080.91,37.25s0-.1.09-.14S1080.92,37.14,1080.91,37.25Z"/><path class="cls-1" d="M1110.18,6.81c0-.09,0,0,0,0Z"/><path class="cls-1" d="M1111.7,7.72a.49.49,0,0,0,.12.17A.53.53,0,0,1,1111.7,7.72Z"/><path class="cls-1" d="M1109.3,11.63Z"/><path class="cls-1" d="M1110.42,6.85a.51.51,0,0,0-.17,0A.41.41,0,0,0,1110.42,6.85Z"/><path class="cls-1" d="M1110.26,6.72l.08,0C1110.3,6.64,1110.26,6.61,1110.26,6.72Z"/><path class="cls-1" d="M1110.11,6.91a.21.21,0,0,1,.14-.07l-.07,0Z"/><path class="cls-1" d="M1090.94,31.76h0C1091,31.94,1091,31.89,1090.94,31.76Z"/><path class="cls-1" d="M1106,17.69v0h0Z"/><path class="cls-1" d="M1106,18.14c-.29-.47-.19-.48,0-.47l-1-.81Z"/><path class="cls-1" d="M1097.58,26.79l.43.12c.27.64,0,.62.51.87-.94-1,.51-.7-.43-1.68l.3.1s0,.08,0,.1c.65.26-.55-.85-.16-1a.41.41,0,0,1,.42.24l0-.43c.08,0,.23.14.15.18l.23-.38,0,0a5.91,5.91,0,0,1-.3-.67c.22.06.07.14.2.24l-.06-.4c.32.18.42.56.27.64,1.11.8-.1-.38.79-.16l0,.28c.64.44.57.12,1.09.28-.22-.13-1.22-.5-1.27-.92.12,0,.22,0,.13-.3.34.34.35.16.45,0l.45.46c0-.26-.24-.48-.37-.76.19-.1.57.22.9.48.3-.16-.72-.4-.54-.76.37,0,.32-.34.28-.84.29,0,.25.3.43.38l-.24-.48s.14.1.19.16c0-.24-.44-.46-.41-.74-.46-.54,1,.41.68-.36.18.08.26.3.45.46a3.69,3.69,0,0,0-.32-1.22l.48.11c-.47-.2-.7-.78-.88-1.26a5.19,5.19,0,0,0-.49-.26v-.49a1.37,1.37,0,0,1,.39.46c0-.06,0-.11-.07-.16.26.08.47.39.66.7a3.13,3.13,0,0,1-.36-.19,4.69,4.69,0,0,0,.73.95.38.38,0,0,1,0-.2,1,1,0,0,0,.17.21c.06,0,0-.09-.09-.25l.56.45-.19-.21h.64c-.28-.74-.82-1.69-.67-2.26a6.32,6.32,0,0,0,1,1.07c-.56-.37-.09.48-.37.57.15,0,.34.18.38.28l-.08-.76c.35.37.34.2.58.26-.78-.64-.22-.73-.3-1.08.24.23.45.5.23.61.72.35-.59-1.07,0-.8,0,.05-.09,0,0,.17-.11-.3.29-.37.44-.11l0,.05a.93.93,0,0,0,.28-1.47c.08.08.69.76.79.9l-1.53-2.51c.47.56,1.86,1.62,1.93,2.14.14,0,.3,0,.26-.3a3,3,0,0,1-.85-.75,5.16,5.16,0,0,0,1.12.48c-.17,0-.91-.93-.78-1,.1.14.81.79.85.92l-.53-1.06a3.07,3.07,0,0,0,1,.85c-.19-.13.24-.21.23-.36l-.3-.07c.42-.17-.83-1.41-.49-1.66.13.2.92,1.1,1.17,1a12.42,12.42,0,0,1-1.71-2.83l.28.18-.07-.46a30.37,30.37,0,0,1,1.75,3.06c.29.07.3.24.45.06a.38.38,0,0,1,.2.48l.53-.24c-.5-.46-.18-.77-.6-1.16l.08.92c-.49-.46-1.11-1.6-.75-1.78.26.12.79.89,1,1-.13-.2-.06-.57.08-.48l.14.37c.33,0-.38-.88.26-.61.09,0,.8.43.52.13a20.05,20.05,0,0,1-2.68-2.57,5.82,5.82,0,0,1,1.19.38c.53.33.86,1.17,1.31,1.45a1.33,1.33,0,0,1-.25-.43c.17.05.37.43.46.23-.46-.51.33-.25-.34-.47,0-.28.24,0,.39-.24a3.16,3.16,0,0,1-.91-1.49,2.4,2.4,0,0,0,.39.32c.33-.24.71-.18,1-.44.14.09.41.1.56.36,0-.12-.17-.32-.1-.41.58.25-.12.24.5.62-.27-.29-.17-.6-.23-.89-.46-.4-.35.19-.29.48a3.25,3.25,0,0,1-1-2c.08-.37.49.29.44.16.52-.31-.68-1.39.09-1.31.52.24.77.75,1.07,1,0,.33-.52,0-.63.18l.33,0c.07.18,0,.4-.13.35.46.23.77-.64,1.41-.65-.07-.18-.1-.41-.3-.52l0,.16c-.4-.21-.23-.62-.5-.63-.08-.35-.27-.85.1-.87l.47.4c-.13-.12-.39-.13-.31,0-.11-.27.89.3.41-.36l-.44-.16c-.08-.36-.37-1-.06-1-.51-.35,0,.09-.62-.29.73.52-.46.42.37.9-.71-.46-.47,0-1.13-.36.15.14.34.21.12.29a1.3,1.3,0,0,1,.1.15h0s0,0,0,0a.89.89,0,0,1,.29.15c.26.4,0,.62.11.86-.15,0-.13-.2-.33-.3l.14.37c-.33-.31-.75-.3-.74-.69l-.19.17c-.29-.08-.5,0-.46.22-.15,0,.14.57,0,.25l-.08.48-.09-.08c-.32.24,0,1.1-.94.85,0,.17,0,.37-.26.44l-.31-.25c0,.22-.63.09-.4.43-.87-.61-.75.42-1.09.5l.35.37c-.17.13-.2.37-.24.69l.33.31c.1.42-.63.18-.85.46-.1-.14,0-.17.11-.14-1-.42-.1,1.14-.89.89.05.18,0,.19-.17.16s0,0,0,0l0,0-.26-.08a.69.69,0,0,0,.25.09.49.49,0,0,0-.08.33l-.38-.3s0,0,0,0c-.2-.05.1.23.4.44a1.05,1.05,0,0,0,.11.31c-.62-.49,0,.39-.69-.12.23.34-.17.6.39,1.25-.08-.08-.14-.1-.1-.14-.16,0-.31,0-.22.28l-.47-.4.4.77a1.22,1.22,0,0,1-.8-.7c.24.78,0,.41.25,1.15l-.27-.29c-.07.09.17.6-.11.42-.72-.35-1,.84-2,.82.92.73-.59-.15,0,.51-.22-.17-.4-.21-.49-.46-.05.43-.67.06-.3.76-.22-.17-.23-.34-.37-.43,0,.06.09.25,0,.16s-.13-.2-.18-.32c-.21.28.36.9.91,1.48-.39-.14-.42,0-.14.42-.23-.14-.49-.26-.41-.48-.11.06-.79.26-.35.72-.14-.09-.16.09-.13.16-.22.17-.27.14-.42.38l.12,0c.47.62,0,.28-.12.5l0-.06c-.75,0,0,.34-.76.24l.36.32c.69.76-.74-.12-.66.36l.26.12c.14.36-1.3-.69-1.5-.67s-.06-.14-.08-.22c-.72-.14.41.48.3.8-.28-.2-.56-.66-.75-.56-.27-.12.36,1.2-.3.94.23.14.45.28.49.52s-1.11-.28-.67.44a.52.52,0,0,1-.17-.12c0,.27-.13.63.11,1-1.28-1.06-.16,1.3-1.23.22l-.31.41-.1-.11c-.3.15-.12.5,0,.84-.12,0-.18-.16-.24-.23-.55.12-.54.2-.28,1l-.38-.32c.12.28-1-.06-1,.68a.52.52,0,0,1-.12-.19c0,.78-1.87-.08-.73,1.33l.07.56c.42-.22.51.6.85.68-.05.2-.71-.06-.62-.28l.09,0c-.61-.72-.63.16-1.08-.3-.59.66-1.57.9-2.18,1.46l.58.45-.23.17c-.17-.07-.48-.33-.31-.46-.37-.21,0,.49.11.61-.5.07-.49-.72-.59-.64l-.08.16.09,0c.11.31.33.54.13.69s-.38-.26-.44-.24-.07,0-.09.05l-.3.22.51.3c.09.32-.26.22.32.57-.89-.54-1.21.7-1.54.59a.58.58,0,0,1-.26.77c.13,0,.62.46.4.58-.89-1-.72-.11-1.54-.65.57.33-.37.59.47,1-.22.06-.37-.35-.7-.46,0,.7-1,.5-1.26,1,.11.13.37.26.47.53l-.84-.4c0,.14.64.79.06.51.13.08.32.21.3.3-1.42.21-1.16,2.15-3.12,1.84.35.13.3.23.23.32.11,0,.3.31.48.47l-.81-.13c.4.53-.34.4.07.89l0-.19c.38.67,1.38,1,2,1.67-.43-.77,1.32.46.73-.67.19.08.17.27.35.39-.22-.35-.2-.5.08-.52l.06.09c.35-.49.82-.39,1.49-.68l-.37-.3c.15-.05.27,0,.4.07-.39-.63-.31.26-.76-.41.81.54.73-.72,1.6,0,.16-.16-.44-.34-.28-.5l.26.17-.24-.31c.15-.06.47.15.65.33,0,0,0,.12,0,.16.39.11.3-.46.43-.43l-.29,0c.24-.62,1-.87,1-1.72l-.19-.12c0-.61.43-.08.64-.57l0,.05c-.09-.23-.08-.4,0-.48.09.28.52.2.61.52,0-.66-.07-.42-.43-1.23l.31.21c-.16-.32-.28-.45-.17-.69.08.37.51.29.65.74.94.21,0-1.12,1-.45-.56-.89-.72-.08-.78-.33-.32-.16-.41-.68-.22-.73s1.13.73,1.41.43c0,0,0,.08,0,.11.3.07,0-.47.4-.3-.36-.52.21-.15-.33-.74l-.14.4c0-.3-.51-1.09.06-1a1.69,1.69,0,0,1,.2.49c.24.09,0-.25.28-.16.54.59-.21.45.06,1,.31.16-.1-.71.42,0-.65-.89.39-.19,0-1l.32.35c0-.09-.11-.31,0-.36l.33.54c-.2-.53.64,0,.59-.34-.31.33-.47-.34-.86-.44,0-.85,1.11.64,1.4,0,0,.11-.43,0-.49-.23a1.11,1.11,0,0,1,.62.13c.23-.37-.39-.3-.47-.63.51.3,0-.32,0-.58l.34.34c.56-.12-.62-.8-.05-.84l.34.61,0-.29.35.43c-.11-.46,0-.44.29-.5-.28-.2-.59-.64-.46-.81.31.11.27.39.43.13.17.26.39.58,0,.35.1.13.17.27.27.39.34.12.33-.23.4-.31a.18.18,0,0,1-.16,0l-.17-.78a.58.58,0,0,1,.3.36c0-.1-.08-.3,0-.42.25.3.54.58.54.84V29c.14.1.48.18.54.32.33,0-.14-.94.29-.94a.32.32,0,0,1-.06-.22c.26-.14.78,0,.64-.6l.63.36c.08-.3-.81-.44-.68-.94s.51.34.72.4c-.14-.36-.46-1.06.15-.86C1097.74,26.71,1097.61,26.69,1097.58,26.79Zm2.1-2.53c0,.12.15.43-.08.26C1099.26,24.08,1099.49,24.22,1099.68,24.26Zm2.69-4.34c.08.15,0,.15-.21.07C1102.17,19.92,1102.23,19.89,1102.37,19.92Zm7.42-12.16v0C1109.57,7.74,1109.66,7.76,1109.79,7.76Zm.35-.06a.29.29,0,0,0-.13-.16c.07.1,0,.16,0,.19C1110.07,7.8,1110.16,7.83,1110.14,7.7ZM1088,30.12l.13.05C1088.12,30.36,1088.06,30.25,1088,30.12Z"/><path class="cls-1" d="M1102.44,20.79l-.21-.17A.33.33,0,0,0,1102.44,20.79Z"/><path class="cls-1" d="M1096.33,28.41h0l.06.07Z"/><path class="cls-1" d="M1109.82,13.8a.51.51,0,0,1-.26-.09C1109.64,13.8,1109.73,13.85,1109.82,13.8Z"/><path class="cls-1" d="M1110.66,6l0,.22c.05-.08.15,0,.23,0C1110.77,6.15,1110.63,6.06,1110.66,6Z"/><path class="cls-1" d="M1113.93,7c0-.06,0,0,0-.1l-.16-.16A.17.17,0,0,0,1113.93,7Z"/><path class="cls-1" d="M1111.92,7c.3.27.28.09.32,0h0C1111.85,6.56,1111.89,6.8,1111.92,7Z"/><path class="cls-1" d="M1112.26,6.94a.12.12,0,0,1,.08-.09C1112.19,6.68,1112.27,6.85,1112.26,6.94Z"/><path class="cls-1" d="M1110.22,7.24c.12,0-.34-.39-.2-.3C1109.7,6.53,1110.17,7.68,1110.22,7.24Z"/><polygon class="cls-1" points="1112.94 7.9 1112.55 7.58 1112.79 7.91 1112.94 7.9"/><path class="cls-1" d="M1112,8.37l.24,0a.27.27,0,0,1-.08-.16C1112,8.24,1111.84,8.27,1112,8.37Z"/><path class="cls-1" d="M1112.11,8.16a.14.14,0,0,0,.06-.18A.34.34,0,0,0,1112.11,8.16Z"/><polygon class="cls-1" points="1112.85 8.21 1112.73 8.18 1112.6 8.26 1112.85 8.21"/><path class="cls-1" d="M1110.28,9.9l-.06.27c.1.14.22.17.23.06S1110.42,10,1110.28,9.9Z"/><path class="cls-1" d="M1111.74,10.38a1.18,1.18,0,0,1-.34-.19l.43.44Z"/><path class="cls-1" d="M1111.37,11c.1.14.11.58.29.35C1111.56,11.17,1111.62,10.91,1111.37,11Z"/><polygon class="cls-1" points="1108.37 12.85 1108.4 12.8 1107.68 12.09 1108.37 12.85"/><path class="cls-1" d="M1107.93,16.73c.37,0-.4-.49,0-.45-.12-.21-.32,0-.42-.23C1107.57,16.35,1107.4,16.31,1107.93,16.73Z"/><path class="cls-1" d="M1107.5,16.05a.71.71,0,0,0,0-.16A.76.76,0,0,0,1107.5,16.05Z"/><polygon class="cls-1" points="1080.07 37.31 1079.79 37.29 1080.12 37.45 1080.07 37.31"/><path class="cls-1" d="M1080.36,38.08l-.48-.43.34.49S1080.24,38,1080.36,38.08Z"/><path class="cls-1" d="M1100.94,24.84l-.1-.12c-.13-.1-.17-.08-.25,0Z"/><polygon class="cls-1" points="1098.92 26.18 1098.96 26.16 1098.49 25.8 1098.92 26.18"/><path class="cls-1" d="M1098,28.11c.08,0,0-.2.13-.24C1098.12,28.07,1097.51,27.61,1098,28.11Z"/></g></g></svg>