<svg xmlns="http://www.w3.org/2000/svg" viewBox="0 0 331.85 232.26"><defs><style>.cls-1{fill:#2b4c5c;}</style></defs><title>Desenho - Sondagem</title><g id="Camada_2" data-name="Camada 2"><g id="Camada_1-2" data-name="Camada 1"><path class="cls-1" d="M138.83,190.25c10.95.12,21.9-.23,32.84.1,8.26.25,14.07,5.94,15.35,14,1.24,7.74-2.26,13.54-10.49,16.58-7.5,2.78-15.17,5.1-22.72,7.72a71.47,71.47,0,0,1-25.7,3.57c-33.79-.88-67.59-1.45-101.39-2.31A56.86,56.86,0,0,1,12.47,228C4,225.51-.45,218.31,0,209.27s4.68-14,13.85-16.22a21.1,21.1,0,0,1,3.11-.61c3.87-.31,7.79-1.05,11.61-.74,11.73,1,23.15-2,34.77-2.25,3.55-.06,7.11,0,10.66,0l.25-1.61c-1.84-.59-3.66-1.55-5.54-1.71-4.92-.43-9.88-.44-14.82-.77-5.62-.38-11.32-.48-16.84-1.49-6.75-1.24-8.78-4.3-8.69-10.93,0-1.41-.25-2.83-.18-4.23.34-6.68.67-13.37,1.16-20,.33-4.41,3.6-7.44,7.22-7.56,5.09-.17,8.82-1.29,10.67-6.48,3.15,3.74,3.09,3.71,5-.34a2.7,2.7,0,0,1,2.22-1.13,3.26,3.26,0,0,1,1.91,1.61,6.91,6.91,0,0,1,.39,2.38,7.31,7.31,0,0,0,1.07-4.08Q58,121,58,109c0-3.45.83-7.17-3.5-9.39,3.25-1.83,4.23-.51,4.84,1.77C62.17,112,64.54,122.67,65,133.69c0,1.27,1.31,3.47,2.17,3.55,6,.58,12.1.71,18.77,1,0-2.4-.1-4.73,0-7,.18-3.21-.47-6.68,2.59-9.12.35-.29.31-1.09.42-1.67,2.18-11.9,4.42-23.79,6.5-35.71,1.57-8.94,7.53-15.27,12.82-22a5.15,5.15,0,0,1,2.65-1.66c3.15-.79,4.64-2.86,5.37-5.87,1.13-4.7,2.71-9.06,8.37-10.15,1.06-.21,1.88-1.44,2.94-1.9,1.62-.69,3.35-1.13,5-1.68a14,14,0,0,0,5-2.7c5.4-5.4,10.71-10.89,15.84-16.54,3.11-3.42,5.86-7,11.06-7.39,1.21-.1,2.51-1.9,3.35-3.19s.94-2.89,1.54-4.29C173.19-1.41,172.38-.56,181,1c6.09,1.08,11.48,3.49,14.35,10,2.37,5.35,5.87,10.19,8.84,15.27A19.79,19.79,0,0,0,213.08,34a67.79,67.79,0,0,1,8.74,5.74c.5.35.58,1.24.94,1.84a36.2,36.2,0,0,0,3.51,5.55c6.48,7.16,13.15,14.15,19.65,21.29,1.53,1.67,4.08,3.11,2.46,6.21-.19.37.67,1.41,1.2,2,1.34,1.48,2.77,2.89,4.17,4.32,2.19,2.23,4,5,8,3.65a7.54,7.54,0,0,1,4.81.36,8.88,8.88,0,0,1,4.11,3.21c1,1.66,1.41,3.84-1.19,5.06a2.13,2.13,0,0,0-.91,1.67c.07,4.12,2.59,6.66,6.88,6.94,4.46.29,8.94.46,13.41.69,8.46.44,16.92,1.31,25.37,1.17,5.17-.09,9.21,1.26,11.73,5.52a32.43,32.43,0,0,1,3.89,10.1,106.9,106.9,0,0,1-1.07,45.9c-.74,3.14-.67,6.47-.9,9.71-.08,1.1.3,2.28,0,3.3-1.8,6.91-3.64,13.83-5.71,20.66-.34,1.12-1.91,1.86-2.91,2.77-.42-1.21-1.2-2.43-1.18-3.64,0-3,.43-6,.67-8.89-3.56-1.14-5.58-.34-6.56,3a37.45,37.45,0,0,1-3.08,7.5c-.53,1-2.08,1.36-3.17,2a9.36,9.36,0,0,1-.91-3c.12-2.22.76-4.43.81-6.65,0-1.15-.75-2.33-1.16-3.5-1.21.72-2.93,1.15-3.53,2.21a51.79,51.79,0,0,0-3.81,8.7c-.79,2.33-1.95,3-4.55,1.87l1.46-12c-3.24-1.11-5-.14-5.91,2.8a51,51,0,0,1-3,7.9c-.54,1-2.12,1.54-3.23,2.29-.41-1.18-1.21-2.37-1.15-3.53.16-3.21.68-6.41,1-9.49-3.71-1.11-5.62-.15-6.51,3.22a45,45,0,0,1-3.12,8.24c-.41.82-2,1.07-3,1.59-.42-.9-1.24-1.83-1.18-2.69.24-3.47.76-6.92,1.17-10.36-6.07-.92-6.06-.91-8.07,3.94-.81,1.95-1.66,3.89-2.5,5.84-.72,1.64-1.52,3.64-3.69,2.73-.7-.3-1.11-2.69-.76-3.84,3-9.74,1.57-19-2.58-28a51.86,51.86,0,0,1-2-6c-2.92-9.47-7.08-18.2-14.62-25a4.12,4.12,0,0,1-1.39-2.71c.12-5-1.6-10.44,2.9-14.72l-40-52.64a10.23,10.23,0,0,0-1.2.62c-8,6-13.39,4.12-15.86-5.58-.65-2.55-1.2-5.12-1.88-8-6.13,3.61-11.84,6.87-17.45,10.3-9,5.52-18.08,11-26.93,16.83a10.65,10.65,0,0,0-3.88,5.53c-1,3.35-1,7-1.67,10.44-.46,2.61.4,3.6,3.08,3.68,6,.18,12,.44,18,1a64.79,64.79,0,0,1,11.75,2.13,7.7,7.7,0,0,1,4.41,3.63c1.16,2.54,1.45,5.34,5,6,.68.12,1.37,1.85,1.56,2.92,2.8,16,4.14,32,2,48.17-.21,1.63-2,3.07-3.09,4.57-.75,1-2.16,2-2.22,3-.41,7-4.92,10.24-10.95,10.81-9.69.92-19.46,1-29.21,1.23-2.36,0-3.72.59-4.34,3.33C129,189.73,133.89,190.2,138.83,190.25ZM173,15.78l-1.39-.38c-1,1.52-2,3-3.06,4.55-1.46,2.14-2.6,4.62-4.46,6.32-4,3.69-8.49,6.91-12.67,10.44a75,75,0,0,0-8.35,8.11c7-3.73,15.54-4.65,20.64-11.78,2.55-3.55,5.86-5.44,11.87-6.47Zm-.8,150c1.88-15.43.85-30.76-2-46a23.16,23.16,0,0,0-1.43-3.81l-1.72.31c2.49,17.55,4.6,35.11,1.74,52.82l1.95.44A16,16,0,0,0,172.18,165.76Zm9-108.39c.76,2.83.92,5.88,2.09,8.5.76,1.68,2.81,3.71,4.42,3.85,1.86.15,4-1.48,5.77-2.64.39-.25.29-2-.18-2.69a67.92,67.92,0,0,0-4.77-5.56c-1.62-1.8-3.29-3.55-5.12-5.52C181.6,53.9,180.53,55,181.17,57.37Zm66.52,26.06c0-1.7-2.31-3.72-4-5.07-1.18-.94-3.07-1-4.75-1.46l-2.7,2.52,8.66,14.44C246.08,89.83,247.62,86.64,247.69,83.43ZM97.63,84.85c-1.86,7.62-3.59,15.27-5.24,22.93-.16.78.51,1.74.8,2.61.51-.5,1.34-.93,1.48-1.53,2.06-8.53,4-17.07,6-25.62,0-.2-.11-.44-.17-.65l-.92-.72C98.93,82.86,97.89,83.76,97.63,84.85ZM60.39,110.68l-1,.12c1.21,8.4-2.8,17.45,4.49,25.07ZM224.27,57.86c1.67,7,9.44,17.39,13.12,16.13ZM93.92,113.65l-2-.34c-.31,2.69-.5,5.4-1,8.06-.3,1.71.73,4.23-2.37,4.64-.21,0-.39,1.22-.4,1.88,0,3,0,6.07,0,9.11A157.8,157.8,0,0,0,93.92,113.65Zm156.83-10.41c3.53-1.37,3.81-4.48.85-9.24C249.1,97,249.22,100,250.75,103.24ZM123.83,94.66l-3.3,6.93C123.8,101.55,124.08,101,123.83,94.66ZM32.67,198.08c2.79,2.35,5,3.14,7.53,1.68l.12-1.2Z"/></g></g></svg>