<svg xmlns="http://www.w3.org/2000/svg" viewBox="0 0 174.33 481"><defs><style>.cls-1{fill:#2b4c5c;}</style></defs><title>Desenho - Escavações </title><g id="Camada_2" data-name="Camada 2"><g id="Camada_1-2" data-name="Camada 1"><path class="cls-1" d="M101.62,424h25.15a3.08,3.08,0,0,0,2.61-1.35c2.29-3,5-5.21,9.2-4.71a14.1,14.1,0,0,0,2.43,0h11c0-1.19,0-2.31,0-3.42,0-.41,0-1,.28-1.17,1.3-1,2.67-1.84,4.39-3-.11,1.86.27,3.53-.39,4.55s-.45,1.95-.42,2.93c2.61.42,3.19,1,3.52,3.53,0,.28,0,.57.06.84a1.68,1.68,0,0,0,2.76,1.3c.64-.42,1-1.22,1.6-1.74s1.44-1.41,2.19-1.43a2.41,2.41,0,0,1,1.85,1.5,3.51,3.51,0,0,0,1.86,3.1,1.82,1.82,0,0,1,.47.52,13.17,13.17,0,0,1,2.9,9.31,34.83,34.83,0,0,0,1.07,9.92,7.84,7.84,0,0,1-.13,3.92,2.24,2.24,0,0,1-2.28,1.78c-4.9.13-9.8.23-14.7.41-10.93.4-21.89.13-32.84.13-1.12,0-2.42-.44-2.81.7a19.86,19.86,0,0,0-2.51-.68c-.84-.11-2.57-.12-2.57-.12h-5.93l-.15,2-3.79,1.84,2.21.62-1.5.63c3.59,0,6.89-.19,10.16,0s6.58.88,9.85,1.4c4,.63,8.06,1.35,12.09,2a11,11,0,0,1,7,3.54,10.57,10.57,0,0,1-3.34,16.28c-2.4,1.19-4.94,1.25-7.49,1.26-14.47.06-28.95.07-43.42.14a6,6,0,0,0-1.73.46,7.48,7.48,0,0,0-1.77-.46c-14.52-.06-29.05-.07-43.57-.14-2.5,0-5,0-7.35-1.21A10.11,10.11,0,0,1,32,468.62,10.27,10.27,0,0,1,40,460c4.94-.94,9.9-1.8,14.82-2.8a56,56,0,0,1,14.14-1.28c1.36.08,2.72,0,4.21,0l-1.53-.67,2.18-.49v-.38L72,454l0-.29,1.27-.51-3-.14-.33-2.38-5.55-.32c-.38,0-.76,0-1.14,0a2.38,2.38,0,0,1-2.39-1.62,24.92,24.92,0,0,1-2.06-10.41,122.38,122.38,0,0,1,1.1-14.18c.77-5.31,1.34-10.73,3.85-15.65a.93.93,0,0,0,.09-.54c-.47-2.18-.91-4.37-1.45-6.53-.32-1.26-.93-2.44-1.23-3.7-.63-2.6-1.09-5.24-1.73-7.84a8.85,8.85,0,0,0-3.11-4.81,60,60,0,0,0-.19,6.28c.07,4.09-.82,8.23.73,12.25.69,1.78-.17,3.43-.62,5.16-.7,2.68-2.88,4-4.53,5.86-.84.93-2.18,2-2.2,3-.17,9.33-.1,18.67-.1,28.18a11.8,11.8,0,0,1-1.64.07,40,40,0,0,0-7.58,0c-1.74.2-2.12-.18-2.12-1.49,0-11.53,0-23.05,0-34.58q0-19.32,0-38.64c0-.5,0-1-.07-1.48H24.48s.21,2.84-1.49,3.51c-1.3.52-2.6,2-3.69,1.87a11.39,11.39,0,0,1-4.76-2.57c-.62-.49-.6-1.78-.91-3.08H.28c-.16-1.42.15-2.2,1.49-2.76,2.09-.87,4.26-1.57,6.52-2.39A11,11,0,0,1,7.13,364a35.21,35.21,0,0,1-5.8-2.14c-1.89-1.06-1.71-3.22.17-4.31a11.67,11.67,0,0,1,3.23-1.38c3-.68,6-1.19,9.08-1.79v-7.88c-1.09-.1-2.18-.14-3.25-.31-3.1-.48-6.2-1-9-2.52a2.5,2.5,0,0,1-.19-4.54c2.43-1.64,5.26-2.12,8.08-2.44A17.5,17.5,0,0,0,17,334.46c-.45-.19-.82-.49-1.08-.43-1.81.47-1.84-.68-1.83-1.89,0-1.71,0-3.42,0-5.13l-.29-.41c-1.47,1.83-2.58.09-3.84-.06a2.19,2.19,0,0,1-1.79-3c-.73-.43-1.9.23-1.85-1.2s-.12-2.95-.13-4.43a3,3,0,0,1,.3-1.16c.2-.51.65-1,.67-1.5.3-5.77.54-11.54.79-17.31a33.69,33.69,0,0,0,.13-5.21c-.11-1,.35-1.23,1-1.43a7.47,7.47,0,0,1,1.27-.13v-1.41l-1.59-.27c0-.61,0-1.17-.1-1.72-.13-1.21.24-1.88,1.64-1.76,1.17.1,2.35,0,3.44,0V43.82l-2.4-.13.69-2.86c1.56-.86,3.23-1.76,4.88-2.69a.64.64,0,0,0,.29-.43,44,44,0,0,0,.23-5c-.06-1.24-.15-2.31,1.37-2.66,0-6.21,0-12.32,0-18.43A17.44,17.44,0,0,0,18.43,8a6.27,6.27,0,0,1,2.86-6.93C24.24-.67,26.41-.18,29,1.74a43.62,43.62,0,0,0,3.85,2.77q12,6.95,24,13.78a17.76,17.76,0,0,0,4.54,2.24,6.56,6.56,0,0,1,5.36,7.65,39.75,39.75,0,0,0-.8,6.24c-.53,17.15-1,34.3-1.46,51.45Q64,105,63.49,124.08q-.65,23.74-1.27,47.5-.51,18.82-1.07,37.64l-.81,28.9q-.57,20.24-1.16,40.46-.51,18.75-1,37.5a17.53,17.53,0,0,0,.12,4.35c1.07,4.62,2.33,9.2,3.55,13.79.11.38.52.67.74,1a11.6,11.6,0,0,1,1.46,2.48c.25.78-.07,1.73.14,2.54Q69.5,361,74.87,381.78c.23.87.65,1.3,1.6,1.19a2.36,2.36,0,0,1,2.62,1.28A62.75,62.75,0,0,1,82.15,392c1,3.56,1.72,7.22,2.51,10.85.21.95.41,1.52,1.66,1.1a2.33,2.33,0,0,1,2.89,1c.8,1.53,2,1.23,3.11.84,2.8-.93,5,.08,5.6,2.88,1.09,5,2,10.1,3.11,15.38C101.06,424,101.34,424,101.62,424ZM26.81,42.45,27,43.63l-2.42.14V286.14c1.24,0,2.43.06,3.61,0s1.55.43,1.5,1.48c0,.64,0,1.29,0,2l-1.68.29-.08,1.41,1.82.15.26-1.14h5.12s.68,3.62,1.05,5.57h1.11v-1.78l.29-100.74s.26-19,.46-28.52,0-19.19.1-28.78V78.27c0-9.6,0-19.2,0-28.8,0-.89.48-2-.84-2.54-.15-.06-.11-.61-.12-.94,0-1.07,0-2.14,0-3.54ZM65.52,31.38a16.84,16.84,0,0,1-3.64,1.56,9.54,9.54,0,0,1-3.75-.25c-2.59-.62-4,.54-3.59,3.12a4.14,4.14,0,0,0,.24.74l-1.7.27c0,.42-.08.87-.08,1.33q0,48.81.1,97.62,0,17.35.1,34.7.07,46.07.14,92.12,0,17,.08,34c0,.28-.12.68,0,.82,1.63,1.67-.39,3.4.12,5.09s.93,3.55,1.39,5.32l1.41,5.46c.3,1.17.61,2.33.92,3.49l.28,0Q61.54,174,65.52,31.38Zm-46.07-2c0,.31.26.87.41.88,1.33.06,1,1.14,1.08,1.8.2,2,.23,3.94.34,6,3.39,0,6.71,0,10,0,1.42,0,2.84-.15,4.27-.19a2.32,2.32,0,0,0,2.05-3.66c-3-5.2-6.09-10.39-9.13-15.59-.95-1.62-1.88-3.27-2.87-4.87-.22-.35-.65-.82-1-.82a7.29,7.29,0,0,1-5.19-2.51C19.44,17,19.43,23.17,19.45,29.37ZM57,359.61c-.13,4.61-.28,9.21-.38,13.81,0,.34.18.9.43,1,4,1.76,8,3.47,12.45,5.35a12.35,12.35,0,0,0-.12-2.18c-3.42-13.28-6.93-26.53-10.25-39.84-.47-1.9-.1-4-.82-5.93-.11-.29-.21-.58-.31-.88l-.21.07Q57.37,345.32,57,359.61ZM38.09,329.32c-3.05-.68-6-1.38-8.94-2A23.72,23.72,0,0,0,25,327c-.22,0-.64.61-.65.95-.08,1.5,0,3-.06,4.52,0,1.09-.11,2.08-1.7,1.55-.29-.1-.73.23-1.44.49a8.94,8.94,0,0,0,2.31.92c1,.07,1.07.51,1.06,1.27,0,2.36,0,4.72,0,7.07v1.62c4.7.68,9.44.71,13.55,3.65Zm15.48,36.46c0,1.88,0,3.76,0,5.64s.14,2.09,2.38,2.42c.12-4.6.23-9.2.36-13.79.3-10.43.65-20.86.86-31.29a18.68,18.68,0,0,0-.92-4.66c-.81-3.28-1.68-6.54-2.52-9.8l-.17,0ZM37.81,352.25c-4,2.92-8.7,2.9-13.27,3.59v8c4.57.63,9.19.84,13.27,3.49Zm36.58,38.59A13.73,13.73,0,0,0,69,396.27a2.18,2.18,0,0,1-.2.37c-2.59,2.82-1.81,5.92-.72,9a1.52,1.52,0,0,0,1.13.85c1.84,0,3.69-.23,5.58-.37V391.08ZM44.84,22.18a4.3,4.3,0,0,0-8.59-.08,4.3,4.3,0,0,0,8.59.08ZM58.45,383.46a3.11,3.11,0,0,1,4.3-3.43c2.26.89,4.49,1.85,7,2.9-1.19-1.86-2.26-3.17-4.22-3.85-3-1.05-5.88-2.49-9.25-3.95a75.44,75.44,0,0,0,.1,8.15c.11.92,1.39,1.71,2.14,2.56l.29-.2C58.71,384.91,58.56,384.19,58.45,383.46ZM49.28,22.53a2.11,2.11,0,0,0,1.25.42c.95.06,1.91-.05,2.85,0a5.93,5.93,0,0,1,1.52.62l1.17-1.56L38.73,12.16l-.17.24C42.13,15.78,45.68,19.18,49.28,22.53Zm6.6,354.53c0-2.12.08-2.12-2.25-3,0,2.36-.13,4.67.08,6.95.07.68,1.1,1.27,1.69,1.89l.48-.15C55.88,380.88,55.84,379,55.88,377.06Zm-.58,11.46c1-2.5.45-4.51-1.57-5.83C53.05,385,54.1,386.74,55.3,388.52Zm-.55,11.33a1,1,0,0,1,.28,0v-7.65h-.28Zm19.35-12-3.32,4.26.47.36C72,390.91,75,391,74.1,387.9ZM56.21,31.69l-1.46-2v3Z"/></g></g></svg>