<svg xmlns="http://www.w3.org/2000/svg" viewBox="0 0 496.26 147.12"><defs><style>.cls-1{fill:#2b4c5c;}</style></defs><title>Desenho - Arquitetura </title><g id="Camada_2" data-name="Camada 2"><g id="Camada_1-2" data-name="Camada 1"><path class="cls-1" d="M0,23.92c6,.82,11.94,1.76,17.94,2.41,4.2.46,5.61,2.68,5.1,6.58a21.41,21.41,0,0,0,0,2.47H33.11C34,46.16,35,56.69,35.76,67.24c.34,4.56-1.87,9.14,4.61,12.35,5.11,2.53,8.71,8.06,13,12.24C54.05,92.49,54.83,93,56,94c.16-1.85.28-3.37.35-4.2,2.35-1.24,4.21-2.32,6.17-3.21,1.07-.48,2.53-1.18,3.41-.82,3.48,1.44,7.17,2.83,10,5.15,1.31,1.07.86,4.27,1.22,6.54l11.34,2.45v-54c2.52-1.19,6.26.79,7.3-3.2.07-.27,1.77-.16,2.72-.16,3.56,0,7.12,0,11.29,0V7.09h1.56c0,10.84.09,21.68-.06,32.51,0,2.78.72,4.73,3.11,6.15,2.67,1.59,3.61,3.73,3.56,7.07-.19,14.5.08,29,.19,43.51a7.42,7.42,0,0,0,.3,1.45c3.16,1.45,9-2.65,8.94,4.92l4.92.22V98.67q-.21-42.28-.43-84.57c0-1.63-.21-3.27-.26-4.91-.19-6.68,1.91-9,8.72-9.18,5-.09,10.12.37,15.18.41,2.9,0,3.29,1.6,3.29,4,0,9.71.06,19.43.1,29.15,0,1.3,0,2.6,0,4.64,3.19-2.61,4.56-5,4.5-8.44-.07-3.69,2.93-6.49,6.44-7.57a4.74,4.74,0,0,0,2.84-3.25c.17-2.7,1.61-3.22,3.74-3.22,6.82,0,7.85.49,8.5,5.83,4.66-.83,6.11,2.61,7.6,6,3,6.79,3,6.79,11.15,7.29v81.34c2.37,1.09,3.9,2.31,5.52,2.44,6.24.49,5.17,4.87,5.13,8.81a3.07,3.07,0,0,0,1,2.58c0-3.64,0-7.28,0-10.91-.05-5.61-1.21-11.46,0-16.76,1.94-8.22.64-16.43,1.69-24.56.34-2.59,1.06-5.14,1.72-8.26h19.62V95.11c7.64.52,7.64.52,9.36,13.13h3c1-1.92,1.52-4.6,2.54-4.79,2.82-.52,6.19-2.23,8.77,1.44,0-12.14,0-24,0-35.87a35.27,35.27,0,0,1,.22-5.73c.61-3.53,1.57-6.93,7.17-5.41,0-3.06,0-5.73,0-8.39-.07-8.21-.18-16.41-.18-24.62,0-.93.39-2.35,1.06-2.72a48.77,48.77,0,0,1,8.51-4c4.06-1.3,8.13-3.14,12.39.38,1.57,1.3,4.47,1,7.69,1.63V130.25l1.64.76,4.06-3.73c1.12.34,3.16,1,5.22,1.57.5.14,1.41.3,1.55.08,1.52-2.39,3.75-4.72,4.17-7.32.65-4-.15-8.18,0-12.27.26-8.4-.36-17,1.5-25.1a144.11,144.11,0,0,0,2.3-14.4c.11-.86,2.15-2,3.39-2.1,2-.22,4.09.29,7.35.61.47,5.15,1.25,10.39,1.36,15.65.25,11.49.15,23,.2,34.49v5.28c6.81,0,7.34-.51,7.3-6.5-.22-26.27-.43-52.54-.77-78.81,0-2.45.38-3.74,3-4.28,7.13-1.44,14.21-3.16,21.34-4.68a15.66,15.66,0,0,1,4.11-.21c5.36.24,5.33.3,5.4,5.72.25,21.61.58,43.22.79,64.84,0,4.92-.35,9.84-.38,14.75,0,1.09.41,3,1,3.15,3.56,1.1,7.23,2.43,10.89,2.52,7.93.21,15.88-.14,23.8-.56,4.19-.22,8.34-1.06,13.19-1.71,0-4.53,0-10.08,0-15.63-.17-21.89-.51-43.79-.43-65.68,0-6.35,3.44-11.65,7.85-16.15,1.29-1.32,6.66-.5,7.9,1.09,3.83,4.92,7.15,10,6.56,16.69a81.75,81.75,0,0,0,.25,11.49c.32,5.83,2.7,7.52,8.52,7.15,5.6-.35,11.24-.07,17.44-.07v48.23c4-3.88,6.91-1.12,10.19.74V97.12l16.59-3.39v53.39H0Z"/></g></g></svg>