<svg xmlns="http://www.w3.org/2000/svg" viewBox="0 0 257.38 481"><defs><style>.cls-1{fill:#2b4c5c;}</style></defs><title>Desenho - Fundações Diversas</title><g id="Camada_2" data-name="Camada 2"><g id="Camada_1-2" data-name="Camada 1"><path class="cls-1" d="M148.8,481c0-.68-.08-1.37-.06-2.05q1.39-54,2.81-107.91c.62-23.7,1.18-47.41,2-71.1.63-18.49,1.62-37,2.43-55.46q1.28-29.28,2.52-58.56c.07-1.61.19-3.23.16-4.85,0-2.11-.49-2.47-2.5-2a22.57,22.57,0,0,0-3.81,1.13,6.91,6.91,0,0,1-6-.36c-2.21-1.06-4.33-2.28-6.48-3.45a4.09,4.09,0,0,1-2.1-4.89c.66-2.65,1.65-5.22,2.52-7.81s1.89-5.47,2.79-8.22c1-3.13,3.44-4.33,6.43-2.86a31.3,31.3,0,0,1,5,3.29,2.85,2.85,0,0,0,3.19.47c2.46-1,5-1.6,7.56-2.43,2-.67,2.26-1.33.59-2.59-2.61-2-5.41-3.69-8.08-5.6-4.18-3-8.37-6-12.45-9.11-7.87-6-14.41-13.46-21.28-20.53-19-19.62-38.35-39-58.8-57.16C46.71,42.44,27.83,26.24,9.08,9.9c-2.33-2-4.67-4.05-7-6.09A10,10,0,0,1,.45,2.13C.15,1.7-.13.94.06.57A1.62,1.62,0,0,1,1.53,0C3.65.76,6,1.31,7.77,2.53,12.31,5.6,16.71,8.9,21,12.27,35,23.11,48.94,33.94,62.75,45c8.78,7,17.41,14.2,25.93,21.52q26.13,22.44,52,45.12c11.31,9.87,22.46,19.93,33.79,29.79a37.3,37.3,0,0,0,6.73,4.12,2.16,2.16,0,0,0,2-.14,15,15,0,0,0,2.72-3.53c2.23-4.19,4.05-8.63,6.55-12.64,1.49-2.39,3.88-4.27,6-6.22,14.74-13.43,30.57-25.53,46.21-37.87,3.27-2.58,6.51-5.21,9.82-7.75a8.39,8.39,0,0,1,2.2-.85,7.89,7.89,0,0,1,.6,2.6c-.32,2.76-2.1,4.84-3.82,6.83-12.95,14.94-25.86,29.91-39,44.72-6,6.8-12.45,13.21-18.61,19.88a6.77,6.77,0,0,0-1.63,3.3,17.45,17.45,0,0,1-2.56,7.12,5.39,5.39,0,0,0-.67,3.62c.69,3.86,1.55,7.69,2.52,11.49,1.77,6.94,3.58,13.87,5.52,20.76q2.58,9.19,5.52,18.3c2.43,7.57,5,15.08,7.56,22.6,2.18,6.46,4.48,12.88,6.55,19.37,2.23,7,4.3,14.07,6.34,21.14,2,6.83,3.82,13.69,5.72,20.54q2.17,7.88,4.32,15.76c1.9,7,3.85,13.89,5.66,20.87,1.55,6,3,12,4.39,18,1.92,8.21,3.85,16.43,5.63,24.67.94,4.36,1.6,8.79,2.33,13.19.07.43-.27.93-.42,1.39-.38-.32-1-.57-1.12-1-.84-2.09-1.69-4.18-2.34-6.34q-4.2-14.1-8.28-28.23c-3.17-10.93-6.28-21.87-9.49-32.79-2.78-9.45-5.64-18.89-8.5-28.32q-3.16-10.49-6.43-21c-2.48-7.91-5-15.82-7.53-23.69-2.43-7.41-5-14.77-7.52-22.15-2.45-7.14-4.88-14.29-7.45-21.39-2-5.48-4.15-10.9-6.29-16.32s-4.36-11-6.7-16.49a22.8,22.8,0,0,0-3.24-5.35c-1.24-1.52-2.09-1.19-3,.57a13,13,0,0,0-1.37,7q.63,14.41,1.27,28.83.85,18.77,1.72,37.51c.83,18.1,1.84,190.14,2.46,208.24.46,13.29.42-127.35.62-114q.58,39.67,1.18,79.36.45,30.12.88,60.23c0,1.22.14,2.45.21,3.67Z"/></g></g></svg>