<svg xmlns="http://www.w3.org/2000/svg" viewBox="0 0 496 353"><defs><style>.cls-1{fill:#2b4c5c;}</style></defs><title>Desenho - Urbanismo</title><g id="Camada_2" data-name="Camada 2"><g id="Camada_1-2" data-name="Camada 1"><path class="cls-1" d="M351,0h2.38l11.37,7.91c1.16-3.19,2-5.55,2.89-7.91h4.76c-1,2.59-2.2,5.16-3,7.8-.26.79,0,2.28.64,2.62,4.76,2.58,9.67,4.95,14.84,7.55L395.17,2.41,391.41,0h6.34c.15.81,0,2.07.49,2.36,5.52,3,11.15,5.83,17,8.82L423.9,0h8.71c.25.59.28,1.43.76,1.74C441.3,6.82,449.29,11.83,457.51,17l5.17-5.25L446.88,0h2.37l14.06,11.16,5.8-5.94L463.51,0h10.3c2,2.21,4,4.42,6.31,6.92L486.49,0h1.59l-3.4,3.76L496,11v1.38l-12.6-8.3c-.62,1.78-1.85,3.65-1.34,4.14,4.47,4.28,9.25,8.32,13.94,12.43v9.66l-4.16-3.13L475.59,42c-4,3.69-3.91,5.85,1.21,10L496,33.09v2.07a24.43,24.43,0,0,0-2.86,2.09c-4.4,4.26-8.65,8.65-13.13,12.84-3.71,3.48-5.14,3.18-7.51-1.2-.23-.41-.28-1-.64-1.24-1-.62-2.2-1.65-3.15-1.52-4.39.58-8.71,1.51-13.37,2.37.35,1.25.56,2.24.92,3.19,3.43,9.24,6.74,18.52,10.42,27.69,1.05,2.63.92,4.44-1.44,6.37-1.36,1.11-3.06,2.72-3.08,4.12-.13,7.54,3.79,9.9,11.95,7.58,1.25-.35,2.48-.77,3.69-1.21q9.1-3.28,18.2-6.61v4.14l-10.84,3.88c1.9,3.87,3.44,7.5,5.43,10.93,1.35,2.32,1,3.83-1.11,5.66-4.93,4.23-9.59,8.71-14.44,13.17,3.91,3.77,7.42,7.33,11.16,10.68,4.71,4.22,8.06,8.75,6,15-.05.15.23.38.44.69l3.34.68v6.2l-4.72-.75c-.4,2.61-.74,4.82-1.13,7.4l5.85.25v.69c-3.23-.59-4.53.9-4.83,3.42a80.4,80.4,0,0,0-.91,8.43c-.05,3.38,2,5.67,5.74,6.76v9.65l-6-3.89-8.11,6.73L496,209.59V211c-1.23-.85-2.5-1.67-3.68-2.57-3.38-2.57-6.6-5.31-10.17-7.66a5.34,5.34,0,0,0-4.4-.18c-1.64,1-1.59,2.6.27,4,6.06,4.6,12,9.32,18,14v1.38L475.62,204l-4.16,7.48L493.75,224l2.25-2.73v2.76c-3.24,5.7-6.51,11.38-9.71,17.09-1.47,2.62-2.81,5.29-4.35,8.21L496,255.79v1.38l-8.95-4.38c-6.29-3.09-6.22-3.07-3.55-8.8.45-1,.59-2.81-.05-3.25-6.85-4.81-13.89-9.42-20.86-14.07-6.73,7.14-6.73,7.14-4.38,9.18l3.15-2.1L475.83,243c-4.44-1.78-8.26-4.32-12.26-6.62-.89-.52-2.41-.22-3.64-.3.28,1,.25,2.18.91,2.88,5.44,5.76,10.45,11.94,16.7,16.95,5.4,4.34,12.25,7.31,18.46,10.88v4.82a88.09,88.09,0,0,1-33.74-25.45C452.77,234.45,438.47,228,425.57,220l-14.39,23.16,42.15,27.61,5.79-7.75.75.4-5.59,8.05L496,298.53v9a40.83,40.83,0,0,0-3.31,3.69c-4.27,6.13-4.23,6.14,3.31,9.41V322l-7.74-4.22-11.48,17.08,10.83,5.4L496,328.87v2.07l-7.48,10L496,344v1.38c-17.58-8.76-35.23-17.42-52.7-26.34-4.13-2.1-7.86-1.63-12.23-.49a67.32,67.32,0,0,1,2,7.1c.78,4.54,3.47,7.31,8.27,9.5,12.32,5.62,24.29,11.83,36.4,17.81H461.93l1.35-3.08-13.13-6.34L445.29,353h-1.58c1.46-2.54,3-5,4.31-7.66.38-.79.31-2.47-.25-2.78-4.18-2.27-8.54-4.29-13.13-6.53L425,350.09l6,2.91h-9.51c1.05-1.15,2.1-2.28-.25-3.24l-13-5.35-5,8.59h-1.59l5.6-9.05-18.52-7.78c-2.59,4.31-5,8.31-7.44,12.39l8.48,4.44h-2.38c-6.92-4.53-15.41-5.17-24.33-7.95l4.52,7.95H356.55c2.38-2.77.88-5.51-1-7.5-1-1-4-1-6-.77s-3.88,1.21-5.8,1.88c-3.48,1.2-6.94,2.45-10.44,3.59-1.58.52-3.6.55-2.85,2.8h-1.58c.6-2-.69-2.31-2.58-2.3q-5.91.06-11.84-.05c-4.18-.07-6.32-2-6.82-5.62-.16-1.2-1.25-2.29-1.91-3.43l-1.17.15c-.84,3.2-3.16,3.28-6.05,2.8-8.25-1.37-16.55-2.54-24.81-3.86-5.48-.88-6-.63-7.08,3.45,2.52,3.29,4.66,6.07,6.79,8.86h-1.58a54.62,54.62,0,0,0-3.91-5.65c-1.14-1.32-2.59-1.37-3.53.48s-1.9,3.45-2.86,5.17h-7.92c-2.57-.57-5.2-1-7.69-1.74-2.26-.69-3.41,0-4.2,1.74h-1.58c.06-1,.58-2.72.11-3-4.66-2.41-9.48-4.58-14.18-6.79-3.74,4.93-3.73,4.92,1.4,7.56,1.34.69,2.63,1.46,4,2.19H229l-6.73-3.8-2,3.8h-1.59l5.95-10.31c-5.76-.82-10.76-1.66-15.81-2.15-1.12-.11-3.09.8-3.41,1.62s.77,2.3,1.72,3c3.48,2.71,7.16,5.22,10.76,7.81h-4l-8.45-6.49-1.06.72V353h-4v-8c-9.77,1.69-18.65,3.14-27.46,4.87-.85.17-1.25,2.07-1.86,3.17H164a15.57,15.57,0,0,0,0-4.09c-.29-1.14-1.05-2.91-2-3.12-8.18-1.86-16.45-3.44-25.19-5.21-1.07,4.47-2,8.44-3,12.42h-1.58c1.17-4.06,2.34-8.13,3.63-12.58L108,334.82c-.38,6.37-.73,12.27-1.08,18.18h-2.37l1.75-30.6L105,322a25.44,25.44,0,0,0-2.23,2.45q-8.94,13-17.79,26.06A11.89,11.89,0,0,0,84,353H82.4c.78-1.32,1.48-2.68,2.34-3.95q9.26-13.62,18.53-27.17c-5.65-4.56-5.46-4.27-11.61-1.26-7.1,3.48-12.23,8.06-14.55,15-.84,2.51-2.46,4.81-3.6,7.25-1.59,3.36-3.06,6.76-4.58,10.15H67.35c3.51-7,7.27-14,10.46-21.16a18.52,18.52,0,0,1,9.37-9.68c3.15-1.51,6-3.46,8.88-5.13-1.81-3.65-4.73-5-8.47-5.63-4.38-.73-8.73-1.68-13-2.78-1.38-.36-3.13-1.29-3.6-2.34-.82-1.83.17-3.44,2.38-4.5,3-1.42,5.75-3.09,9.1-4.93L68.91,282.61a17,17,0,0,0-.83,2.5C67,297.68,66,310.27,64.64,322.83c-.56,5.13.24,10.47-3.46,15.27S54.69,348,51.5,353H49.92l8.36-12.82L37,328.19a1.6,1.6,0,0,0-.71-.23c-2.86,3.25-6,6.36-8.35,9.87-.85,1.26.65,3.55.3,5.25-.68,3.35-1.9,6.62-2.91,9.92H20.6c1.16-3.51,2.45-7,3.37-10.54.23-.88-.4-2.6-1.17-2.9-6.89-2.68-13.9-5.13-20.94-7.66L0,335.07V311.63c1.14-.14,3,0,3.29-.49a83.22,83.22,0,0,0,4-7.82l-7.31-2v-1.38l7.8,2.53,9.76-18.38L0,279.23v-1.38c4.84,1.48,9.73,2.82,14.49,4.48,2.63.91,4,.57,5.14-1.78,2.26-4.63,4.86-9.14,7.26-13.73,1.23-2.34,2.32-4.73,3.7-7.55L0,261.3v-3.44c5.1.18,6.84-2.44,7.59-6.38.6-3.13,1.94-6.16,2.92-9.24C12,237.48,12,237.48,6,236.61l-6,15V248.2c1.3-3.09,2.7-6.16,3.88-9.3,1.9-5.05,3.65-10.14,5.62-15.68L0,224.76v-3.45c6.21-1.44,12.43-2.81,18.6-4.37,1.13-.29,2.85-1.38,2.84-2.08-.07-3.93-.58-7.85-1-12L0,204.77v-.69c5.72-.63,11.43-1.37,17.16-1.84,2.36-.2,3.2-.87,3-3-.48-4.66-.72-9.34-1.07-14-.15-1.91-.89-2.8-3.51-2.38-5.15.83-10.38,1.28-15.57,1.88v-1.38c5.56-.52,11.12-1,16.65-1.65.7-.08,1.65-1.37,1.7-2.14a37.62,37.62,0,0,0-.48-5.72L0,176.5v-6.21c13.64-1.8,27.29-3.57,40.93-5.45,1.25-.17,3.08-.79,3.44-1.6,1.61-3.67,2.79-7.49,4.13-11.25l-.84-.74c-1.46.5-3.19.72-4.34,1.55-3.88,2.81-8.2,2.86-13,2.59-10.1-.57-20.24-.66-30.36-.95v-1.38c3,.93,3.05-1.33,3.31-2.65.79-4.08,3.32-5.3,7.91-4.8,4.93.54,10,.63,14.94.68,1.11,0,2.88-.75,3.23-1.54a72,72,0,0,0,2.7-8.31c-8.1.05-15.65-1.11-22.61,2.85C6.55,141,3.17,142.05,0,143.41V142a43.65,43.65,0,0,0,4.33-1.37c6.13-2.64,12-5.73,18.37-7.95,7.45-2.61,11.75-7.51,14.92-13.46a3.19,3.19,0,0,0-.57-3.1,18.71,18.71,0,0,0-10.95-5.52c-6.71-1.06-13.27-2.87-20-4-1.9-.32-4.07.58-6.12.92v-6.2c3.7,1.4,6.5.52,9.58-1.81a77.46,77.46,0,0,1,14.92-9.3c5.78-2.56,6.1-2,4.95-7.47a10.8,10.8,0,0,0-.54-1.43L0,93.77V89.63l16-6.94c-1.26-2.27-2.49-4.15-3.38-6.15C10.34,71.33,4.42,67,7.2,60.09L0,63.43V62.05l7.82-3.31L0,47.57V44.81c1.83,2.92,3.61,5.85,5.51,8.73,2.29,3.48,5,6.84,2.36,11.12A1.89,1.89,0,0,0,8,66.32C11,71.55,14,76.74,16.91,81.89c11-3.11,11.62-3.73,12.72-13A12.86,12.86,0,0,0,30,65.12c-.42-2.17-.68-4.6-2-6.36-7.57-10.09-15.41-20-23.22-30C3.33,26.91,1.6,25.21,0,23.44V21.37c1.1,1.28,2.27,2.51,3.3,3.83Q15.21,40.44,27.07,55.71c.82,1,1.75,2,2,2.28l10-8.42-3-4.27c-.87.25-1.5.39-2.09.61-7.25,2.66-7.19,2.63-11.33-3.09C15.13,32.43,7.55,22.08,0,11.72V9.65c.45.56.92,1.11,1.33,1.68,8,11.07,16,22.09,23.75,33.24C26.77,47,28.36,47.49,31,46.05c1.29-.71,2.68-1.26,4.2-1.95-.83-1.3-1.45-2.29-2.1-3.27L5.55,0H10.3Q26.51,23.84,42.71,47.68a15.41,15.41,0,0,1,1.55,3.09c2.11,5.51,4.18,11,6.42,17l19-8.21L30.9,0h1.59c.62,1.13,1.17,2.29,1.88,3.37q14,21.55,28.05,43.08c2.71,4.16,5.45,8.3,8.31,12.65l10.81-4.68C68.64,35.94,60.09,15.88,43.58,0h1.58A140.9,140.9,0,0,1,66.38,28.46c1.19,2.11,2.6,4.13,4,6.4l36-18L92.7,0h5.55c5.55,6.81,11.08,13.64,16.66,20.43,2.19,2.68,4.49,5.3,6.92,8.14l17.31-9.22L124.4,0H126c5.87,7.88,12,15.64,17.5,23.7,2.34,3.4,4.71,4.51,9.14,3.46,4.26-1,4.62-1.13,3.23-4.73-1-2.57-2.88-5.37-2.42-7.77.69-3.56-.61-5.91-2.94-8.37-1.92-2-3.67-4.19-5.49-6.29h5.54c5.66,5.53,6.94,5.53,11.89,0h3.17l-5.45,6a15.07,15.07,0,0,0,2.63,1.78q15.72,6.34,31.5,12.53a3.33,3.33,0,0,0,2.69-.51c1.7-1.52,3.14-3.27,4.8-5L182.24,0h1.58a92.12,92.12,0,0,0,7.44,5.55c2,1.21,14.46-3.46,15.54-5.55h6.34l-3.71,1.82c2,2.95,2.28,6.69,7.25,7.43.78.12,1.46,1.62,1.85,2.58.72,1.78,1.2,3.64,1.78,5.46l1.58-.35L217.89,0h4.76c1.16,5.45,2.32,10.89,3.55,16.7l26.29-7.6L237.7,0h2.38L252.4,7.91c2.93-3.08,1.23-5.49.35-7.91h1.59c.31,1.26.61,2.51.94,3.88l6.27-.56c-.36-1.39-.62-2.35-.87-3.32h1.58c.65,1.34,1.29,2.68,1.94,4,1.16-.85,2.37-1.66,3.46-2.57A5.8,5.8,0,0,0,268.6,0H271c-.92,1.82-1.83,3.65-2.83,5.64l10.72,5.77,6-8.54L280.49,0h7.92c-1,1.14-2.05,2.26.15,3.34,8,3.91,16,7.86,24.41,12V0h4c.17,5.37.24,10.74.61,16.1.07,1,1.37,1.94,2.57,3.52L334.36,0H336l-5.9,7.92,6.16,3.45L344.66,0h1.59c-3,3.86-6,7.71-9.2,11.9l9.51,5.5L356.93,4.18ZM463.91,99.33c-.69-2.37-.81-3.55-1.37-4.56-2.19-3.94-1.92-7.28,2.28-10.24a4,4,0,0,0,1.07-3.88q-5.31-14.94-11.15-29.73a4.17,4.17,0,0,0-3.32-1.7c-11.45,1.6-22.89,3.28-34.28,5.2-7.57,1.29-15.05,3-23.4,4.69,7.51,5.36,14.33,10,20.89,15a157.85,157.85,0,0,1,12.78,10.75c4.63,4.33,8.85,9,13.35,13.43a4.45,4.45,0,0,0,2.78,1C450.11,99.37,456.68,99.33,463.91,99.33ZM149.53,68.61c-2.94.52-5.61.68-8,1.47-6.6,2.2-12.18-.07-17.5-2.91-3.8-2-7.74-4.24-10.62-7.13s-5.83-3-9.7-2.49c-2.8.36-3.58,1.2-3.32,3.46,1,8.67,1.89,17.35,2.85,26,.42,3.84.9,7.68,1.4,11.82,6.55-1.14,12.63-2.09,18.64-3.28,3.09-.61,5.35-.49,6.44,2.61a3.14,3.14,0,0,0,2.39,1.59c6.86-1.45,13.67-3.1,20.62-4.73Zm218.24,155,33.55,14.76,6.86-11.67,7.09,5.44,7.8-13.56-38.42-24.81ZM307.18,196c6.29-4,14.44-5.37,19-11.47.47-.63,2.07-.95,3.11-.9,5,.25,10,.67,15.27,1.06.26-1.14.66-2.81,1-4.49,1-4.36.46-4.73-4.6-6.06-5.36-1.4-10.6-.91-16-.33-5.68.61-11.46,1.47-17.1,1.08-6-.41-11.77-2.27-17.71-3.27-1.38-.23-3.51.07-4.37.87-3.95,3.69-7.54,7.66-11.33,11.48-1.16,1.17-1.75,2.08-.27,3.5s2.57,1.65,4.33.56c1.58-1,3.34-1.73,5-2.58l.36.59L277.23,190c4.36,4.37,8.54,8.61,12.83,12.75a2.84,2.84,0,0,0,2.36.31c4.37-2,8.65-4.21,13.66-6.68-5-4-7.16-10.51-15.91-7.51C295.59,186.72,295,184,307.18,196ZM203.31,93.28c-1.77,4.06-3.39,8.15-5.34,12.12s-4.26,7.94-6.18,11.46L214,137.36c6.73-4.19,14.14-8.75,21.43-13.44a2.9,2.9,0,0,0,.91-2.56c-.76-4.29-1.7-8.57-2.67-12.84a3.71,3.71,0,0,0-1.27-2.37C223.31,101.12,214.42,95.75,203.31,93.28ZM99.08,58.79c-7.53-1-21.44,5-25.09,10.4-3.54,5.2-6.31,10.43-5.42,16.77.29,2.13.73,3.7,2.94,4.77a32.68,32.68,0,0,1,12.3,10.92c1.16,1.61,2.58,3.08,4.28,5.08,2.91-4.21,6.38-7,11.72-7.06,3,0,3.69-1.44,3.41-3.8C101.8,83.57,100.46,71.26,99.08,58.79ZM53.47,209c8.65-2.11,16.36-3.59,23.65-6,2.3-.77,6.31-2.41,4.94-6.38q-4.57-13.33-8.91-26.72c-.6-1.85-1.59-2.7-3.9-2.41-6.13.76-12.26,1.52-18.42,2.07-2.74.24-3.73,1.28-3.35,3.53C49.43,184.78,51.39,196.52,53.47,209Zm298.11-34.14c-2.16,8.12-4.14,15.56-6.33,23.77l14.84,1.27c-2.14.6-4.31.45-6.43.66-1.15.11-2.78.56-3.25,1.3-2.26,3.58-4.19,7.32-6.42,11.31l21.61,9.54c5.75-10.31,11.24-20.16,16.85-30.24Zm-86,6.82L264,181.3l-7.72,6.31-7.53-9.4,7.36-5.51-8.29-8.39-8.1,4.64-3-2.81-15,7c2.29,5.76,4.58,11.59,6.95,17.4a3.65,3.65,0,0,0,1.4,1.58c5,3.15,10,6.3,15.2,9.28a3.72,3.72,0,0,0,3.16-.35q8.38-8.24,16.43-16.72C265.52,183.73,265.37,182.56,265.56,181.64ZM59.15,339.53c1.41-2.69,3.27-4.77,3.51-7,1.76-16.3,3.23-32.62,4.65-48.95.1-1.23-.89-2.53-1.48-4.08a19.82,19.82,0,0,0-2,1.15,8.21,8.21,0,0,0-1.58,1.53c-4.67,6.6-9.93,13-10.25,21.21-.2,5.32-2.59,9.86-6.87,13.79-3.12,2.86-5.7,6.16-8.75,9.5ZM257.36,280.9,231.9,325.2c6.14-.38,11.34-1,16.54-.92,3.93,0,5.83-1.33,7.35-4.35,3-6,6.47-11.79,9.74-17.67l8.07-14.52Zm53.43-156.23L290.05,140.9l8.79,8,33.68-36.28-21-12.71-15.35,13.72ZM71.66,62.91c-6.35,2.72-12.4,5.45-18.58,7.91-2.35.94-2.79,2.13-2.64,4.25.49,7,.72,14,1,20.94a6.55,6.55,0,0,1-3.89,6.58c-3.93,2.13-7.4,4.91-11.25,7.52l4.7,3.64c7.67-5.71,16.12-8.65,26.63-5.63,0-9,.11-17.45-.06-25.92-.07-3.21.39-6.16,2.68-8.72C72.92,70.42,73.37,67.11,71.66,62.91ZM89.8,296.09c2.92,4.44,5.32,8.67,8.37,12.52a46.06,46.06,0,0,0,7.59,6.89c2,1.61,3.46,1.12,4.67-1.22,4.83-9.29,9.9-18.48,14.86-27.72,1.15-2.16,2.24-4.34,3.53-6.84-3.13-1.25-5.92-2.48-8.83-3.45a3.82,3.82,0,0,0-2.78.56C108.16,283.12,99.17,289.49,89.8,296.09Zm21.83-154.46a14.82,14.82,0,0,0,1.91-.43c9.34-3.92,18.7-7.8,28-11.86a2.69,2.69,0,0,0,.82-2.74c-2-4.59-4.25-9.14-6.69-13.59a4.23,4.23,0,0,0-3.35-1.6q-11.58,2.15-23,4.84a3.52,3.52,0,0,0-2.16,2.78c.77,6.83,1.8,13.65,2.89,20.45C110.15,140.31,111.17,141,111.63,141.63Zm253.89,140c7.85,3,15.29,5.84,22.84,8.46.66.22,2.63-1.09,3.12-2,3.77-7.19,7.34-14.47,10.95-21.73a25.49,25.49,0,0,0,1.5-3.55c.83-2.62-1-4.31-3.31-5.22-.93-.37-3,.57-4,1.41-5.17,4.25-11,5.75-17.81,3.71a26.7,26.7,0,0,0-3.24-.56Zm-284.6-251L93.38,49.33,123.11,36.5l-16-18.94ZM344.38,53.18a9.56,9.56,0,0,0,1.26.46,6.64,6.64,0,0,0,1.18,0c10.87-.67,21.85-3.52,32.51,1.14a2.76,2.76,0,0,0,2.33-.48c3.09-3.79,6-7.68,9.17-11.78L363,27.77ZM98.09,235.11c3.18,3.88,5.42,7,8.14,9.76a7.45,7.45,0,0,0,4.85,1.95c5.51-.2,11-.82,16.52-1.35,4.11-.39,8.2-.89,12.63-1.37-2.54-7-4.81-13.42-7.35-19.81a4,4,0,0,0-3.13-1.64c-5.79.31-11.58.78-17.31,1.51-1,.12-2.21,1.72-2.35,2.73a67,67,0,0,0-.11,8.22Zm191.12-76-12.73-12.58-27.09,16.07L268,181.23C275.2,173.69,282.09,166.5,289.21,159.07ZM106.4,47.92c3.93,6.45,9.21,11.27,15.63,15.5,8.11,5.35,16.31,6.66,26,2.64L125.67,39.57Zm274.34,7.76c-5.9-1-10.7-2.52-15.54-2.61-6.27-.11-12.59.81-18.86,1.45-1.45.15-3.33.63-4.13,1.55-2.59,3-4.78,6.2-7.26,9.51L347.8,74l6.61-7.85,12.91,6.56ZM145.27,299c-3.63,3.27-7.77,1.9-12,.82a98.48,98.48,0,0,0-9.93-2.12c-1.07-.16-3,.37-3.4,1.07-3.38,5.92-6.51,11.95-10.14,18.76l31,3.44c.46-1.71.81-3.26,1.29-4.79,1.37-4.37,2.39-8.89,4.39-13C147.47,301.18,147.28,300.34,145.27,299ZM281.78,146l26.35-20.43L294.78,114l-24.94,19.41Zm-58.1,100.85c6.41,2.49,12.36,4.88,18.43,7,.79.28,2.42-.48,3.25-1.15,4.07-3.27,8-6.68,12-10,3.32-2.82,3.12-4.84-.94-6.89-5.7-2.88-11.52-5.56-17.23-8.43-1.73-.87-2.78-.82-3.78.81C231.64,234.2,227.82,240.21,223.68,246.81ZM397.13,130.49l9-16.76,7.9,3.38c-.36-2.71.19-5.47-1-6.27-5-3.35-9.25-7.94-16.18-8.63-3.88-.38-7.74-1-12-1.51-1.2,2.36-2.4,5-3.89,7.53-1.31,2.2-.92,3.48,1.82,4.5,3.62,1.34,7.07,3,10.6,4.56l-.32.58-3.9-1.07-5,7.78ZM146.55,261.32c-1.17-3.27-2.2-6.2-3.26-9.12-2.47-6.78-2.48-6.78-10.75-6.28-.52,0-1.06,0-1.58.05l-22.21,2c5.32,6.42,10.12,12.27,15,18a3.29,3.29,0,0,0,2.64.78C133.09,265.1,139.69,263.22,146.55,261.32ZM267.14,136.43c-11,5.69-21.46,11-31.76,16.49-1,.53-2,2.51-1.62,3.23,1.86,3.34,4.22,6.49,6.65,10.08l35.64-20.44ZM422.32,278.5c3.53-5.84,6.91-11.36,10.15-16.94a2,2,0,0,0-.57-2c-6.07-4.11-12.24-8.13-18.63-12.34-2.15,3.26-4.29,5.91-5.71,8.83a74.85,74.85,0,0,0-3.75,10.28c-.16.52.5,1.53,1.11,1.9C410.51,271.59,416.18,274.89,422.32,278.5Zm-165.95,2-26-10.9c-3.51,9.1-6.85,17.78-10.52,27.34a46.05,46.05,0,0,0,5.1-1c4.17-1.41,8.33-2.85,12.41-4.42,3.65-1.41,7.21-2.66,11.36-1.65a3.43,3.43,0,0,0,2.75-1.13C253.22,286.2,254.63,283.51,256.37,280.5ZM489.06,159.58c-8.05-1.12-15.42-2.14-22.78-3.19-2.13-.3-2.77.64-3,2.28-.4,3.42-1.05,6.81-1.35,10.22a3.59,3.59,0,0,0,1.12,3c6.47,4.08,13.09,8,20.5,12.44C485.49,175.73,487.24,167.83,489.06,159.58ZM225.2,81.25c-1.42-4.19-2.78-7.89-3.9-11.65-.66-2.22-1.87-2.62-4.29-1.9-4.48,1.34-9,2.43-13.58,3.62-10.5,2.76-10.5,2.76-12.54,12a4.39,4.39,0,0,0-.21,1.7c.09.5.39,1.22.82,1.38,3.76,1.37,7.53,2.74,11.39,3.87a3.53,3.53,0,0,0,2.62-1.12c3.2-3.57,7.65-5,12.47-6C220.26,82.7,222.48,82,225.2,81.25ZM496,301.37l-28.31-18.52L455.24,298c4.82,2.8,9.05,5.31,13.38,7.7a5,5,0,0,0,3,.47C479.4,304.7,487.18,303.12,496,301.37ZM49.05,205.45l-4.2-17.91c-7.55,1-14.55,1.88-21.51,3-1,.15-2.63,1.27-2.6,1.87.34,5.55,1,11.08,1.57,17.09Zm290,66.29c3.62-4.71,4-6.57,3.55-10.09a19.26,19.26,0,0,1,.84-6.51,21.94,21.94,0,0,1,1.86-3.95l-22.4-9.61a35.15,35.15,0,0,1-2.6,4.08c-2.32,2.72-1.67,5,.26,7.77,2.51,3.67,4.09,7.82,6.12,11.74.45.89.86,2.12,1.7,2.48C331.9,269.17,335.55,270.42,339.07,271.74ZM226.75,18.82,242.23,41c1-1.34,1.58-2,2-2.62,4.55-7.09,9.13-14.17,13.58-21.31.58-.93,1.05-2.83.55-3.18-1.61-1.14-4-2.77-5.55-2.4C244.37,13.55,236.09,16.13,226.75,18.82ZM269.45,329c-12.85.82-25,1.82-37.25,2.29-4.64.17-5.64,2.6-6.55,5.52a8.42,8.42,0,0,0-.07,2.75c.1,3.17,1.31,4,4.65,2.71a22.25,22.25,0,0,1,12.69-1c5.13,1,10.3,1.84,15.48,2.56,1.18.16,3.25-.15,3.63-.8C264.62,338.53,266.87,333.92,269.45,329Zm12-105.59-15.2,14c3.27,3.26,6.87,6.9,10.52,10.49,7.51,7.39,7.52,7.38,16.9,1.9.33-.2.85-.31,1-.57.33-.75.95-1.75.64-2.3C290.87,239.26,286.34,231.65,281.44,223.36ZM131.58,102.21l12.81,25.66c3.67-2.32,6.9-4.29,10-6.39a2.6,2.6,0,0,0,1.09-2c-.74-7.29-1.61-14.57-2.47-22.16Zm107.24,42.93,23.27-14.06-10.42-11c-5.56,1.27-8.69,5.81-15.06,5-2.46-.32-5.55,3-8.64,4.82Zm53.71,149c.53.49.67.72.89.81q11.32,4.82,22.67,9.6c6.37,2.67,6.48,2.69,8.5-3.13a4.35,4.35,0,0,0-.79-3.66c-2-2.55-4.65-4.71-6.51-7.32-4.08-5.72-10.8-7.56-17.61-9.87ZM260.81,112.82c-1.23-2.54-1.74-5.38-3.62-7.06A28.93,28.93,0,0,0,247,99.51c-3.31-1-7.39,0-11.12-.17-3.9-.17-7.78-.68-11.67-1a28.46,28.46,0,0,0,7.25,4.65c3.07,1.38,4.56,3.2,4.91,6.38.5,4.55,1.93,9,3.06,14ZM136.75,179.75c3.15-.41,5.52-.57,7.78-1.09.85-.2,1.45-1.22,2.17-1.86-.86-.49-1.7-1.36-2.58-1.38-2.5-.09-5,.18-7.51.3l-16.8.73c3,8.06,5.76,15.55,8.68,23.46,6.82-3.55,5.53,2.25,7.74,4.75l7.94-2.73C141.65,194.39,139.25,187.21,136.75,179.75Zm331.61-59.27c4.87-3.91,9.87-8.32,15.35-12.22,3.43-2.44,3.83-4.57,1.69-7.8-1.2-1.81-2-2.07-4.24-1.45a97,97,0,0,1-14.07,3c-5.06.63-10.24.55-15.37.79-1.18.06-2.36.16-3.52.24ZM32.2,217.69c-6.27,1.46-13.22,3-20.11,4.75a3.54,3.54,0,0,0-1.82,2.05A68.8,68.8,0,0,0,7.21,233a3.07,3.07,0,0,0,1.36,2.85c5.84,2,11.81,3.83,18.2,5.85,1.71-3.59,4-6.84,4.74-10.34C32.41,227,32,222.5,32.2,217.69Zm-.7,70.77-7.07,17.63c8.13,1.42,15.45,2.78,22.82,3.89A3.49,3.49,0,0,0,50,308.15,86.91,86.91,0,0,0,52.13,297a3.25,3.25,0,0,0-1.81-2.7C44.32,292.27,38.21,290.5,31.5,288.46ZM268.91,339.1c10.81,1.6,21,3.13,31.18,4.55.8.11,2.28-.39,2.5-.91.37-.91.51-2.43-.11-3a8.85,8.85,0,0,1-2.84-7.87c.16-1.55,0-3.13,0-5.17-8.41.62-16.23,1.17-24,1.82a2.59,2.59,0,0,0-1.71,1.19C272.27,332.63,270.74,335.63,268.91,339.1Zm67.33-3.71c-5.21-2-9.88-4.24-14.86-5.5a8.4,8.4,0,0,0-6.66,2.16,34.27,34.27,0,0,0-5.53,9.83c-1.75,4.5.53,8.33,6.5,7.89,3.79-.27,7.65.14,11.45-.11a4.89,4.89,0,0,0,3.41-2C332.57,343.81,334.22,339.83,336.24,335.39ZM189.86,277.61l-.8.11c-.13-1.08,0-2.29-.47-3.2s-1.69-2.13-2.59-2.13a22.84,22.84,0,0,0-6.95,1,3.6,3.6,0,0,0-2.19,2.73c.17,3.88.9,7.74,1.16,11.62.15,2.19,1.31,2.72,3.54,2.58,4.73-.29,9.48-.36,14.19-.8,1.29-.12,3.28-1.1,3.51-2,1-3.6,2.08-7.36,1.82-11-.43-6-.85-5.82-7.87-5.19-3.15.28-4.29,1.19-3.39,3.9A7.62,7.62,0,0,1,189.86,277.61ZM371,134.75c-8.76-3.52-17.54-7.11-26.42-10.48-.77-.3-2.62.64-3.37,1.43-1.13,1.2-2.86,3.26-2.38,4.12,3.16,5.6,6.83,11,10.51,16.7,5-1.71,10.14-3.68,15.46-5.27A8.24,8.24,0,0,0,371,134.75Zm-12.66,121.5c-2.73,3.08-4.68,6.31-7.67,8.4-3.49,2.42-4.89,5.43-6.37,9.08l18.93,7c3.43-6.66,6.66-13,10-19.41Zm-40.8,27c1.39-2.65,2.46-5,3.81-7.17s.55-3.05-1.81-3.84c-3.5-1.18-6.9-2.61-10.34-3.93a21.19,21.19,0,0,1,6.82,1.64l6.65,2.38c6.38-6.08.93-14.84-5.5-21.17L301.65,277Zm-53.19-16.53c-7.5-2.9-14.54-5.66-21.62-8.32a3.13,3.13,0,0,0-2.44.22,92.21,92.21,0,0,0-8.06,7c-1.11,1.13-2.06,2.85.56,3.94,7.91,3.28,15.8,6.61,24.09,10.09ZM238.41,42.87,223,20.62,210.51,23c2.68,7.16,5.16,13.89,7.77,20.58.27.69,1.39,1.69,2,1.63C226.23,44.52,232.17,43.69,238.41,42.87Zm26.89,85.75c6.27-4.85,12.18-9.74,18.51-14.2,3.58-2.52,4.74-5.44,4.33-9.37l-7.75-2.88c-4.88,3.33-8.7,6-12.6,8.58s-7.92,5.06-12.1,7.71ZM203.76,319.36c-1.78-6-3.32-11.57-5.16-17-.26-.79-2-1.74-3-1.69A125.37,125.37,0,0,0,182.26,302a3.57,3.57,0,0,0-2.36,2.63,117.87,117.87,0,0,0,1.51,13.63,3.85,3.85,0,0,0,2.84,2.27C190.53,320.31,196.8,319.8,203.76,319.36ZM42.6,170.91c-7.24.88-14.5,1.74-21.74,2.72-.66.09-1.74,1-1.7,1.42.35,4.85.9,9.7,1.42,14.82,7.73-1,14.86-2,22-3,.7-.11,1.77-1.18,1.72-1.74C43.85,180.48,43.21,175.86,42.6,170.91ZM389.31,335.32c6,2.51,11.38,4.84,16.87,7a3.12,3.12,0,0,0,2.62-.44c3.19-4.42,6.21-8.95,9.49-13.77-5.26-2.53-9.93-5.14-15-7-1.59-.59-5.15.22-6.08,1.41C394.26,326.39,392.08,330.71,389.31,335.32ZM224.74,73.7l-.72.72c2.41,7,4.76,14,7.3,20.91A3.74,3.74,0,0,0,233.88,97a36.78,36.78,0,0,0,8.59.81c2-.13,4.69-1,5.51-2.29,1.62-2.54,2.25-5.59,3-8.47A2.39,2.39,0,0,0,250,84.88C241.59,81.08,233.15,77.4,224.74,73.7Zm-76.07,181c2,5.29,3.65,10.09,5.57,14.82a3.22,3.22,0,0,0,2.43,1.57c6-.36,12-.93,18.26-1.46-.48-5.09-.81-9.76-1.45-14.4a3.27,3.27,0,0,0-2.47-1.85C163.78,253.63,156.56,254.15,148.67,254.65ZM49,163.49c1.59-.16,2.74-.23,3.87-.38,10.81-1.43,21.62-2.86,32.56-1.05,3.39.56,3.67-1.84,4.13-3.53.74-2.67-1.76-6.26-4.09-6.32-9.87-.26-19.74-.51-29.62-.58a4.24,4.24,0,0,0-3.21,1.72C51.22,156.51,50.26,159.82,49,163.49ZM396.33,2.65c-3.32,5-6.42,9.51-9.3,14.13a2.37,2.37,0,0,0,.64,2.48c4.92,2.62,10,5,15.22,7.66,4-5.1,7.7-9.9,11.68-15ZM302.47,220.43c-6.91,3.38-7,3.49-6.16,10.56-.93-1.81-2.85-4.3-2.09-5.47,1.63-2.5,4.65-4.33,7.65-6.91-1.68-1-3.3-2.8-4.63-2.65a32.41,32.41,0,0,0-9.74,2.61c-5,2.28-5.32,4-2.69,8.47,2.43,4.07,4.81,8.16,7.25,12.22.56.93,1.29,1.79,1.94,2.68a8.22,8.22,0,0,0,1.12-.62c2.76-2.63,5.53-5.24,8.27-7.89C310,227,310,227,302.47,220.43ZM12.86,238.33c-2,6.45-3.92,12.41-5.94,18.78,8.41-.56,16-1,23.6-1.61A3.5,3.5,0,0,0,33,254.22c1.35-2.65,2.41-5.42,3.67-8.34Zm68.5-114.25c3.21,11.28,13.74,19,27.56,16.94-.62-5-1.16-9.94-2-14.9a3.11,3.11,0,0,0-2.18-2C96.94,124,89.08,124.08,81.36,124.08Zm332.81,47c-3.49-.7-7.06-1.36-10.59-2.15-2.34-.53-3.64.14-4.57,2.08a73.21,73.21,0,0,1-4.36,7.69c-1.31,2-1.41,3.86.24,5.74,1.94,2.22,2,4.49.52,7-.66,1.11-1.28,3.28-.68,3.75,3.13,2.42,6.65,4.45,10.75,7.07,1.34-4.36,2.33-7.53,3.29-10.71,1.78-5.91,1.86-6-3.92-9.6-2.24-1.4-2.44-2.66-1.08-4.55s1.56-4.12,5.34-2.92C413.6,175.89,413.72,175.6,414.17,171.05ZM182.64,100.16h-25c.81,6,1.55,11.69,2.22,16.71,6.7-.68,13-1.27,19.3-2a2.34,2.34,0,0,0,1.56-1.54C181.42,109,182,104.56,182.64,100.16ZM323.19,38.7l-11.8,16.19,20.39,8c.89-1.16,1.89-2.36,2.78-3.62,5.13-7.26,5.45-4.39-.44-11.56C331.25,44.16,328.78,40.23,323.19,38.7Zm-96.13,91.77c-5.12,3.15-9.67,6.26-14.58,8.86-3.28,1.74-4,3.79-3.28,6.84,1.38,6,1.33,6.22,8.28,4.74,6.69-1.41,13.23-3.32,20.49-5.17Zm153.76,41.66.26-.62,7.18,2.5,4.92-8.24-18.41-7.5c-1.11,3.38-2,6.09-2.91,8.85l-6.77-2.74-3.18,6.85,22.37,9.7,3.35-5.77Zm63.46-40.81,24.19,8c1.4-3.39,2.68-6.25,3.71-9.18a2.62,2.62,0,0,0-.6-2.46c-4.45-3.84-9.05-7.56-14.06-11.69Zm-235.08,21c-.47-2.84-.88-5.19-1.25-7.55-.3-1.95-.62-3.87,2-5,2-.85,1.31-2.09.5-3.45-1-1.6-2.07-1.84-3.79-1a34.37,34.37,0,0,1-15.06,3.4c-1.91,0-3.83.39-6.1.64.72,4.55,1.31,8.85,2.15,13.1a2.92,2.92,0,0,0,2.13,1.74C196.17,153.75,202.52,153,209.2,152.36ZM431.52,195c4.3.78,8.1,1.54,11.94,2.11a2.86,2.86,0,0,0,2.27-.82c3.49-5.7,6.85-11.47,10.47-17.6l-19.86-3.61ZM41.87,290.21c10.4,4.83,10.52,4.8,16-3.55a7.89,7.89,0,0,1,.8-1.18c2.28-2.42,1.92-4.18-1.09-6.15-5.78-3.77-11.25-7.91-16.86-11.88-1.47-1.05-3-2-4.55-3.08-4.7,6.81-4.7,6.81,1.79,11.51l.6.44c2.27,1.72,5.8,3.14,6.47,5.25s-1.66,4.76-2.67,7.18C42.23,289.17,42.09,289.6,41.87,290.21Zm283-253.54,15,15.51L352.07,35.9c-5.88-2.92-11.32-5.68-16.86-8.28a3.17,3.17,0,0,0-2.64.42C329.75,31,327.11,34.14,324.88,36.67Zm45.73,128.65a56.67,56.67,0,0,0,2.62-5.53,2.32,2.32,0,0,0-.64-2.29c-3.3-1.54-6.74-2.86-10.35-4.34l-5.1,8.23c.32-4.57-3.31-4.48-5.75-5.59,0,4.41-.08,8.53.06,12.63a3.47,3.47,0,0,0,1.37,2.61c7.63,4.43,15.37,8.73,23.36,13.22,1-1.59,1.86-2.93,2.85-4.48-6.35-2.82-12.28-5.44-18.51-8.19l4.08-8.39Zm-361,149.4c10.15,1.88,20,3.72,29.85,5.5a2.35,2.35,0,0,0,1.75-.47c2.47-2.58,4.85-5.22,7.55-8.16-1.44-.41-2.14-.68-2.87-.8-7.21-1.27-14.44-2.43-21.63-3.77C13.42,305,13.43,305,9.58,314.72Zm259.29-80.81c2.88-2.81,5.7-5.67,8.66-8.42,5.23-4.87,10.55-9.65,18.77-10.52.26,0,.46-.5.82-.91-2.05-2.25-4-4.58-6.18-6.68a4,4,0,0,0-3.17-.74c-5,1.81-9.86,3.79-14.69,5.88-1,.43-2.33,1.66-2.22,2.37.7,4.4-1.73,7.81-4.47,11C263.88,228.84,264.35,231,268.87,233.91ZM136,339.43c1-3.63,2.06-6.71,2.59-9.86a3.36,3.36,0,0,0-2-2.75c-9.07-1.19-18.18-2.14-27.66-3.19-.18,3-.49,5.71-.42,8.44a2.9,2.9,0,0,0,1.76,2.18C118.67,336,127.13,337.67,136,339.43Zm11.86-74.54c-4.81,1.35-9.06,2.5-13.25,3.78-.67.21-1.55,1.06-1.54,1.6,0,3.9-.33,7.57,3.15,11.17,6.43,6.65,6,6.95,15.32,3.91.49-.16,1.16-.21,1.43-.52.6-.7,1.6-1.7,1.4-2.3C152.38,276.76,150.18,271,147.87,264.89ZM216.05,307c-.79,1.91-1.26,3.33-2,4.66-1.45,2.79-1.19,6.26-5,8.19-.79.4,0,3.58.56,5.39.14.49,1.91.91,2.91.88,5.26-.14,10.53-.36,15.78-.75a4.83,4.83,0,0,0,3.11-1.6,35.87,35.87,0,0,0,3.66-6.45,2.41,2.41,0,0,0-.85-2.42C228.42,312.27,222.51,309.79,216.05,307Zm59.09-47.85L260.89,241,246,255.45c4.35,1.7,9.89,3.35,14.81,5.92C266.4,264.3,270.62,263.05,275.14,259.17Zm91-33.81c-2.16,4.39-4.22,8.45-6.13,12.56a1.93,1.93,0,0,0,.6,2c6.36,2.59,12.8,5.06,19.48,7.66,2.39-4.63,4.48-8.67,6.73-13Zm21.64,110.39c-6.15-2.59-11.89-5.08-17.72-7.37a3.28,3.28,0,0,0-2.67,1q-3,4.6-5.62,9.43c-1.34,2.5-.36,4.53,2.61,5.45,4.44,1.38,8.95,2.61,13.51,3.66a3.77,3.77,0,0,0,3.07-1.07C383.29,343.45,385.32,339.86,387.79,335.75Zm-312-199.82c-7.17,0-13.85-.06-20.51.09a2.85,2.85,0,0,0-2,1.93c-.19,4.08-.09,8.18-.09,13.15,6.62,0,12.79.06,18.94-.08a3.12,3.12,0,0,0,2.35-1.69C75,144.94,75.34,140.51,75.76,135.93Zm-35.91-18.3c-4.31,8.21-9.64,14.35-19,17.16,9.17.41,18,.43,26.89.36A2.87,2.87,0,0,0,49.61,134c2.3-3.06,4.86-6,6.56-9.34.62-1.21-.69-3.34-1.6-4.84-.26-.42-2.41-.43-3.33,0C47.11,121.69,43.3,122.35,39.85,117.63ZM221.79,288.82c2.49-6.4,4.87-12.42,7.12-18.48a1.8,1.8,0,0,0-.86-1.64c-3.92-1.75-7.92-3.38-12.22-5.19-3,5.89-5.85,11.3-8.46,16.78a2.61,2.61,0,0,0,.93,2.63C212.54,284.94,216.93,286.73,221.79,288.82ZM326,308.72l21.72,9c-2-7,4.26-11,5.21-16.73l-14.78-5.68,5.66,11.82-.78.3-5.52-10.65-5.6.25C330,300.74,328.13,304.49,326,308.72Zm13.53-95.11c-5.27,8.84-10.29,17.27-15.49,26L334,244c1.17-2.13,2.12-3.84,3.12-5.67l-5.71-3.38c2.56-4.32,4.88-8.44,7.45-12.44.49-.76,2.21-1.7,2.89-1.48,5.74,1.91,11.37,4.07,17.34,6.26-1.38,2.72-2.4,5.07-3.74,7.27-1.79,2.94-.33,3.83,3.08,4.09l6.66-13.72ZM297.21,51c3.72,1.11,7.4,2.29,11.15,3.26a3.29,3.29,0,0,0,2.63-.71q5.36-7,10.37-14.22a2.14,2.14,0,0,0-.29-2.29c-3.44-2.24-7-4.29-10.62-6.44C304.69,37,299.09,42.88,297.21,51ZM73.43,167.51l10,29.83,1.6.37c1.26-2.06,3-4,3.67-6.2a72.17,72.17,0,0,0,1.87-10.85c1.42-10.77-1.23-13.31-13.77-13.35C76,167.31,75.05,167.41,73.43,167.51ZM434,173.65c1.73-5.4,3.42-10.32,4.79-15.32.19-.71-1.07-2.38-1.91-2.52-4.63-.82-9.33-1.37-14-1.84a2.84,2.84,0,0,0-2.27,1.18c-1.59,4.91-3,9.88-4.52,15.16ZM215.58,53.31c-8.52,3.41-16.5,6.56-24.4,9.87a2.48,2.48,0,0,0-1.06,2.36,24.32,24.32,0,0,0,2.71,5.66,3.36,3.36,0,0,0,2.71,1.14c8-2,16-4.17,24.41-6.39C218.45,61.63,217.08,57.66,215.58,53.31ZM413.15,24.56l-24.4,31.66c4.21,1.79,10.4.28,12.52-2.77,4.74-6.85,9.43-13.74,14.21-20.71l6,3c3.29-3.16,3.53-3.81,1.53-5.13C420,28.58,416.76,26.76,413.15,24.56Zm53.64,257.71-13.89-9.11L441,289.56l13.36,7.85ZM282.41,90.91A63.42,63.42,0,0,0,276,88.26c-1.62-.47-3.87-1.08-5.07-.47-5.31,2.68-10.59,3.79-16.41,1.48a4.79,4.79,0,0,0-1.44,0,29,29,0,0,0-1.76,5.15c-.22,1.35-.27,3.59.59,4.06,2.75,1.5,4.86,5.2,9.15,3,5.39-2.7,11-3.65,17.16-1.46ZM402.25,27.73l-17-8.46-9.44,14.19,15.63,8.27Zm54.14,85.89c-2.3-1.85-5-3.72-7.25-5.91-2.13-2-4.2-1.58-5.61.13-4.48,5.46-8.66,11.11-13.23,17l11.78,5.43ZM28,153.54c8.54,3.8,14-2.39,20.64-3.57V136.33c-4.7,0-9-.05-13.36,0-.75,0-2,.55-2.13,1C31.29,142.84,29.62,148.31,28,153.54ZM176.3,281.38c-4.86.5-9,.84-13.16,1.4-2.6.36-3.76,1.38-2.68,4.06a49.09,49.09,0,0,1,3.31,11.6c.41,3.05.79,4.83,5,3.84,2.38-.56,5-.4,7.41-.86.83-.15,2.11-1.22,2.06-1.8C177.76,293.71,177,287.81,176.3,281.38Zm-5.91-39.7c-.25-6.55-5.87-9.4-9.77-13-.86-.78-5.06,1.13-7.67,2-1.85.57-3.62,1.36-5.4,2.09-7.51,3.09-6.08,1.5-4.11,7.81a3.5,3.5,0,0,0,.67,1.6c.63.59,1.54,1.41,2.27,1.37C154.23,243,162.07,242.35,170.39,241.68ZM155,76.22c.15,2.2.18,3.68.37,5.15.36,2.71-.21,6.24,1.53,7.89s5.75,1.06,8.77,1.46c.52.07,1,.17,1.56.2,5.77.32,11.54.76,17.31.84,1.08,0,2.44-1.25,3.18-2.22.3-.39-.46-2-1.14-2.28C176.26,83.57,165.91,80,155,76.22Zm199.43,225.4c-2.11,3.88-4.28,7.4-5.94,11.1-1.27,2.82.46,4.6,4,4.47,5.52-.2,11-.51,16.56-.76s6.47-1,7.59-6.22Zm-245-114.06c.1-.14,1.41-1.11,1.31-2-.6-5.49-2.7-6.66-8.78-5.28a14,14,0,0,0-2.66.62c-.71.33-1.64.94-1.75,1.53-1.07,5.49-2,11-3,17,4.73-.43,9.14-.73,13.52-1.24,8-.93,8.1-1,4.82-7.64C112.33,189.46,110.78,188.71,109.43,187.56ZM162,327.49c-.31-3.81.51-7.36-1-9.75-3.42-5.33-8-10.09-12.37-15.36-1,1.06-2,1.67-2.22,2.45q-2.19,7.62-4,15.32c-.13.56.72,1.73,1.4,1.94C149.46,323.87,155.18,325.49,162,327.49ZM412,85.71c0,.63,0,1.25,0,1.88L398.15,98.38v.9c6.67,0,13.35.09,20-.09a4.09,4.09,0,0,0,2.64-2.09,85.26,85.26,0,0,0,3.94-8.87c.35-.91.48-2.36-.1-3a72,72,0,0,0-5.85-5.17L412,85l4.94,5-1.22,1Q413.82,88.36,412,85.71Zm32.57,46.7c-.47,5.3-.87,9.72-1.3,14.58,6.57.92,12.88,1.89,19.22,2.59a3.54,3.54,0,0,0,2.62-1.83,68.63,68.63,0,0,0,2-7.73c0-.05-.44-.21-.68-.29ZM258.38,212.93l.42-1.18c1.78.63,3.52,1.35,5.33,1.88,3.28,1,5.78-.46,5.3-3.34-.54-3.3-1.86-6.51-3-10.19l-5.82,3-2.12-2.39c-3,2.9-5.57,5.62-8.42,8.15-1.81,1.6-1.19,2.7-.11,4.43,3,4.85,8.63,5.52,13.81,6.95s6,1,5.79-3.71a5.44,5.44,0,0,0-.18-1.18Zm122.8,35c5.23,2.07,10,4,14.8,5.77a3.81,3.81,0,0,0,3.08-.41c2.82-3.07,5.38-6.32,8.24-9.76l-19.52-8.58ZM242.27,305.07c-6.7-1.18-9.3-5.06-9.46-10.32-4.56,1.07-8.56,2-12.51,3-.58.15-1.06.94-1.32,1.53a21.56,21.56,0,0,0-1.85,4.87,3,3,0,0,0,1.18,2.72c5.92,2.69,12,5.18,18.31,7.88ZM423.9,349.84c3.4-5,6.47-9.46,9.75-14.26l-14.44-7L409.1,343.66ZM59.72,123.5c6.56-.81,11.18-3.62,14.36-8.25-9.17-12-25.16-7.64-31.68-.55,3.88,5.45,8,.25,12.2.16Zm148-74.95a70.47,70.47,0,0,0,7.7-2.35c.86-.36,1.8-2,1.55-2.7-2.1-6.14-4.43-12.23-6.83-18.29-.31-.77-1.55-1.88-2.26-1.82-3.31.27-6.59.9-10.19,1.44,3.14,7.78,6.06,15,9,22.23A10.82,10.82,0,0,0,207.74,48.55ZM180.56,200c10.5.62,10.87.32,10.6-7.93,0-.68,0-1.37-.09-2.05-.46-4.72-.94-9.44-1.43-14.4l-11.88,1.17C178.71,184.71,179.62,192.28,180.56,200ZM334.66,155c3.17-2,6-3.6,8.62-5.44a2.47,2.47,0,0,0,.66-2.38c-2.92-8-7.94-14.87-14.66-21.2a36.8,36.8,0,0,1-3.45,3.62c-2.52,2-2.66,3.89-.27,6.08,3.95,3.6,5.68,8.15,6.95,12.88C333,150.49,333.81,152.42,334.66,155Zm131,61.46,3.13-5.22L456.39,204l.32-.46,4.39,1.68c1-2,1.95-3.82,3-5.88l-14.8-6.92-7.41,13.12C452.09,205.92,458,212.2,465.64,216.41ZM140.87,171.69a85,85,0,0,0-.11-8.53,3.12,3.12,0,0,0-2.4-1.82q-11.19.51-22.35,1.5a3,3,0,0,0-1.78,2.47,25.44,25.44,0,0,0,2.2,6.19,2.94,2.94,0,0,0,2.22,1.27C125.85,172.5,133,172.09,140.87,171.69ZM306,301.37l-14.11-6-8.3,15.82,14.2,5.57ZM192.26,21.73v-.94c-1.27-.55-2.54-1.11-3.82-1.64C179.29,15.41,170.15,11.65,161,8c-.78-.31-2.5-.11-2.86.37a2.78,2.78,0,0,0-.24,2.83c3.4,4.22,7,8.31,10.62,12.39a3.25,3.25,0,0,0,2.19,1.12C177.88,23.79,185.07,22.75,192.26,21.73ZM40.61,255.15c1.81,2,3.93,2.07,6.51.84,2.76-1.33,5.73-2.33,8.51-3.64.93-.43,2.26-1.41,2.2-2.06-.51-5.77-1.29-11.51-2-17.26l-1.21-.72c-2.68,1.78-6.61,3.08-7.79,5.42C44.08,243.24,42.63,249.25,40.61,255.15ZM89.2,109.66c-6.56-6.85-10.13-15.18-20.45-18.9,0,4.24.41,8.13-.1,11.93-.69,5.19,1.47,8.78,6.34,11.11Zm176.46,194.5,14,5.52L288,293.77c-4.09-1.7-7.59-3.27-11.21-4.56-.81-.29-2.7.14-3,.72C271,294.45,268.49,299.09,265.66,304.16ZM95.32,238.33C92,245.94,89,252.7,86,259.75c4.28,1.08,8,2.15,11.81,2.89a3.57,3.57,0,0,0,2.92-1.28,104,104,0,0,0,4.12-9.61,2.52,2.52,0,0,0-.24-2.24C101.76,246,98.8,242.49,95.32,238.33ZM305.7,197.68l-14,6.94c3,3.3,5.5,6.4,8.51,9,1.17,1,4,1.86,5.28,1.33,4.73-2,9.12-4.61,13.79-7.06ZM44.83,99.77c.57-.75,2.06-1.8,2.06-2.85,0-7.48-.25-15-.45-23.11-4.56,2-8.1,3.39-11.55,5-.66.3-1.42,1.23-1.35,1.79C34.46,87.93,34.37,95.73,44.83,99.77ZM402.76,268.12c-1.89,3.71-3.61,6.9-5.09,10.17a2.25,2.25,0,0,0,.82,2.22c5.8,2.64,11.69,5.11,17.89,7.78l5.41-8.91ZM270.08,35.72c.71-4.86,1.42-9.12,1.87-13.4a3.16,3.16,0,0,0-1.4-2.5,57.43,57.43,0,0,0-7.7-4.14,3.58,3.58,0,0,0-3.07.62c-2.79,4-5.32,8.1-8.19,12.58ZM110.2,149.77,90.06,152v11.51l22.16-1.45C111.52,157.84,110.9,154.06,110.2,149.77ZM254.52,76.61c-9.19-3.68-17.87-7.27-26.7-10.54-1.5-.56-3.8,0-5.44.63-.46.18,0,2.44.27,3.69a3.11,3.11,0,0,0,1.5,1.91c9.08,4.08,18.21,8.09,27.69,12.27C252.79,81.74,253.59,79.36,254.52,76.61ZM171.7,28.39c3.5,4,6.34,7.4,9.44,10.62a3.94,3.94,0,0,0,3.23.52c4.44-1.7,8.83-3.52,13-5.59a3.71,3.71,0,0,0,1.49-3.12A7,7,0,0,0,197.36,27a4.33,4.33,0,0,0-3.07-1.62C187,26.21,179.8,27.28,171.7,28.39Zm191.41,59.9L343,111l11.18,5c4-7.69,7.72-15,11.76-22.2C367.57,90.86,366.78,89.34,363.11,88.29ZM206.35,48.93l-6.16-15L183,41.34c3.27,3.72,6.07,7,9.05,10.19a3.44,3.44,0,0,0,2.67.78C198.5,51.35,202.17,50.18,206.35,48.93ZM139.43,160.19l-.23-.68c-.11,0-.23-.13-.34-.12-.65.07-1.29.15-1.94.25-4.79.68-5.38.27-5.91-3.95-.32-2.57-.7-5.15-1.1-8.06-3.73.38-7.07.79-10.42,1.06-8,.67-8,.64-7.17,7.33.7,5.84.7,5.83,7.24,5.55,1.31,0,2.63,0,3.94-.1C128.81,161.06,134.12,160.62,139.43,160.19ZM303.91,12.33,291.2,29.74a75,75,0,0,0,7.7,4.1c1,.39,3.16.06,3.73-.62A57.76,57.76,0,0,0,309.36,24C313.94,15.56,314.61,17,303.91,12.33Zm-250,214c-1-4.12-2-8.33-3.09-12.89-3.59.82-6.77,1.48-9.88,2.3-.92.24-2.15.79-2.42,1.45a86.51,86.51,0,0,0-3.31,9.52c-.19.66.53,1.73,1.19,2.3,1.48,1.28,3.18,2.36,4.5,3.31ZM378.38,78c3.34,3.21,6.18,6,9.21,8.73a3.5,3.5,0,0,0,2.88.51c4-2.87,7.85-5.93,12-9.1l-12.26-9.87Zm19.76,53c2.81,1.28,5.05,2.51,7.46,3.34,4.61,1.61,7.31.4,8.82-3.65,1-2.72,2.16-5.4,3-8.16.24-.8,0-2.29-.64-2.63-3.17-1.73-6.54-3.19-10.18-4.91ZM127.59,209.83c-10.87,1.29-21,2.61-31.1,3.63-6,.6-6.56.88-5.94,6.69l39.38-3.87Zm198-131.74c-4.05,5.39-7.83,10.42-11.84,15.74l11.71,7.09,11-16.08-4-2.32-10.07,11.6-.73-.51,9.85-11.75Zm53,32.71c2-4,3.75-7.48,5.58-11.13l-15.77-8.52c-2,3.84-3.95,7.33-5.61,10.91-.26.57.46,2,1.16,2.32C368.56,106.54,373.3,108.52,378.58,110.8ZM92.87,280.18c2.32-5.51,4.45-10.59,6.73-16-4.27-1.08-8-2.16-11.8-2.86a4,4,0,0,0-3.14,1.57,70.39,70.39,0,0,0-4.33,9.9,3.3,3.3,0,0,0,1.57,3C85.22,277.4,88.78,278.6,92.87,280.18ZM21.29,317.87c-1.2,4.84-2.36,9.16-3.27,13.53a2.72,2.72,0,0,0,1.21,2.41A73.18,73.18,0,0,0,26,336.53l13.67-15.11ZM322.05,133.73c-1.91,2-3.79,3.82-5.31,5.8a3.34,3.34,0,0,0-.48,3q3.32,6.6,7.14,13a4.07,4.07,0,0,0,3,1.25,16.5,16.5,0,0,0,5-.93c.73-.24,1.76-1.32,1.63-1.8C330.94,146.79,329.46,139.26,322.05,133.73Zm-177.29,164L130,280l-8.66,16.16c5.53,1.28,10.38,2.25,15.11,3.54A7.9,7.9,0,0,0,144.76,297.73Zm189.78-272a10.34,10.34,0,0,0,1.33,1.07c3.86,1.95,7.72,3.9,11.6,5.81,5.56,2.74,6.57,2.41,9-2.86a12.43,12.43,0,0,0,1.1-3.28,2.27,2.27,0,0,0-.75-2c-4.53-2.7-9.16-5.28-14-8ZM306.92,301.79l-8.08,15.42c2.59,1,4.65,2.13,6.88,2.49,1.75.28,5.11-.08,5.32-.74,1-3.3,4-4.18,6.93-5.54,2.58-1.22,3.6-5.39,1.78-6.22C315.7,305.34,311.52,303.71,306.92,301.79Zm109-12.64-19.52-8.41-5.2,10.5,19.29,6.9ZM70.86,35.71,82.37,54.1l10-4.39C88.13,43.37,84.13,37.39,80,31.19ZM264.11,62.63c6.27,1.21,12.63,2.49,19,3.62a3.34,3.34,0,0,0,2.64-.86c1.65-2.4,3-5,4.41-7.33-.62-.49-.78-.74-1-.78q-6.74-1.22-13.49-2.4c-10-1.74-10-1.74-11.92,6.85C263.76,61.83,263.85,62,264.11,62.63Zm31.7,216.26-13.22-5.11-7.53,13.52,13.39,5.61Zm-121.4-25.26c.67,6.14,1.35,12.36,2.08,19L188.1,271c-.4-3.72-.61-7.13-1.15-10.5-1.38-8.63-1.43-8.62-11.57-7.42A6.25,6.25,0,0,0,174.41,253.63Zm110.24,2.07c3.37,3.37,6.16,6.42,9.27,9.18,2.62,2.34,4.13,4.59,2,7.82-.34.51.3,1.51.49,2.28.78-.41,1.89-.65,2.29-1.25,1.88-2.88,3.64-5.83,5.29-8.82a3,3,0,0,0,.31-2.56c-2.36-4.29-4.92-8.5-7.6-13ZM293.82,274c1.08-2.5,3.45-4.38.9-6.87-3.16-3.07-6.2-6.23-9.4-9.26-.6-.57-2-1.25-2.51-1-4.59,2.23-9.05,4.66-14.2,7.37Zm-187-150.77c-.69-1.66-.76-3.16-1.63-3.7-7.44-4.65-14.68-10.53-24.81-4.94-1.15.64-3.11,2-2.93,2.35,1,1.84,2.3,4.8,3.83,5C89.43,122.75,97.69,122.86,106.8,123.26ZM369.35,326.92l19,8,8.27-13.75c-7.46.32-14.07.76-20.69.83C372.12,322,370,323.27,369.35,326.92ZM42.48,52.3c-2.89,2.3-6.72,3.88-7.31,6.11C33.8,63.56,34,69,33.49,75.17l16.73-7.23ZM268,43.2a27.14,27.14,0,0,0,1.42-4.77A2.77,2.77,0,0,0,268,36.09c-4.88-2-9.85-3.81-14.84-5.58-.71-.25-2.2-.23-2.45.13-2.54,3.63-4.89,7.36-7.28,11Zm-100,.29c3.38,4.4,6.26,8.23,9.28,12a3.34,3.34,0,0,0,2.42,1.18c4-1,7.86-2.17,12.3-3.44-4-4.63-7.47-8.68-11.09-12.6a3.73,3.73,0,0,0-3-.73C174.77,40.86,171.7,42.13,168,43.49ZM158,47.1,142.3,53c3.17,3.79,5.82,7.06,8.64,10.22a3.7,3.7,0,0,0,2.74,1.17c3.39-.78,6.69-1.87,10.43-3C162.05,56.58,160.14,52.13,158,47.1ZM464.71,198.56c2-3.59,3.79-6.75,5.37-10a2.25,2.25,0,0,0-.78-2.23c-3.8-2.42-7.73-4.68-12.06-7.26l-7.39,12.48ZM452,272.61l-9.49-6.22-11.19,17.45,8.77,5.17Zm33-32.2c5.14-6.77,5.14-6.77-1.51-11.09l-4.42-2.87-11.8-7.6a45,45,0,0,0-3.27,5.23,2.55,2.55,0,0,0,.51,2.56C471.16,231.25,478,235.72,485,240.41ZM160.1,75.37c5.19,2.17,9.3,4.4,14.7,2.56,4.49-1.54,9.25-2.51,13.87-3.77,1.17-.32,2.28-.8,3.65-1.29-1.45-3-2.69-5.62-4.12-8.63ZM205,92.05l25.77,5.36c-1.86-5.41-3.24-9.54-4.74-13.63-.18-.49-1.22-1.21-1.59-1.11C217.75,84.54,209.91,84.5,205,92.05Zm66.84,120,17-6.89c-2-2.19-3.39-3.86-5-5.36-8-7.67-4.82-6.71-14.39-1.61-2,1.05-2.19,2.17-1.39,4C269.41,205.17,270.44,208.3,271.84,212Zm-45.13,26.62a28.9,28.9,0,0,0-3.43-.2c-6.16.36-12.33.65-18.47,1.2-7.57.68-7.56.78-6,7.31,0,.19.31.33.75.76,5.52-.29,11.28-.62,17-.9C223.27,246.49,225,245.14,226.71,238.65Zm21-26.58c-2,.89-3.62,1.29-4.64,2.22-.75.67-1.22,2.78-.87,3,4.12,2.33,4.47,6.37,5.84,9.79s3.39,5.89,7.23,7.07c1.22.38,3.58.59,3.89.12,1.17-1.81,3.09-4.68,2.27-5.8C257.33,222.78,252.43,217.53,247.74,212.07ZM432.58,21.52l9.88-12.85-11.24-7c-3.45,4.33-6.66,8.35-10.09,12.67ZM154,69.39c.16,4.5,2.44,6.33,5.82,5q13-4.94,25.86-10.32a2.88,2.88,0,0,0,1-2.92,3.6,3.6,0,0,0-3-1.51C174.41,62.23,165.18,65,156,67.75,155,68,154.35,69.07,154,69.39Zm-38.19,104c-1.11-3.22-2.06-6.17-3.19-9.06a2.22,2.22,0,0,0-1.71-1.06c-5.72.25-11.44.62-16.54.92,1.65,4.47,3.16,8.58,4.76,12.9Zm18.31-63.49a38.18,38.18,0,0,1-2-4.29c-.84-2.72-2.52-3.16-5.53-2.34-5.38,1.47-10.89,2.55-16.34,3.82-4.37,1-5.69,3.26-3.83,6.9a3.24,3.24,0,0,0,2.62,1.16C117.22,113.54,125.34,111.77,134.11,109.9ZM373,156.5c7.64,3.13,14.86,6.11,22.12,9,.58.23,1.54-.26,2.32-.41-.38-.63-.6-1.44-1.18-1.85-1.7-1.18-4.84-2.06-5-3.34-.25-1.67,1.76-3.61,2.81-5.43.17-.3.45-.57.6-.88.87-1.87-.36-2.13-2.1-2.18a22,22,0,0,1-5.67-.49c-3.05-.94-5.92-2.32-9.24-3.66ZM280.2,75.05l-18.46-7.31c-1,3.11-2.07,5.69-2.71,8.34a2.77,2.77,0,0,0,1.2,2.51c4.48,2.28,9.1,4.34,13.95,6.61Zm56.05,154A18.32,18.32,0,0,0,334,232.7c-.26.88-.06,2.6.46,2.78,4.53,1.55,3.7,4,1.79,6.71a9.75,9.75,0,0,0-.81,2.4l11,4.56c1.82-3.43,3.59-6.49,5-9.66a2.78,2.78,0,0,0-1.06-2.71C346,234.17,341.34,231.78,336.25,229Zm28.1,13.45-6,11.42,15.76,5.41,5.5-10.93Zm64.55-46.86-19.19-3.2c-.88,2.84-1.78,5.33-2.35,7.87-.12.53.85,1.66,1.55,1.85,5.61,1.52,11.28,2.89,17.4,4.42C427.17,202.89,428,199.57,428.9,195.62ZM409.66,299.44c-.65-.54-.8-.76-1-.84q-6.72-2.48-13.47-4.91c-5.65-2.05-9.7,0-10.75,5.68,6.68,2.63,13.45,5.3,20.49,8.09ZM189.25,270.92l11-1.43c-.69-5.69-1.27-11-2.06-16.33-.09-.56-1.39-1.41-2.1-1.39-3,.08-5.91.45-9.08.73C187.75,258.73,188.46,264.52,189.25,270.92Zm31.62-54.33c-1.63,0-3.32-.09-5,0-9.19.59-18.38,1.28-27.58,1.82-6.15.37-6.27.43-4.18,5.77,1.62,0,3.33.12,5,0,9.29-.83,18.56-1.76,27.85-2.6C221.82,221.13,221.89,221.12,220.87,216.59ZM122.4,147.32c5.9-.6,11.62-1.12,17.31-1.82.76-.09,2-1.1,1.95-1.6-.41-3.9-1.09-7.78-1.76-12.16-4.58,2.11-8.44,4-12.39,5.69C120.94,140.26,120.88,140.28,122.4,147.32ZM401.62,314.83l21.61-1.8c-.42-2.18-.67-3.86-1.09-5.52-1-4-5.13-7.26-9.84-7.6a3,3,0,0,0-2.15,1C407.44,305.16,404.86,309.49,401.62,314.83ZM343.43,89.39c-.92-.68-1.65-1.16-2.29-1.72-2.71-2.38-4.49-1.75-6.19,1.07-2.21,3.65-4.91,7.08-7.13,10.72a2.89,2.89,0,0,0,.41,3c2.61,1.89,5.54,3.44,8.63,5.29l7-7.69-5.66-3.93Zm19.28,192.34c-3.68-1.42-6.89-2.69-10.12-3.9-9.16-3.43-9.2-3.43-13.11,4.42-.46.93-.86,2.74-.41,3,1.27.75,3.25,1.55,4.51,1.18,4.41-1.27,8.21-.34,12,1.47A26.82,26.82,0,0,0,359,289C360.2,286.57,361.32,284.4,362.71,281.73ZM379,307.07a37.52,37.52,0,0,0,2.44-5.53,2.75,2.75,0,0,0-1.07-2.62c-6.36-2.69-12.83-5.19-19.65-7.9-1.36,2.58-2.58,4.89-3.91,7.43ZM156.22,284.8l-13.39,4.28c6,7.13,11.48,13.75,17,20.37l1.48-.6C159.66,301.06,158,293.27,156.22,284.8Zm161.62-51.17c1.75-2.66,3-4.9,4.59-6.93,2.15-2.76,2.18-4.82-1.6-6.5a32.75,32.75,0,0,1-5.43-3.4c-2.87-2-5.63-3.83-9.21-.9-.68.56-2.11.42-3.58.66ZM337.72,128a21.16,21.16,0,0,0,1.54-1.94c2.23-3.59,5.11-3.2,8.8-1.58,7.05,3.1,14.3,5.87,21.53,8.66.78.3,2-.21,3-.35-.38-.71-.54-1.78-1.17-2.07-10.84-5-21.73-9.84-32.52-14.69C331.37,122,331.22,123.19,337.72,128ZM75.5,151c1.5.11,2.28.21,3,.22a39.25,39.25,0,0,0,6.69-.07,4.14,4.14,0,0,0,2.82-2.28c.73-2.41.7-5,1.32-7.43.58-2.26.38-4.75-2.06-5.26-3.14-.65-6.63-.06-10,.09-.22,0-.53.76-.57,1.19C76.34,141.82,75.94,146.23,75.5,151Zm414.29-5.41c-7.87,1.12-13.56-3.86-20.78-4.51-1.18,2.93-2.32,5.79-3.64,9.07l24.42,3.35ZM180.22,318.34c-.5-4.79-1.07-10.3-1.65-15.8-16.46,1.39-14.33-1.32-13.14,10.35,0,.23-.05.54.09.67.63.59,1.23,1.41,2,1.63C171.55,316.29,175.62,317.22,180.22,318.34Zm-155.51-33c3.37,1.07,6.29,2,9.23,2.91,6.69,2,6.76,2,9.4-3.76.46-1,.72-2.8.09-3.31-3.63-2.91-7.57-5.54-11.83-8.57ZM136.61,222l4.59,12.23,19-7.57c-2.91-2.37-5-5.5-7.38-5.72C147.7,220.49,142.41,221.54,136.61,222ZM365,282.53l-3.82,7.66,21.31,8.36c2.24-3.49,1.57-8.82-1.06-9.86C376.23,286.62,370.91,284.72,365,282.53ZM181.59,114.75c7.92,2.06,8.58,2.15,11.74-2.33,2.2-3.14,3.38-6.81,5.26-10.73-3.93-.53-7.21-.72-10.32-1.47s-4.27.25-4.7,2.56C182.85,106.71,182.26,110.66,181.59,114.75ZM174.5,270.62l-19.34,1.6c1.42,3.86,2.64,7.17,3.84,10.41,2.81-.45,5.08-1,7.39-1.14,10.36-.79,10.36-.75,8.77-9.75A6.4,6.4,0,0,0,174.5,270.62Zm223.27-174c-2.71-1-4.71-1.72-6.61-2.58-1-.45-2.45-1.18-2.5-1.85-.47-6.49-7.35-8.61-11-13.58L370.51,88c6.27,3.24,11.93,6.36,17.82,9.12C390.88,98.3,393.9,99.16,397.77,96.59Zm-260.85-50c5.32-2.8,10.49-5.46,15.56-8.25a2.06,2.06,0,0,0,.75-2A59.65,59.65,0,0,0,150.81,31c-6,2-11.49,3.84-17,5.7-1.21.41-2.38.92-3.91,1.51ZM489.29,231.94c5.17-5.79,5.1-6.36-1.09-9.92-2.74-1.57-5.51-3.11-8.27-4.65-2.92-1.62-5.86-3.21-10.05-5.51-.29,3-1.52,6.08-.49,6.84C475.74,223.4,482.6,227.59,489.29,231.94Zm-28.4-7.64c1.52-2.45,2.82-4.52,4.26-6.83-3.73-2.43-7-5-10.71-6.85a61.14,61.14,0,0,0-10.74-3.85,3.73,3.73,0,0,0-3,1.28,2.63,2.63,0,0,0,.3,2.86C447.41,215.4,454,219.72,460.89,224.3Zm-278.2-93.08c-2.31.1-4.4.15-6.49.29s-4.45.47-6.68.61c-7.75.49-7.83.48-7.11,6.92.15,1.27,1.3,3.58,1.74,3.53,3-.3,6.62-.41,8.55-2,1.33-1.08,2.23-1.76,3.91-1.82C184.73,138.43,184.73,138.43,182.69,131.22ZM140.32,327.63c-1,3.75-1.89,6.94-2.6,10.16-.14.63.33,1.88.8,2,3.65.89,7.36,1.65,11.09,2.25.58.1,1.61-.67,2-1.25,1.88-2.6,3.61-5.27,5.6-8.23Zm73.21-121c-.81,3.05.08,4.14,3.28,3.85,6.94-.64,13.9-1.15,20.87-1.59,4.25-.27,6.3-2.72,8.42-5.74l-12-7.39-2.67,3.74,2.14,2.63c-1.72,3.67-4.56,5-8.83,4.57C221.11,206.39,217.41,206.64,213.53,206.64ZM332.62,26.32c-3.72-1.86-7.07-3.6-10.51-5.19a2.91,2.91,0,0,0-2.38.2c-2.88,2.6-5.6,5.33-8.71,8.35L323.23,37ZM231.36,154.21c-3.17.7-6.74,1.4-10.23,2.32-.72.19-1.69,1.26-1.62,1.85.44,3.92,1.12,7.83,1.88,12.71l15.68-8ZM442.8,316.87l-.18.91,18.31,9.14,8.77-14ZM77.57,243.4a44.07,44.07,0,0,0,2.16-5,4.71,4.71,0,0,1,4.88-3.68c3-.08,4.58-1.73,4-4s-2.23-4-5.73-3.4c-8,1.27-11.55,7.38-18.41,11.26ZM403.29,78.78c-4,3.08-7.64,5.91-11.35,8.63-1.88,1.38-3.69,3.53-1.67,4.81,2.47,1.56,7.08,3.22,9,2.23,4.22-2.16,7.34-6,11.08-9.24ZM192.23,183.14c5.23-.32,10.45-.71,15.69-.95,6.24-.28,6.12-.22,5.48-5.66-.28-2.41-1.4-3.13-4.06-2.78-3.76.51-7.54.95-11.33,1.16-8.24.48-7.68-.06-6.32,7.55C191.71,182.56,191.83,182.64,192.23,183.14ZM321.33,19.56c3.77,1.86,6.91,3.51,10.16,5a3.31,3.31,0,0,0,2.7-.15c2.59-2.66,5-5.48,7.65-8.54L329.37,8.77ZM430.46,283.3l11.19-17.51L434.16,261l-10.93,18.1Zm-238.1-92.56a6.26,6.26,0,0,0,.89.34c5.46.77,11.12-2,16.61.91.92.48,4.51-.94,4.89-2,.67-1.89.18-4.3-.58-6.27-.24-.62-2.89-.79-4.41-.73-4.73.19-9.44.78-14.16.85-3.38,0-4.52,1.21-3.9,4C191.93,188.8,192.15,189.81,192.36,190.74ZM7.49,102.06l.31,1,18.35,3.83V90.67C17.93,92.53,13.65,98.44,7.49,102.06Zm171,189.21c.42,3.59.77,6.66,1.15,10l17.47-1.77c.24-3.35.44-6,.67-9.11Zm201.56,16.17c6.26,2.45,12,4.77,17.76,6.85a3.86,3.86,0,0,0,3.21-.8,35,35,0,0,0,3.18-5.23l-20.75-8.2C382.26,302.7,381.26,304.89,380.08,307.44Zm-147.8-105.6L216,192c-4.14,4.27-4.65,8.69-2.43,13.73,4.13,0,8.2-.16,12.25,0C229,205.88,231.08,205,232.28,201.84ZM167,213.6c-.45-3.6-.87-6.92-1.34-10.64l-16,1.72a44,44,0,0,0,0,5.56c.4,2.77,1.7,4.73,5.61,4.27C159,214.07,162.82,213.91,167,213.6ZM87.7,292.79l9-6.43c-2.77-6.16-9.26-7-14.59-9.24-1-.43-3.48-.36-3.61,0-.64,1.58-1.6,3.86-.78,4.93C80.58,285.71,84.1,289,87.7,292.79Zm-.83-56.62L85.46,235c-1.51,1.09-3.79,1.92-4.4,3.32-4.67,10.56-9,21.24-13.47,31.86-.94,2.23,0,3.41,2.7,4.39Zm118.93,91c-1.73-2.7.49-6.45-3.79-6.61-5.9-.23-11.84.42-17.75.77-3.19.2-2.25,2.38-2.15,3.93s-.45,3.89,2.68,3.67C191.56,328.48,198.32,327.83,205.8,327.19ZM141.51,134.32c.45,3.27.72,6.22,1.37,9.09.13.62,1.69,1.49,2.5,1.42,4.28-.35,8.53-1,13.08-1.52-.31-3-.45-5.76-1-8.44a3,3,0,0,0-2.24-1.69C150.81,133.4,146.4,133.88,141.51,134.32ZM318,237.22l-1.28-.63c-1.71,9.55-10.77,10.33-19,12.34l7.89,13.36c4.69-7.89,9-15.05,13.15-22.3C319.14,239.34,318.3,238.16,318,237.22ZM177.12,57.06C174,53,171,49,167.88,45.1a3.2,3.2,0,0,0-2.59-.57c-2.07.58-4,1.47-6.18,2.3.85,2,1.54,3.74,2.27,5.43,4.1,9.46,4.1,9.46,14.92,5.44A6.35,6.35,0,0,0,177.12,57.06Zm9.2,97.08a6.79,6.79,0,0,0,.13-1.48c-.49-3.17-1.34-6.34-1.45-9.53-.13-3.46-1.69-4.29-5.45-3.7-5.74.89-5.78.72-5,6,.08.57.21,1.14.26,1.71.75,8.42.75,8.42,10.48,7.39A6,6,0,0,0,186.32,154.14ZM145.68,244.8c.73,6.29.92,6.41,7.06,5.87,2.35-.21,4.74-.24,7.1-.4,3.76-.27,7.51-.58,11.5-.89a27.36,27.36,0,0,0-.78-5.12,3,3,0,0,0-2.32-1.52C160.79,243.32,153.35,244.07,145.68,244.8ZM78.53,221.74c-7-3.55-12.91-6.67-19-9.56-1.08-.52-2.76-.07-4.56-.07,1.17,4.95,2.14,9.07,3.15,13.4Zm345.08-118.6c-.36.59-.58.78-.58,1-.07,4.58.18,9.18-.24,13.74-.3,3.1,1.08,4.74,4.2,5.53a12.29,12.29,0,0,0,3.09,0,15.48,15.48,0,0,0-.95-2.86c-.76-1.37-2.39-2.58-2.54-4-.73-6.73,2.57-9.64,10.53-8.65,3.91.49,6-.83,9.19-3.7C438.17,102.18,430.71,103.69,423.61,103.14Zm-339,156.29c.61-1.11,1.29-2.18,1.79-3.31,2.23-5,4.4-10,6.59-15,1.84-4.23,1.3-5.63-3.4-8.54-3.06,7.1-6.08,14.15-9.14,21.19C78.56,258,78.54,258,84.59,259.43ZM89,151.12c6.89-.75,12.87-1.32,18.81-2.14a2.76,2.76,0,0,0,1.73-2.25c-.31-1.44-1-3.75-2.11-4-5.36-1.2-10.88-1.85-16.86-2.77C90.15,143.22,89.64,146.87,89,151.12Zm19.3,127.06c1.57-1.1,3.87-2.61,6-4.26s1.33-5.69-1.38-6.49c-3.92-1.16-8-2-12.28-3L97,273.26Zm95.3,56.13H168.37c1,4.74,1.92,9,2.82,13.17l1,.45c.72-.8,1.87-1.53,2.08-2.42,1.29-5.49,5.75-8.59,12.09-8.1,3.54.27,7.08.55,10.6,1C202.34,339,202.69,338.81,203.64,334.31ZM357.73,227.76c-5.4-2-10.39-4-15.58-5.54-.81-.24-2.92,1.68-3.7,2.94-.63,1-.78,3.28-.09,3.7,4.59,2.8,9.45,5.25,14.57,8C354.63,233.64,356.09,230.88,357.73,227.76ZM143.22,146.12c.37,2.85.53,5.13,1,7.36.15.71,1.15,1.8,1.81,1.82,4.52.16,9.05.08,14,.08-.54-3.91-1-7.33-1.53-11.07Zm253.69,109-16.27-6.29c-1.93,3.82-3.62,7.19-5.32,10.56C385.67,262.91,390.5,262,396.91,255.1Zm-215.85,74c.33-9.41-6.31-14.54-14.78-12.28,0,3.15-.09,6.23.07,9.3,0,.71.88,1.91,1.48,2C172.21,328.52,176.63,328.75,181.06,329.06ZM487.52,106.32l-18.94,15.31,4.57,4.16c5-3.85,9.79-7.39,14.32-11.2C491.58,111.15,491.44,110.94,487.52,106.32ZM331.27,197c-.54-3.74-1-7.14-1.55-10.53-.1-.61-.65-1.64-1-1.65a4.44,4.44,0,0,0-2.27.86c-3.09,2.06-6,4.33-9.19,6.24-3,1.78-6.24,3.21-9.69,5l3.34,3.88C316.66,195.25,324.24,198.36,331.27,197ZM3.68,153.08a7.63,7.63,0,0,0,1.74.6c6.45.18,12.91.38,19.37.42A3,3,0,0,0,27,152.72a36.67,36.67,0,0,0,1.55-5.26c-6.37-.29-12.29-.38-18.15-.89-3.67-.32-5.34.94-5.93,3.87C4.34,151.22,4,152,3.68,153.08ZM338,84.56l12.73,7.8,6.8-7.77-13.73-8.47ZM480.58,313.65l-11.9,17.2,7.2,3.38c2.92-4.32,5.67-8.35,8.38-12.4C487.78,316.55,487.77,316.55,480.58,313.65ZM167.89,116.74c1.94,4.47,3.7,8.64,5.6,12.75a2.72,2.72,0,0,0,1.82,1c6.37,1.07,7.91-.27,6.75-5.78-.16-.79-.29-1.58-.38-2.37-.77-6.76-2.11-7.62-10-6.36C170.71,116.14,169.71,116.38,167.89,116.74ZM105.4,199.52c-3.63.32-6.61.49-9.55.91A3,3,0,0,0,93.7,202c-1,3.5-1.63,7.06-2.51,11.06,4.47-.43,8.34-.73,12.18-1.24.75-.1,1.91-1,1.94-1.62C105.5,206.78,105.4,203.39,105.4,199.52Zm99.32-33.09c.21,1.92.39,3.57.59,5.45a33.36,33.36,0,0,0,4.95-.33c.75-.16,1.9-1.12,1.84-1.62-.48-3.79-1.21-7.56-1.91-11.57-4.57.53-8.57,1.3-12.59,1.36-3.76.05-3.76,1.73-3.64,4.16.14,2.87,1.86,3,4.45,2.6A48.35,48.35,0,0,1,204.72,166.43Zm270.91,14.43-9.79,17.9a53.78,53.78,0,0,0,6,0c1.55-.2,3.81-.39,4.42-1.28a85,85,0,0,0,5.82-10.52,2.6,2.6,0,0,0-.6-2.61A54.24,54.24,0,0,0,475.63,180.86Zm-407-46.53H85.89c-1.25-1.61-2.2-2.67-2.93-3.84s-1.39-2.7-2.08-4.05c-1.66-3.27-6.09-5-9.92-3.69a2.23,2.23,0,0,0-1.39,1.38C69.16,127.48,68.91,130.85,68.6,134.33ZM379.4,26.09c1.35-2,2.72-3.78,3.78-5.72a2.12,2.12,0,0,0-.44-2.25c-4.65-2.5-9.41-4.82-14.53-7.39l-3.28,8.66ZM328.29,166.84l-4.5-8.21A7.77,7.77,0,0,0,313,156.18a2,2,0,0,0-.9,1.4c-.08,3,0,6.1,0,9.26Zm103.49-26c.37-3.27.79-6.09,1-8.93.34-5-1.59-6.87-7.88-7.46-.91,3-1.85,6.13-2.75,9.21-1.75,6-1,6.86,6.18,7.18C429.34,140.86,430.37,140.82,431.78,140.82ZM203.06,291.05c-4.42,8.75.62,10.47,12.42,14A66.29,66.29,0,0,0,218,298.7a2.53,2.53,0,0,0-1-2.42C212.38,294.41,207.69,292.76,203.06,291.05ZM14.51,304.31c2.76.51,4.77,1,6.81,1.19a3.13,3.13,0,0,0,2.47-1.06c2.3-5.29,4.4-10.64,6.67-16.27-2.77-.25-5.15-3.39-7.14-.15C20.2,293.13,17.62,298.5,14.51,304.31Zm439.22-6.1-13.29-7.82-5.87,8.13,12.92,7.29ZM181.88,116.52c.45,3.12.56,6,1.39,8.7.49,1.56-1.09,4.44,2.56,4.53,2.33.05,5,.1,6.92-.82,2.24-1.07,3.82-3.18,5.68-4.84C190.68,117.64,188.53,116.64,181.88,116.52ZM421.15,36.91,415.84,34,401.35,55.2c3-.59,4.73-1.08,6.52-1.26,3.93-.38,6.91-1.29,6.06-5.64-.16-.83.79-1.88,1.37-2.76C417.13,42.77,419,40,421.15,36.91Zm-90.67,178.7c-3.59,5.73-7,11.13-10.36,16.55-1.44,2.32-1.4,2.34,1,4.23l14.44-24.26c-11.44-4.53-17.81-4.11-23.15,1.32,1.94,2.47,4.12,2.08,6.17.23,2.56-2.3,5.05-2.4,7.85-.35A42.36,42.36,0,0,0,330.48,215.61Zm90-200.35c-2,2.54-3.86,4.74-5.47,7.07a2.09,2.09,0,0,0,.25,2.23c3.19,2.14,6.54,4.09,10.13,6.28,2.31-3,4.32-5.63,6.57-8.55ZM358.3,157.62l8.79-15.41A100.17,100.17,0,0,0,351,147.07a3.21,3.21,0,0,0-1.55,2.57C349.34,154.57,353.92,155.7,358.3,157.62ZM331.24,348.93l1.05.95c2.84-.93,5.92-1.51,8.45-2.88a25.83,25.83,0,0,1,11.7-3.53c.51,0,1-.43,2.31-1-5.73-2.21-10.71-4.16-15.75-6a2.52,2.52,0,0,0-2.06.36C335,340.81,333.12,344.88,331.24,348.93ZM16.41,332.77c1.17-4.63,2.05-8.67,3.25-12.64.63-2.06-.38-3-2.34-3-2.22,0-5.16-2.74-6.62.95-1.24,3.14-2.43,6.3-3.4,9.5a2.56,2.56,0,0,0,1,2.47C10.68,331.1,13.32,331.78,16.41,332.77ZM415.09,52.06c8.57.95,12.66-3.72,16.59-9.17l-9.87-5.59C419.67,42.64,413.68,46,415.09,52.06ZM175.91,346.59c7.09-1,14.16-2.22,21.29-2.92,3.09-.3,4-1.32,3.92-4.14-6.15-.42-12.13-1.09-18.12-1.16C178.87,338.32,174.75,343.51,175.91,346.59ZM411.05,187.42c4.16.84,7.7,1.64,11.28,2.2.74.12,2.24-.48,2.39-1a45.79,45.79,0,0,0,1.63-7.37c.08-.53-.73-1.53-1.36-1.71-3.43-1-6.93-1.78-10.8-2.74C413.11,180.47,412.14,183.73,411.05,187.42ZM106.2,251.35l-5,12c1.81.55,3.26,1,4.72,1.42,4.6,1.29,10.56.8,11.09,7.39,1.68-1.27,2.72-2.07,4-3Zm183-221.57-15.55-8.39c-.32,1.42-.52,2.28-.72,3.14-1.49,6.57-1.49,6.57,5.46,9.39s7,2.84,10.69-3.23A4.57,4.57,0,0,0,289.17,29.78ZM199.36,251.57c.15,2.09,0,3.85.51,5.43a4.08,4.08,0,0,0,2.7,2.22c3.27.54,6.64.68,10.38,1,1.61-2.91,3.41-6.13,5.47-9.86Zm146.27-101-1.35-.36-9,5.55c4.28,10,7.29,13.41,12.19,13.41C346.84,163,346.24,156.77,345.63,150.58Zm-148.7,81a33,33,0,0,0,.49,5.63,3,3,0,0,0,2.22,1.73c4.59-.2,9.2-.45,13.74-1.09,4.14-.58,2-3.66,2.19-5.63.07-.59-1.71-2-2.57-1.93C207.79,230.56,202.59,231.11,196.93,231.6ZM387.39,58c-4.44,5.65-8.51,10.84-12.73,16.23l3.1,2.9L395,62.88ZM346.13,251.47c-1.18,3.11-3.34,5.86-2.84,8.18a13.52,13.52,0,0,1-1.59,10.44c-.39.65.13,1.71.24,2.58a16.75,16.75,0,0,0,2.25-1.8c2-2.2,3.38-5,5.85-6.56,3.71-2.31,4.69-5.46,6-8.92Zm86.79-228.6-6.61,8.56c3.76,2.29,7.16,4.36,10.76,6.57l7.59-7.79ZM160.8,30.1c2.11,3.87,4,7.49,6.08,11a3,3,0,0,0,2.5.75c3.06-1,6-2.18,9-3.3C174.07,29.81,170.7,28.12,160.8,30.1ZM444.66,198.3l-13.34-2.2c-.5,2.2-.89,3.87-1.26,5.54-1.45,6.53-2.31,5.08,5.2,7.21,2.2.63,3.68.37,4.65-1.75C441.16,204.35,442.79,201.73,444.66,198.3Zm16.72,129.84c3.06.33,6.5,1.38,7.08.67,4.11-5.09,7.64-10.54,11.37-15.88-3.82-1.87-7.84-1.36-9.47,1.08C467.52,318.24,464.89,322.59,461.38,328.14ZM185.15,98.83c4.54.61,8.5,1.2,12.48,1.63a2.27,2.27,0,0,0,1.74-1c1-2.16,1.9-4.39,2.92-6.82l-12.74-4.34Zm145.48,85.68c.43,3.32.79,6.13,1.15,8.93.08.57-.06,1.32.3,1.67.91.86,2,2.1,3.1,2.2,5.6.52,5.62.41,7.38-5.41,1.67-5.49.17-7.2-6.55-7.38C334.45,184.48,332.89,184.51,330.63,184.51Zm-47.72,71-18.68-18.6c-.72,2.21-2,3.94-1.41,4.68,4.26,5.84,8.87,11.5,13.53,17.41Zm80.41-13.32-9.86-3.88c-2,3.89-3.9,7.47-5.93,11.34l9.81,3.83ZM254.61,74.86c-2-4.82-3.83-9.39-5.83-13.91a2.55,2.55,0,0,0-2.09-.93c-2.6.57-5.13,1.39-7.61,2.09C240.74,70.46,244.3,73.4,254.61,74.86Zm57.09,99.83c11.71-1.07,23.28-5,35.19-.21a4,4,0,0,0-2.14-2.9c-9.17-3.21-18.83-2.51-28.4-2.5C311.1,169.08,310.93,169.28,311.7,174.69Zm148.6,50.44L439.39,211.2c-3.37,4-3.7,4.89-1.72,6.08,6.47,3.88,13.06,7.62,19.86,11.55ZM129.05,100.55c-.43-4-2.44-4.88-6.2-4-4.16,1-8.45,1.54-12.67,2.32-6.26,1.16-6.32,1.26-4.24,7Zm33.67,76.89-14.83,1.9.58,8.64,15.11-1.73C163.29,183.25,163,180.67,162.72,177.44ZM82.91,297.78c-3.43,1.85-6.51,3.38-9.42,5.12-2.3,1.38-2.24,4,.11,4.58,5.63,1.37,11.37,2.45,17.93,3.83ZM283.53,88.65c2-6.11,4-11.8,5.7-17.54.2-.68-.92-1.91-1.78-2.47a2.89,2.89,0,0,0-2.46.61c-3.29,5.3-6.41,10.67-9.7,16.23,1.93.82,3.31,1.45,4.74,2C281,87.86,282,88.13,283.53,88.65Zm30.25,152.89c-4-2.28-7.36-4.18-10.73-6-.16-.09-.87.44-1.21.77a50.78,50.78,0,0,0-5.94,6c-.66.89-.3,2.77.36,3.85a4.19,4.19,0,0,0,3.37,1.22,65.33,65.33,0,0,0,9.84-2.49C310.86,244.38,311.87,243.06,313.78,241.54ZM274.9,318.72c1.51-3,2.81-5.48,4.22-8.21l-14-5.46c-1.39,2.54-2.55,4.67-3.88,7.09Zm57.69-250-6.44,8.56L337.07,84c2.09-3.07,3.86-5.69,5.73-8.46ZM353,340.63c-2.15-5.57-3.88-10.2-5.75-14.78-.33-.81-1.4-2.08-1.9-2a5.11,5.11,0,0,0-3.28,1.67,45,45,0,0,0-3.51,7.6,2.48,2.48,0,0,0,1,2.38C343.66,337.21,347.87,338.7,353,340.63ZM263.35,112.38c4.4-2.72,8.33-5,12-7.55,1-.68,1.92-2.34,1.61-3.22s-2.2-1.48-3.5-1.67c-5.43-.79-9.92,1.25-14.38,3.86C260.48,106.56,261.77,109.17,263.35,112.38ZM217.22,222.52V229c4.59-.29,8.78-.46,12.94-.85,4.73-.44,7.05-2.76,7.58-7.51ZM486.38,28.46,471.87,17.23c-1.9,2-3.51,3.75-5.32,5.7,3.85,2.56,7.29,4.83,10.71,7.12C482.4,33.49,482.39,33.5,486.38,28.46ZM222.54,178c-6.72,3.07-7,3.44-6.44,9,.07.68.18,1.37.19,2.05,0,3.25,3.15,4,5.68,4.88,2.06.69,5.84-2.49,5.24-4.1C225.77,186,224.16,182.13,222.54,178Zm-12.07,20.54-13.83,1.22-1.17.12c-3.55.45-2.16,2.82-2.31,4.56-.16,1.91.92,2.7,3.11,2.48,2.74-.26,5.48-.52,8.23-.62C212.48,206.05,212.72,205.8,210.47,198.58Zm110.16,129.8,16.05,6.05,5-11C334.32,325.41,326.73,322.21,320.63,328.38Zm-37.52-16.3-5.27,10.11,23.73-1.8.16-1ZM172.73,130.81c-1.8-4.2-3.28-8-5.08-11.59-.41-.83-2.33-2-2.82-1.73-1.75.81-4.38,2-4.51,3.29-.32,3,.45,6.14,1.07,9.18a3,3,0,0,0,2.26,1.61C166.37,131.54,169.1,131.15,172.73,130.81ZM339.16,291.6l15.39,6,3.65-7.1C349.37,285.22,341,285.67,339.16,291.6ZM469.74,139.33c7.13,3.75,15.87,5.9,18.63,4.21l-14.67-14.2C472.14,133.25,470.93,136.32,469.74,139.33ZM138.05,47.15l-.35,1.4c1.89,1,4.08,3,5.62,2.71,4.17-.86,8.1-2.66,12-4.27.77-.32,1.67-1.62,1.49-2.25a47.52,47.52,0,0,0-2.63-6.05Zm234.1,88.5c-2.89,5-5.83,10.12-8.66,15.24a1.59,1.59,0,0,0,.43,1.67,2.32,2.32,0,0,0,2-.07c2.42-2.79,3-8.24,9.55-4.67.08,0,.25,0,.37-.08C381.58,137.75,381.89,139.29,372.15,135.65ZM461.56,29.57l14.34,9,5.22-4.76c-5.22-3.45-10.05-6.66-15.19-10.07Zm-266.4,195c1.21,2.42,2.07,5.66,3,5.66,5.79,0,11.59-.63,17.66-1.09-.14-2.48-.24-4.33-.36-6.43ZM84.25,260.92c-5.58-2.54-5.82-2.47-7.7,1.87q-2,4.63-4,9.29c-1.86,4.33-1.56,5,3.49,7.51ZM49.68,209.75c.35-2.81-1-3.39-3.49-3-6.34,1-12.7,1.89-19,2.93-5.22.87-5.21.94-3.83,6.18ZM202.5,278.26l.87.08,8.43-16.12c-3.22-2.6-7-2.74-10.44-1.7-.77.23-.29,3.62-.37,5.56a9.91,9.91,0,0,0,.08,1.72C201.53,271.29,202,274.77,202.5,278.26ZM165.66,202c-.37-2.59-.66-4.69-1-7.22-3.87.29-7.47.61-11.07.83-4.62.27-5,.6-4.49,4.46.14,1.1.46,2.18.77,3.6ZM467,307.06l.23-.86-12.7-7.45-9.29,11.61Zm-247-10.86c-.07-3,.81-6.22-.34-6.91-4.12-2.47-8.92-4.08-13.81-6.15a41.18,41.18,0,0,0-2.2,5.17,2.32,2.32,0,0,0,1,2.17C209.26,292.32,214,294,220.05,296.2ZM148,170.75l13.69-1.18c-.38-2.81-.7-5.25-1-7.76H148Zm106.77,153c6.3-.41,11.52-.67,16.72-1.18a3.42,3.42,0,0,0,2.22-2c.19-.47-.68-1.6-1.4-2-3.69-1.89-7.49-3.62-11.58-5.57ZM176.06,161.28c.29,6.88.29,6.87,7.14,6.48,1.31-.07,2.63-.06,3.94-.19,6.88-.7,6.94-.79,5-7.26Zm267.31-152c-1.36,1.73-2.56,2.87-3.18,4.2-.37.79-.25,2.35.37,2.78,3.45,2.39,7.11,4.54,11,7l5.22-5.52ZM474.85,39.1,461,30.42l-4.31,6c2.64,1.66,5,3.14,7.3,4.59C469.9,44.63,470,44.61,474.85,39.1ZM284.63,67.5c-7-1.29-13.23-2.51-19.51-3.53a3.21,3.21,0,0,0-2.46,1.31c-.27.43.39,1.8,1,2.06,5.52,2.33,11.12,4.5,17,6.82Zm-85.36,56.75c-3.39,5.37-8.54,6.88-15.05,6.63l1.11,7.12a30.42,30.42,0,0,0,5.13-.07c1.08-.21,2.87-1.17,2.82-1.66-.36-3.13,2.22-3.48,4.58-4.16,2.18-.62,4.34-1.29,7-2.1ZM217,237.13c9.9,1.75,14.65-.78,15.59-8.32L217,230.08ZM267.26,6.28,262,13.94l10.76,5.84,5.48-7.52Zm16.08,85.18c-1.2,2.62-2.49,5.29-3.6,8-.16.41.39,1.39.9,1.6,2.76,1.18,5.6,2.21,8.34,3.25,6-8.6,5.92-8.86-3.78-12.42C284.84,91.78,284.45,91.72,283.34,91.46ZM210.19,197.54c-1-5-2.49-6.18-7.3-6a52.31,52.31,0,0,0-8.61.78c-.85.17-1.86,1.95-1.78,2.93.12,1.35,1.27,3.8,1.86,3.77C199.65,198.77,204.91,198.09,210.19,197.54ZM439.11,39.3l9.69,5.89c2.22-3,4.15-5.7,6.26-8.58l-8.33-5.17Zm35.72,140.89-13.4-8a27.44,27.44,0,0,0-2.65,4.35,2.56,2.56,0,0,0,.56,2.54c3.76,2.43,7.68,4.66,11.94,7.18ZM134.76,23c-1.5.67-2.57,1.09-3.56,1.61-2.79,1.48-5.55,3-9.27,5,2.46,1.82,4.63,4.68,6.46,4.52,3.84-.33,7.49-2.24,11.58-3.62C138.08,27.84,136.53,25.61,134.76,23ZM299,92.52c9,1.91,11.7.59,15.71-7.61l-4.46-2.14-3.66,5.68c-1-2.76,5.21-5.87-1.12-8.08ZM189.2,85.73c1-4,1.93-7.42,3-11.51l-19.13,5.07,0,.84Zm-150.93,175-1.48,1.05c.53.91.8,2.08,1.63,2.68,7,5.17,14.24,10.2,21.32,15.34,2.07,1.5,3.18.86,4.5-1.76ZM211.67,7.93a27.21,27.21,0,0,0-2.47-4.17,3.52,3.52,0,0,0-2.67-1.16C202.26,3.84,198.07,5.33,193.1,7c3.2,2.34,5.64,4.22,8.23,5.92a2.92,2.92,0,0,0,2.35-.07C206.26,11.38,208.73,9.76,211.67,7.93ZM319.91,69.44l-.16-1.3-18.13-8c2,5.24,1.42,11,8.42,11.74C313.18,72.18,316.62,70.31,319.91,69.44ZM229,63.57c-1.64-4-2.93-7.58-4.63-11a3.88,3.88,0,0,0-3.26-1.23c-1.55.59-4,2.13-3.85,2.89.86,3.83,2.46,7.54,3.84,11.43ZM450.79,24l-12.63-7.88a33.41,33.41,0,0,0-3.34,4.38,2.44,2.44,0,0,0,.31,2.51c3.28,2.25,6.74,4.28,10.27,6.46ZM360.12,339.41l7.08-12c-6.63-3.75-9.35-4.52-13.54-3.7Zm45.66-189.89L407,149c-.33-.95-.33-2.46-1.05-2.79q-14.76-6.84-29.74-13.36c-.62-.27-1.69.24-2.55.39.39.7.56,1.75,1.2,2C385.12,140.09,395.46,144.79,405.78,149.52ZM68.47,123.93C61.1,125,56.53,128.9,55,135.21l12.38-.5C67.76,131,68.1,127.64,68.47,123.93ZM465.62,22.3c2.49-2.63,4.49-5.21,7-7.31,3.23-2.67,2.66-4.73-.51-6.84-.4-.27-.77-.57-1.5-1.11L459.68,18.26ZM113.25,188.06c.28.83.55,1.7.87,2.56,1.07,2.89,3.81,5.82-.39,8.6-.13.09.86,2.23,1.45,2.28,2.81.26,5.66.11,9.26.11-1.51-4.28-2.74-7.84-4-11.39C118.79,185.72,118.39,185.6,113.25,188.06Zm211.88-29.4c1.29,2.44,2.41,4.72,3.73,6.92a3.26,3.26,0,0,0,2,1.3c3.18.44,6.4.7,10.07,1.08-1.31-2.21-2.48-4.22-3.69-6.2-3.5-5.74-3.51-5.74-10.62-3.89A9.68,9.68,0,0,0,325.13,158.66ZM453.6,176.88c4,.92,7.57-3.9,6.53-8.74l-17.21-2V171l11.57,1.65ZM381.19,139.4c-.85,2.64-2.8,6.25-2,6.77a32.87,32.87,0,0,0,11.18,4.71c1.22.25,3.36-2.88,5.51-4.86ZM442.7,160c.87,2.45,1.11,5,1.94,5.19,5.31,1,10.74,1.44,16.26,2.07a31,31,0,0,0,.94-4.85c0-.85-.47-2.28-1.1-2.45-1.5-.4-4.39-.69-4.65-.21-1.69,3.24-4.31,1.72-6.71,1.37C447.62,160.84,445.87,160.51,442.7,160ZM203,301.48l5,17.1c1.14-.48,2.37-.65,2.59-1.15,1.44-3.29,2.72-6.63,3.9-10,.13-.38-.59-1.25-1.14-1.5C210.23,304.51,207.06,303.22,203,301.48Zm50.57-214c6.22,3.12,11.69,2.72,17.18-1.31l-14.46-6.9ZM98.65,56.42l-.38-5c-7.65,3.27-14.65,6.44-21.82,9.27-3.57,1.42-3.57,3.32-2.19,6.43,3.93-2.51,7.27-5.22,11.17-7S93.71,57.77,98.65,56.42ZM239.57,257.09l-16.45-6.39-2.71,5c3.14,1.44,6,2.76,8.89,4.06C235.14,262.37,235.14,262.37,239.57,257.09ZM433,141.05c7.82,1.38,7.82,1.38,8.64-4.82a13.45,13.45,0,0,0,.41-3,3.12,3.12,0,0,0-1.15-2.25c-1.94-1.08-4.09-1.86-6.73-3C433.74,132.62,433.37,136.75,433,141.05Zm13.4,165.3c-3.56-2-7-4.07-10.61-6-2.71-1.42-3.53.41-3.25,2.08a86,86,0,0,0,2.51,9C439.53,310.82,444.44,311.84,446.39,306.35Zm-42.95-203.3a54.56,54.56,0,0,0,5.74,3.75c4.1,2,6.68,4.49,5.86,9-.18,1,1.41,2.24,2.18,3.37l1.06-.49V103.05ZM289.49,90.87c1.68-5.49,3.14-10.83,5-16.07,1.09-3.07-.12-4.19-3.76-4.47-1.7,5.17-3.11,10.29-5.1,15.24C284.33,88.77,285.15,90.33,289.49,90.87Zm-79.55-72c5.95-.13,8.64-1.14,8.62-2.73,0-4.51-1.77-6.71-5.28-6.69s-9.95,3.65-8.86,5.05C206,16.48,208.6,17.84,209.94,18.85ZM448.7,46.42c-3.5-2.17-6.09-3.87-8.81-5.4a2.85,2.85,0,0,0-2.38,0c-3,2.9-5.92,5.92-8.85,8.91C435.42,49.34,442,49.5,448.7,46.42ZM60.77,211.08c7.72,5.39,12.6,6.07,18.44,2.81l-1.52-6.74ZM391.32,68.34c2.62,1.82,5.68,3.65,8.32,5.86,4,3.37,3.91,3.48,7.95,0A18.18,18.18,0,0,0,409,72.66c-3.26-2.3-6.4-4.54-9.57-6.75C395.51,63.21,395.31,63.25,391.32,68.34ZM156,121.94c-5,3-9.39,5.6-13.63,8.26a2.19,2.19,0,0,0-1,2c.16.48,1.4,1,2.12,1,4.43-.27,8.83-.69,13.66-1.1C156.72,128.65,156.38,125.64,156,121.94Zm132.47-106c1.29-1.91,2.64-3.85,3.92-5.81.57-.87,1-1.81,1.68-3l-7.47-3.76c-7.73,6.75-7.53,9.09.85,12.54A5.79,5.79,0,0,0,288.42,15.94ZM374.5,32.72c4.9-5.15,4.89-5.18-1-8.31a23.34,23.34,0,0,0-4.42-2.26c-1.74-.49-3.93-2.29-5.43.34-1.29,2.27-1.53,4.22,1.83,5.58C368.59,29.32,371.4,31.09,374.5,32.72ZM340.75,197.79c-3.7.72-7.44.48-8.66,1.89-2.13,2.47-2.72,5.95-4,9.22a58.89,58.89,0,0,0,6.26,1.47,3,3,0,0,0,2.41-1C338.06,205.93,339.16,202.44,340.75,197.79Zm102.09-44.65c-1.86,5.28-1.86,5.27,3.78,6.39,1.66.33,3.29.78,5,1.06.72.12,2.07.13,2.19-.13,1.25-2.84,3.57-2.3,6.14-1.85.7.13,1.67-.84,2.51-1.31-.63-.55-1.18-1.49-1.9-1.6C454.63,154.76,448.7,154,442.84,153.14ZM342.29,317.69l.38-.92c-4.54-1.91-9-3.89-13.64-5.69-1.15-.45-3.62-.68-3.72-.45a12.56,12.56,0,0,0-1.36,5.65c.07.84,2.23,2.2,3.43,2.2C332.35,318.45,337.32,318,342.29,317.69Zm39.93-192.94L357.29,113.4c-2.2,2-2,3.2.5,4.27q10.24,4.45,20.34,9.17C380.4,127.9,381.52,127.41,382.22,124.75ZM266.88,52.35c7.79,1.35,15.08,2.7,22.42,3.8,1,.15,2.19-.95,3.3-1.47l-.35-1.12L268.1,47.85ZM425.55,293c7.54,5.78,7.72,5.76,12.5-1.1.4-.57.71-1.2,1.24-2.12l-8.45-5ZM266.48,47.72c-7.09-2-14-3-21.19-1.3.27,2.95,2,3.82,5,3.88a54,54,0,0,1,11.31,1.17C265.61,52.4,266.71,51.17,266.48,47.72Zm44.09,108.69c-3.29.47-6.29.73-9.15,1.44a3.08,3.08,0,0,0-1.75,2.6c.72,5.22,3.75,6.84,10.9,5.94Zm129.91-46.58c-5.4-2.08-10.39-1.34-12,1.48-2.19,3.77-.92,7.29,3.69,9.48Zm-180,235.82c-9.59-3.71-14.14-2.44-15.54,4.18C256.84,353.28,257.28,353.17,260.51,345.65ZM433.85,174.59l-14-2.55c-4.57-.84-4.66-.78-4.81,3.93l17.38,4.36C432.92,178.31,433.33,176.68,433.85,174.59Zm-209.94,167c1.38-3.82.25-5.64-3.74-6.07a55.09,55.09,0,0,1-5.73-1.31c-5.78-1.3-6.73-.65-7.23,5.13ZM163.84,187.22c-4.87.56-9.32.87-13.62,1.75-.8.16-1.26,2.56-1.36,3.95,0,.62,1.25,1.89,1.87,1.86,4.52-.21,9-.69,13.78-1.1C164.28,191.42,164.09,189.63,163.84,187.22ZM331,198.39c-3.5,0-6.23,0-9,0-.87,0-2.37.2-2.48.56-.61,2.06-2,4.81-1,6.16,1.22,1.68,4.42,2.54,6.94,3,.69.14,2.27-2.21,3-3.59A53.73,53.73,0,0,0,331,198.39ZM216.48,262.67,229.37,268l3.74-5.52-13.27-6ZM169.33,91.94c.37,2.66.64,4.62.9,6.42a5.49,5.49,0,0,0,1.12.36c2.49,0,5,.08,7.48.08,5.91,0,6.1-.17,7-5.93Zm127-71,6.8-9.3-7.95-3.95-6,9.33Zm22.41,262.7a79.82,79.82,0,0,0,7.48,2.83,3.79,3.79,0,0,0,2.95-1.07c1.52-1.78.46-8.71-1.55-9.95-1.79-1.1-3.93-2.33-5.25.71C321.3,278.59,320,281,318.72,283.64ZM72.64,255.31c1-2.31,1.78-4.26,2.74-6.58l-14.86-4.59L59.4,245c.87,2,1.12,4.63,2.76,5.74C65.07,252.69,68.82,253.71,72.64,255.31ZM36.58,244.8c4.23-7.29,3.55-9.6-3.86-12.85l-4.93,10ZM414.3,143l26.18,3.61c.14-1.24.25-2.18.36-3.21-8.16-2.12-17.3-.15-24.32-6.26ZM472.56,16.44l15.05,11.72,3.07-2.83L476.56,12.24ZM237.19,61.28l-3.56-10h-8.39c1.52,3.77,2.74,7.09,4.26,10.31a3.32,3.32,0,0,0,2.64,1.14A30.19,30.19,0,0,0,237.19,61.28ZM314.69,142c-6.49,5.82-7.39,7.68-3.4,11.67,1.43,1.43,5.89.57,9,.76l.53-1.2C318.83,149.65,316.86,146,314.69,142Zm5.13-70.95-.62-.69c-1.23.75-2.8,1.29-3.6,2.29a34.19,34.19,0,0,0-3,5.2c-2.24,4.1-2.17,4.24,3.4,6l9.79-13.05L322,69.36l-3,6.53-.74-.3ZM66,271.22c1.6-3.72,3.17-7.32,4.69-10.92,1.89-4.47,1.84-4.54-4.15-6-1.33,3.41-2.45,6.92-4.07,10.25S62.25,269.67,66,271.22Zm-5.74-30.41,15-11.27-.6-.85c-2.68.49-5.36,1-8,1.47-9.24,1.75-9.43,2-7.11,10.16C59.53,240.4,59.69,240.45,60.23,240.81ZM265.25,53,253.2,51c.67,2.95,1.46,5.14,1.62,7.37.23,3.36,3.25,3.37,5.63,3.46.95,0,2.32-1.83,2.94-3A35.68,35.68,0,0,0,265.25,53Zm100.9,63.26c5.4-8.44,6.32-7.79-4.89-11.29-1,1.91-2.23,3.8-3.07,5.8A2.24,2.24,0,0,0,359,113C361.27,114.22,363.76,115.19,366.15,116.25ZM234.86,51.62c1,2.69,1.88,5.4,3,8a2.53,2.53,0,0,0,2,1c2.59-.56,5.11-1.38,7.61-2.09C244.91,50.49,243.38,49.64,234.86,51.62Zm60.47,24.06c-1.43,4.61-2.93,9.18-4.18,13.8-.22.82.63,1.85,1,2.78,1-.53,2.32-.86,2.83-1.62a81,81,0,0,0,4.58-8C302,77.88,301.84,77.66,295.33,75.68ZM95.13,230.88c1.88,3.15,9.67,5.42,12.17,3.06,2-1.93,1.52-5.9,2.13-9l-1.53-1c-1.88.86-4.74,1.31-5.45,2.64C101,229.45,99.4,231.39,95.13,230.88Zm8.13-130.45c-5.27.12-10.15.54-12.79,5.14a14.1,14.1,0,0,0-.93,3,17.42,17.42,0,0,0,3.65.22c2-.3,4-.89,6.06-1.36C104.73,106.17,104.83,106,103.26,100.43Zm44.63,77.91,14.74-1.88c-.37-2.1-.68-3.82-1-5.84-4.24.33-8,.55-11.8,1a2.7,2.7,0,0,0-1.82,1.72A28.23,28.23,0,0,0,147.89,178.34Zm139.65-161-8.38-4.54c-1.86,2.6-3.52,4.9-5.42,7.54L282.5,25ZM271.05,187.62c-3.68,3.8-7.2,7.32-10.5,11-.51.58,0,1.87.13,3.51l16-9.2Zm165.05,30-1.46.41c.22,1.08,0,2.69.71,3.15,6.14,3.88,12.44,7.55,18.89,11.39l2.41-2.69a19.08,19.08,0,0,0-1.92-1.47Q445.43,223,436.1,217.58Zm-240,21.58c.43-7.35.43-7.35-7.2-7a2.64,2.64,0,0,1-.4,0c-3.08-.22-4.19.68-3.57,3.6,1,4.77.83,4.85,6.29,4.14C192.76,239.68,194.31,239.42,196.09,239.16Zm-89.66-27.5,7.75-.82c-.62-3.57-1-6.84-1.87-10a3.44,3.44,0,0,0-2.75-1.59c-1.1.1-2.92,1.09-3,1.79C106.26,204.38,106.43,207.8,106.43,211.66Zm132.26,3.25c-5.26.41-9.47.58-13.6,1.17-1,.14-2.08,1.61-2.42,2.64-.16.49,1.36,2,2.05,2a116.85,116.85,0,0,0,13.64-1.33c1-.17,1.76-2.12,2.22-3.36C240.67,215.8,238.89,215,238.69,214.91Zm88.86,53.64c1.32,4.93,2.31,8.81,3.45,12.67a2.8,2.8,0,0,0,1.62,1.56c.4.12,1.46-.53,1.74-1,1.57-2.85,3-5.76,4.62-8.94Zm51.81-156.06c-4.45,9.07-5.07,8.09,4,11.25l4.85-7.62c-2.67-1.19-4.75-2.14-6.85-3A16.33,16.33,0,0,0,379.36,112.49Zm47.69-24.28-4.57,10.93h11.26C434.37,94.52,432.48,91.17,427.05,88.21Zm-18.73,153.3c7.68-8.57,7.7-8.38-.27-12.8L402.5,238.9ZM347.74,18.06l10.72,6.07c.65-1.66,1.12-2.81,1.56-4s.85-2.32,1.24-3.4C352,11.92,351.53,12,347.74,18.06ZM256.6,186.29l6.72-6.42L257,173.54l-6.76,4.82Zm185.88-26.22L441,159.8c-1.46,4.68-2.93,9.36-4.47,14.29,4.58.87,8.42,1.53,12.21,2.35,3.22.69,4.32-.34,3.88-3.25-2.8-.35-5.5-.85-8.21-1-2.47-.12-3.19-1.07-2.94-3.05C441.89,166.14,442.16,163.1,442.48,160.07ZM304.42,339.31a52.75,52.75,0,0,0,3.24-6.21,42.09,42.09,0,0,0,1.32-6.35l-7.68-.44C299.74,333.86,300.33,336.33,304.42,339.31ZM407.09,202.8l-.44.78,17.78,11.07a31.73,31.73,0,0,0,1.21-5.25,2.7,2.7,0,0,0-1.35-2.28C418.6,205.56,412.83,204.21,407.09,202.8ZM430.55,302c-2.64,1.26-6.08,2-7.3,3.8-1,1.43.11,5.59,1.53,6.16,2.4,1,5.81.05,9.11-.08-.84-3.12-1.45-5.45-2.12-7.76A14.59,14.59,0,0,0,430.55,302ZM156.62,91.49a47.28,47.28,0,0,0,.76,5.52c.18.69,1.08,1.74,1.71,1.77,3.19.19,6.41.09,9.55.09.54-7,.31-7.26-6.84-7.37C160.26,91.47,158.72,91.49,156.62,91.49ZM185.3,241.34c.8,2.62.85,6.18,2.24,6.64a13.62,13.62,0,0,0,9-.52c1.14-.53.19-4.4.19-7.19Zm62.5,101.41c-6.31-.54-12-2.87-17.8,1.3,3.93,1.82,7.34,3.5,10.86,5a3.15,3.15,0,0,0,2.6-.44C245,346.91,246.14,345,247.8,342.75ZM429.88,284.2,422.72,280c-1.9,3.16-3.52,5.86-5.31,8.86l7,3.82ZM148.46,208.58c-.09-3.09-2.58-5.82-5-5.13s-5.93,2-6.54,3.64c-1.06,2.9,2.45,4.79,7.48,4.65C146.91,211.66,149.48,211.59,148.46,208.58Zm326.69-8.82c-3.31,0-6.11-.63-8.16.18-1.88.74-3.07,3-4.27,4.69-.33.47.13,1.82.73,2.23,1.7,1.18,3.65,2.08,5.89,3.31ZM31,89.75l-2.16-.3c-.42,1.11-1.16,2.2-1.2,3.32-.16,3.66.13,7.35-.13,11-.22,3.23,1.39,4.32,5.87,4ZM456,37.2l-6.17,8.63.94,1.13,16.42-2.85ZM115.47,211.12l11.38-3.31c-.78-2.09-1.38-3.68-1.85-4.93H113.88C114.42,205.7,114.87,208,115.47,211.12Zm149.92,56L260.78,275l8.35,3.25,4.4-7.87Zm41.8-205.64c3.86,1.73,7.71,3.19,11.23,5.1,3.33,1.81,5.78,1,9-1.54-5.61-2.06-10.75-3.88-15.82-5.83C309.2,58.27,307.87,58.79,307.19,61.46ZM163.56,345c-.93-4.05-1.55-7.39-2.5-10.65-.61-2.06-2.28-1.84-3.39-.38-2,2.64-3.69,5.44-5.81,8.6ZM286,36.93l10.51,4.29,3.66-5.45-9.64-5.21C289,32.82,287.63,34.7,286,36.93ZM157.88,26.39l8.8-1.14L155.09,11.78C152.81,17.76,158,21.5,157.88,26.39Zm10.23,159.66c3.34-.74,6.75-.81,9-2.27,1-.68.4-5.54-.62-5.88-2.66-.88-5.95-.29-9.49-.29C167.35,180.46,167.68,182.9,168.11,186.05ZM184,231.92c-4.16,1-7.6,1.09-9.79,2.59-1,.66-.2,5.29,1.23,6,1.89,1,6.36.81,7.58-.44C184.47,238.59,183.7,235.42,184,231.92Zm138.33,93.15-11.08.8a50.88,50.88,0,0,1-1.77,6.14c-1,2.35-2.46,4.55-3.48,6.9-.27.6.38,1.51.61,2.28.78-.39,1.84-.62,2.29-1.21a29,29,0,0,0,2.05-3.7c1.82-3.22,2.95-6.89,7.91-7.86C319.9,328.22,320.64,326.74,322.31,325.07ZM98.16,285.35l7.73-5.42c-1.2-4.13-4.87-4.4-8.23-4.6-.83-.05-2,1.65-2.7,2.71C92.76,281.32,95.85,283,98.16,285.35ZM194,211.91c5.61-.33,10.74-.54,15.83-1,.88-.08,1.63-1.25,2.43-1.92-.9-.75-1.84-2.17-2.69-2.14-5.22.22-10.41.78-15.81,1.24ZM58.18,252.38l-12.93,5.41,11.06,6.75C56.93,260.48,57.48,256.93,58.18,252.38Zm279.89,38.81c.34-1.84,1.29-4,.7-4.38-2.73-1.81-1.06-3.38-.21-5.07,1.05-2.09,2.21-4.15,3.15-6.28.2-.45-.32-1.15-.5-1.73-.62.27-1.54.41-1.79.84-1.31,2.24-2.36,4.6-3.69,6.83a10.26,10.26,0,0,1-2.39,2.45c-1.35,1.1-2.82,2.1-4.84,3.58Zm78.59-1.2-4.94,8.18c6.76,3.64,7,3.59,10.39-1.89C424,293.23,423.7,292.85,416.66,290ZM352.34,11.88l9.36,3.66c.75-1.8,1.24-3.09,1.84-4.34.83-1.72.46-2.9-1.39-4.06-4.17-2.64-4.1-2.73-7.07,1.08C354.27,9.25,353.51,10.31,352.34,11.88ZM289.87,29c6.78-7.67,7.17-7.31-1.62-10.78l-4.77,7.27ZM410.4,83.87,417.46,79,410,73.56l-5.79,4.7ZM131,206.75c1.16,3.19,1.85,5.28,2.71,7.31.28.67,1,1.71,1.54,1.69,4.91-.19,9.8-.57,14.69-.9l.11-1.55a32,32,0,0,0-4.6-.83c-4.23-.14-9,.85-10-4.68C135.39,207.35,133.1,207.21,131,206.75ZM304,234.19l9.32,6c4.1-4.46,3.69-5.7-3.57-11.46ZM180.51,248.66c.94-.58,5.06,1.92,4.47-2.08-.24-1.67,1.81-5.5-2.92-4.84-2.43.35-7.38-2.14-7,3.27C175.23,247.61,175.45,250,180.51,248.66Zm12.31-40.88c-.91-3.12-1.16-6.72-2.16-6.88a20.46,20.46,0,0,0-9,1c-.64.2-.5,4.73,0,4.84C184.72,207.43,188,207.44,192.82,207.78Zm-13.92-7.25c1.16-7.15-.48-8.12-9.33-5.78C168.93,202,168.93,202,178.9,200.53Zm-47.43-48.16c.74,2.32.72,5.3,2.15,6,1.72.82,5.07.26,7-.75s4.07-3.16,1.43-6.1Zm150,121-6.61-2.61c-5.58,7.88-5.17,9.38,2.56,10C278.7,278.53,280,276.17,281.51,273.4Zm102.72-84.63c2-3.58,4.1-7.13,6-10.74.28-.52-.22-1.34-.35-2-.7.36-1.64.58-2,1.11-1.13,1.5-2,3.14-3.08,4.82l-4.2-1.37C376.29,184.69,376.46,185.1,384.23,188.77Zm-210.61-34c1-7.12-.07-7.74-9.52-5.6C163.73,155.79,162.77,156,173.62,154.77Zm258.93,143.8-7.77-4.38a60.35,60.35,0,0,0-4.15,6.56c-.29.63.61,2.23,1.43,2.61C424.18,304.33,431.33,301.05,432.55,298.57ZM138.14,180.44a36.11,36.11,0,0,1,1.56,5.24c.4,3,2.41,3.18,5.27,2.79,3.46-.47,2.27-2.53,2.19-4.19-.07-1.46-.37-2.9-.62-4.75ZM447.5,30.73l8.2,5,4.29-6-7.13-4.47ZM240.28,292.37l-1.16-.7c-1.71,1.09-4.6,2-4.91,3.3-1.08,4.57,1.91,7.45,8.29,9,1.68-1.37,1.63-2.48-.18-3.94a7.06,7.06,0,0,1-2-3.72A16.35,16.35,0,0,1,240.28,292.37ZM184,231.31c3.71-.17,6.45-.16,9.13-.52.78-.1,1.93-1.27,1.91-1.94,0-1.35-.69-3.84-1.17-3.85a31,31,0,0,0-9.2.84C183.94,226.05,184.24,229,184,231.31ZM378.19,111.63l-6.31-2.44c-4.81,8-5.91,8,2.93,10.49Zm-97.31-68.4,3.48-5.91-12.94-5C271.14,38.87,277.41,39.59,280.88,43.23ZM177.47,174.49c3.67-.29,7.07-.41,10.38-.93.7-.11,1.55-1.67,1.52-2.54s-1.07-2.5-1.65-2.5c-3.49,0-7,.48-10.67.79C177.2,171.23,177.32,172.67,177.47,174.49ZM243,50l.8-1c-1-.82-2.06-2.44-2.9-2.35-7,.75-14,1.81-21,2.81-.06,0,0,.41-.07.56Zm47.44,55.35c7.3.32,8.85-5.39,13.51-7.81C295.48,95.12,294.11,95.89,290.44,105.36ZM177.52,185.72l-9.35,1.07c.28,2.35.51,4.3.79,6.64l9.67-1.05C178.24,190,177.92,188.08,177.52,185.72ZM60,242.91l15.37,4.81c2.1-2.3,1.89-3.67-1.12-4.55A58,58,0,0,1,67,240.56C63.93,239.18,61.93,240.08,60,242.91ZM167,42.74c-2-2.49-3.23-4.89-5.34-6.17-.94-.57-5.34,1.13-5.32,1.75,0,2.44,1.23,4.87,2.08,7.58Zm1.14,176.93-11.65.91c3.17,6,4.92,7.13,10.06,5.55C170.24,225,167.17,222.27,168.14,219.67Zm-47.83-72.22v-7.07l-9.26,2.43C110.15,149,110.4,149.13,120.31,147.45ZM422.72,36.62l10.11,5.71,3.38-3.65-10.38-6.34ZM409.21,245l-8.88,10.86,4,2.91c2.37-3.59,4.43-6.88,6.68-10.07C412.39,246.8,411.87,245.74,409.21,245ZM92.53,111.25l13.38,7.34-1.5-10.11ZM349.92,73.42,349,74.71l11.07,6.9c2.26-2.77,4.32-5.3,6.53-8-5.43-2.75-5.65,2.74-8.75,3.27ZM247.37,230.26l.72-.75c-1.28-3-2.47-6-3.88-9-1-2-2.4-2.45-3.86-.25-1,1.55-2,3.15-3.12,5Zm149.16-95.21,13.83,6.22c.66-1.94,1.21-3.57,1.54-4.52-4.31-1.41-8.08-2.47-11.68-3.87C397.74,131.91,396.84,132.58,396.53,135.05ZM169.39,202c1,2.88,1.28,5.84,2.33,6.08a16.38,16.38,0,0,0,7.92-.65c.6-.18.47-4.49,0-4.58C176.79,202.22,173.75,202.25,169.39,202ZM182,218.87l-10.28.65c.73,2.29,1.05,5.46,1.91,5.58a18.2,18.2,0,0,0,8.27-1C182.57,223.86,182,220.89,182,218.87Zm143.3,3c1.36-2.14,2.47-3.9,3.54-5.6-5.5-4.48-6.84-4.47-12,.27Zm-25.62-53.63-5.27-5c-1.83,1.9-3.53,3.65-5.18,5.42a5.32,5.32,0,0,0-.66,1.19C297,173.05,298.16,172.88,299.66,168.26ZM453.48,24.56l7.2,4.28,4.18-5.67L459,19.1ZM182,225.71l-9.08.94c.3,2.13.52,3.68.77,5.43l4.55-.2C183.79,231.65,184.15,231.14,182,225.71Zm68,65.91c-5.28-1.7-7.54-1.63-8.44.06-1.45,2.72.29,7.16,3.57,8.35ZM86.61,201.32c-7.68,4.7-8.27,5.65-6.63,11,.24.78,1.36,1.36,2.08,2,.67-.59,1.78-1.09,2-1.78C85,209.06,85.68,205.47,86.61,201.32Zm195.63-54.84,4.83,4.61,6.93-4.91-4.68-4.7c-1.84,1.38-3.11,2.35-4.41,3.29C284.2,145.28,283.44,145.72,282.24,146.48ZM109.55,178.74c2,8.25,3,8.92,8.79,5.9-.9-2.34-1.82-4.75-2.79-7.29Zm302.64,9.94c-.35.23-1.53.63-1.68,1.22s.78,1.71,1.42,1.83q7.67,1.5,15.43,2.64c.59.08,1.35-.7,2-1.08-.51-.56-.91-1.48-1.54-1.61C422.88,190.64,417.87,189.75,412.19,188.68ZM323.93,308.27c-1.11.72-1.86.94-2,1.34-1.17,3.16-3.46,5.17-7.11,6.32-1,.31-1.49,1.91-2.76,3.69l12.75-1C319.46,315,324.32,312,323.93,308.27Zm21-109.26c-1.38,3.93-2.74,7.6-3.91,11.31-.16.51.59,1.25.91,1.88.62-.3,1.55-.45,1.81-.9,2-3.52,3.95-7.09,6.07-11ZM60.51,251.88c-.59,5.12-1.14,10-1.69,14.83l1.66.22c1.3-3.41,2.42-6.89,4-10.21S64.48,252.32,60.51,251.88Zm249.9-77.3c-.29-2.13,0-4.73-.83-5.08a19.48,19.48,0,0,0-7.95-1.15c-.8.05-1.42,2.51-2.33,4.26Zm-92-123.5-.72-1.44-19.46,5.7v1.08c1.4.35,3.09,1.32,4.16.95C207.77,55.46,213,53.21,218.37,51.08Zm192.36,133c.8-2.58,1.52-4.89,2.32-7.48-2.88-.33-5.3-3.38-7.72.18C403.2,179.94,403.44,180.31,410.73,184.11ZM271.41,37.68c-3.34,5.9-3.08,6.43,3.46,7.88a6.78,6.78,0,0,0,1.89.39c.92-.07,2.5-.26,2.58-.6a2.88,2.88,0,0,0-.69-2.55C276.47,41,274,39.51,271.41,37.68Zm79.51,34.37c6.72,4.62,8.43,4.43,10.78-1l-7.13-3.6C353.2,69.15,352.11,70.55,350.92,72.05ZM280.16,46.49c5.42,1.83,7.84-.05,9.57-7L285.33,38ZM406.14,158c-.24,1.15-1.21,2.77-.64,3.55,2.3,3.14,5.73,4.85,10.45,4.63.38-1.22.75-2.37.94-3Zm-9.8-5-4.57,6.89,6.07,2.86C401.42,155.62,401.25,154.38,396.34,153ZM479.08,311.1l8.94,5.16,5.5-8.29ZM166.65,170.35c-.61,5.4,2.13,6.43,9.28,3.74C176.25,169.09,176.25,169.09,166.65,170.35Zm215.42-41.79,12.49,5.6c2.15-1.69,2.17-2.87-.17-3.88-2.81-1.22-5.63-2.43-8.36-3.8C383.69,125.31,382.7,126.13,382.07,128.56ZM217.61,157.23c-6.92.93-7.62,2.29-4.41,8.06C219.73,164.26,220.3,163.25,217.61,157.23Zm275.48,31.55c-1.57-3.76-3.44-6.57-3.79-9.53-.38-3.19.67-6.5,1.09-9.76-1.54,3.62-2.1,7.46-3.58,11s-.46,5.7,2.56,8C491.38,190,492.44,189.81,493.09,188.78ZM295.87,42.57c-4.08-2.73-4.31-2.69-6.47.85l-2.89,4.81,6.26,1.57Zm114,112.13a8.88,8.88,0,0,0-2.07,1c-.23.19-.06,1.19.29,1.45a25.84,25.84,0,0,0,5.52,3.72c2.06.85,4,.34,4.72-2.07s-.49-3-2.89-3.23C413.76,155.46,412.1,155.07,409.87,154.7ZM369.4,87.06c7.84-8.89,8.71-9.78,4.11-11.35l-7.57,9.19Zm-104-82.33c-3.48,0-5.94-.28-8.25.12-1.05.19-2,1.63-2.57,2.68-.2.4.85,1.45,1.55,2,1.24.93,2.65,1.68,4.19,2.63Zm-70,133.38,12.85-4.21c-2.13-3.65-1.74-3.15-10.92-.66C194.88,133.88,194,134.91,195.32,138.11ZM108.76,55.57c-2.57-1.77-1.78-6.52-6.71-5.73-3.73.6-3.17,4-2.07,5.53C102.2,58.47,105.6,56.13,108.76,55.57Zm235.8,34.24-4.76,5.87c4.58,4.26,5.41,4,9.81-2.63ZM295,57.71c-1.12,3.17-1.82,5.58-2.82,7.9-1.2,2.78-.49,4.35,3.45,4.58C296.89,66.32,299.6,62.52,295,57.71Zm97.72,136.12c3.71-5.81,3.55-7.86-.62-10.11C386.92,191.2,386.92,191.25,392.73,193.83Zm44.85-38.94,2.13-1c-.81-.53-1.55-1.39-2.45-1.54q-6.57-1.11-13.21-1.84c-.78-.09-1.67.6-2.5.93.67.55,1.27,1.47,2,1.59C428,153.74,432.39,154.23,437.58,154.89ZM135.67,22.43c1.33,1.94,2.5,3.44,3.41,5.05,1.73,3.05,3.81,2.71,6.59.65l-5.93-7.82ZM257.18,75.27l.83,0c.71-2.16,1.52-4.3,2.07-6.49.15-.62-.29-1.86-.78-2a7.14,7.14,0,0,1-5.11-4.76c-.08-.25-1.08-.25-2.12-.46Zm143.89,92.25c4.41.82,8.22,1.6,12.06,2.19.63.1,1.42-.63,2.14-1-.49-.56-.85-1.35-1.5-1.64-3.18-1.38-6.43-2.62-10.15-4.11ZM263.34,228.63c1.64-2.47,2.78-4.18,4.21-6.31l-11-3-.61.74ZM152.68,31.19c1.55,6.49,3,7,9,3.54C159.89,29.59,159.43,29.4,152.68,31.19ZM485,187.34c-1.85,3.24-3.4,5.84-4.81,8.51-.26.5,0,1.23.08,1.86.7-.05,1.64.13,2.06-.19,2.43-1.84,4.73-3.81,7-5.67C487.69,190.15,486.46,188.88,485,187.34ZM324.9,290.17l-8.45-3.23-.58.58,9.81,10.54,1.41-.52c-.23-1.11-.4-2.23-.72-3.32S325.54,291.92,324.9,290.17ZM430,190.47c.52-2,1-4.08,1.62-6.14.94-2.93-.39-3.93-3.57-3.67C425.2,189.72,425.08,191.36,430,190.47ZM288,152.21l4,3.84,5.74-6.22C294.7,146.27,293.48,146.59,288,152.21ZM142.82,150.4c-.4-1.58-.7-2.73-1.06-4.17l-10.14,1.22c-.71,2.73,0,4,3,3.71C137.22,150.9,139.81,150.68,142.82,150.4ZM268.44,279.5c-7.41-4.27-8.23-4.22-10.19.71l7.9,3.3ZM188.85,62.93l10.86-4.38c-4.88-4.06-8.51-.63-12.74.08Zm1.45,111a83.38,83.38,0,0,0,8.67-2.38c.27-.1-.37-3.42-.92-3.5a14.23,14.23,0,0,0-6.74.39C190.45,168.77,190.72,171.3,190.3,173.92Zm-27-30.07c.05,3.91.08,4,3.54,3.8a17.88,17.88,0,0,0,5-.65,3,3,0,0,0,1.53-2.45c0-.53-1.46-1.51-2.23-1.49C168.57,143.12,166,143.55,163.29,143.85Zm207.26,3.58c-1,1.52-1.92,2.88-2.79,4.27-.36.58-.61,1.21-1.05,2.1l4.85,2C376.09,150.26,376,149.24,370.55,147.43Zm58.55,60.89c-1.58,3.54,0,5.24,6.25,6.84.76-1.45,1.53-2.94,2.46-4.74Zm-5.55-85.4-1.61-.34c-1.55,4.17-3.19,8.32-4.54,12.54-.21.63.91,1.59,1.41,2.39l1.06-.24C421.13,132.49,423.45,127.91,423.55,122.92ZM214.45,180.2l1.73.28c1.81-2,7-2.21,4.61-6.33-.5-.87-3.56-.62-5.44-.88ZM182.36,209c-1,2.81,0,3.86,3.12,3.52,1.42-.16,3,.16,4.27-.27,1.13-.38,1.94-1.49,2.89-2.27-1.15-.58-2.29-1.6-3.47-1.65A46.64,46.64,0,0,0,182.36,209Zm47-144.39.07,1,10.88,4.32c-1.15-3.1-1.93-5.17-2.79-7.48ZM420.46,324.9l3.81-5.89-11.78,1.18-.12.76ZM171.56,213a73.66,73.66,0,0,0,7.46-.1,2.56,2.56,0,0,0,1.66-2c-.08-.65-1.29-1.57-2.14-1.69-1.37-.21-2.85.27-4.27.24C171,209.28,170.5,210.6,171.56,213Zm206.73,97.92L375.47,316l12.15-.6.1-.83ZM254.13,61c-.57-3-.95-5.23-1.4-7.42-.56-2.67-2.28-3.2-5.41-2C249.46,54.63,248.92,58.7,254.13,61Zm45,4.63c-4.54,8.86-3.62,9.51,2.88,10.88C301.1,73,300.24,69.78,299.14,65.63ZM269.55,280l-2.23,4.08,6.46,2.58C277.1,282.16,276.72,281.6,269.55,280Zm31.6-123.89.54.83a45.22,45.22,0,0,0,8-2.16c.39-.17-1-3.3-1.76-5.87ZM230,199.22c3.08-3.7,3.08-3.83,1.17-5.28-3-2.31-5.09-.59-7.68,1.34ZM91.52,226.3c.71,3.5,3.29,4.23,6.14,3.34,1.58-.48,2.64-2.24,3.93-3.42l-.88-.92ZM219.39,165c-2.83,1.16-6.68.07-6.31,4.08.25,2.7,2.66,2.14,4.46,1.8C222.12,170,218.87,167.4,219.39,165Zm-42.93,3.22c-1.49-1.54-2.21-3-3.22-3.17a14,14,0,0,0-5.43.47c-.83.2-1.4,1.23-2.09,1.89.79.56,1.58,1.6,2.38,1.6C170.41,169,172.73,168.61,176.46,168.22ZM309.28,81.89c1.85-3.47,3.09-5.78,4.33-8.09l-1.46-.94A63.5,63.5,0,0,0,306,78C305.79,78.19,307.67,80,309.28,81.89Zm84.37,68.35,6.85,2.91c1.86-2.57,1.95-4.26-1.33-5.71C395.73,145.92,395.2,148.11,393.65,150.24Zm-353.27-48-6.07-4.78v9.18ZM286.26,66.84l4.08,1.48,3-10.07-1.51-.49ZM263.49,231.07c-4.35,3.94-4.69,5.21-2,7.62C267.49,234.89,267.66,234.27,263.49,231.07ZM226.26,331.54l-13.2.76C222.65,336.23,225,336.09,226.26,331.54ZM147.87,190l-1.16-.87c-1.64.42-4.3.49-4.68,1.34-.52,1.15.45,3,1.31,4.33.33.49,3,.56,3.07.34A35,35,0,0,0,147.87,190Zm17.94-25.31c2.57-.22,4.91-.35,7.21-.67a3,3,0,0,0,1.66-1.2c.17-.22-.25-1.15-.43-1.15-2.91-.08-5.82-.06-9.06-.06ZM322.59,308c3.77-1.29,8-9.21,7.47-12.21l-1-.43ZM2.82,328.85c1.46-.2,2.64-.14,2.74-.4,1.61-4,3.07-8.09,4.56-12.15l-1.4-.42ZM427.46,213.09c-1.58,4.62,3.08,4.51,5.12,6.45C434.7,216.24,434.22,215.66,427.46,213.09ZM168.66,227l-7.31.64c3,2.15,3.6,5.19,7.78,4.69C169,230.55,168.84,229,168.66,227Zm39.7-207.7-5.65-3.84-4.42,4.68.48.65ZM79.44,221.09l1.1-.64C80.06,219,80,216.57,79,216.3c-1.89-.55-4.22.07-6.37.21l-.09,1ZM426.93,327.16c3-2.58,4.66-4.54,3.28-7.3a3,3,0,0,0-2-1.17c-.32-.06-1.2.89-1.24,1.41C426.84,322.13,426.93,324.17,426.93,327.16ZM128.84,200.88c.77,2,1.43,3.65,2.38,6.1,1.36-1.21,2.94-2,2.95-2.74,0-1.45-.85-2.92-1.41-4.57Zm267.69-34.09c-1.42,0-2.22-.16-2.35,0-1.5,2.26-2.95,4.56-4.28,6.91-.15.26.52.88.81,1.33.6-.32,1.46-.51,1.74-1C393.79,171.88,395,169.61,396.53,166.79Zm-253,30,3.13,6.84C149.31,198.56,148.2,196.23,143.51,196.83Zm266.2-46.13c3.63.67,6,1.2,8.46,1.5.63.08,1.38-.58,2.07-.91-.53-.52-1-1.36-1.6-1.51a31.8,31.8,0,0,0-5.84-.79C412.11,149,411.38,149.74,409.71,150.7ZM318,198.83l-1.08-.52-5,3.17,5,3Zm51.51,124h-7.8C366.11,326.64,368,326.63,369.48,322.85ZM119.92,275.12l7.25,2.69.48-.63-4.23-4.89Zm215.13,21.05.45-1c-2.77-2.65-6.7-3.81-9.63-2.17ZM199.26,167.49c.93,2,1.55,3.41,2.34,4.78.05.09,1.85-.26,1.91-.55a30.38,30.38,0,0,0,.33-4.43ZM300.86,56l-1,1.19a43.53,43.53,0,0,0,5.19,3.05c.36.15,1.57-1.15,2.85-2.14ZM433.72,331.22c-.83-2.66-1.41-4.5-2.26-7.24l-3.37,4.52ZM409.85,151.91l-.37,1.66L419,155.1l.35-1.59ZM78.49,122c-1.16-1.89-1.9-3.09-2.84-4.64l-4.28,4.27Zm324.74,27.5-2.29,8.29C405.08,153.06,405.57,151.51,403.23,149.49Zm18.21,175.84,4,1.78v-6.19l-.68-.19ZM256.59,62.1l-.88,1.65c1.63.66,3.25,1.35,4.92,1.91a15.56,15.56,0,0,0,1-1.62Zm-129,208.59,3.34,3.88,1.2-.28-.37-4.91Z"/></g></g></svg>