<svg xmlns="http://www.w3.org/2000/svg" viewBox="0 0 941.04 226.86"><defs><style>.cls-1{fill:#fff;}</style></defs><title>Ativo 11</title><g id="Camada_2" data-name="Camada 2"><g id="Camada_1-2" data-name="Camada 1"><path class="cls-1" d="M67.73,84.2H52.35l-3.12-9.35H20.72L17.58,84.2H2.18L27.37,9.08H42.69Zm-23.36-24L35,32.2,25.6,60.26Z"/><path class="cls-1" d="M120.73,84.2H102.46L86.3,62.76H80.12V84.2H65.53v-75H92.05a26.78,26.78,0,0,1,10.8,51.29ZM104.24,36A12.19,12.19,0,0,0,92.05,23.78H80.12V48.16H92.05A12.19,12.19,0,0,0,104.24,36Z"/><path class="cls-1" d="M169.37,9.19V23.78H148.53V84.2H133.94V23.78H113.09V9.19Z"/><path class="cls-1" d="M214.13,9.19v75h-46.9V69.61h32.31V54H176.62V39.4h22.92V23.78H167.23V9.19Z"/><path class="cls-1" d="M265.25,36a26.79,26.79,0,0,1-26.78,26.79H226.54V93.59h-14.6V9.18h26.53A26.79,26.79,0,0,1,265.25,36Zm-14.59,0a12.19,12.19,0,0,0-12.19-12.19H226.54V48.16h11.93A12.19,12.19,0,0,0,250.66,36Z"/><path class="cls-1" d="M298.32,84.2l-.62-4.73a11.51,11.51,0,0,1-3.87,4.17,8.32,8.32,0,0,1-4.39,1.44,7.32,7.32,0,0,1-5.38-2.4,8.57,8.57,0,0,1-2.35-6.28c0-.69,0-1.26,0-1.68s.08-1,.18-1.65a7.7,7.7,0,0,1,.42-1.69,17.74,17.74,0,0,1,.82-1.68,7.3,7.3,0,0,1,1.32-1.77c.52-.51,1.18-1.09,2-1.76a19.52,19.52,0,0,1,2.71-1.89c1-.6,2.22-1.24,3.6-1.93s2.91-1.37,4.59-2.07V60a46.26,46.26,0,0,0-.3-5.7,20.06,20.06,0,0,0-.71-3.65,5.44,5.44,0,0,0-1.1-2,3,3,0,0,0-1.25-.9,5,5,0,0,0-1.44-.18,4.4,4.4,0,0,0-1.56.25,4.61,4.61,0,0,0-1.47.94A5.27,5.27,0,0,0,288.2,51a15.62,15.62,0,0,0-.65,4v.23h-5.09a13.18,13.18,0,0,1,3-8,8.82,8.82,0,0,1,6.9-2.92,10.83,10.83,0,0,1,4.21.76,8,8,0,0,1,2.89,2,9.75,9.75,0,0,1,1.71,2.86,14.72,14.72,0,0,1,.88,3.23,23.55,23.55,0,0,1,.23,3.36V75.19c0,1.37.05,2.81.14,4.31s.21,2.66.31,3.46l.14,1.24Zm-1-8V62.47q-2.38,1.66-3.75,2.67c-.92.68-1.88,1.47-2.89,2.37A15,15,0,0,0,288.41,70a10.89,10.89,0,0,0-1.27,2.53,8.77,8.77,0,0,0-.5,3,6.24,6.24,0,0,0,1.17,4.16A3.57,3.57,0,0,0,290.58,81a6.5,6.5,0,0,0,3.77-1.34A9.3,9.3,0,0,0,297.34,76.24Z"/><path class="cls-1" d="M325.2,84.2l12-56.13h8l12,56.13h-8l-3-14h-10l-3,14Zm12-20h8l-4-24.06Z"/><path class="cls-1" d="M361.79,84.2V28.07h10q9,0,13.5,3.47t4.55,11.56a17.88,17.88,0,0,1-1.79,8.4,9.38,9.38,0,0,1-5.23,4.63l9,28.07h-7.95l-8.09-26.06h-6V84.2Zm8-32.08h2c3.35,0,5.85-.7,7.52-2.11s2.51-3.71,2.51-6.91-.84-5.5-2.51-6.9-4.17-2.12-7.52-2.12h-2Z"/><path class="cls-1" d="M402.48,84.2v-49h-10V28.07h28.06v7.14h-10v49Z"/><path class="cls-1" d="M424.5,84.2V28.07h22.05v6h-14v18h10v6h-10v20h14v6Z"/><path class="cls-1" d="M479.63,84.2V80.51a9,9,0,0,1-7.9,4.57,7.84,7.84,0,0,1-1.6-.15,5.61,5.61,0,0,1-1.6-.62A5.38,5.38,0,0,1,467,83a9.84,9.84,0,0,1-1.37-2.22,15.25,15.25,0,0,1-1.13-3.33,39.6,39.6,0,0,1-.72-4.74q-.27-2.85-.27-6.37v-3.1a60.26,60.26,0,0,1,.53-8.69,25.63,25.63,0,0,1,1.33-5.6,8.14,8.14,0,0,1,2-3.08,5.72,5.72,0,0,1,2.28-1.4,9.38,9.38,0,0,1,2.45-.28,7.82,7.82,0,0,1,4,1.16,11.11,11.11,0,0,1,3.51,3.41V28h4.89V84.2Zm0-6.69V51.73c-2.33-2.58-4.52-3.88-6.56-3.88a4.4,4.4,0,0,0-1.19.13,3.26,3.26,0,0,0-1.08.59,3.17,3.17,0,0,0-1,1.48,23.12,23.12,0,0,0-.75,2.68,28,28,0,0,0-.54,4.32c-.11,1.79-.16,3.87-.16,6.27v3.1c0,2,.05,3.86.15,5.45s.22,2.9.37,3.94a13.78,13.78,0,0,0,.62,2.66,9.24,9.24,0,0,0,.75,1.68,2.31,2.31,0,0,0,.93.88,3.22,3.22,0,0,0,1,.36,6.16,6.16,0,0,0,1.06.07,6.08,6.08,0,0,0,3.2-1.1A13.48,13.48,0,0,0,479.63,77.51Z"/><path class="cls-1" d="M492,66.19V60.74a40.91,40.91,0,0,1,.59-7.07A18.39,18.39,0,0,1,494,48.89,7.94,7.94,0,0,1,496.32,46a8.12,8.12,0,0,1,2.92-1.44,14.63,14.63,0,0,1,3.52-.37q5.25,0,7.55,3.72t2.3,11.74c0,1.64,0,3-.06,4H496.89v6a43.35,43.35,0,0,0,.37,6.31,9.54,9.54,0,0,0,1.19,3.71,4.35,4.35,0,0,0,1.8,1.66,6.32,6.32,0,0,0,2.48.42,4.34,4.34,0,0,0,3.67-2.2c1-1.47,1.49-3.92,1.52-7.36h4.56c-.13,1.48-.3,2.8-.52,4a18.65,18.65,0,0,1-1,3.46,9.54,9.54,0,0,1-1.74,2.87,7.69,7.69,0,0,1-2.65,1.86,9.24,9.24,0,0,1-3.76.72,10.89,10.89,0,0,1-6.44-1.65q-2.3-1.65-3.38-5.74A46,46,0,0,1,492,66.19Zm5-4.9h10.83q0-1.3,0-2.64c0-.89,0-1.79,0-2.69s-.1-1.77-.18-2.6a11.58,11.58,0,0,0-.44-2.3,7.8,7.8,0,0,0-.82-1.84A3.53,3.53,0,0,0,505,48a4.14,4.14,0,0,0-2-.46,5.88,5.88,0,0,0-2.95.66,5.39,5.39,0,0,0-1.8,1.53,7.08,7.08,0,0,0-.93,3,35.23,35.23,0,0,0-.34,3.67C496.94,57.41,496.92,59.05,496.92,61.29Z"/><path class="cls-1" d="M540.58,84.2V0h21q21,0,21,24.06,0,10.29-5.43,15.67t-15.62,5.38h-9V84.2Zm12-48.11h3a39.34,39.34,0,0,0,6.7-.47,12.37,12.37,0,0,0,4.6-1.77,7.17,7.17,0,0,0,2.87-3.68,18.19,18.19,0,0,0,.87-6.11,32.84,32.84,0,0,0-.66-7.31,8.94,8.94,0,0,0-7-7,32.59,32.59,0,0,0-7.4-.68h-3Z"/><path class="cls-1" d="M589.49,84.2V0h33.08V9H601.52V36.09h15v9h-15V75.18h21.05v9Z"/><path class="cls-1" d="M629.94,84.2V0h15q13.44,0,20.25,5.22T672,22.55a26.85,26.85,0,0,1-2.67,12.6,14.1,14.1,0,0,1-7.85,7l13.53,42.1H663.12L651,45.11h-9V84.2Zm12-48.11h3q7.51,0,11.28-3.18T660,22.55q0-7.18-3.76-10.36T645,9h-3Z"/><path class="cls-1" d="M682,84.2V0h33.07V9H694V36.09h15v9H694V84.2Z"/><path class="cls-1" d="M753.66,83.64a33,33,0,0,1-19.36,0,18.57,18.57,0,0,1-6.88-4.07A19.89,19.89,0,0,1,723,73a35.51,35.51,0,0,1-2.39-8.53,68.63,68.63,0,0,1-.71-10.36V0h12V54.13q0,3.9.17,6.53a33.53,33.53,0,0,0,.87,5.61,13.93,13.93,0,0,0,2,4.77,9.43,9.43,0,0,0,3.52,3,13.5,13.5,0,0,0,11,0A9.46,9.46,0,0,0,753,71a13.93,13.93,0,0,0,2-4.77,33.46,33.46,0,0,0,.86-5.61Q756,58,756,54.13V0h12V54.13a68.63,68.63,0,0,1-.71,10.36A35.51,35.51,0,0,1,764.94,73a19.89,19.89,0,0,1-4.4,6.55A18.57,18.57,0,0,1,753.66,83.64Z"/><path class="cls-1" d="M779.41,84.2V0h15q13.44,0,20.25,5.22t6.82,17.33a26.73,26.73,0,0,1-2.68,12.6,14.1,14.1,0,0,1-7.85,7l13.54,42.1H812.58L800.46,45.11h-9V84.2Zm12-48.11h3c5,0,8.77-1.06,11.28-3.18s3.76-5.56,3.76-10.36-1.25-8.24-3.76-10.36S799.46,9,794.44,9h-3Z"/><path class="cls-1" d="M826.21,84.2l18-84.2h12l18,84.2h-12l-4.51-21.05h-15L838.24,84.2Zm18-30.07h12l-6-36.09Z"/><path class="cls-1" d="M881.09,84.2V0h15q13.44,0,20.25,5.22t6.82,17.33a26.85,26.85,0,0,1-2.68,12.6,14.1,14.1,0,0,1-7.85,7l13.53,42.1H914.26L902.14,45.11h-9V84.2Zm12-48.11h3q7.51,0,11.28-3.18t3.76-10.36q0-7.18-3.76-10.36T896.12,9h-3Z"/><path class="cls-1" d="M934.65,96.23l-1.27-2.59A6.41,6.41,0,0,0,936,91.86a7.52,7.52,0,0,0,1.55-2.73,18.59,18.59,0,0,0,.65-2.7,13.89,13.89,0,0,0,.19-2.23h-6V75.79H941v1.08c0,1.69,0,2.95,0,3.78s0,2-.07,3.43a23.25,23.25,0,0,1-.24,3.29c-.12.74-.28,1.65-.47,2.73a8.18,8.18,0,0,1-.75,2.46,16.6,16.6,0,0,1-1.13,1.76,3.9,3.9,0,0,1-1.59,1.34A7.26,7.26,0,0,1,934.65,96.23Z"/><path class="cls-1" d="M16.15,207.69V204a9,9,0,0,1-7.89,4.57,7.77,7.77,0,0,1-1.6-.15,5.75,5.75,0,0,1-1.6-.61,5.46,5.46,0,0,1-1.57-1.28,10.22,10.22,0,0,1-1.37-2.22A15.36,15.36,0,0,1,1,201a36.36,36.36,0,0,1-.72-4.75c-.19-1.89-.28-4-.28-6.36v-3.1a60.26,60.26,0,0,1,.54-8.7,26.31,26.31,0,0,1,1.32-5.6,8.26,8.26,0,0,1,2-3.08A5.74,5.74,0,0,1,6.17,168a9.3,9.3,0,0,1,2.44-.28,7.88,7.88,0,0,1,4,1.16,11,11,0,0,1,3.51,3.41V151.54h4.9v56.15Zm0-6.69V175.22c-2.33-2.58-4.51-3.88-6.56-3.88a4.9,4.9,0,0,0-1.19.13,3.53,3.53,0,0,0-1.07.59,3.13,3.13,0,0,0-1,1.49,22.32,22.32,0,0,0-.75,2.67,28,28,0,0,0-.54,4.32q-.16,2.69-.17,6.27v3.1c0,2,.05,3.86.15,5.45s.22,2.9.38,3.95A13.66,13.66,0,0,0,6,202a9.73,9.73,0,0,0,.75,1.69,2.38,2.38,0,0,0,.93.88,3.34,3.34,0,0,0,1,.35,6.08,6.08,0,0,0,1.06.07A6,6,0,0,0,13,203.86,13.55,13.55,0,0,0,16.15,201Z"/><path class="cls-1" d="M28.49,189.68v-5.45a40.79,40.79,0,0,1,.58-7.06,18.66,18.66,0,0,1,1.45-4.78,7.89,7.89,0,0,1,2.32-2.86,8.37,8.37,0,0,1,2.92-1.44,15.24,15.24,0,0,1,3.53-.37q5.25,0,7.55,3.72t2.3,11.75c0,1.63,0,3-.07,4H33.41v6a43.15,43.15,0,0,0,.38,6.31A9.38,9.38,0,0,0,35,203.19a4.21,4.21,0,0,0,1.79,1.66,6.16,6.16,0,0,0,2.48.43,4.34,4.34,0,0,0,3.67-2.21c1-1.46,1.5-3.92,1.52-7.35H49c-.13,1.48-.31,2.79-.52,3.94a18,18,0,0,1-1,3.46A9.53,9.53,0,0,1,45.73,206a7.38,7.38,0,0,1-2.66,1.86,9.22,9.22,0,0,1-3.75.72,11,11,0,0,1-6.45-1.65c-1.53-1.09-2.66-3-3.37-5.74A45.55,45.55,0,0,1,28.49,189.68Zm5-4.89H44.28c0-.87,0-1.75,0-2.65s0-1.79,0-2.69-.11-1.77-.18-2.59a12,12,0,0,0-.44-2.3,7.7,7.7,0,0,0-.82-1.85,3.56,3.56,0,0,0-1.34-1.24,4.11,4.11,0,0,0-2-.45,5.91,5.91,0,0,0-2.95.65,5.35,5.35,0,0,0-1.79,1.53,6.8,6.8,0,0,0-.93,3,35.51,35.51,0,0,0-.35,3.67C33.46,180.9,33.45,182.55,33.45,184.79Z"/><path class="cls-1" d="M77.52,207.69v-90H100q22.52,0,22.51,25.73,0,11-5.8,16.76T100,165.88H90.38v41.81Zm12.86-51.45H93.6a41.12,41.12,0,0,0,7.16-.51,13.18,13.18,0,0,0,4.92-1.88,7.63,7.63,0,0,0,3.07-3.95,19.35,19.35,0,0,0,.93-6.53,35.8,35.8,0,0,0-.7-7.81,9.56,9.56,0,0,0-7.47-7.54,34.89,34.89,0,0,0-7.91-.73H90.38Z"/><path class="cls-1" d="M129.83,207.69v-90h35.38v9.65H142.69v29h16.08v9.64H142.69V198h22.52v9.65Z"/><path class="cls-1" d="M173.09,207.69v-90h16.08q14.37,0,21.66,5.58t7.29,18.54a28.62,28.62,0,0,1-2.87,13.47,15.06,15.06,0,0,1-8.39,7.44l14.47,45H208.57l-13-41.81H186v41.81ZM186,156.24h3.21q8,0,12.06-3.4t4-11.08q0-7.68-4-11.08t-12.06-3.39H186Z"/><path class="cls-1" d="M252.24,208.6q-12.17,0-18.57-7.14T226.51,182l12.86-3.21q1,19.29,12.87,19.29,9.64,0,9.64-9.64a17.7,17.7,0,0,0-.77-5.31,14.21,14.21,0,0,0-2.39-4.47,30,30,0,0,0-2.92-3.26c-.87-.82-2.06-1.84-3.56-3l-16.08-12.87a25.1,25.1,0,0,1-7.06-8.82,27.16,27.16,0,0,1-2.64-12.18q0-10,6.18-15.83T249,116.74q10.95,0,17.41,5.35t8,15.15c.1.71.21,1.68.35,2.92l-12.87,3.21c0-.57-.11-1.42-.25-2.56a19.61,19.61,0,0,0-3.84-9.82q-3-3.7-8.77-3.7a9.53,9.53,0,0,0-7.14,2.59,10,10,0,0,0-2.51,7.21q0,7.59,6.43,12.71l16.08,12.87q12.87,10.4,12.87,24.87,0,9.9-6.11,15.48T252.24,208.6Z"/><path class="cls-1" d="M284.75,207.69v-90h12.86v90.05Z"/><path class="cls-1" d="M334.85,208.6q-12.17,0-18.57-7.14T309.12,182L322,178.75q1,19.29,12.87,19.29,9.64,0,9.64-9.64a17.7,17.7,0,0,0-.77-5.31,14.21,14.21,0,0,0-2.39-4.47,31.09,31.09,0,0,0-2.92-3.26c-.87-.82-2.06-1.84-3.56-3l-16.08-12.87a25,25,0,0,1-7.06-8.82,27.16,27.16,0,0,1-2.64-12.18q0-10,6.18-15.83t16.38-5.88q11,0,17.41,5.35t8,15.15c.1.71.21,1.68.35,2.92l-12.87,3.21c0-.57-.11-1.42-.25-2.56A19.61,19.61,0,0,0,340.4,131q-3-3.7-8.77-3.7a9.53,9.53,0,0,0-7.14,2.59,10,10,0,0,0-2.51,7.21q0,7.59,6.43,12.71l16.08,12.87q12.87,10.4,12.87,24.87,0,9.9-6.11,15.48T334.85,208.6Z"/><path class="cls-1" d="M376.35,207.69V129.1H360.27V117.64h45V129.1H389.22v78.59Z"/><path class="cls-1" d="M412.28,207.69v-90h12.86v90.05Z"/><path class="cls-1" d="M438.91,207.69v-90H455q14.37,0,21.66,5.58t7.29,18.54a28.62,28.62,0,0,1-2.87,13.47,15.09,15.09,0,0,1-8.39,7.44l14.47,45H474.39l-13-41.81h-9.64v41.81Zm12.87-51.45H455q8,0,12.06-3.4t4-11.08q0-7.68-4-11.08T455,127.29h-3.21Z"/><path class="cls-1" d="M510.76,189.68v-5.45a40.79,40.79,0,0,1,.58-7.06,18.24,18.24,0,0,1,1.46-4.78,7.87,7.87,0,0,1,2.31-2.86,8.37,8.37,0,0,1,2.92-1.44,15.24,15.24,0,0,1,3.53-.37q5.25,0,7.55,3.72t2.3,11.75c0,1.63,0,3-.06,4H515.68v6a43.15,43.15,0,0,0,.38,6.31,9.54,9.54,0,0,0,1.19,3.71,4.21,4.21,0,0,0,1.79,1.66,6.16,6.16,0,0,0,2.48.43,4.34,4.34,0,0,0,3.67-2.21c1-1.46,1.5-3.92,1.52-7.35h4.57c-.13,1.48-.31,2.79-.52,3.94a18,18,0,0,1-1,3.46A9.53,9.53,0,0,1,528,206a7.38,7.38,0,0,1-2.66,1.86,9.22,9.22,0,0,1-3.75.72,11,11,0,0,1-6.45-1.65c-1.53-1.09-2.65-3-3.37-5.74A45.55,45.55,0,0,1,510.76,189.68Zm5-4.89h10.83c0-.87,0-1.75,0-2.65s0-1.79,0-2.69-.11-1.77-.18-2.59a12,12,0,0,0-.44-2.3,7.7,7.7,0,0,0-.82-1.85,3.56,3.56,0,0,0-1.34-1.24,4.1,4.1,0,0,0-2-.45,5.93,5.93,0,0,0-3,.65A5.35,5.35,0,0,0,517,173.2a6.8,6.8,0,0,0-.93,3,32.69,32.69,0,0,0-.34,3.67C515.73,180.9,515.72,182.55,515.72,184.79Z"/><path class="cls-1" d="M580.8,207.69l-.89-6.81a16.65,16.65,0,0,1-5.57,6A12,12,0,0,1,568,209a10.56,10.56,0,0,1-7.75-3.45,12.38,12.38,0,0,1-3.39-9c0-1,0-1.81,0-2.42s.12-1.4.26-2.37a10.32,10.32,0,0,1,.61-2.44,26.55,26.55,0,0,1,1.17-2.42,10.26,10.26,0,0,1,1.91-2.54c.75-.74,1.69-1.58,2.82-2.54a27,27,0,0,1,3.9-2.72c1.47-.87,3.2-1.79,5.19-2.78s4.19-2,6.6-3v-.47a68.38,68.38,0,0,0-.42-8.2,29.67,29.67,0,0,0-1-5.26,7.65,7.65,0,0,0-1.57-2.89,4.37,4.37,0,0,0-1.81-1.29,6.87,6.87,0,0,0-2.07-.26,5.81,5.81,0,0,0-4.37,1.71,7.57,7.57,0,0,0-1.88,3.29,22.68,22.68,0,0,0-.94,5.71v.33H558q.57-7.38,4.35-11.58a12.7,12.7,0,0,1,9.94-4.21,15.52,15.52,0,0,1,6.06,1.11,11.23,11.23,0,0,1,4.16,2.82,13.49,13.49,0,0,1,2.46,4.11,21,21,0,0,1,1.27,4.65,33.47,33.47,0,0,1,.33,4.84v27.06c0,2,.07,4,.21,6.21s.29,3.82.45,5l.19,1.78Zm-1.41-11.46V176.4q-3.43,2.4-5.4,3.85t-4.16,3.41a20.45,20.45,0,0,0-3.29,3.55,15,15,0,0,0-1.83,3.64,12.57,12.57,0,0,0-.73,4.3q0,4,1.69,6a5.14,5.14,0,0,0,4,2,9.47,9.47,0,0,0,5.43-1.93A13.46,13.46,0,0,0,579.39,196.23Z"/><path class="cls-1" d="M597,225.78V151.4h7v5.31q4.23-6.57,11.37-6.58a11.55,11.55,0,0,1,2.3.21,8.87,8.87,0,0,1,2.31.9,7.81,7.81,0,0,1,2.25,1.83,14.63,14.63,0,0,1,2,3.19,22.65,22.65,0,0,1,1.62,4.8,54,54,0,0,1,1,6.83c.26,2.73.4,5.78.4,9.17v4.46a86.48,86.48,0,0,1-.78,12.52,37.31,37.31,0,0,1-1.9,8.06,11.76,11.76,0,0,1-2.91,4.44,8.41,8.41,0,0,1-3.29,2,13.67,13.67,0,0,1-3.53.4,11.38,11.38,0,0,1-5.8-1.67,16,16,0,0,1-5-4.91v23.4Zm23.26-44.31V177c0-2.95-.07-5.56-.21-7.85s-.32-4.18-.54-5.68a20.52,20.52,0,0,0-.89-3.83,13.31,13.31,0,0,0-1.09-2.42,3.3,3.3,0,0,0-1.33-1.27,5,5,0,0,0-1.41-.52,10.55,10.55,0,0,0-1.53-.09,8.76,8.76,0,0,0-4.61,1.57A19.81,19.81,0,0,0,604,161v37.12q5,5.59,9.44,5.59a6.92,6.92,0,0,0,1.72-.18,5,5,0,0,0,1.55-.85,4.55,4.55,0,0,0,1.41-2.14,32.53,32.53,0,0,0,1.08-3.85,40.41,40.41,0,0,0,.78-6.23Q620.21,186.65,620.22,181.47Z"/><path class="cls-1" d="M637.32,181.75v-7.84a59,59,0,0,1,.85-10.17,26.43,26.43,0,0,1,2.09-6.89,11.31,11.31,0,0,1,3.34-4.11,11.75,11.75,0,0,1,4.2-2.07,21.1,21.1,0,0,1,5.08-.54q7.56,0,10.87,5.36t3.32,16.91c0,2.35,0,4.28-.1,5.78H644.42v8.6a62.33,62.33,0,0,0,.54,9.09,13.69,13.69,0,0,0,1.71,5.34,6.15,6.15,0,0,0,2.59,2.39,9,9,0,0,0,3.57.61,6.22,6.22,0,0,0,5.28-3.17q2.14-3.16,2.19-10.59h6.58q-.28,3.2-.75,5.68a26.87,26.87,0,0,1-1.48,5,14.32,14.32,0,0,1-2.49,4.14,11.24,11.24,0,0,1-3.83,2.68,13.32,13.32,0,0,1-5.41,1q-6,0-9.28-2.37t-4.86-8.27Q637.24,192.43,637.32,181.75Zm7.14-7h15.6c0-1.26,0-2.52,0-3.81s0-2.58,0-3.88-.15-2.54-.26-3.73a15.79,15.79,0,0,0-.64-3.31,11.05,11.05,0,0,0-1.17-2.66,5,5,0,0,0-1.93-1.78,5.82,5.82,0,0,0-2.82-.66,8.54,8.54,0,0,0-4.25.94,7.77,7.77,0,0,0-2.58,2.21A9.93,9.93,0,0,0,645,162.3a48.33,48.33,0,0,0-.49,5.29Q644.47,169.87,644.46,174.71Z"/><path class="cls-1" d="M676.84,207.69V151.4h7v7.94a11.27,11.27,0,0,1,4.74-6.55,13.66,13.66,0,0,1,7.1-2.28v7.09a3.31,3.31,0,0,0-1.08-.18q-10.77,0-10.76,8.27v42Z"/><path class="cls-1" d="M704.61,207.69V155.35h-7.85V151.4h7.85v-9.3a24.16,24.16,0,0,1,.19-2.59,13.94,13.94,0,0,1,.54-2.79,14.13,14.13,0,0,1,1.1-2.49,6.81,6.81,0,0,1,1.81-2.21,9.17,9.17,0,0,1,2.75-1.39,12.14,12.14,0,0,1,3.8-.56,24.12,24.12,0,0,1,5.74.61v5.12a15.62,15.62,0,0,0-3.48-.28,6.65,6.65,0,0,0-2.63.47,5,5,0,0,0-1.62,1,3.75,3.75,0,0,0-.83,1.7,9.24,9.24,0,0,0-.3,1.83c0,.47,0,1.14,0,2v8.83h9v3.95h-9v52.34Z"/><path class="cls-1" d="M725.66,181.75v-7.84a59.06,59.06,0,0,1,.84-10.17,26.82,26.82,0,0,1,2.09-6.89,11.52,11.52,0,0,1,3.34-4.11,11.71,11.71,0,0,1,4.21-2.07,21.07,21.07,0,0,1,5.07-.54q7.56,0,10.88,5.36t3.31,16.91c0,2.35,0,4.28-.09,5.78H732.75v8.6a62.33,62.33,0,0,0,.54,9.09,13.52,13.52,0,0,0,1.72,5.34,6.07,6.07,0,0,0,2.58,2.39,9,9,0,0,0,3.57.61,6.25,6.25,0,0,0,5.29-3.17q2.13-3.16,2.18-10.59h6.58q-.29,3.2-.75,5.68a26.13,26.13,0,0,1-1.48,5,13.9,13.9,0,0,1-2.49,4.14,11.14,11.14,0,0,1-3.83,2.68,13.3,13.3,0,0,1-5.4,1q-6,0-9.28-2.37t-4.87-8.27Q725.57,192.43,725.66,181.75Zm7.14-7h15.6c0-1.26,0-2.52,0-3.81s0-2.58,0-3.88-.15-2.54-.26-3.73a16.47,16.47,0,0,0-.63-3.31,11.06,11.06,0,0,0-1.18-2.66,5,5,0,0,0-1.92-1.78,5.87,5.87,0,0,0-2.82-.66,8.54,8.54,0,0,0-4.25.94A7.71,7.71,0,0,0,734.7,158a9.93,9.93,0,0,0-1.34,4.27,51,51,0,0,0-.49,5.29Q732.8,169.87,732.8,174.71Z"/><path class="cls-1" d="M765.74,138.53v-8.41h7v8.41Zm0,69.16V151.4h7v56.29Z"/><path class="cls-1" d="M783.54,181v-2.91c0-2.51,0-4.42.05-5.76s.14-3.14.33-5.45a30.34,30.34,0,0,1,.82-5.38,32.05,32.05,0,0,1,1.67-4.41,10.16,10.16,0,0,1,2.73-3.79,14.75,14.75,0,0,1,4.08-2.23,16.2,16.2,0,0,1,5.69-.94,14.5,14.5,0,0,1,5.71,1.06,11.2,11.2,0,0,1,4,2.75,13.52,13.52,0,0,1,2.52,4.27,27,27,0,0,1,1.4,5.17,56,56,0,0,1,.62,5.92,1.33,1.33,0,0,0,0,.26c0,.11,0,.2,0,.26h-7.05v-.42q-.27-8-1.85-11.23a5.49,5.49,0,0,0-5.38-3.29,8.67,8.67,0,0,0-3.17.52,4.79,4.79,0,0,0-2.26,1.83,11.85,11.85,0,0,0-1.48,3,23.34,23.34,0,0,0-.89,4.51q-.33,2.85-.42,5.85c-.07,2-.1,4.51-.1,7.52V181q0,13.2,1.65,18.21c1.09,3.34,3.32,5,6.67,5a5.4,5.4,0,0,0,5.28-3.38q1.57-3.37,1.95-11.6v-.47h7.1v.32a57.38,57.38,0,0,1-.54,6.28,28.49,28.49,0,0,1-1.36,5.38,13.58,13.58,0,0,1-2.49,4.39,11.07,11.07,0,0,1-4,2.77,15.09,15.09,0,0,1-5.9,1.06,21.35,21.35,0,0,1-5.08-.56,9.62,9.62,0,0,1-3.83-1.88,27.44,27.44,0,0,1-2.72-2.61,9.22,9.22,0,0,1-1.83-3.69c-.46-1.6-.82-3-1.08-4.09a29.18,29.18,0,0,1-.59-4.84q-.19-3.15-.21-4.95T783.54,181Zm11.28,45.86v-2.77q6.91,0,6.91-3.15a5.3,5.3,0,0,0-1.36-3.17,14.93,14.93,0,0,0-3.48-3.12v-6.3h3v5.4q6.66,3.9,6.67,7.61c0,1.63-1,3-3.13,4A19.89,19.89,0,0,1,794.82,226.86Z"/><path class="cls-1" d="M821.89,181v-2.91c0-2.51,0-4.42,0-5.76s.14-3.14.31-5.45a28.85,28.85,0,0,1,.8-5.38,35.39,35.39,0,0,1,1.62-4.41,9.94,9.94,0,0,1,2.65-3.79,14.74,14.74,0,0,1,4-2.23,16.56,16.56,0,0,1,11,0,14.9,14.9,0,0,1,4,2.23,9.94,9.94,0,0,1,2.65,3.79,35.39,35.39,0,0,1,1.62,4.41,28.85,28.85,0,0,1,.8,5.38c.17,2.31.28,4.12.31,5.45s0,3.25,0,5.76V181c0,2.1,0,3.68,0,4.75s-.06,2.54-.14,4.44a36.5,36.5,0,0,1-.38,4.39c-.17,1-.43,2.32-.77,3.85a13.21,13.21,0,0,1-1.25,3.58,29.64,29.64,0,0,1-1.85,2.79,7.67,7.67,0,0,1-2.59,2.3,16.36,16.36,0,0,1-3.45,1.32,18.52,18.52,0,0,1-8.88,0,16.36,16.36,0,0,1-3.45-1.32,7.67,7.67,0,0,1-2.59-2.3,29.64,29.64,0,0,1-1.85-2.79,13.21,13.21,0,0,1-1.25-3.58c-.34-1.53-.6-2.81-.77-3.85a36.5,36.5,0,0,1-.38-4.39c-.08-1.9-.13-3.38-.14-4.44S821.89,183.1,821.89,181Zm7-2.91V181q0,13.26,1.55,18.23t6.3,5q4.74,0,6.3-5T844.63,181v-2.91c0-3,0-5.48-.1-7.52s-.19-4-.4-5.85a23.61,23.61,0,0,0-.84-4.49,11.73,11.73,0,0,0-1.41-3,4.92,4.92,0,0,0-2.12-1.83,8.49,8.49,0,0,0-6,0,5,5,0,0,0-2.14,1.83,10.53,10.53,0,0,0-1.41,3,24.09,24.09,0,0,0-.82,4.51q-.31,2.85-.4,5.85C829,172.58,828.93,175.08,828.93,178.09Z"/><path class="cls-1" d="M884.09,207.69l-.89-6.81a16.56,16.56,0,0,1-5.57,6,12,12,0,0,1-6.32,2.07,10.58,10.58,0,0,1-7.75-3.45,12.41,12.41,0,0,1-3.38-9c0-1,0-1.81.05-2.42s.11-1.4.25-2.37a10.79,10.79,0,0,1,.62-2.44,22.11,22.11,0,0,1,1.17-2.42,10.48,10.48,0,0,1,1.9-2.54c.75-.74,1.69-1.58,2.82-2.54a28.1,28.1,0,0,1,3.9-2.72c1.47-.87,3.2-1.79,5.19-2.78s4.19-2,6.61-3v-.47a68.16,68.16,0,0,0-.43-8.2,28.92,28.92,0,0,0-1-5.26,7.66,7.66,0,0,0-1.58-2.89,4.35,4.35,0,0,0-1.8-1.29,7,7,0,0,0-2.07-.26,5.77,5.77,0,0,0-4.37,1.71,7.57,7.57,0,0,0-1.88,3.29,22.24,22.24,0,0,0-.94,5.71v.33h-7.33c.38-4.92,1.82-8.78,4.35-11.58a12.7,12.7,0,0,1,9.93-4.21,15.45,15.45,0,0,1,6.06,1.11,11.15,11.15,0,0,1,4.16,2.82,13.51,13.51,0,0,1,2.47,4.11,21,21,0,0,1,1.27,4.65,33.47,33.47,0,0,1,.33,4.84v27.06c0,2,.07,4,.21,6.21s.29,3.82.45,5l.18,1.78Zm-1.4-11.46V176.4q-3.44,2.4-5.41,3.85t-4.16,3.41a21.28,21.28,0,0,0-3.29,3.55,15.7,15.7,0,0,0-1.83,3.64,12.82,12.82,0,0,0-.73,4.3q0,4,1.7,6a5.11,5.11,0,0,0,4,2,9.52,9.52,0,0,0,5.43-1.93A13.55,13.55,0,0,0,882.69,196.23Z"/><path class="cls-1" d="M900.26,207.69V151.4h7v7.94a11.27,11.27,0,0,1,4.74-6.55,13.66,13.66,0,0,1,7.1-2.28v7.09a3.31,3.31,0,0,0-1.08-.18q-10.77,0-10.76,8.27v42Z"/><path class="cls-1" d="M929,189.46l-3.76-62.54h9.11l-2.82,62.54Zm-2.78,18.23v-8.41h8.7v8.41Z"/></g></g></svg>