<svg xmlns="http://www.w3.org/2000/svg" viewBox="0 0 283.09 249.04"><defs><style>.cls-1{font-size:29px;fill:#fff;font-family:MyriadPro-Regular, Myriad Pro;}.cls-2{letter-spacing:-0.01em;}.cls-3{letter-spacing:0em;}.cls-4{letter-spacing:0em;}.cls-5{letter-spacing:-0.01em;}.cls-6{letter-spacing:-0.01em;}.cls-7{letter-spacing:0em;}.cls-8{letter-spacing:-0.01em;}</style></defs><title>Textos - Cravações e Estacas Raiz</title><g id="Camada_2" data-name="Camada 2"><g id="Camada_1-2" data-name="Camada 1"><text class="cls-1" transform="translate(21.02 24.27)"><tspan class="cls-2">A</tspan><tspan x="17.57" y="0">s estacas possuem </tspan><tspan x="0.44" y="34.8">ampla </tspan><tspan class="cls-3" x="82.07" y="34.8">v</tspan><tspan x="95.9" y="34.8">a</tspan><tspan class="cls-4" x="109.88" y="34.8">r</tspan><tspan x="119.48" y="34.8">iedade de </tspan><tspan x="-16.44" y="69.6">dimensõe</tspan><tspan class="cls-5" x="103.44" y="69.6">s</tspan><tspan x="114.61" y="69.6">, </tspan><tspan class="cls-6" x="126.76" y="69.6">f</tspan><tspan x="134.85" y="69.6">o</tspan><tspan class="cls-4" x="150.77" y="69.6">r</tspan><tspan x="160.37" y="69.6">m</tspan><tspan class="cls-3" x="184.55" y="69.6">a</tspan><tspan class="cls-2" x="198.41" y="69.6">t</tspan><tspan x="207.84" y="69.6">os e </tspan><tspan x="-1.35" y="104.4">modelos – f</tspan><tspan class="cls-3" x="139.15" y="104.4">a</tspan><tspan class="cls-2" x="153.01" y="104.4">t</tspan><tspan x="162.44" y="104.4">or que </tspan><tspan x="-5.29" y="139.2">ga</tspan><tspan class="cls-7" x="24.9" y="139.2">r</tspan><tspan x="34.23" y="139.2">a</tspan><tspan class="cls-3" x="48.21" y="139.2">n</tspan><tspan class="cls-2" x="64.19" y="139.2">t</tspan><tspan x="73.61" y="139.2">e ab</tspan><tspan class="cls-7" x="124.77" y="139.2">r</tspan><tspan x="134.11" y="139.2">angência </tspan><tspan x="12.61" y="174">de </tspan><tspan class="cls-3" x="49.65" y="174">a</tspan><tspan class="cls-2" x="63.51" y="174">t</tspan><tspan x="72.93" y="174">endime</tspan><tspan class="cls-3" x="165.41" y="174">n</tspan><tspan class="cls-2" x="181.39" y="174">t</tspan><tspan x="190.81" y="174">o a </tspan><tspan x="-18.18" y="208.8">demandas de p</tspan><tspan class="cls-8" x="168.45" y="208.8">r</tspan><tspan x="177.65" y="208.8">oje</tspan><tspan class="cls-2" x="215.14" y="208.8">t</tspan><tspan x="224.57" y="208.8">o</tspan><tspan class="cls-5" x="240.49" y="208.8">s</tspan><tspan x="251.65" y="208.8">.</tspan></text></g></g></svg>