<svg xmlns="http://www.w3.org/2000/svg" viewBox="0 0 423.65 241.04"><defs><style>.cls-1{font-size:29px;fill:#3d3d3c;font-family:MyriadPro-Regular, Myriad Pro;}.cls-2{letter-spacing:-0.01em;}.cls-3{letter-spacing:0em;}.cls-4{letter-spacing:0em;}.cls-5{letter-spacing:0em;}.cls-6{letter-spacing:-0.01em;}.cls-7{letter-spacing:-0.01em;}.cls-8{letter-spacing:0.03em;}.cls-9{letter-spacing:-0.01em;}.cls-10{letter-spacing:0em;}.cls-11{letter-spacing:-0.01em;}</style></defs><title>Texto - Urbanismo</title><g id="Camada_2" data-name="Camada 2"><g id="Camada_1-2" data-name="Camada 1"><text class="cls-1" transform="translate(3.02 24.27)"><tspan class="cls-2">C</tspan><tspan x="16.5" y="0">onstrução de vias u</tspan><tspan class="cls-3" x="249.42" y="0">r</tspan><tspan x="259.02" y="0">bana</tspan><tspan class="cls-2" x="319.57" y="0">s</tspan><tspan x="330.74" y="0">, ruas e </tspan><tspan x="23.98" y="34.8">locais pa</tspan><tspan class="cls-4" x="128.61" y="34.8">r</tspan><tspan x="137.95" y="34.8">a estacioname</tspan><tspan class="cls-5" x="312.15" y="34.8">n</tspan><tspan class="cls-6" x="328.13" y="34.8">t</tspan><tspan x="337.55" y="34.8">o de </tspan><tspan class="cls-7" x="2.12" y="69.6">v</tspan><tspan x="15.77" y="69.6">eículo</tspan><tspan class="cls-2" x="88.82" y="69.6">s</tspan><tspan x="99.99" y="69.6">. A </tspan><tspan class="cls-6" x="136.04" y="69.6">c</tspan><tspan x="148.85" y="69.6">onstrução de p</tspan><tspan class="cls-4" x="329.95" y="69.6">r</tspan><tspan x="339.29" y="69.6">aças e </tspan><tspan x="59.25" y="104.4">t</tspan><tspan class="cls-4" x="68.84" y="104.4">r</tspan><tspan x="78.18" y="104.4">abalhos de supe</tspan><tspan class="cls-8" x="274.65" y="104.4">r</tspan><tspan x="285" y="104.4">fície e </tspan><tspan x="17.86" y="139.2">p</tspan><tspan class="cls-9" x="34.36" y="139.2">a</tspan><tspan x="48.11" y="139.2">vime</tspan><tspan class="cls-5" x="107.56" y="139.2">n</tspan><tspan x="123.54" y="139.2">tação em vias u</tspan><tspan class="cls-10" x="309.3" y="139.2">r</tspan><tspan x="318.9" y="139.2">bana</tspan><tspan class="cls-11" x="379.45" y="139.2">s</tspan><tspan x="390.62" y="139.2">, </tspan><tspan x="69.21" y="174">rua</tspan><tspan class="cls-2" x="108.65" y="174">s</tspan><tspan x="119.81" y="174">, p</tspan><tspan class="cls-4" x="148.46" y="174">r</tspan><tspan x="157.8" y="174">aças e calçada</tspan><tspan class="cls-11" x="328.11" y="174">s</tspan><tspan x="339.28" y="174">.</tspan></text></g></g></svg>