<svg xmlns="http://www.w3.org/2000/svg" viewBox="0 0 420.52 241.04"><defs><style>.cls-1{font-size:29px;fill:#3d3d3c;font-family:MyriadPro-Regular, Myriad Pro;}.cls-2{letter-spacing:-0.01em;}.cls-3{letter-spacing:-0.01em;}.cls-4{letter-spacing:0em;}.cls-5{letter-spacing:-0.01em;}.cls-6{letter-spacing:0.02em;}.cls-7{letter-spacing:-0.01em;}.cls-8{letter-spacing:0em;}.cls-9{letter-spacing:0em;}.cls-10{letter-spacing:0em;}.cls-11{letter-spacing:0.01em;}</style></defs><title>Texto - Arquitetura </title><g id="Camada_2" data-name="Camada 2"><g id="Camada_1-2" data-name="Camada 1"><text class="cls-1" transform="translate(31.48 24.27)"><tspan class="cls-2">C</tspan><tspan x="16.5" y="0">onsul</tspan><tspan class="cls-3" x="82.82" y="0">t</tspan><tspan x="92.25" y="0">o</tspan><tspan class="cls-4" x="108.17" y="0">r</tspan><tspan x="117.77" y="0">ia e de p</tspan><tspan class="cls-5" x="218.89" y="0">r</tspan><tspan x="228.08" y="0">estação de </tspan><tspan x="-15.04" y="34.8">se</tspan><tspan class="cls-6" x="10.98" y="34.8">r</tspan><tspan x="21.18" y="34.8">vi</tspan><tspan class="cls-3" x="41.92" y="34.8">ç</tspan><tspan x="54.71" y="34.8">os </tspan><tspan class="cls-3" x="88.26" y="34.8">t</tspan><tspan x="97.68" y="34.8">écni</tspan><tspan class="cls-3" x="148.09" y="34.8">c</tspan><tspan x="160.9" y="34.8">os de a</tspan><tspan class="cls-7" x="245.47" y="34.8">r</tspan><tspan x="254.66" y="34.8">qui</tspan><tspan class="cls-3" x="293.75" y="34.8">t</tspan><tspan x="303.17" y="34.8">etu</tspan><tspan class="cls-8" x="343.28" y="34.8">r</tspan><tspan x="352.62" y="34.8">a.</tspan><tspan x="30.74" y="104.4">- </tspan><tspan class="cls-9" x="45.79" y="104.4">A</tspan><tspan class="cls-7" x="63.45" y="104.4">r</tspan><tspan x="72.64" y="104.4">qui</tspan><tspan class="cls-3" x="111.73" y="104.4">t</tspan><tspan x="121.16" y="104.4">etu</tspan><tspan class="cls-8" x="161.26" y="104.4">r</tspan><tspan x="170.6" y="104.4">a </tspan><tspan class="cls-10" x="190.73" y="104.4">R</tspan><tspan x="206.45" y="104.4">esidencial</tspan><tspan x="38.32" y="139.2">- </tspan><tspan class="cls-9" x="53.37" y="139.2">A</tspan><tspan class="cls-7" x="71.03" y="139.2">r</tspan><tspan x="80.23" y="139.2">qui</tspan><tspan class="cls-3" x="119.32" y="139.2">t</tspan><tspan x="128.74" y="139.2">etu</tspan><tspan class="cls-8" x="168.85" y="139.2">r</tspan><tspan x="178.18" y="139.2">a </tspan><tspan class="cls-2" x="198.31" y="139.2">C</tspan><tspan x="214.81" y="139.2">ome</tspan><tspan class="cls-7" x="269.45" y="139.2">r</tspan><tspan x="278.64" y="139.2">cial</tspan><tspan x="24.1" y="174">- </tspan><tspan class="cls-9" x="39.15" y="174">A</tspan><tspan class="cls-7" x="56.81" y="174">r</tspan><tspan x="66" y="174">qui</tspan><tspan class="cls-3" x="105.09" y="174">t</tspan><tspan x="114.52" y="174">etu</tspan><tspan class="cls-8" x="154.62" y="174">r</tspan><tspan x="163.96" y="174">a </tspan><tspan class="cls-11" x="184.09" y="174">I</tspan><tspan x="191.31" y="174">nstitucional</tspan></text></g></g></svg>