<svg xmlns="http://www.w3.org/2000/svg" viewBox="0 0 287.12 302.04"><defs><style>.cls-1{font-size:29px;fill:#fff;font-family:MyriadPro-Regular, Myriad Pro;}.cls-2{letter-spacing:-0.01em;}.cls-3{letter-spacing:0em;}.cls-4{letter-spacing:0em;}.cls-5{letter-spacing:-0.01em;}.cls-6{letter-spacing:-0.02em;}.cls-7{letter-spacing:-0.01em;}.cls-8{letter-spacing:0.02em;}.cls-9{letter-spacing:-0.01em;}.cls-10{letter-spacing:0.01em;}.cls-11{letter-spacing:-0.01em;}.cls-12{letter-spacing:0em;}.cls-13{letter-spacing:-0.01em;}.cls-14{letter-spacing:-0.01em;}</style></defs><title>Textos - Sondagem </title><g id="Camada_2" data-name="Camada 2"><g id="Camada_1-2" data-name="Camada 1"><text class="cls-1" transform="translate(54.59 24.27)">O <tspan class="cls-2" x="26.13" y="0">c</tspan><tspan x="38.95" y="0">onju</tspan><tspan class="cls-3" x="93.99" y="0">n</tspan><tspan class="cls-2" x="109.97" y="0">t</tspan><tspan x="119.39" y="0">o de </tspan><tspan x="5.16" y="34.8">ope</tspan><tspan class="cls-4" x="52.11" y="34.8">r</tspan><tspan x="61.45" y="34.8">a</tspan><tspan class="cls-2" x="75.43" y="34.8">ç</tspan><tspan x="88.22" y="34.8">ões de </tspan><tspan x="-47.62" y="69.6">esc</tspan><tspan class="cls-5" x="-8.61" y="69.6">a</tspan><tspan class="cls-3" x="5.13" y="69.6">v</tspan><tspan x="18.97" y="69.6">açã</tspan><tspan class="cls-6" x="59.88" y="69.6">o</tspan><tspan x="75.11" y="69.6">, t</tspan><tspan class="cls-7" x="96.86" y="69.6">r</tspan><tspan x="106.2" y="69.6">anspo</tspan><tspan class="cls-8" x="180.17" y="69.6">r</tspan><tspan class="cls-2" x="190.35" y="69.6">t</tspan><tspan class="cls-9" x="199.78" y="69.6">e</tspan><tspan x="213.96" y="69.6">, </tspan><tspan x="22.37" y="104.4">depósi</tspan><tspan class="cls-2" x="103.95" y="104.4">t</tspan><tspan x="113.37" y="104.4">o e </tspan><tspan class="cls-2" x="-54.04" y="139.2">c</tspan><tspan x="-41.22" y="139.2">ompa</tspan><tspan class="cls-10" x="29.36" y="139.2">c</tspan><tspan x="42.73" y="139.2">tação de </tspan><tspan class="cls-11" x="152.35" y="139.2">t</tspan><tspan x="161.77" y="139.2">e</tspan><tspan class="cls-12" x="176.3" y="139.2">r</tspan><tspan class="cls-4" x="185.9" y="139.2">r</tspan><tspan x="195.24" y="139.2">a</tspan><tspan class="cls-13" x="209.21" y="139.2">s</tspan><tspan x="220.38" y="139.2">, </tspan><tspan x="7.73" y="174">ne</tspan><tspan class="cls-2" x="38.35" y="174">c</tspan><tspan x="51.17" y="174">essá</tspan><tspan class="cls-12" x="102.64" y="174">r</tspan><tspan x="112.24" y="174">ias à </tspan><tspan class="cls-14" x="-22.78" y="208.8">r</tspan><tspan x="-13.59" y="208.8">ealização de uma </tspan><tspan x="55.3" y="243.6">ob</tspan><tspan class="cls-4" x="87.72" y="243.6">r</tspan><tspan x="97.06" y="243.6">a.</tspan></text></g></g></svg>