<svg id="Camada_1" data-name="Camada 1" xmlns="http://www.w3.org/2000/svg" viewBox="0 0 547.1 496.05"><defs><style>.cls-1{fill:#3d3d3d;}</style></defs><title>triangulo colorido</title><path class="cls-1" d="M275.74,298.49a45.16,45.16,0,0,1-6.75-.68c-1.09-.47-1.11-1.67-.07-3,.44-.55,2.19-3.07,3.92-5.59,2.1-3.11,3.39-4.61,3.93-4.68.7-.09,1.21.68,3.71,5.88a44.67,44.67,0,0,0,3.27,6.17c.22.09.34.53.34,1,0,.82-1,1.42-2.07,1.28-.2,0-3-.22-6.28-.37Zm82.13,69.61c-65.6-12.19-119.58-22.26-120-22.31-.57-.14,1.59-3.55,10.93-17.3,6.4-9.42,11.87-17.3,12.15-17.5s21.56.82,53.46,2.58c29.14,1.62,53.75,2.93,54.74,2.91,1.92,0,3-.69,3-2,0-.4-19.88-57.2-44.19-126.16S283.75,62.65,283.75,62.26c0-.74,7.54-28.09,7.94-28.82.17-.32,182.65,314.39,189.7,327.2l1.16,2.14L480,376.41c-1.39,7.48-2.59,13.67-2.67,13.75s-53.85-9.86-119.46-22.06M43.68,406.4c0-.19,188.41-327.34,189.51-329,.3-.47,5-2.31,13.6-5.38l13.13-4.7.44,1c1.1,2.48,81,228.73,80.87,229s-9.51-.41-21-1.23l-20.89-1.54L274.73,246c-13.53-26.74-24.87-48.89-25.21-49.27a2.39,2.39,0,0,0-1.61-.66c-1,0-10.91,11.49-87.27,100.69-47.41,55.42-86.57,101.12-87,101.61-.64.68-3.69,1.59-15.37,4.58-8,2.06-14.55,3.62-14.55,3.48M100,426.3c-5.8-5-10.61-9.12-10.65-9.23s35.28-41.61,78.54-92.2,78.95-92.29,79.28-92.7c.61-.73,1.07.11,9.67,18.05,5,10.34,9,19,8.92,19.38s-13.49,21-29.75,46c-30.26,46.43-30.54,46.9-29.08,48.11.29.24,59.61,11.49,131.79,25l131.23,24.58L480.5,424l10.61,10.77-93.1.24c-51.22.14-136.83.25-190.29.25l-97.19,0Z"/></svg>